<svg xmlns="http://www.w3.org/2000/svg" viewbox="0 0 128 128" width="128" height="128">
	<g data-id="goalie_mask" fill="black">
		<path d="M 43.190279999999994 38.27232 C 44.19367999999999 36.17388, 45.22491999999999 34.207679999999996, 46.27588 32.354 C 35.907799999999995 35.99292, 27.87828 44.56416, 24.9574 55.24892 L 36.52492 55.24892 C 37.98536 50.688959999999994, 40.207919999999994 44.50616, 43.190279999999994 38.27232 Z M 37.501639999999995 72.65008 L 24.84024 72.65008 C 28.153200000000002 85.36367999999999, 38.7034 95.15292000000001, 51.83228 97.35112 C 47.47183999999999 91.38292, 42.68684 83.35687999999999, 37.501639999999995 72.65008 Z" fill="white" />
		<path d="M 108.12244 66.18423999999999 L 101.89323999999999 55.246599999999994 C 101.5058 22.378, 73.6948 18.41312, 73.6948 18.41312 C 58.448919999999994 18.39804, 48.345319999999994 41.94488, 43.8538 55.25008 L 47.63887999999999 55.25008 C 50.19784 55.25008, 52.278879999999994 57.33112, 52.278879999999994 59.890080000000005 L 52.278879999999994 68.01008 C 52.278879999999994 70.56788, 50.19784 72.65008, 47.63887999999999 72.65008 L 45.259719999999994 72.65008 C 63.345279999999995 108.69708, 74.05555999999999 106.43856, 74.05555999999999 106.43856 C 93.00184 105.03612, 103.44068 74.9724, 103.44068 74.9724 C 110.15823999999999 67.5774, 108.12244 66.18423999999999, 108.12244 66.18423999999999 Z" fill="#e4dac7" />
		<path d="M 115.31212 65.99632 C 115.14971999999999 64.61708, 114.65787999999999 63.335280000000004, 113.89923999999998 62.26576 L 108.80335999999998 53.31752 C 108.04123999999999 34.625280000000004, 99.17999999999999 24.29316, 91.74672 18.87828 C 83.58147999999998 12.9298, 75.56472 11.64916, 74.67732 11.521560000000001 L 74.18896 11.451960000000001 L 73.68087999999999 11.451960000000001 C 66.02835999999999 11.451960000000001, 59.002239999999986 15.326360000000001, 52.67443999999999 22.95336 C 35.00647999999999 24.98104, 20.685119999999987 38.153999999999996, 16.93483999999999 55.24892 L 16.84087999999999 55.24892 C 14.281919999999992 55.24892, 12.20087999999999 57.32995999999999, 12.20087999999999 59.88892 L 12.20087999999999 68.00891999999999 C 12.20087999999999 70.56672, 14.281919999999992 72.64892, 16.84087999999999 72.64892 L 16.846679999999992 72.64892 C 20.78371999999999 91.44323999999999, 37.483079999999994 105.60335999999998, 57.42927999999999 105.60335999999998 C 57.87935999999999 105.60335999999998, 58.321319999999986 105.57435999999998, 58.76559999999999 105.55811999999999 C 64.844 111.59359999999998, 69.84244 113.42407999999999, 73.65768 113.42407999999999 C 74.05672 113.42407999999999, 74.44068 113.40088, 74.80608 113.35795999999999 C 84.72059999999999 112.52855999999998, 94.01335999999999 105.82723999999999, 101.69488 93.95927999999999 C 105.83028 87.56768, 108.46 81.31644, 109.504 78.62176 C 113.99435999999999 73.46556, 115.74015999999999 69.64336, 115.31212 65.99632 Z M 46.2782 32.35052 C 45.226079999999996 34.20536, 44.19484 36.17272, 43.19028 38.27116 C 40.20908 44.504999999999995, 37.986520000000006 50.687799999999996, 36.52492 55.24892 L 24.942320000000002 55.24892 C 27.860879999999998 44.55952, 35.90432 35.98944, 46.2782 32.35052 Z M 24.83212 72.65008 L 37.50512 72.65008 C 42.68916 83.35571999999999, 47.47416 91.38756, 51.8346 97.35343999999999 C 38.7034 95.15523999999999, 28.143919999999998 85.37064, 24.83212 72.65008 Z M 103.44068 74.9724 C 103.44068 74.9724, 93.00184 105.03612, 74.05556 106.43856 C 74.05556 106.43856, 73.92215999999999 106.46524, 73.65884 106.46524 C 72.87816 106.46524, 70.9572 106.21352, 68.01892 104.22876 C 68.02123999999999 104.22644000000001, 68.02355999999999 104.22644000000001, 68.02588 104.22644000000001 C 66.09332 102.92144, 63.724599999999995 100.86476, 60.948719999999994 97.63996 L 60.9464 97.63996 C 56.648599999999995 92.64616000000001, 51.37872 84.83008000000001, 45.264359999999996 72.64892 L 47.637719999999995 72.64892 C 50.19668 72.64892, 52.277719999999995 70.56672, 52.277719999999995 68.00892000000002 L 52.277719999999995 59.88892000000001 C 52.277719999999995 57.329960000000014, 50.19668 55.24892000000001, 47.637719999999995 55.24892000000001 L 43.85264 55.24892000000001 C 46.2434 48.16944000000001, 50.22335999999999 38.194600000000015, 55.719440000000006 30.40752000000002 C 56.19388 29.735880000000016, 56.678760000000004 29.079320000000017, 57.1764 28.444800000000015 C 57.19844 28.416960000000017, 57.21932 28.387960000000017, 57.242520000000006 28.361280000000015 C 58.83984000000001 26.327800000000018, 60.553160000000005 24.499640000000017, 62.38132 22.978880000000018 C 62.38016000000001 22.978880000000018, 62.379000000000005 22.978880000000018, 62.377840000000006 22.978880000000018 C 65.75692000000001 20.16588000000002, 69.52692 18.41196000000002, 73.67972 18.41196000000002 L 73.6948 18.41196000000002 C 73.6948 18.41196000000002, 101.50580000000001 22.37684000000002, 101.89324 55.246600000000015 L 108.12244000000001 66.18424000000002 C 108.12244 66.18423999999999, 110.15823999999999 67.5774, 103.44068 74.9724 Z" />
		<path d="M 89.13323999999999 49.51388 C 93.31412392177909 49.51388, 96.70339999999999 53.97353578971545, 96.70339999999999 59.4748 C 96.70339999999999 64.97606421028453, 93.31412392177909 69.43572, 89.13323999999999 69.43572 C 84.9523560782209 69.43572, 81.56308 64.97606421028453, 81.56308 59.4748 C 81.56308 53.97353578971545, 84.9523560782209 49.51388, 89.13323999999999 49.51388 Z" />
		<circle cx="85.37715999999999" cy="41.69316" r="2.53692" />
		<circle cx="95.39259999999999" cy="40.82316" r="2.53692" />
		<circle cx="89.72484" cy="76.28204" r="2.53692" />
		<circle cx="92.26176" cy="86.3172" r="2.53692" />
		<circle cx="82.84140000000001" cy="83.77796000000001" r="2.53692" />
		<circle cx="75.99508" cy="91.79356" r="2.53692" />
		<circle cx="59.96619999999999" cy="83.77796000000001" r="2.53692" />
		<circle cx="54.89352" cy="76.28204" r="2.53692" />
		<circle cx="64.82776" cy="76.28204" r="2.53692" />
		<circle cx="53.58852" cy="50.70752" r="2.53692" />
		<circle cx="58.661199999999994" cy="42.29752" r="2.53692" />
		<circle cx="62.503119999999996" cy="50.70752" r="2.53692" />
		<circle cx="79.68155999999999" cy="32.99084" r="2.53692" />
		<circle cx="70.9224" cy="26.323159999999998" r="2.53692" />
		<path d="M 101.65312 50.70752 C 101.65312 50.70752, 99.28439999999999 47.08368, 90.60992 46.5524 C 90.60992 46.5524, 95.39260000000002 45.63368, 101.13808000000002 46.5524 C 101.13808 46.5524, 101.39444 48.529039999999995, 101.65312 50.70752 Z" fill="#be1e2d" />
		<path d="M 81.49347999999999 71.2024 L 72.02323999999999 87.425 L 65.64207999999999 87.425 L 81.49347999999999 71.2024 Z" fill="#be1e2d" />
	</g>
</svg>