<svg xmlns="http://www.w3.org/2000/svg" viewbox="0 0 128 128" width="128" height="128">
	<g class="hat" data-id="forward_cap">
		<path d="M 84.6945 54.8275 C 80.2745 37.7, 66.02 26.65, 48.339999999999996 26.65 C 27.345000000000002 26.65, 10.77 43.68296725, 10.77 64.22 C 10.408664999999996 68.66345915000001, 11.062957599999997 72.59046339999998, 12.26041295 76.27522955 Z" data-id="back" fill="#FEFEFE" stroke="black" stroke-width="7.91" stroke-linejoin="bevel" />
		<path d="M 81 55.5 C 77 40.1, 64 30.2, 48 30.5 C 54 30.5, 57.5 43, 59 56 Z" data-id="front" fill="gray" />
		<path d="M 18.419 80.54049999999998 C 47.233999999999995 72.96837, 75.93599999999999 65.39849999999998, 104.63913 57.71336999999999 C 108.70712999999998 56.58336999999999, 112.77399999999999 55.56636999999999, 116.95499999999998 54.43636999999999 C 125.42999999999999 52.17636999999999, 121.81399999999998 39.06836999999999, 113.33899999999998 41.32836999999999 C 84.63812999999999 49.01236999999998, 55.82312999999999 56.69636999999999, 27.119999999999997 64.26737 C 23.051999999999996 65.39737, 18.983999999999998 66.41436999999999, 14.804129999999999 67.54436999999999 C 6.441 69.8055, 10.056999999999999 82.80049999999999, 18.419 80.54049999999998" />
	</g>
</svg>