<svg xmlns="http://www.w3.org/2000/svg" viewbox="0 0 128 128" width="128" height="128">
	<g class="hat" data-id="elf_hat" stroke="hsl(0deg 0% 0.39%)" stroke-linecap="round" stroke-linejoin="round" stroke-width="4">
		<circle cx="14.5333" cy="51.239219999999996" r="11.693039999999998" fill="#d71e2f" />
		<path d="M 109.10349999999998 56.50391 C 109.10349999999998 56.50391, 103.06275999999998 38.15427, 70.78405999999998 20.87865 C 70.78405999999998 20.87865, 60.272939999999984 15.16825, 47.26019999999998 29.103949999999998 C 47.26019999999998 29.103949999999998, 32.917799999999986 42.518409999999996, 19.945729999999987 47.05602 C 19.945729999999987 47.05602, 13.426079999999986 51.67912, 22.556909999999988 53.0453 C 22.556909999999988 53.0453, 29.906559999999985 53.613020000000006, 37.057009999999984 51.59529 C 37.057009999999984 51.59529, 43.77419999999998 49.532740000000004, 46.02847999999998 50.90224 C 46.02847999999998 50.90224, 46.88503999999998 58.826249999999995, 50.03571999999998 65.02884 C 50.03572 65.02884, 79.41274 46.24345, 109.10349999999998 56.50391 Z" fill="#47b649" />
		<path d="M 51.848440000000004 63.827 C 46.85848 50.07140999999999, 47.476 43.222249999999995, 50.27227 35.03762 C 50.27227 35.86845, 44.408319999999996 42.60805, 44.18007 50.58352 Z" fill="hsl(0deg 0% 0.39%)" stroke="none" />
		<path d="M 44.724549999999994 78.48397 C 44.724549999999994 78.48397, 40.42847 68.28576, 34.95462 65.02884 L 50.03572 65.02884 L 55.91792999999999 45.881569999999996 L 76.47537 53.41216 L 88.07710999999999 38.55433000000001 L 105.98850999999999 49.341840000000005 L 121.66056999999998 39.979440000000004 C 121.66056999999998 39.979440000000004, 120.03210999999999 47.7748, 118.40364999999997 60.99338 L 117.78197999999998 70.10262999999999 C 117.78197999999998 70.10262999999999, 117.18271999999997 75.80140999999999, 110.87305999999997 74.78466 C 110.87305999999997 74.78466, 103.45534999999997 70.59233, 90.44011999999996 71.22977 C 90.44011999999996 71.22977, 68.13137999999998 71.47379, 54.086949999999966 81.67781 C 54.08612 81.67614999999999, 47.78227 85.77468999999999, 44.724549999999994 78.48397 Z" fill="#d71e2f" />
		<!-- <path d="M 76.56584 78.27813 C 72.8408 68.54638, 60.6896 66.28878, 60.6896 66.28878 C 52.84278 64.25610999999999, 57.07329 70.66205000000001, 57.07329 70.66205000000001 C 59.20805000000001 73.91565, 58.82708 78.5595, 58.82708 78.5595 C 59.71019999999999 85.03018, 64.37563 87.24462, 64.37563 87.24462" fill="white" /> -->
	</g>
</svg>