<svg xmlns="http://www.w3.org/2000/svg" viewbox="0 0 128 128" width="128" height="128">
	<g fill="black">
		<path d="M 117.26289000000001 43.77078 C 117.65412000000002 41.96529, 117.44352000000002 40.42143, 116.63190000000002 39.171600000000005 C 114.48783000000002 35.86275, 108.80082000000002 35.56386, 99.72963000000001 38.28384 C 95.59134000000002 39.52314, 90.90792 41.35536, 85.91589 43.65252 C 77.48703 21.516840000000002, 76.79124 3.94632, 76.71591000000001 3.25701 C 76.65597000000001 2.88117, 76.53366000000001 2.5385400000000002, 76.33764000000001 2.23884 C 73.34145000000001 -2.39112, 55.048410000000004 3.98034, 35.48610000000001 16.46973 C 15.924600000000002 28.955070000000003, 2.49804 42.83037, 5.50152 47.45790000000001 C 5.719410000000001 47.793240000000004, 6.02559 48.06459000000001, 6.3981900000000005 48.28491 L 6.36498 48.30597000000001 C 6.36498 48.30597000000001, 21.75822 54.554310000000015, 38.66778 74.12310000000001 C 29.663009999999996 82.00278, 23.813190000000002 89.18343000000002, 22.73832 94.13982000000001 C 22.345470000000002 95.94288000000002, 22.5585 97.49322000000001, 23.3685 98.739 C 25.513379999999998 102.04866000000001, 31.200390000000002 102.34674000000001, 40.26996 99.62919000000001 C 50.61608999999999 96.52770000000002, 64.32534 89.78607000000001, 77.88231 81.12798000000002 C 99.60003 67.26645, 115.42581000000001 52.254720000000006, 117.26289000000001 43.77078 Z" fill="#6a4c49" />
		<path d="M 85.50036 59.72211 L 86.79393 58.875659999999996 C 86.71455 58.75497, 78.83324999999999 46.40085, 69.94836 10.008359999999996 C 74.55564 5.252039999999996, 76.33845 2.239649999999996, 76.33845 2.239649999999996 C 75.67506 1.215, 74.26161 0.7290000000000001, 72.25362 0.7290000000000001 C 65.18313 0.7290000000000001, 50.72058 6.744060000000001, 35.48529 16.46973 C 15.924600000000002 28.955070000000003, 2.49804 42.83037, 5.50152 47.45790000000001 C 11.880270000000001 45.19800000000001, 17.720370000000003 42.863580000000006, 23.07366 40.502430000000004 C 47.10474 63.58176, 57.183569999999996 79.03494, 57.2832 79.19046 L 58.582440000000005 78.35211 C 58.48281 78.19902, 48.44529 62.80335, 24.597269999999998 39.82608 C 35.3808 34.97174999999999, 44.10207 30.017789999999994, 51.09075 25.366769999999995 C 63.406800000000004 53.73783000000001, 74.56212000000001 69.82524, 74.67309 69.98562000000001 L 75.93912 69.09948000000001 C 75.82815000000001 68.94072000000001, 64.69308 52.884090000000015, 52.393229999999996 24.488730000000004 C 59.648399999999995 19.547730000000005, 64.93932 14.985810000000004, 68.67260999999999 11.294640000000003 C 77.53968 47.29104, 85.17474 59.22558, 85.50036 59.72211 Z M 60.67224 16.3944 C 51.17418 24.17688, 34.14879 35.45694, 6.676830000000001 45.39564 C 6.687360000000001 45.33732, 6.69789 45.28143, 6.710040000000001 45.22797 C 7.7792400000000015 40.292640000000006, 18.293040000000005 29.276639999999993, 36.31716 17.7714 C 50.83803 8.50257, 65.27871 2.27448, 72.25362 2.27448 C 73.08063 2.27448, 73.76832 2.37168, 74.26566 2.5506900000000003 C 72.71451 4.71906, 68.59971 9.89901, 60.67224 16.3944 Z" fill="#3a2a2a" />
		<path d="M 63.671670000000006 6.169770000000001 C 69.35139000000001 4.23225, 72.25767 4.163400000000001, 73.29042 4.3650899999999995 C 74.09394 8.80227, 74.86344 24.639390000000002, 82.58436 44.92179000000001 L 83.94030000000001 48.48498000000001 L 87.40548000000001 46.89171000000001 C 91.25865000000002 45.11862000000001, 94.87206000000002 43.65252, 98.14446000000001 42.533910000000006 C 99.03870000000002 42.229350000000004, 99.91674000000002 41.94666, 100.75428000000001 41.69637000000001 C 108.9531 39.237210000000005, 112.82004 39.843900000000005, 113.64462 41.113980000000005 C 113.91678000000002 41.535180000000004, 113.96376000000001 42.17508000000001, 113.78231999999998 43.01586 C 113.43726 44.60508000000001, 111.65444999999998 49.234230000000004, 102.57434999999998 57.847770000000004 C 95.63588999999999 64.43145000000001, 86.43105 71.44362000000001, 75.96503999999999 78.12612 C 63.96407999999998 85.78872000000001, 51.54596999999999 92.07108000000001, 41.892389999999985 95.36535 C 40.987619999999986 95.67477000000001, 40.09742999999999 95.95989, 39.247739999999986 96.21585 C 31.047299999999982 98.67258000000001, 27.179549999999985 98.0667, 26.359019999999987 96.80067 C 26.086859999999987 96.37866, 26.039069999999985 95.73714, 26.220509999999987 94.89797999999999 C 27.08396999999999 90.91844999999999, 32.615459999999985 84.15576, 41.014349999999986 76.80582 L 43.68005999999998 74.47302 L 41.365079999999985 71.79273 C 29.001240000000003 57.48732, 19.48374 53.43327, 12.717 48.44205 L 8.70588 45.51147 C 9.02016 44.30781, 10.66041 41.195789999999995, 15.9813 35.99478 C 21.39858 30.701429999999995, 29.006099999999996 24.833789999999997, 37.40256 19.472399999999997 C 46.817190000000004 13.46382, 56.14434 8.739090000000001, 63.671670000000006 6.169770000000001 L 63.671670000000006 6.169770000000001 M 62.52147 2.79774 C 55.0719 5.33952, 45.44262 10.11204, 35.48610000000001 16.46973 C 15.924600000000002 28.955070000000003, 2.49804 42.83037, 5.50152 47.45790000000001 C 5.719410000000001 47.793240000000004, 6.02559 48.06459000000001, 6.3981900000000005 48.28491 L 6.36498 48.30597000000001 C 6.36498 48.30597000000001, 21.75822 54.554310000000015, 38.66778 74.12310000000001 C 29.663009999999996 82.00278, 23.813190000000002 89.18343000000002, 22.73832 94.13982000000001 C 22.345470000000002 95.94288000000002, 22.5585 97.49322000000001, 23.3685 98.739 C 25.513379999999998 102.04866000000001, 31.200390000000002 102.34674000000001, 40.26996 99.62919000000001 C 41.169869999999996 99.36027000000001, 42.09408 99.06219000000002, 43.04259 98.739 C 52.99911 95.34024000000001, 65.50227 89.03358000000001, 77.88150000000002 81.12798000000001 C 99.59922 67.26645, 115.42500000000001 52.254720000000006, 117.26127000000001 43.77078000000001 C 117.6525 41.96529, 117.44190000000002 40.42143000000001, 116.63028000000001 39.171600000000005 C 114.48621000000001 35.862750000000005, 108.7992 35.563860000000005, 99.72801 38.28384000000001 C 98.84025 38.549520000000015, 97.92657 38.84193000000001, 96.99264000000001 39.16188000000001 C 93.56553000000001 40.329900000000016, 89.83548 41.84865000000001, 85.91427000000002 43.651710000000016 C 77.48703 21.516840000000002, 76.79124 3.94632, 76.71591000000001 3.25701 C 76.65597000000001 2.88117, 76.53366000000001 2.5385400000000002, 76.33764000000001 2.23884 C 74.86587000000002 -0.03402, 69.70617 0.34506000000000003, 62.52147 2.79774 L 62.52147 2.79774 Z" />
		<path d="M 69.96132 53.19351000000001 C 70.65225 53.886060000000015, 70.65063 55.00872000000001, 69.95808 55.69884000000001 L 58.423680000000004 67.19193000000001 C 57.730320000000006 67.88367000000001, 56.608470000000004 67.88286000000001, 55.918350000000004 67.18950000000001 L 39.18699 50.399820000000005 C 38.49525 49.70727000000001, 38.49768 48.584610000000005, 39.19023 47.894490000000005 L 50.724630000000005 36.39978000000001 C 51.41799 35.70966000000001, 52.539030000000004 35.71128, 53.22996 36.40545 L 69.96132 53.19351000000001 Z" fill="white" />
		<path d="M 57.17223 68.86863 C 56.38734000000001 68.86863, 55.651050000000005 68.56245, 55.097010000000004 68.0076 L 38.366460000000004 51.21792 C 37.813230000000004 50.663880000000006, 37.51029 49.92678, 37.511100000000006 49.143510000000006 C 37.51191 48.360240000000005, 37.818090000000005 47.62476, 38.37294000000001 47.072340000000004 L 49.906530000000004 35.57763 C 51.018660000000004 34.471979999999995, 52.94646 34.47765, 54.05211 35.58573 L 70.78266 52.3746 C 71.33589 52.930260000000004, 71.63883 53.66655, 71.63883 54.44901000000001 C 71.63721000000001 55.23309000000001, 71.33103000000001 55.967760000000006, 70.77699 56.52018000000001 L 59.24259 68.01327000000002 C 58.68855 68.56407000000002, 57.953070000000004 68.86863, 57.17223 68.86863 Z M 51.97527 37.04211 C 51.81246 37.04211, 51.65856000000001 37.106100000000005, 51.541920000000005 37.22112 L 40.00914 48.715830000000004 C 39.892500000000005 48.83166000000001, 39.82932 48.984750000000005, 39.82932 49.14837 C 39.82932 49.31199, 39.892500000000005 49.4667, 40.00752 49.58172 L 56.73888 66.37140000000001 C 56.96892000000001 66.60225, 57.373110000000004 66.60306, 57.60396 66.37140000000001 L 69.13836 54.878310000000006 C 69.25500000000001 54.76329000000001, 69.31899 54.60939000000001, 69.31899 54.44577 C 69.31899 54.28215, 69.25581 54.12744, 69.13917000000001 54.011610000000005 L 52.41024 37.22274 C 52.294410000000006 37.10691, 52.139700000000005 37.04211, 51.97527 37.04211 Z"  />
		<path d="M 45.060300000000005 77.29101000000001 C 45.060300000000005 77.29101000000001, 37.24056 82.92618, 23.617980000000003 85.51818 C 23.617980000000003 85.51818, 14.544360000000003 87.17463000000001, 12.723480000000002 95.7582 C 12.723480000000002 95.7582, 11.109960000000001 100.56474, 11.357820000000002 108.88668 C 11.357820000000002 108.88668, 3.875850000000002 98.79894, 6.150330000000002 87.62418000000001 C 6.150330000000002 87.62418000000001, 7.2381600000000015 78.65262000000001, 19.802880000000002 77.59395 C 19.802880000000002 77.59395, 32.14809 77.42061000000001, 41.689890000000005 74.43090000000001 L 45.060300000000005 77.29101000000001 Z" fill="#b7494f" />
		<path d="M 13.04991 113.76207000000001 L 10.116900000000001 109.80684000000001 C 9.79533 109.37349, 2.257470000000001 99.04032, 4.63401 87.33015 C 4.8211200000000005 86.23584000000001, 6.77403 77.14116, 19.674090000000003 76.05414 L 19.78263 76.04847000000001 C 19.903320000000004 76.04685, 32.020920000000004 75.84111, 41.229000000000006 72.9567 L 42.04224000000001 72.70155 L 47.56644000000001 77.39064 L 45.96426 78.54570000000001 C 45.63297000000001 78.78303000000001, 37.707930000000005 84.4101, 23.90715 87.03612000000001 C 23.571 87.10011, 15.813630000000002 88.64235000000001, 14.235750000000003 96.07815000000001 L 14.189580000000005 96.24987 C 14.175000000000004 96.29199000000001, 12.668400000000004 100.94301, 12.904110000000005 108.84132 L 13.04991 113.76207000000001 Z M 19.88145 79.13943 C 8.74719 80.10090000000001, 7.695 87.73272, 7.6852800000000006 87.80886000000001 L 7.665840000000001 87.93117000000001 C 6.467040000000001 93.81825, 8.192340000000002 99.44208, 9.924120000000002 103.22397000000001 C 10.249740000000001 98.65071, 11.058120000000002 95.89671, 11.229030000000002 95.35644 C 13.279140000000002 85.93776000000001, 22.92948 84.07233000000001, 23.34015 83.99700000000001 C 32.886810000000004 82.18098, 39.51990000000001 78.82353, 42.45534000000001 77.10795000000002 L 41.33187 76.15458000000001 C 32.06385 78.87132000000001, 20.886660000000003 79.12323, 19.88145 79.13943 Z" />
		<path d="M 52.85088000000001 78.22899 L 48.96450000000001 75.43205999999999 C 40.23594000000001 79.73396999999999, 28.857870000000005 81.12069, 28.857870000000005 81.12069 C 12.234240000000003 83.13192, 11.433960000000003 93.03498, 11.433960000000003 93.03498 C 9.740250000000003 104.97438, 18.399150000000002 114.45381, 18.399150000000002 114.45381 C 17.543790000000005 108.91017000000001, 17.628840000000004 106.80822, 18.101070000000004 104.72408999999999 C 20.612880000000004 111.70710000000001, 25.804980000000004 116.30303999999998, 25.804980000000004 116.30303999999998 C 23.933880000000006 108.60641999999999, 24.488730000000004 103.81526999999998, 24.488730000000004 103.81526999999998 C 24.490350000000003 95.47064999999999, 32.60817000000001 92.14074, 32.60817000000001 92.14074 C 44.774370000000005 87.04340999999998, 50.940900000000006 80.25966, 50.940900000000006 80.25966 L 51.410700000000006 79.84169999999999 C 52.41834 78.75387, 52.85088000000001 78.22899, 52.85088000000001 78.22899 Z" fill="#b7494f" />
		<path d="M 28.469880000000003 120.72645 L 24.780330000000003 117.46133999999999 C 24.623190000000005 117.32121, 21.966390000000004 114.94385999999999, 19.492650000000005 111.02264999999998 C 19.593900000000005 111.93389999999998, 19.736460000000005 112.98608999999999, 19.926810000000007 114.21890999999998 L 20.705220000000004 119.27006999999998 L 17.258670000000006 115.49546999999997 C 16.885260000000006 115.08803999999999, 8.143740000000005 105.35345999999998, 9.899010000000006 92.85191999999998 C 9.999450000000005 91.88396999999998, 11.474460000000006 81.66662999999998, 28.671570000000006 79.58735999999998 C 28.780920000000005 79.57277999999997, 39.89898000000001 78.17714999999997, 48.281670000000005 74.04614999999997 L 49.11354000000001 73.63466999999999 L 55.09215000000002 77.93738999999998 L 54.04401000000002 79.20989999999998 C 54.02538000000002 79.23338999999997, 53.57178000000002 79.78256999999996, 52.54470000000002 80.89145999999997 L 52.436160000000015 80.99756999999997 L 52.02387000000002 81.36368999999996 C 51.31026000000002 82.12913999999996, 45.05139000000001 88.60346999999997, 33.205950000000016 93.56552999999997 C 32.90625000000002 93.68864999999997, 26.036640000000016 96.63866999999996, 26.034210000000016 103.81526999999996 L 26.024490000000018 103.99265999999996 C 26.019630000000017 104.03558999999996, 25.536060000000017 108.65015999999996, 27.306720000000016 115.93772999999995 L 28.469880000000003 120.72645 Z M 17.7633 99.21771000000001 L 19.55583 104.20164000000001 C 20.527020000000004 106.89894000000002, 21.9267 109.22931000000001, 23.24052 111.03561000000002 C 22.69215 106.88679, 22.892220000000002 104.27049000000002, 22.94406 103.73346000000004 C 22.996710000000004 94.51890000000003, 31.65237 90.86175000000003, 32.02254 90.71109000000003 C 43.72623 85.80816000000003, 49.73886 79.28604000000003, 49.797990000000006 79.22124000000002 L 49.915440000000004 79.10298000000003 L 50.328540000000004 78.73686000000004 C 50.41035 78.64776000000003, 50.488110000000006 78.56433000000004, 50.561820000000004 78.48414000000004 L 48.80736 77.22054000000003 C 40.089330000000004 81.27216000000003, 29.50668 82.59813000000003, 29.0466 82.65402000000003 C 14.01624 84.47328000000003, 13.01103 92.81871000000004, 12.974580000000001 93.17268000000003 L 12.965670000000003 93.25125000000003 C 12.096540000000001 99.37647000000003, 14.168520000000001 104.85855000000004, 16.21215 108.55458000000003 C 16.161120000000004 106.81065000000004, 16.318260000000002 105.60537000000004, 16.595280000000002 104.38389000000004 L 17.7633 99.21771000000001 Z" />
		<path d="M 83.43 36.683279999999996 C 56.48211 61.037549999999996, 33.234300000000005 68.13558, 33.234300000000005 68.13558 C 33.234300000000005 68.13558, 45.11376 80.97732, 47.146860000000004 83.83986 C 47.146860000000004 83.83986, 51.682860000000005 84.37608000000002, 70.35255000000001 72.92916000000001 L 73.84041 70.53561 C 92.40237 57.71493, 91.40607000000001 55.31895000000001, 91.40607000000001 55.31895000000001 C 89.58276000000001 52.26849, 83.43 36.683279999999996, 83.43 36.683279999999996 Z" fill="#b7494f" />
		<path d="M 82.18827 41.904540000000004 C 83.85282000000001 46.02501, 86.36382 52.121880000000004, 87.93441 55.34487 C 86.74938 56.77371, 83.09385 60.388740000000006, 72.09080999999999 67.98735 L 68.66937 70.33554000000001 C 56.49992999999999 77.79078000000001, 50.723009999999995 79.90974, 48.46148999999999 80.51157 C 46.135169999999995 77.69763, 41.69312999999999 72.78741000000001, 38.637809999999995 69.44535 C 46.35792 66.33657000000001, 63.090090000000004 58.39533000000001, 82.18827 41.904540000000004 M 83.43 36.683279999999996 C 56.48211 61.037549999999996, 33.234300000000005 68.13558, 33.234300000000005 68.13558 C 33.234300000000005 68.13558, 45.11376 80.97732, 47.146860000000004 83.83986 C 47.146860000000004 83.83986, 47.18088000000001 83.8431, 47.252970000000005 83.8431 C 48.02895 83.8431, 53.28423000000001 83.39274000000002, 70.35255000000001 72.92916000000001 L 73.84041 70.53561 C 92.40237 57.71493, 91.40607000000001 55.31895000000001, 91.40607000000001 55.31895000000001 C 89.58276000000001 52.26849, 83.43 36.683279999999996, 83.43 36.683279999999996 L 83.43 36.683279999999996 Z" />
		<path d="M 47.873430000000006 82.54791 L 42.10380000000001 87.22080000000001 C 42.10380000000001 87.22080000000001, 35.370270000000005 79.10379, 26.101440000000004 77.2335 C 26.101440000000004 77.2335, 31.51629000000001 72.90486000000001, 39.63006000000001 72.90486000000001 L 47.873430000000006 82.54791 Z" fill="#b7494f" />
		<path d="M 41.891580000000005 89.38107000000001 L 40.91472 88.20738 C 40.850730000000006 88.13124, 34.398270000000004 80.48565, 25.795260000000003 78.74658 L 22.5504 78.09129 L 25.13511 76.02498 C 25.374060000000004 75.83463, 31.0716 71.35937999999999, 39.62925 71.35937999999999 L 40.34124 71.35937999999999 L 50.07825 82.75040999999999 L 41.891580000000005 89.38107000000001 Z M 29.940030000000004 76.73049 C 35.85951 78.92721, 40.34043 83.08899, 42.26661 85.10022000000001 L 45.66699 82.34703 L 38.92779 74.46249 C 35.15238000000001 74.58885, 32.03145000000001 75.70989, 29.940030000000004 76.73049 Z" />
	</g>
</svg>