<svg xmlns="http://www.w3.org/2000/svg" viewbox="0 0 128 128" width="128" height="128">
	<g fill="black">
		<path d="M 109.66428 63.97947 C 110.52936000000003 62.54172, 110.80152000000001 61.14933, 110.47023000000002 59.837129999999995 C 109.59624000000001 56.35979999999999, 104.79132000000001 54.432809999999996, 96.18912000000002 54.10880999999999 C 92.26305000000002 53.960579999999986, 87.69546000000001 54.16145999999999, 82.72530000000002 54.67256999999999 C 81.97524000000001 33.15086999999999, 85.07592000000001 10.956059999999992, 85.21362000000002 10.34207999999999 C 85.27275000000002 10.00106999999999, 85.26708000000002 9.67139999999999, 85.18851000000001 9.35549999999999 C 83.96703000000001 4.490639999999989, 66.35763 4.600799999999989, 45.85896000000001 9.600929999999991 C 25.361100000000008 14.600249999999992, 9.736200000000009 22.594949999999994, 10.960110000000006 27.458999999999996 C 11.049210000000006 27.811349999999997, 11.233890000000004 28.133729999999993, 11.489040000000006 28.433429999999998 L 11.454210000000007 28.442339999999998 C 11.454210000000007 28.442339999999998, 24.324300000000008 45.211769999999994, 33.12576000000001 67.01292000000001 C 23.064750000000007 71.14797, 15.922170000000007 75.60945000000001, 13.540770000000009 79.55658000000001 C 12.674880000000009 80.99433000000002, 12.403530000000009 82.38834, 12.733200000000009 83.69973 C 13.60719000000001 87.17706000000001, 18.41292000000001 89.10405, 27.01512000000001 89.42805000000001 C 36.82665000000001 89.79741000000001, 50.60232000000001 88.0227, 64.80810000000002 84.55671000000001 C 87.56424 79.0074, 105.58998000000001 70.73811, 109.66428 63.97947 Z" fill="#109d49" />
		<path d="M 85.18851000000001 9.355500000000001 C 83.96703000000001 4.490640000000001, 66.35763 4.6008000000000004, 45.85896000000001 9.600930000000002 C 25.361100000000008 14.600250000000003, 9.736200000000009 22.594950000000004, 10.960110000000006 27.459000000000007 C 63.319320000000005 29.42973, 85.18851000000001 9.355500000000001, 85.18851000000001 9.355500000000001 Z" fill="#107349" />
		<path d="M 73.13490000000002 9.01773 C 78.59025000000001 9.01773, 81.11340000000001 9.812339999999999, 81.94203000000002 10.28943 C 81.32886 14.342670000000002, 78.80004000000001 35.06814, 79.48692000000001 54.78516 L 79.60761000000001 58.25034000000001 L 83.05659 57.89556 C 86.89275 57.5019, 90.43164000000002 57.30183, 93.57525000000001 57.30183 C 94.43385 57.30183, 95.27220000000001 57.317220000000006, 96.06681 57.34719 C 103.84362 57.6396, 106.9929 59.29767, 107.32824 60.63173999999999 C 107.44002 61.074, 107.29098 61.63856999999999, 106.88841 62.30843999999998 C 106.12538999999998 63.57446999999999, 103.23207 67.03397999999999, 92.89079999999998 71.77733999999998 C 84.98438999999999 75.40451999999998, 75.00842999999999 78.73523999999999, 64.04021999999999 81.41066999999998 C 51.46577999999999 84.47814, 38.93507999999999 86.23745999999998, 29.662199999999988 86.23745999999998 C 28.79306999999999 86.23745999999998, 27.943379999999987 86.22125999999999, 27.13742999999999 86.19128999999998 C 19.35980999999999 85.89806999999999, 16.210529999999988 84.24080999999998, 15.87599999999999 82.90997999999999 C 15.76421999999999 82.46528999999998, 15.91325999999999 81.89990999999999, 16.31582999999999 81.23084999999999 C 18.226619999999993 78.06293999999998, 24.97229999999999 73.86795, 34.357769999999995 70.00910999999999 L 37.33613999999999 68.78519999999999 L 36.13085999999999 65.79872999999999 C 29.695410000000003 49.86036, 21.23739 36.70515, 16.878780000000003 30.423600000000004 L 14.29002 26.723520000000004 C 14.91372 25.780680000000004, 17.23842 23.584770000000006, 23.3442 20.672820000000005 C 29.56014 17.708220000000004, 37.82943 14.894280000000006, 46.62765 12.748590000000005 C 56.491020000000006 10.34289, 65.90484000000001 9.01773, 73.13490000000002 9.01773 L 73.13490000000002 9.01773 M 73.13490000000002 5.77773 C 65.97855000000001 5.77773, 56.293380000000006 7.055910000000001, 45.85896000000001 9.60093 C 25.361100000000008 14.600249999999999, 9.736200000000009 22.594950000000004, 10.960110000000006 27.459 C 11.049210000000006 27.81135, 11.233890000000004 28.13373, 11.489040000000006 28.433430000000005 L 11.454210000000007 28.442340000000005 C 11.454210000000007 28.442340000000005, 24.324300000000008 45.21177000000001, 33.12576000000001 67.01292000000001 C 23.064750000000007 71.14797, 15.922170000000007 75.60945000000001, 13.540770000000009 79.55658000000001 C 12.674880000000009 80.99433000000002, 12.403530000000009 82.38834, 12.733200000000009 83.69973 C 13.60719000000001 87.17706000000001, 18.41292000000001 89.10405, 27.01512000000001 89.42805000000001 C 27.868050000000007 89.46045000000001, 28.751760000000008 89.47665, 29.662200000000013 89.47665 C 39.225870000000015 89.47665, 51.837570000000014 87.72138000000001, 64.80891000000001 84.55752 C 87.56505000000001 79.0074, 105.59079000000001 70.73810999999999, 109.66428 63.98028 C 110.52936000000003 62.54253, 110.80152000000001 61.15014, 110.47023000000002 59.83794 C 109.59624000000001 56.360609999999994, 104.79132000000001 54.433620000000005, 96.18912000000002 54.10962 C 95.34672 54.07803, 94.47435000000002 54.06183, 93.57525000000001 54.06183 C 90.28422 54.06183, 86.62869000000002 54.27162, 82.72449 54.673379999999995 C 81.97443000000001 33.15167999999999, 85.07511000000001 10.956869999999995, 85.21281000000002 10.342889999999993 C 85.27194 10.001879999999995, 85.26627000000002 9.672209999999994, 85.1877 9.356309999999993 C 84.58911 6.9668100000000015, 80.03772000000001 5.77773, 73.13490000000002 5.77773 L 73.13490000000002 5.77773 Z" />
		<path d="M 82.63458 47.9439 C 52.298460000000006 60.984899999999996, 30.209760000000006 60.264810000000004, 30.209760000000006 60.264810000000004 C 30.209760000000006 60.264810000000004, 36.65979000000001 74.8035, 37.56780000000001 77.86206000000001 C 37.56780000000001 77.86206000000001, 46.62684000000001 79.54848, 61.63857000000001 75.02544000000002 L 62.42103000000001 74.79135000000001 C 83.43243000000001 69.32223000000002, 84.02454000000002 66.32037000000001, 84.02454000000002 66.32037000000001 C 83.35143000000001 63.16218, 82.63458 47.9439, 82.63458 47.9439 Z" />
		<path d="M 79.95753 48.11724 L 79.95834 48.11157000000001 C 72.90729 50.95143000000001, 66.31632 53.107650000000014, 60.34419 54.73818000000001 C 61.38585 58.08024000000001, 63.39789 65.02680000000001, 65.40588 74.61396 C 75.49848 71.83809, 80.50023 69.71832, 82.98207 68.32026 C 80.53668 56.60118000000001, 79.95753 48.11724, 79.95753 48.11724 Z M 64.08153 56.73402000000001 C 64.08153 56.73402000000001, 71.34966 55.03788000000001, 77.63040000000001 52.16805 C 77.63040000000001 52.16805, 78.24195 58.609170000000006, 79.83036 66.36654 C 79.83036 66.36654, 74.7144 69.12702, 67.58559 70.64901 C 67.58478000000001 70.64982, 66.15270000000001 63.52587000000001, 64.08153 56.73402000000001 Z" fill="#fae345" />
		<path d="M 72.41319 8.00523 C 78.12126 8.00523, 80.88255000000001 8.84925, 81.98415000000001 9.60336 C 77.42142000000001 13.092030000000001, 57.879360000000005 26.022870000000005, 19.046340000000008 26.022870000000005 C 17.38584000000001 26.022870000000005, 15.692940000000009 25.999380000000002, 13.994370000000007 25.9524 C 17.12502000000001 21.03327, 32.93865000000001 14.93478, 46.33038000000001 11.66805 C 56.016360000000006 9.306090000000001, 65.27952 8.00523, 72.41319 8.00523 M 72.41319 6.43383 C 65.47311 6.43383, 56.07873000000001 7.67313, 45.95859000000001 10.14201 C 26.07795 14.990670000000001, 10.92285 22.7448, 12.110310000000002 27.462240000000005 C 14.48523 27.551340000000003, 16.80102 27.59427, 19.046340000000004 27.59427 C 64.83726 27.59427, 84.10392 9.903870000000001, 84.10392 9.903870000000001 C 83.52315 7.587270000000001, 79.10946 6.43383, 72.41319 6.43383 L 72.41319 6.43383 Z" />
	</g>
</svg>