<svg xmlns="http://www.w3.org/2000/svg" viewbox="0 0 128 128" width="128" height="128">
	<g data-id="devil_head" fill="black">
		<path d="M 90.11399999999999 63.745999999999995 C 88.77839999999999 62.3, 86.69879999999999 60.67759999999999, 85.5516 60.03439999999999 L 85.07759999999999 59.057599999999994 C 84.7284 57.907999999999994, 84.71519999999998 56.97319999999999, 85.0452 56.35039999999999 C 85.34039999999999 55.79119999999999, 85.83239999999999 55.63399999999999, 85.85879999999999 55.62679999999999 C 87.198 55.24159999999999, 89.53919999999998 53.52199999999999, 88.8312 49.77199999999999 C 88.788 49.4828, 88.52279999999999 48.10039999999999, 87.0744 45.874399999999994 C 86.3532 42.52759999999999, 86.4864 38.58919999999999, 86.48759999999999 38.5496 L 86.48759999999999 38.520799999999994 L 86.48759999999999 38.49199999999999 C 86.27519999999998 30.644, 82.25399999999998 24.991999999999997, 74.53319999999998 21.688399999999994 C 68.2764 19.0088, 61.056 18.6104, 57.3096 18.6104 C 55.4292 18.6104, 54.2652 18.7064, 54.174 18.7148 C 46.518 19.7132, 36.0828 22.8704, 29.8512 32.239999999999995 C 26.1084 37.86919999999999, 25.683600000000002 43.0244, 25.6656 43.28 C 25.4268 50.661199999999994, 26.2536 54.450799999999994, 27.7632 58.484 C 29.529600000000002 64.316, 32.8104 67.4888, 37.5288 70.7156 L 37.6152 70.7672 C 37.7424 70.83439999999999, 40.47 72.2696, 43.526399999999995 72.88759999999999 C 40.102799999999995 83.7356, 44.4432 86.5688, 45.4368 87.0608 C 48.6204 89.8256, 62.82959999999999 96.68599999999999, 64.3188 97.40239999999999 C 68.508 100.92439999999999, 70.4652 101.3984, 71.1612 101.4236 C 71.7396 101.5388, 72.294 101.59759999999999, 72.81479999999999 101.59759999999999 C 76.52519999999998 101.59759999999999, 77.39759999999998 98.77159999999998, 77.4348 98.65159999999999 L 77.46719999999999 98.4704 C 77.646 96.3296, 78.30239999999999 95.5856, 78.3612 95.51839999999999 C 81.77159999999999 93.18199999999999, 80.994 89.98039999999999, 80.95920000000001 89.8436 L 80.92679999999999 89.72 L 80.86319999999999 89.6108 C 79.44359999999999 87.17479999999999, 73.0176 86.6096, 71.78639999999999 86.5244 C 64.9296 85.73119999999999, 60.01679999999999 81.9632, 59.968799999999995 81.92599999999999 L 59.92199999999999 81.8912 C 57.73919999999999 80.39479999999999, 59.32079999999999 76.84879999999998, 59.495999999999995 76.47559999999999 C 60.121199999999995 75.48919999999998, 61.43879999999999 74.99, 63.4128 74.99 C 69.7308 74.99, 79.9344 80.06479999999999, 80.0724 80.13319999999999 C 80.8176 80.4656, 81.5328 80.63479999999998, 82.2012 80.63479999999998 C 83.12760000000002 80.63479999999998, 83.7264 80.3168, 84.0192 80.1104 C 84.7236 79.8308, 85.37519999999999 79.1648, 85.7484 78.33319999999999 C 86.154 77.4284, 86.17320000000001 76.4504, 85.7844 75.62119999999999 L 84.63480000000001 73.37119999999999 C 84.86040000000001 72.73400000000001, 85.45800000000001 72.2036, 87.426 72.2036 C 88.044 72.2036, 88.6812 72.25399999999999, 89.2992 72.30199999999999 C 89.8608 72.34639999999999, 90.38879999999999 72.3872, 90.8616 72.3872 L 90.8616 72.3872 C 92.22720000000001 72.3872, 92.9988 71.9384, 93.156 71.0552 L 93.16800000000002 70.9652 C 93.36 68.5748, 92.3316 66.14599999999999, 90.11399999999999 63.745999999999995 Z" fill="#be1e2d" />
		<path d="M 74.0592 30.0104 Q 87.1392 27.2108, 93.8232 20.4152 C 74.0592 30.0104, 87.1392 27.2108, 93.8232 20.4152 Q 100.61880000000001 13.8464, 105.174 6.9344 C 93.8232 20.4152, 100.61880000000001 13.8464, 105.174 6.9344 Q 106.36200000000001 5.57, 106.34880000000001 6.793999999999999 C 105.174 6.9344, 106.36200000000001 5.57, 106.34880000000001 6.793999999999999 Q 105.402 17.718799999999998, 98.89320000000002 26.550799999999995 C 106.34880000000001 6.793999999999999, 105.402 17.718799999999998, 98.89320000000002 26.550799999999995 Q 92.11560000000001 36.550399999999996, 76.73040000000002 42.597199999999994 C 98.89320000000002 26.550799999999995, 92.11560000000001 36.550399999999996, 76.73040000000002 42.597199999999994 Q 73.63560000000001 42.2756, 73.3872 36.84559999999999 C 76.73040000000002 42.597199999999994, 73.63560000000001 42.2756, 73.3872 36.84559999999999 C 73.386 36.845600000000005, 72.8352 33.0068, 74.0592 30.0104 Z" fill="#404041" />
		<path d="M 68.8596 61.315999999999995 Q 69.9264 56.4932, 77.2656 57.02 C 68.8596 61.315999999999995, 69.9264 56.4932, 77.2656 57.02 Q 83.00880000000001 56.980399999999996, 80.1792 61.9508 C 77.2656 57.02, 83.00880000000001 56.980399999999996, 80.1792 61.9508 Q 79.3512 62.7344, 75.4776 61.773199999999996 C 80.1792 61.9508, 79.3512 62.7344, 75.4776 61.773199999999996 Q 71.0376 61.00279999999999, 68.8596 61.315999999999995 C 75.4776 61.773199999999996, 71.0376 61.00279999999999, 68.8596 61.315999999999995 Z" fill="#ffffff" />
		<path d="M 52.2984 52.1084 C 51.8052 49.332800000000006, 49.583999999999996 48.284, 47.8812 47.595200000000006 L 47.8056 47.565200000000004 C 41.0892 45.17960000000001, 39.324000000000005 40.540400000000005, 39.2556 40.34960000000001 L 38.61000000000001 38.51840000000001 L 37.1028 39.74360000000001 C 33.8952 42.3524, 32.5392 46.55000000000001, 33.181200000000004 51.8828 C 33.6312 55.611200000000004, 34.897200000000005 58.629200000000004, 35.031600000000005 58.9436 C 37.0416 63.99080000000001, 39.612 66.9668, 42.672000000000004 67.7912 C 43.266 67.952, 43.833600000000004 68.0168, 44.364 68.0168 C 46.6788 68.0168, 48.295199999999994 66.7724, 48.376799999999996 66.7076 Q 50.5932 65.282, 49.2984 62.2016 C 48.376799999999996 66.7076, 50.5932 65.282, 49.2984 62.2016 Q 49.474799999999995 63.8108, 47.006400000000006 64.91239999999999 C 49.2984 62.2016, 49.474799999999995 63.8108, 47.006400000000006 64.91239999999999 C 46.150800000000004 65.3348, 44.860800000000005 65.8868, 43.0056 65.3672 C 40.8648 64.7696, 39.2076 62.04319999999999, 37.5492 57.8732 C 37.5048 57.7724, 33.507600000000004 48.38839999999999, 37.621199999999995 43.096399999999996 C 38.88119999999999 45.09439999999999, 41.59199999999999 48.245599999999996, 46.849199999999996 50.12479999999999 C 47.66279999999999 50.47879999999999, 50.0676 50.73079999999999, 50.57039999999999 52.413199999999996 Q 50.950799999999994 53.70799999999999, 50.48039999999999 55.837999999999994 C 50.57039999999999 52.413199999999996, 50.950799999999994 53.70799999999999, 50.48039999999999 55.837999999999994 C 50.480399999999996 55.8392, 52.734 54.2504, 52.2984 52.1084 Z" />
		<path d="M 47.8752 59.2748 Q 47.4768 56.653999999999996, 47.8752 55.5164 C 47.8752 59.2748, 47.4768 56.653999999999996, 47.8752 55.5164 Q 48.558 53.242399999999996, 46.224000000000004 53.267599999999995 C 47.8752 55.5164, 48.558 53.242399999999996, 46.224000000000004 53.267599999999995 Q 42.9216 53.498, 40.928399999999996 50.5784 C 46.224000000000004 53.267599999999995, 42.9216 53.498, 40.928399999999996 50.5784 Q 41.2128 54.0344, 45.4272 55.4588 C 40.928399999999996 50.5784, 41.2128 54.0344, 45.4272 55.4588 Q 46.5096 55.8992, 46.111200000000004 56.9876 C 45.4272 55.4588, 46.5096 55.8992, 46.111200000000004 56.9876 Q 46.05480000000001 58.9892, 46.2252 60.129200000000004 C 46.111200000000004 56.9876, 46.05480000000001 58.9892, 46.2252 60.129200000000004 Q 45.3144 60.7556, 45.0288 61.496 C 46.2252 60.129200000000004, 45.3144 60.7556, 45.0288 61.496 Q 46.695600000000006 60.58520000000001, 47.97 61.04 C 45.0288 61.496, 46.695600000000006 60.58520000000001, 47.97 61.04 C 47.9676 61.04, 48.3876 60.1856, 47.8752 59.2748 Z" />
		<path d="M 56.260799999999996 73.72040000000001 Q 57.85679999999999 71.36840000000001, 54.7572 69.554 C 56.260799999999996 73.72040000000001, 57.85679999999999 71.36840000000001, 54.7572 69.554 Q 50.5236 67.5416, 51.7536 64.8356 C 54.7572 69.554, 50.5236 67.5416, 51.7536 64.8356 Q 52.9356 62.03119999999999, 55.5528 61.5416 C 51.7536 64.8356, 52.9356 62.03119999999999, 55.5528 61.5416 Q 51.90239999999999 65.4008, 54.477599999999995 66.8912 C 55.5528 61.5416, 51.90239999999999 65.4008, 54.477599999999995 66.8912 Q 59.353199999999994 69.03559999999999, 57.60959999999999 72.1652 C 54.477599999999995 66.8912, 59.353199999999994 69.03559999999999, 57.60959999999999 72.1652 L 56.260799999999996 73.72040000000001 Z" />
		<path d="M 82.50359999999999 81.314 Q 76.146 78.0968, 68.2644 75.8852 C 82.50359999999999 81.314, 76.146 78.0968, 68.2644 75.8852 C 65.3796 75.116, 63.556799999999996 75.50479999999999, 63.556799999999996 75.50479999999999 C 61.7772 78.11959999999999, 61.53359999999999 79.3412, 60.861599999999996 81.5036 Q 64.9044 86.34559999999999, 76.8072 86.972 C 60.861599999999996 81.5036, 64.9044 86.34559999999999, 76.8072 86.972 L 76.7304 85.7 C 80.8716 84.104, 82.50359999999999 81.314, 82.50359999999999 81.314 Z" fill="#ffffff" />
		<path d="M 108.18 4.4216000000000015 C 107.62440000000001 3.8588000000000022, 106.8792 3.5504000000000033, 106.086 3.5504000000000033 L 106.086 3.5504000000000033 C 104.76960000000001 3.5504000000000033, 103.74239999999999 4.414400000000004, 103.1112 5.139200000000002 L 102.99 5.277200000000002 L 102.8892 5.429600000000004 C 98.55 12.014000000000003, 91.9872 18.386000000000003, 91.9212 18.449600000000004 L 91.896 18.474800000000002 L 91.87079999999999 18.500000000000004 C 89.5452 20.864, 86.3064 22.7084, 83.19479999999999 24.0908 C 81.1596 22.1156, 78.62279999999998 20.465600000000002, 75.60719999999999 19.174400000000002 C 68.9028 16.3064, 61.2636 15.876800000000001, 57.30719999999999 15.876800000000001 C 55.31279999999999 15.876800000000001, 54.03719999999999 15.982400000000002, 53.98319999999999 15.986 L 53.904 15.9932 L 53.8212 16.004 C 38.9292 17.9468, 31.3296 25.083199999999998, 27.5748 30.728 C 23.439599999999995 36.9464, 22.9596 42.7928, 22.941599999999998 43.0376 L 22.936799999999995 43.1156 L 22.934399999999997 43.192400000000006 C 22.6848 50.94200000000001, 23.603999999999996 55.1432, 25.173599999999997 59.3624 C 27.1728 65.8868, 30.944399999999998 69.524, 35.9856 72.9728 L 36.1536 73.0868 L 36.3324 73.18279999999999 C 36.5844 73.31599999999999, 38.1084 74.108, 40.168800000000005 74.80279999999999 C 37.8768 84.7088, 42.0252 88.2704, 43.902 89.3384 C 46.0968 91.10239999999999, 51.2208 93.88399999999999, 55.7076 96.1844 L 56.64 103.448 L 58.5444 101.24839999999999 C 58.418400000000005 102.85879999999999, 59.4084 109.10719999999999, 59.4084 109.10719999999999 L 62.454 107.32039999999999 C 60.936 111.77599999999998, 62.9808 114.79039999999999, 62.9808 114.79039999999999 L 65.50919999999999 113.25919999999999 C 65.004 116.6, 69.1608 122.02999999999999, 69.1608 122.02999999999999 C 70.02959999999999 120.35959999999999, 71.5788 118.96759999999998, 71.5788 118.96759999999998 C 72.2124 120.63919999999997, 74.0508 124.25719999999998, 74.0508 124.25719999999998 C 77.5344 121.05559999999997, 77.646 113.25919999999998, 77.646 113.25919999999998 C 78.27359999999999 114.09439999999996, 79.83239999999999 117.43519999999998, 79.83239999999999 117.43519999999998 C 80.8764 113.67679999999997, 80.3544 109.22119999999998, 80.3544 109.22119999999998 L 82.5648 111.17119999999998 C 82.8264 105.21319999999997, 80.808 100.72639999999998, 80.0856 99.32359999999997 L 80.1612 99.06799999999998 L 80.19239999999999 98.69719999999998 C 80.24879999999999 98.01799999999999, 80.3616 97.60159999999999, 80.43719999999999 97.38439999999999 C 83.89319999999998 94.68799999999999, 84.07799999999999 90.9968, 83.60759999999998 89.16319999999999 L 83.48279999999998 88.6724 L 83.2272 88.23559999999999 C 82.51199999999999 87.00919999999999, 81.2928 86.0648, 79.4964 85.3436 C 80.5812 84.6764, 81.40919999999998 83.9684, 82.008 83.3588 C 82.07400000000001 83.36120000000001, 82.13879999999999 83.3708, 82.2036 83.3708 C 83.60520000000001 83.3708, 84.642 82.94120000000001, 85.3152 82.5284 C 86.5596 81.9428, 87.6264 80.8352, 88.2444 79.45400000000001 C 88.8996 77.9948, 88.97760000000001 76.394, 88.4784 74.98400000000001 C 88.68119999999999 74.99720000000002, 88.8864 75.01400000000001, 89.0904 75.0296 C 89.6784 75.0752, 90.2856 75.1232, 90.86399999999999 75.1232 C 94.8936 75.1232, 95.69879999999999 72.38, 95.85 71.5412 L 95.88119999999999 71.3648 L 95.89559999999999 71.186 C 96.14519999999999 68.048, 94.8396 64.83440000000002, 92.124 61.89320000000001 C 91.0884 60.77240000000001, 89.86559999999999 59.70080000000001, 88.49159999999999 58.708400000000005 C 88.1892 58.48760000000001, 87.91559999999998 58.2944, 87.66599999999998 58.12520000000001 L 87.64319999999998 58.079600000000006 C 87.62159999999999 58.004000000000005, 87.60839999999999 57.936800000000005, 87.59399999999998 57.8756 C 89.90759999999999 56.7464, 92.37479999999998 53.894, 91.52279999999999 49.304 C 91.41599999999998 48.6488, 91.03079999999999 47.078, 89.65559999999999 44.8424 C 89.268 42.764, 89.19719999999998 40.3868, 89.2092 39.156800000000004 C 96.9216 33.9944, 100.67519999999998 28.779200000000003, 101.11799999999998 28.1396 C 107.98199999999999 18.802400000000006, 109.03079999999997 7.509200000000003, 109.07159999999998 7.0340000000000025 L 109.08119999999998 6.929600000000002 L 109.08119999999998 6.826400000000003 C 109.09559999999999 5.6036, 108.5988 4.843999999999999, 108.18 4.4216000000000015 Z M 77.4252 84.40639999999999 C 77.226 83.17399999999999, 77.0496 81.6968, 77.1348 81.0308 L 77.268 79.97479999999999 C 78.942 80.65999999999998, 80.268 81.26119999999999, 81.1032 81.6524 C 80.4552 82.3928, 79.26719999999999 83.50999999999999, 77.4252 84.40639999999999 Z M 87.99239999999999 50.4788 Q 84.4392 53.7128, 81.0204 52.1564 C 87.99239999999999 50.4788, 84.4392 53.7128, 81.0204 52.1564 Q 73.12319999999998 48.0704, 67.428 51.4808 C 81.0204 52.1564, 73.12319999999998 48.0704, 67.428 51.4808 Q 73.26119999999999 50.9804, 75.81119999999999 52.688 C 67.428 51.4808, 73.26119999999999 50.9804, 75.81119999999999 52.688 Q 80.4072 56.27, 84.88799999999999 55.1432 C 75.81119999999999 52.688, 80.4072 56.27, 84.88799999999999 55.1432 C 84.37199999999999 55.5524, 83.79719999999999 56.3576, 83.91839999999998 57.858799999999995 L 83.91119999999998 57.854 Q 84.28079999999999 59.294, 83.35199999999999 58.956799999999994 C 83.91119999999998 57.854, 84.28079999999999 59.294, 83.35199999999999 58.956799999999994 C 82.08959999999998 56.063599999999994, 78.7272 55.22599999999999, 77.3376 55.1996 C 76.9416 55.172, 76.54799999999999 55.1588, 76.16399999999999 55.1588 C 68.58959999999999 55.1588, 67.26239999999999 60.40279999999999, 67.17119999999998 60.626 L 65.96039999999999 63.5744 L 69.11519999999999 63.12199999999999 C 69.37559999999998 63.084799999999994, 69.71279999999999 63.06679999999999, 70.12079999999999 63.06679999999999 C 72.0876 63.06679999999999, 74.75159999999998 63.502399999999994, 75.12119999999999 63.56479999999999 C 76.13999999999999 63.794, 77.2452 63.91039999999999, 78.4032 63.90919999999999 C 82.9644 63.90559999999999, 83.60159999999999 61.578799999999994, 83.7048 61.545199999999994 L 86.2788 61.60879999999999 C 88.52640000000001 63.21919999999999, 92.5896 66.73399999999998, 92.2572 70.89919999999998 C 92.1768 71.3552, 91.6332 71.47999999999999, 90.85919999999999 71.47999999999999 C 89.92439999999999 71.47999999999999, 88.6464 71.29759999999999, 87.42479999999999 71.29759999999999 C 86.4936 71.29759999999999, 85.5972 71.40559999999999, 84.90239999999999 71.7764 C 84.3756 72.0512, 80.874 73.74799999999999, 80.03039999999999 70.7996 Q 79.30799999999998 69.29839999999999, 80.856 68.57719999999999 C 80.03039999999999 70.7996, 79.30799999999998 69.29839999999999, 80.856 68.57719999999999 L 80.85719999999999 68.57719999999999 Q 83.1348 67.7996, 84.972 69.05239999999999 C 80.85719999999999 68.57719999999999, 83.1348 67.7996, 84.972 69.05239999999999 Q 83.89800000000001 65.76319999999998, 78.5124 68.14159999999998 C 84.972 69.05239999999999, 83.89800000000001 65.76319999999998, 78.5124 68.14159999999998 L 78.552 68.14999999999999 C 62.346000000000004 68.33599999999998, 59.4048 73.304, 59.4048 73.304 C 63.7044 70.11439999999999, 77.964 70.4564, 77.964 70.4564 L 77.9652 70.4564 C 78.02159999999999 71.71039999999999, 78.6372 75.3068, 83.91600000000001 74.3 L 83.99040000000001 74.1188 L 84.972 76.0376 C 85.5744 77.3288, 84.5868 78.9992, 83.5752 79.30159999999998 C 83.5752 79.30279999999999, 83.12759999999999 79.72519999999999, 82.2 79.72519999999999 C 81.73559999999999 79.72519999999999, 81.1512 79.61959999999999, 80.442 79.30159999999998 Q 70.0212 74.07919999999999, 63.41159999999999 74.07919999999999 C 80.442 79.30159999999998, 70.0212 74.07919999999999, 63.41159999999999 74.07919999999999 C 61.29119999999999 74.07919999999999, 59.562 74.61679999999998, 58.694399999999995 76.03639999999999 Q 56.416799999999995 80.59159999999999, 59.40599999999999 82.64239999999998 C 58.694399999999995 76.03639999999999, 56.416799999999995 80.59159999999999, 59.40599999999999 82.64239999999998 Q 64.4652 86.59279999999998, 71.6796 87.42919999999998 C 59.40599999999999 82.64239999999998, 64.4652 86.59279999999998, 71.6796 87.42919999999998 Q 78.82679999999999 87.92479999999998, 80.0748 90.06919999999998 C 71.6796 87.42919999999998, 78.82679999999999 87.92479999999998, 80.0748 90.06919999999998 Q 80.49839999999999 91.74319999999999, 79.2468 93.43279999999999 C 80.0748 90.06919999999998, 80.49839999999999 91.74319999999999, 79.2468 93.43279999999999 C 79.1544 93.46039999999999, 76.4688 94.26799999999999, 72.4392 92.59039999999999 Q 75.17399999999999 94.77079999999998, 77.25840000000001 95.56039999999999 C 72.4392 92.59039999999999, 75.17399999999999 94.77079999999998, 77.25840000000001 95.56039999999999 C 77.0868 95.89879999999998, 76.9056 96.368, 76.76520000000001 97.00039999999998 L 76.14 96.13399999999999 L 75.12 98.6396 C 73.85640000000001 97.2476, 71.5788 95.0192, 71.5788 95.0192 L 70.314 95.8544 L 67.2792 91.958 L 65.8884 94.0448 C 64.2444 93.2096, 60.5232 88.61599999999999, 60.5232 88.61599999999999 L 59.6916 91.39999999999999 L 55.644000000000005 87.9212 L 57.162000000000006 92.09719999999999 L 55.1424 91.7768 C 51.21 89.71519999999998, 47.275200000000005 87.50959999999999, 45.939600000000006 86.288 Q 40.54800000000001 84.28399999999999, 44.72520000000001 72.16279999999999 C 45.939600000000006 86.288, 40.54800000000001 84.28399999999999, 44.72520000000001 72.16279999999999 C 41.3832 71.73679999999999, 38.04360000000001 69.96079999999999, 38.04360000000001 69.96079999999999 C 33.08400000000001 66.56959999999998, 30.231600000000014 63.51079999999999, 28.62720000000001 58.19119999999999 C 27.21480000000001 54.42319999999999, 26.336400000000012 50.749999999999986, 26.57760000000001 43.30879999999999 C 26.57760000000001 43.30879999999999, 28.09680000000001 23.03359999999999, 54.29400000000001 19.617199999999993 Q 55.44600000000001 19.519999999999992, 57.310800000000015 19.519999999999992 C 54.29400000000001 19.617199999999993, 55.44600000000001 19.519999999999992, 57.310800000000015 19.519999999999992 C 62.38560000000001 19.519999999999992, 72.72240000000002 20.24479999999999, 79.39320000000002 25.597999999999992 C 77.97480000000002 26.09839999999999, 76.69680000000001 26.489599999999992, 75.69720000000002 26.76919999999999 C 75.29040000000002 26.347999999999992, 73.77840000000002 25.006399999999992, 71.13360000000002 25.210399999999993 Q 72.26760000000002 26.388799999999993, 72.00360000000002 27.814399999999992 C 71.13360000000002 25.210399999999993, 72.26760000000002 26.388799999999993, 72.00360000000002 27.814399999999992 L 71.52960000000002 28.977199999999993 C 70.16400000000002 32.32159999999999, 70.55160000000002 36.21439999999999, 70.66200000000002 37.09279999999999 C 70.95720000000003 42.64759999999998, 73.89720000000001 44.755999999999986, 75.93000000000002 45.22399999999999 C 77.85360000000001 46.00519999999999, 77.47920000000002 48.01279999999999, 77.47920000000002 48.01279999999999 L 79.14360000000002 44.56399999999999 C 81.50640000000001 43.569199999999995, 83.66040000000001 42.4892, 85.61760000000001 41.3732 C 85.68960000000001 42.80959999999999, 85.85280000000002 44.5868, 86.2236 46.232 C 87.78 48.5804, 87.9336 49.91839999999999, 87.9336 49.91839999999999 C 87.97440000000002 50.130799999999994, 87.99960000000002 50.32999999999999, 88.0176 50.5256 C 88.008 50.51, 88.0008 50.495599999999996, 87.99239999999999 50.4788 Z M 80.24159999999999 57.9908 C 80.51519999999998 58.2284, 81.55919999999999 59.366, 80.17919999999998 61.950799999999994 Q 79.06199999999998 62.08279999999999, 78.40559999999999 62.08279999999999 C 80.17919999999998 61.950799999999994, 79.06199999999998 62.08279999999999, 78.40559999999999 62.08279999999999 C 77.466 62.08279999999999, 76.4664 61.998799999999996, 75.4776 61.77319999999999 Q 72.40799999999999 61.24039999999999, 70.12319999999998 61.24039999999999 C 75.4776 61.77319999999999, 72.40799999999999 61.24039999999999, 70.12319999999998 61.24039999999999 C 69.65879999999999 61.24039999999999, 69.22559999999999 61.26439999999999, 68.85959999999999 61.31599999999999 Q 69.7272 56.98039999999999, 76.1664 56.98039999999999 C 68.85959999999999 61.31599999999999, 69.7272 56.98039999999999, 76.1664 56.98039999999999 C 76.51919999999998 56.98039999999999, 77.26679999999999 57.01999999999999, 77.27159999999999 57.01999999999999 C 77.35199999999999 57.02, 78.89999999999999 57.044, 80.24159999999999 57.9908 Z M 73.3668 81.5012 L 64.5384 78.69319999999999 C 64.3692 78.5672, 63.946799999999996 78.2048, 63.8328 77.666 C 63.75 77.2736, 63.842400000000005 76.832, 64.10640000000001 76.3496 C 64.29 76.3316, 64.5384 76.316, 64.8456 76.316 C 65.53320000000001 76.316, 66.6432 76.394, 68.0184 76.7624 C 71.21759999999999 77.66, 74.1792 78.734, 76.5504 79.6832 L 73.3668 81.5012 Z M 75.7992 85.9928 C 70.48559999999999 85.58239999999999, 66.966 84.29599999999999, 64.9104 83.2544 C 63.356399999999994 82.4684, 62.398799999999994 81.7076, 61.9236 81.278 C 62.2932 80.5004, 62.808 80.18360000000001, 63.08879999999999 80.0624 C 63.3 80.156, 63.50999999999999 80.24600000000001, 63.721199999999996 80.33600000000001 L 63.758399999999995 80.3588 L 63.82199999999999 80.378 C 68.20199999999998 82.22, 72.71999999999998 83.25560000000002, 73.23479999999999 83.3708 L 73.57799999999999 83.4812 L 73.61999999999999 83.456 L 73.61999999999999 83.456 L 75.34079999999999 82.47319999999999 C 75.42839999999998 83.5268, 75.61559999999999 84.66919999999999, 75.73559999999999 85.3364 L 75.7992 85.9928 Z M 98.892 26.5508 Q 95.78759999999998 31.1216, 89.0256 35.9516 C 98.892 26.5508, 95.78759999999998 31.1216, 89.0256 35.9516 C 88.7856 36.1232, 88.5384 36.296, 88.2888 36.4688 C 88.23359999999998 36.506, 88.17960000000001 36.5432, 88.1256 36.5792 C 87.90599999999999 36.730399999999996, 87.6828 36.880399999999995, 87.4548 37.0316 C 87.3456 37.1036, 87.23400000000001 37.1744, 87.126 37.2476 C 86.9352 37.3724, 86.7444 37.4972, 86.54880000000001 37.6208 C 86.36280000000001 37.74079999999999, 86.17200000000001 37.8584, 85.97880000000002 37.976 C 85.84200000000001 38.0612, 85.70640000000002 38.1464, 85.56720000000001 38.230399999999996 C 83.016 39.775999999999996, 80.07600000000002 41.279599999999995, 76.7292 42.59479999999999 Q 73.63440000000001 42.273199999999996, 73.38600000000001 36.843199999999996 C 76.7292 42.59479999999999, 73.63440000000001 42.273199999999996, 73.38600000000001 36.843199999999996 Q 72.8352 33.005599999999994, 74.0592 30.007999999999996 C 73.38600000000001 36.843199999999996, 72.8352 33.005599999999994, 74.0592 30.007999999999996 Q 77.41680000000001 29.287999999999997, 81.59640000000002 27.696799999999996 C 74.0592 30.007999999999996, 77.41680000000001 29.287999999999997, 81.59640000000002 27.696799999999996 C 81.5988 27.698, 81.6 27.698, 81.6012 27.6968 C 82.15920000000001 27.4844, 82.7328 27.2564, 83.3148 27.0116 C 83.322 27.0092, 83.3292 27.0056, 83.334 27.002 C 83.91720000000001 26.7572, 84.5076 26.498, 85.1016 26.2208 C 85.10280000000002 26.2196, 85.10280000000002 26.2196, 85.104 26.2196 C 88.23479999999999 24.758, 91.4364 22.8428, 93.8244 20.4164 Q 100.61999999999999 13.8476, 105.1752 6.935599999999999 C 93.8244 20.4164, 100.61999999999999 13.8476, 105.1752 6.935599999999999 Q 105.74159999999999 6.2852, 106.0884 6.2852 C 105.1752 6.935599999999999, 105.74159999999999 6.2852, 106.0884 6.2852 C 106.24439999999998 6.2852, 106.356 6.416, 106.35 6.795200000000001 C 106.3476 6.793999999999999, 105.4008 17.7188, 98.892 26.5508 Z" />
	</g>
</svg>