<svg xmlns="http://www.w3.org/2000/svg" viewbox="0 0 128 128" width="128" height="128">
	<g fill="black">
		<path d="M 102.15639 90.40086 C 99.83817 86.73885, 98.85159 83.46402, 98.85159 83.46402 L 98.84835000000001 83.46726000000001 C 97.92414 60.25995000000001, 86.04954000000001 63.011520000000004, 74.5767 64.62342000000001 C 62.812259999999995 66.27663000000001, 56.340360000000004 75.60621000000002, 56.340360000000004 88.53705000000001 C 56.340360000000004 101.46789000000001, 65.97045 111.95253000000002, 77.85072 111.95253000000002 C 78.37398 111.95253000000002, 78.18281999999999 111.95901000000003, 78.92316 111.95253000000002 L 79.35813 111.95253000000002 C 85.97583 111.62529000000004, 93.75183 109.76877000000003, 93.75183 109.76877000000003 C 96.8922 108.99603000000002, 96.55281000000001 105.71229000000002, 96.55281000000001 105.71229000000002 C 96.55281000000001 104.64957000000001, 97.18542000000001 102.20823000000003, 97.18542000000001 102.20823000000003 L 97.72974 100.74699000000003 L 97.72974 97.48998000000002 C 98.29107 94.71087000000003, 99.94833000000001 94.36176000000003, 99.94833000000001 94.36176000000003 C 104.10363000000001 93.26421, 102.15639 90.40086, 102.15639 90.40086 Z" fill="white" />
		<path d="M 69.65109000000001 93.53799000000001 C 67.12956000000001 85.50198, 58.146660000000004 83.02095000000001, 58.146660000000004 83.02095000000001 C 52.36164000000001 80.95626, 55.343250000000005 86.34114000000001, 55.343250000000005 86.34114000000001 C 56.84742000000001 89.07651000000001, 56.44566000000001 92.79198000000001, 56.44566000000001 92.79198000000001 C 56.16459000000001 97.52400000000002, 60.35067000000001 100.08603000000001, 60.35067000000001 100.08603000000001 C 60.35067000000001 100.08603000000001, 64.10826 102.49173, 65.73960000000001 99.85032000000001" fill="white" />
		<path d="M 106.04682000000001 87.87933 C 104.60907 85.59918, 103.77639 83.49966, 103.45077 82.59570000000001 C 102.65292000000001 66.69297, 96.4062 58.95828, 84.36798 58.95828 C 81.37746000000001 58.95828, 78.32700000000001 59.39892, 75.37617 59.82498 C 74.89422 59.894639999999995, 74.41227 59.964299999999994, 73.93113 60.03234 C 60.22107 61.95770999999999, 51.70392 72.87894, 51.70392 88.53705 C 51.70392 89.57061, 51.760619999999996 90.59121, 51.86268 91.59561 L 47.2473 91.59561 C 47.2473 91.59561, 46.338480000000004 102.53465999999999, 59.60466 110.64923999999999 L 60.176520000000004 109.18637999999999 C 64.83402000000001 113.77907999999998, 71.04267 116.58815999999999, 77.85153000000001 116.58815999999999 L 78.18687 116.58978 L 78.43311000000001 116.59140000000001 C 78.54246 116.59140000000001, 78.69636000000001 116.59059, 78.96204000000002 116.58816000000002 L 79.47477 116.58816000000002 L 79.58979000000001 116.58168 C 86.5566 116.23824, 94.4946 114.35823, 94.82913 114.27804 C 99.30843000000002 113.17563000000001, 101.37393000000002 109.19529, 101.19816000000002 105.66855000000001 C 101.24676000000001 105.26274000000001, 101.42658000000002 104.36850000000003, 101.62017000000002 103.58928000000002 L 102.07620000000001 102.36294000000001 L 102.36537000000001 101.57967000000002 L 102.36537000000001 98.44497000000001 C 105.11613 97.37982000000001, 106.3125 95.59620000000001, 106.83333 94.20462 C 107.73405 91.79001000000001, 107.02853999999999 89.37216000000001, 106.04682000000001 87.87933 Z M 99.94914000000001 94.36176 C 99.94914000000001 94.36176, 98.29188 94.71168, 97.73055000000001 97.48998 L 97.73055000000001 100.74699 L 97.18623000000001 102.20823 C 97.18623000000001 102.20823, 96.55362000000001 104.64957000000001, 96.55362000000001 105.71229 C 96.55362000000001 105.71229, 96.89301 108.99603, 93.75264 109.76877 C 93.75264 109.76877, 85.97664 111.62529, 79.35894 111.95253 L 78.92397 111.95253 C 78.67773 111.95495999999999, 78.53436 111.95577, 78.43311000000001 111.95577 C 78.23223 111.95577, 78.20064 111.95253, 77.85153000000001 111.95253 C 71.59995 111.95253, 65.97288 109.04625, 62.04276000000001 104.40981 L 62.75556 102.58326 C 62.990460000000006 102.61403999999999, 63.23022 102.63104999999999, 63.47322 102.63104999999999 C 63.811800000000005 102.63104999999999, 64.15605000000001 102.59864999999999, 64.49625 102.51926999999999 C 65.57030999999999 102.27545999999998, 66.45483000000002 101.63313, 67.05504 100.66031999999998 C 67.50378 99.93455999999999, 67.27698000000001 98.98280999999999, 66.55203000000002 98.53325999999998 C 65.82465000000002 98.08451999999998, 64.87452000000002 98.31131999999998, 64.42416000000001 99.03626999999997 C 64.21680000000002 99.37322999999998, 64.00053000000003 99.46151999999998, 63.814230000000016 99.50525999999998 C 62.99856000000001 99.69560999999997, 61.68636000000002 99.09782999999997, 61.16472000000002 98.76977999999997 C 61.02540000000002 98.68310999999997, 57.76839000000002 96.59897999999997, 57.982230000000015 92.95640999999998 C 58.00086000000001 92.78549999999998, 58.41720000000002 88.72091999999998, 56.69757000000001 85.59512999999998 C 56.62710000000001 85.46471999999999, 56.55987000000001 85.32377999999999, 56.49588000000002 85.17878999999999 C 56.52747000000002 84.84182999999999, 56.56473000000001 84.50810999999999, 56.606040000000014 84.17600999999999 C 56.86686000000002 84.2319, 57.19653000000002 84.32099999999998, 57.62745000000001 84.47570999999999 L 57.73518000000001 84.50972999999999 C 57.791880000000006 84.52512, 61.71714000000001 85.64616, 64.86318 88.72091999999999 L 65.80926000000001 90.44378999999999 C 65.80926000000001 90.44378999999999, 68.93667000000002 95.18552999999999, 70.38576000000002 101.04344999999999 C 70.38576000000002 101.04344999999999, 71.39421000000002 92.08161, 72.93402000000002 87.10334999999998 L 73.85580000000002 94.92308999999997 C 73.85580000000002 94.92308999999997, 76.92246000000003 81.35072999999997, 79.47639000000002 80.09927999999998 L 75.16638000000003 76.68188999999998 L 63.00504000000003 83.48183999999998 C 60.82533000000003 82.22471999999998, 58.999590000000026 81.65771999999998, 58.618080000000035 81.54674999999997 C 58.29165000000003 81.42848999999998, 57.75624000000003 81.24542999999998, 57.13983000000003 81.12311999999999 C 59.198850000000036 72.12725999999999, 65.20581000000003 65.93804999999998, 74.57670000000003 64.62179999999998 C 77.89851000000003 64.15523999999999, 81.25434000000003 63.592289999999984, 84.36798000000003 63.592289999999984 C 92.00871000000004 63.592289999999984, 98.19306000000003 66.97808999999998, 98.84835000000002 83.46482999999999 L 98.85159000000003 83.46158999999999 C 98.85159000000003 83.46158999999999, 99.83817000000003 86.73722999999998, 102.15639000000003 90.39842999999999 C 102.15639 90.40086, 104.10363000000001 93.26421, 99.94914000000001 94.36176 Z" />
		<path d="M 92.3238 88.16040000000001 C 91.04238000000001 87.72381, 89.30817 87.16653000000001, 86.88060000000002 86.50800000000001 C 86.88060000000002 86.50800000000001, 89.45478000000001 85.89888, 93.25449 84.51621 L 93.25773000000001 84.51459 L 97.18542000000002 82.41993000000001 C 97.18542000000002 82.41993000000001, 95.81895000000002 79.88382, 92.83491000000002 81.1053 C 92.83491000000002 81.1053, 91.82079000000003 81.58482000000001, 89.32437000000002 82.46691 L 89.32518000000002 82.47177 C 85.10184000000002 83.53935, 84.22866000000002 85.84947, 84.22866000000002 85.84947 C 82.13319000000001 90.94761, 88.70067000000002 90.48996, 88.70067000000002 90.48996 C 91.21248000000003 90.29393999999999, 95.09481000000002 89.93106, 95.09481000000002 89.93106 C 93.95676 89.51715, 93.04956000000001 88.88454, 92.3238 88.16040000000001 Z" fill="#ed4187" />
		<path d="M 97.47216 82.68561000000001 C 97.28505000000001 82.30248, 96.82335 82.14372000000002, 96.43941 82.32921 C 94.81455 83.12139, 93.00744 83.78478000000001, 92.99123999999999 83.79126000000001 C 89.28549 85.13910000000001, 86.72913 85.74984000000002, 86.70402 85.75632000000002 C 86.35815 85.83894000000002, 86.11353 86.14269000000002, 86.10948 86.49504000000002 C 86.10300000000001 86.84820000000003, 86.33789999999999 87.16086000000003, 86.6781 87.25482000000002 C 90.09873 88.18389000000003, 92.12129999999999 88.90155000000003, 93.4578 89.37540000000001 C 94.65741 89.80146000000002, 95.31999 90.03636000000002, 95.94612000000001 90.03636000000002 C 96.37299 90.03636000000002, 96.71886 89.69049000000001, 96.71886 89.26362000000003 C 96.71886 88.83756000000002, 96.37298999999999 88.49088000000003, 95.94612000000001 88.49088000000003 C 95.84001 88.49088000000003, 95.70474 88.46739000000004, 95.55165000000001 88.43175000000004 C 95.75415000000001 87.91416000000004, 95.88213 87.24186000000005, 95.88213 86.49747000000004 C 95.88213 85.69962000000004, 95.73957000000001 84.97710000000004, 95.50953000000001 84.44736000000003 C 96.01821000000001 84.23028000000002, 96.57063000000002 83.98566000000004, 97.11414 83.71998000000004 C 97.4997 83.53125, 97.65846 83.06955, 97.47216 82.68561000000001 Z M 93.3768 85.29381000000001 C 93.30228000000001 85.66236, 93.25854000000001 86.06655, 93.25854000000001 86.49666 C 93.25854000000001 86.93001000000001, 93.30309000000001 87.33825, 93.37842 87.70761000000002 C 92.47203 87.39009000000001, 91.30401 86.99076000000001, 89.72288999999999 86.51529000000002 C 90.71838000000001 86.21073000000001, 91.96092 85.80654, 93.3768 85.29381000000001 Z" />
		<path d="M 90.81963 100.01799000000001 C 90.81963 100.01799000000001, 94.12200000000001 97.38468, 98.29188 96.88086 C 98.29188 96.88086, 98.48223 97.38063000000001, 98.96256000000001 97.54505999999999 C 98.96256000000001 97.54505999999999, 99.78957000000001 98.76492, 98.59806 99.65835 C 98.59806 99.65835, 96.57306000000001 99.65429999999999, 95.19282000000001 99.57410999999999 L 90.81963 100.01799000000001 Z" fill="#af2351" />
		<path d="M 98.29188 96.88086 C 98.29188 96.88086, 98.48223 97.38063000000001, 98.96256000000001 97.54505999999999 C 98.96256000000001 97.54505999999999, 99.78957000000001 98.76492, 98.59806 99.65835 C 98.59806 99.65835, 96.57306000000001 99.65429999999999, 95.19282000000001 99.57410999999999 L 90.82044000000002 100.01718 C 90.81963 100.01799000000001, 94.12200000000001 97.38549, 98.29188 96.88086 M 98.29269000000001 96.10812000000001 C 98.26191000000001 96.10812000000001, 98.23032 96.10974, 98.19954000000001 96.11298000000001 C 93.86280000000001 96.63786, 90.47943000000001 99.30114, 90.33768 99.41454 C 90.06957000000001 99.62837999999999, 89.97480000000002 99.99288, 90.10440000000001 100.3104 C 90.22347000000002 100.60281, 90.50778000000001 100.79073, 90.82044000000002 100.79073 C 90.84474000000002 100.79073, 90.87147000000002 100.78992, 90.89739000000002 100.78748999999999 L 95.21145000000001 100.34928 C 96.59169 100.42623, 98.51463000000001 100.43271, 98.59725 100.43271 C 98.59725 100.43271, 98.59806 100.43271, 98.59887 100.43271 C 98.76735 100.43271, 98.92935 100.37844, 99.06299999999999 100.27799999999999 C 100.36791 99.2979, 100.10141999999999 97.848, 99.60327 97.11251999999999 C 99.50849999999998 96.97319999999999, 99.37241999999999 96.86789999999999, 99.21446999999999 96.81524999999999 C 99.10188 96.77555999999998, 99.0144 96.60788999999998, 99.0144 96.60546 C 98.89857 96.30333, 98.60859 96.10812000000001, 98.29269000000001 96.10812000000001 L 98.29269000000001 96.10812000000001 Z" />
		<path d="M 98.50734000000001 102.1167 C 98.50734000000001 102.1167, 99.24120000000002 105.27246, 96.67755000000001 104.85045 C 96.67755000000001 104.85045, 92.06055 103.33413, 90.5661 100.17999 C 90.56691000000001 100.18080000000002, 97.12548000000001 101.27592, 98.50734000000001 102.1167 Z" fill="#af2351" />
		<path d="M 97.12224 105.27651000000002 C 96.96834000000001 105.27651000000002, 96.79905000000001 105.26112, 96.61518 105.23115 C 96.36246 105.15339, 91.76571 103.61196000000001, 90.21699 100.34604 C 90.15624 100.21643999999999, 90.17163000000001 100.06173, 90.2583 99.94752 C 90.34416 99.83330999999998, 90.48915 99.77336999999999, 90.63009 99.80009999999999 C 90.90063 99.84465, 97.28019 100.91789999999999, 98.70822 101.78621999999999 C 98.79813 101.84048999999999, 98.86131 101.92877999999999, 98.8848 102.02921999999998 C 98.901 102.09806999999998, 99.26874000000001 103.72859999999999, 98.53164 104.65605 C 98.30646 104.93874000000001, 97.88040000000001 105.27651000000002, 97.12224 105.27651000000002 Z M 91.30968 100.70163 C 93.00501 103.20939, 96.75936 104.46894, 96.79905000000001 104.48352 C 96.87924000000001 104.49162, 97.00641 104.50215, 97.12224 104.50215 C 97.48755 104.50215, 97.74918000000001 104.39523, 97.92495000000001 104.17572 C 98.29269 103.71402, 98.23923 102.82869000000001, 98.16309 102.36942 C 97.01694 101.80242000000001, 93.37761 101.07261000000001, 91.30968 100.70163 Z" />
		<path d="M 98.04645000000001 76.1076 C 98.04645000000001 76.1076, 89.69940000000001 75.77955, 85.50036 79.86924 C 85.50036 79.86924, 85.06296 80.54397, 85.8357 80.51238000000001 C 85.8357 80.51238000000001, 93.14433 76.16025, 98.47413 78.77169 C 98.47332000000002 78.77088, 99.39024 77.25537, 98.04645000000001 76.1076 Z" fill="#d21d51" />
	</g>
</svg>