<svg xmlns="http://www.w3.org/2000/svg" viewbox="0 0 128 128" width="128" height="128">
	<g data-id="mohawk">
		<path d="M 48.134519999999995 109.62924 C 44.83752 104.66987999999999, 42.91139999999999 98.72435999999999, 42.91139999999999 92.33532 C 42.91139999999999 91.31304, 42.964319999999994 90.3042, 43.06091999999999 89.30712 L 30.07451999999999 87.27936 L 17.39135999999999 93.17616 L 32.55335999999999 95.60123999999999 L 21.87191999999999 103.70387999999998 L 35.311919999999986 103.70387999999998 L 29.68559999999999 110.90939999999999 L 48.134519999999995 109.62924 Z" data-id="hair_1" fill="#65307E" />
		<path d="M 53.465999999999994 68.91192 L 45.986639999999994 58.69416 L 46.012679999999996 58.70339999999999 L 26.352479999999993 51.82211999999999 L 36.43247999999999 65.17559999999999 L 20.34228 65.17559999999999 L 33.24132 75.70751999999999 L 15.031799999999999 79.6236 L 30.074519999999996 87.27852 L 43.060919999999996 89.30628 C 43.84044 81.21791999999999, 47.706959999999995 74.02416, 53.465999999999994 68.91192 Z" data-id="hair_2" fill="#00AEEF" />
		<path d="M 46.012679999999996 58.7034 L 45.98664 58.694160000000004 L 53.466 68.91192000000001 C 58.824360000000006 64.15248000000001, 65.81904 61.20492000000001, 73.48908 61.021800000000006 C 73.2312 54.01872, 73.01364000000001 48.61752000000001, 73.01364000000001 48.61752000000001 L 67.23108 24.01980000000001 L 62.19192000000001 48.61752000000001 L 51.42144 28.320600000000002 L 52.38912 51.822120000000005 L 38.67192 39.3036 L 46.012679999999996 58.7034 Z" data-id="hair_3" fill="#D0B62D" />
		<path d="M 74.24423999999999 61.00332 C 84.73752 61.00332, 94.03547999999999 66.19452, 99.7248 74.13588 L 113.44872 35.551320000000004 L 94.77047999999999 53.61972000000001 L 97.23503999999998 27.370560000000015 L 82.91135999999999 48.618359999999996 L 82.91135999999999 24.02064 L 73.01364000000001 48.618359999999996 C 73.01364000000001 48.618359999999996, 73.23204000000001 54.01956, 73.48908 61.022639999999996 C 73.74024 61.01675999999999, 73.9914 61.00332, 74.24423999999999 61.00332 Z" data-id="hair_4" fill="#BE202E" />
		<path d="M 110.52803999999999 32.53236 L 100.01291999999998 42.70392 L 101.41572 27.761999999999997 L 102.95459999999999 11.366879999999997 L 93.75071999999997 25.021919999999998 L 87.11135999999998 34.8726 L 87.11135999999998 2.33268 L 79.01459999999999 22.451520000000002 L 74.06615999999998 34.74828 L 71.31935999999999 23.058840000000004 L 66.95052 4.46544 L 63.116760000000006 23.176439999999996 L 60.42372 36.32411999999999 L 55.13172000000001 26.350799999999996 L 46.4646 10.01868 L 47.224799999999995 28.49364 L 47.77836 41.926919999999996 L 41.50272 36.20063999999999 L 28.52724 24.35832 L 34.74323999999999 40.789559999999994 L 38.89536 51.76248 L 27.738479999999992 47.857319999999994 L 14.634479999999991 43.27092 L 22.999199999999988 54.352199999999996 L 27.99803999999999 60.9756 L 8.557920000000001 60.9756 L 17.6862 68.42892 L 23.820719999999998 73.43700000000001 L 14.14896 75.51768000000001 L 2.58804 78.0024 L 13.127519999999999 83.36580000000001 L 20.479200000000002 87.108 L 15.622320000000002 89.36592 L 3.1743600000000014 95.15436000000001 L 16.729440000000004 97.32324 L 22.185240000000004 98.196 L 19.335120000000003 100.35648 L 9.386160000000004 107.90304 L 26.705280000000002 107.90304 L 26.37516 108.32472000000001 L 20.577479999999998 115.75032000000002 L 29.976239999999997 115.09932000000002 L 51.28116 113.6226 C 50.128679999999996 112.38024, 49.07532 111.04548, 48.134519999999995 109.62924000000001 L 29.685599999999997 110.90856000000001 L 35.31191999999999 103.70304000000002 L 21.871919999999996 103.70304000000002 L 32.55336 95.60040000000001 L 17.391359999999995 93.17532000000001 L 30.074519999999996 87.27852000000001 L 15.031799999999999 79.6236 L 33.24216 75.70752 L 20.34228 65.1756 L 36.431639999999994 65.1756 L 26.351639999999996 51.822120000000005 L 46.01183999999999 58.7034 L 38.67191999999999 39.30276 L 52.38911999999999 51.82128 L 51.42143999999999 28.31976 L 62.191919999999996 48.61752 L 67.23107999999999 24.019799999999996 L 73.01364 48.61752 L 82.91135999999999 24.019799999999996 L 82.91135999999999 48.61752 L 97.23419999999999 27.369719999999997 L 94.76964 53.61887999999999 L 113.44787999999998 35.550479999999986 L 99.7248 74.13588 C 100.7832 75.6126, 101.71979999999999 77.18088, 102.51191999999999 78.83148 L 117.40512 36.959160000000004 L 123.41112 20.070120000000006 L 110.52803999999999 32.53236 Z" fill="#010101" />
		<path d="M 74.24423999999999 66.88332 C 60.18684 66.88332, 48.79224 78.27792, 48.79224 92.33532 C 48.79224 98.7798, 51.19128 104.65979999999999, 55.14096 109.14371999999999 L 55.14096 109.14371999999999 C 58.78152000000001 105.50484, 60.434639999999995 99.40307999999999, 60.434639999999995 99.40307999999999 C 51.51299999999999 90.80483999999998, 59.46695999999999 85.94963999999999, 59.46695999999999 85.94963999999999 C 64.82364 82.63752, 70.64484 88.92407999999999, 70.64484 88.92407999999999 C 74.48447999999999 92.50752, 79.21452 86.90303999999999, 79.21452 86.90303999999999 C 82.45272 84.37463999999999, 94.22784 80.71811999999998, 96.5202 80.02091999999999 C 92.17908 72.18792, 83.83368 66.88332, 74.24423999999999 66.88332 Z" fill="#d1d3d4" />
	</g>
</svg>