<svg xmlns="http://www.w3.org/2000/svg" viewbox="0 0 128 128" width="128" height="128">
	<g data-id="astronaut_helmet" fill="black">
		<path d="M 115.73639999999999 60.91606999999999 C 115.73639999999999 68.47426999999999, 114.07499999999999 75.63467, 111.14064 82.09540999999999 L 95.25204000000001 82.09540999999999 C 99.39618 76.06405999999998, 101.82861 68.77027999999999, 101.82861 60.91723999999999 C 101.82861 48.6065, 95.85692999999999 37.67752999999999, 86.66658 30.835369999999994 L 94.73958 24.809869999999993 L 98.14896 22.238209999999995 C 108.91881 31.65905, 115.73639999999999 45.482600000000005, 115.73639999999999 60.91606999999999 Z" fill="#6d6e70" />
		<path d="M 50.83181999999999 70.63759999999999 C 51.16409999999999 69.34475, 51.37587 68.02031, 51.46127999999999 66.68534 L 66.85496999999998 55.15031 L 68.62986 53.82002 L 68.53157999999999 51.60404 L 68.21918999999998 44.6051 L 80.73584999999999 35.26382 C 89.18324999999999 40.67858, 94.78871999999998 50.13803, 94.78871999999998 60.918409999999994 C 94.78871999999998 69.15404, 91.51037999999997 76.61395999999999, 86.20208999999998 82.09657999999999 L 68.54211 82.09657999999999 L 68.54211 70.63759999999999 L 50.83181999999999 70.63759999999999 Z" fill="#808184" />
		<path d="M 17.22123 104.91508999999999 L 96.09443999999998 104.91508999999999 L 96.09443999999998 112.43701999999999 L 17.22123 112.43701999999999 L 17.22123 104.91508999999999 Z" fill="#58595B" />
		<path d="M 91.89882 11.419220000000001 C 91.10088 10.973450000000001, 90.21870000000001 10.753490000000001, 89.34120000000001 10.753490000000001 C 88.33266000000002 10.753490000000001, 87.33231 11.058860000000001, 86.46183 11.63333 C 79.48278 8.482520000000001, 72.05094000000001 6.876110000000002, 64.31841000000001 6.876110000000002 C 51.21207000000001 6.876110000000002, 38.571390000000015 11.628650000000002, 28.725840000000016 20.258570000000002 C 18.97623 28.80425, 12.616109999999999 40.54988, 10.81782 53.33096 C 10.782720000000001 53.575489999999995, 10.776869999999999 53.817679999999996, 10.77219 54.05987 C 8.82765 57.37916, 7.692750000000001 61.22963, 7.692750000000001 65.34685999999999 C 7.692750000000001 71.32673, 10.05849 76.75319, 13.886729999999998 80.77799 C 13.896089999999997 80.81542999999999, 13.899599999999998 80.8517, 13.910129999999999 80.88914 C 14.004899999999997 81.22142, 14.086799999999998 81.51626, 14.159339999999997 81.76429999999999 C 14.109029999999999 90.00695, 13.376609999999998 96.47704999999999, 12.768209999999998 100.46440999999999 C 11.630969999999998 101.60515999999998, 10.926629999999998 103.17764, 10.926629999999998 104.91391999999999 L 10.926629999999998 112.43584999999999 C 10.926629999999998 115.91308999999998, 13.746329999999999 118.73279, 17.222399999999997 118.73279 L 96.09561 118.73279 C 99.57284999999999 118.73279, 102.39255 115.91309, 102.39255 112.43584999999999 L 102.39255 104.91391999999999 C 102.39255 104.13352999999998, 102.25098 103.38355999999997, 101.98772999999998 102.69326 C 102.69440999999999 100.84465999999999, 103.69709999999999 98.91064999999999, 104.55353999999998 97.42006999999998 L 105.13151999999998 97.42006999999998 C 106.76366999999998 97.42006999999998, 108.30104999999999 96.66190999999999, 109.29437999999998 95.36788999999997 C 116.94149999999998 85.40182999999998, 120.98150999999999 73.48771999999998, 120.98150999999999 60.91489999999998 C 120.98151 40.40129, 109.83959999999999 21.43442, 91.89882 11.419220000000001 Z M 115.73639999999999 60.91606999999999 C 115.73639999999999 68.47426999999999, 114.07499999999999 75.63467, 111.14064 82.09540999999999 L 95.25204000000001 82.09540999999999 C 99.39618 76.06405999999998, 101.82861 68.77027999999999, 101.82861 60.91723999999999 C 101.82861 48.6065, 95.85692999999999 37.67752999999999, 86.66658 30.836539999999992 L 94.73958 24.81103999999999 L 98.14896 22.23820999999999 C 108.91881 31.66022, 115.73639999999999 45.482600000000005, 115.73639999999999 60.91606999999999 Z M 50.83181999999999 70.63759999999999 C 51.16409999999999 69.34475, 51.37587 68.02031, 51.46127999999999 66.68534 L 66.85496999999998 55.15031 L 68.62986 53.82119 L 68.53157999999999 51.60521 L 68.21918999999998 44.6051 L 80.73584999999999 35.26382 C 89.18324999999999 40.67858, 94.78871999999998 50.13803, 94.78871999999998 60.918409999999994 C 94.78871999999998 69.15404, 91.51037999999997 76.61395999999999, 86.20208999999998 82.09657999999999 L 68.54211 82.09657999999999 L 68.54211 70.63759999999999 L 50.83181999999999 70.63759999999999 Z M 64.31841 13.17188 C 70.0245 13.17188, 75.48723 14.19095, 80.55800999999998 16.03019 L 40.96872 45.718939999999996 C 37.666979999999995 43.894909999999996, 33.93 42.91679, 30.121649999999995 42.91679 C 26.072279999999996 42.91679, 22.280309999999997 44.01191, 18.998459999999998 45.89678 C 25.29189 26.888959999999997, 43.198739999999994 13.17188, 64.31841 13.17188 Z M 96.09561 112.43701999999999 L 17.22123 112.43701999999999 L 17.22123 104.91508999999999 L 96.09443999999998 104.91508999999999 L 96.09443999999998 112.43701999999999 Z M 96.00786000000001 100.71829999999999 L 19.09323 100.71829999999999 C 19.61622 97.12991, 20.189519999999998 91.94212999999999, 20.384909999999998 85.52233999999999 C 23.335649999999994 86.95324999999998, 26.63037 87.77575999999999, 30.121649999999995 87.77575999999999 C 33.948719999999994 87.77575999999999, 37.70090999999999 86.78944999999999, 41.01435 84.95021 L 56.71458 96.4127 C 57.61197000000001 97.07024, 58.696560000000005 97.42124, 59.80806 97.42124 L 97.42707 97.42124 C 96.92514 98.45551999999999, 96.4314 99.57637999999999, 96.00786000000001 100.71829999999999 Z M 106.42085999999999 90.41645 C 106.41617999999998 90.40357999999999, 106.41501 90.39188, 106.4115 90.38018 C 105.99029999999999 90.98273, 105.57963 91.59347, 105.13152000000001 92.17496 L 59.80806 92.17496 L 41.13135 78.53861 L 41.13135 78.5351 C 38.150189999999995 81.0272, 34.31259 82.52830999999999, 30.12282 82.52830999999999 C 26.320320000000002 82.52830999999999, 22.81851 81.27875, 19.97307 79.18912999999999 C 19.12365 78.56551999999999, 18.33507 77.86703, 17.61435 77.10301999999999 C 17.6085 77.096, 17.601480000000002 77.09015, 17.59563 77.08196 C 17.24229 76.70522, 16.90533 76.31326999999999, 16.58709 75.90493999999998 C 16.5789 75.89558, 16.57188 75.88504999999998, 16.56486 75.87686 C 16.24662 75.46735999999999, 15.94359 75.04498999999998, 15.66279 74.60623999999999 C 13.94757 71.93279, 12.940199999999999 68.75975, 12.940199999999999 65.34685999999999 C 12.940199999999999 63.34381999999999, 13.300559999999999 61.42852999999999, 13.931189999999999 59.64076999999999 C 14.284529999999998 58.64041999999999, 14.724450000000001 57.68218999999999, 15.245099999999999 56.77660999999999 C 15.25095 56.76724999999999, 15.257969999999997 56.75788999999999, 15.263819999999999 56.74735999999999 C 15.52122 56.30509999999999, 15.793829999999998 55.873369999999994, 16.0875 55.45801999999999 C 16.103879999999997 55.43461999999999, 16.1226 55.41238999999999, 16.13898 55.38898999999999 C 16.42914 54.980659999999986, 16.73334 54.585199999999986, 17.05743 54.20494999999999 C 20.20941 50.51359999999998, 24.889409999999998 48.16423999999999, 30.12399 48.16423999999999 C 34.31493 48.16423999999999, 38.15136 49.66768999999999, 41.13252 52.15978999999999 L 41.13252 52.15627999999999 L 86.09679 18.43337 L 89.34003 15.99977 C 90.37197 16.57658, 91.37583 17.193170000000002, 92.3598 17.83667 C 92.3598 17.83316, 92.35863 17.82965, 92.35746000000002 17.82614 C 93.18582 18.36551, 93.99429000000002 18.92828, 94.78755000000001 19.51328 L 94.78755000000001 19.53785 L 63.92763 42.57047 L 64.33713 51.79124 L 47.27969999999999 64.57348999999999 C 47.290229999999994 64.83089, 47.304269999999995 65.08712, 47.304269999999995 65.34685999999999 C 47.304269999999995 68.48714, 46.44899999999999 71.41916, 44.97830999999999 73.95221 L 44.97830999999999 74.83438999999998 L 64.34415 74.83438999999998 L 64.34415 86.29102999999999 L 109.02410999999998 86.29102999999999 C 108.21915 87.70907, 107.35334999999999 89.0885, 106.42085999999999 90.41645 Z" />
		<path d="M 64.34532 86.2922 L 64.34532 74.83555999999999 L 44.97948 74.83555999999999 L 44.97948 73.95338 C 46.45017 71.42032999999999, 47.30544 68.48714, 47.30544 65.34803 C 47.30544 65.08829, 47.29023 64.83205999999998, 47.28087 64.57466 L 64.3383 51.79241 L 63.928799999999995 42.571639999999995 L 94.8051 19.526149999999998 C 93.06531 18.24149, 91.24127999999999 17.06213, 89.3412 16.00094 L 41.13135 52.15511 L 41.13135 52.15862 C 38.150189999999995 49.66652, 34.31259 48.163070000000005, 30.12282 48.163070000000005 C 20.63295 48.163070000000005, 12.940200000000003 55.85582, 12.940200000000003 65.34569 C 12.940200000000003 74.83556000000002, 20.63178 82.52714, 30.12282 82.52714 C 34.31376 82.52714, 38.150189999999995 81.02603, 41.13135 78.53393000000001 L 41.13135 78.53744 L 59.80806 92.17262000000001 L 105.13151999999998 92.17262000000001 C 106.56008999999999 90.30881, 107.85644999999998 88.34321, 109.02528 86.29103 L 64.34532 86.29103 Z M 30.12165 76.35539 C 24.042329999999996 76.35539, 19.11312 71.42617999999999, 19.11312 65.34685999999999 C 19.11312 59.267540000000004, 24.042329999999996 54.33833, 30.121649999999995 54.33833 C 36.20096999999999 54.33833, 41.130179999999996 59.26637000000001, 41.130179999999996 65.34685999999999 C 41.130179999999996 71.42734999999999, 36.20214 76.35539, 30.12165 76.35539 Z" fill="#f8d032" />
		<circle cx="30.12165" cy="65.3375" r="9.36" fill="#d9b52c" stroke="#231f20" stroke-width="3.5" />
		<path d="M 91.89882 11.419220000000001 C 91.10088 10.973450000000001, 90.21870000000001 10.753490000000001, 89.34120000000001 10.753490000000001 C 88.33266000000002 10.753490000000001, 87.33231 11.058860000000001, 86.46183 11.63333 C 79.48278 8.482520000000001, 72.05094000000001 6.876110000000002, 64.31841000000001 6.876110000000002 C 51.21207000000001 6.876110000000002, 38.571390000000015 11.628650000000002, 28.725840000000016 20.258570000000002 C 18.97623 28.80425, 12.616109999999999 40.54988, 10.81782 53.33096 C 10.782720000000001 53.575489999999995, 10.776869999999999 53.817679999999996, 10.77219 54.05987 C 8.82765 57.37916, 7.692750000000001 61.22963, 7.692750000000001 65.34685999999999 C 7.692750000000001 71.32673, 10.05849 76.75319, 13.886729999999998 80.77799 C 13.896089999999997 80.81542999999999, 13.899599999999998 80.8517, 13.910129999999999 80.88914 C 14.004899999999997 81.22142, 14.086799999999998 81.51626, 14.159339999999997 81.76429999999999 C 14.109029999999999 90.00695, 13.376609999999998 96.47704999999999, 12.768209999999998 100.46440999999999 C 11.630969999999998 101.60515999999998, 10.926629999999998 103.17764, 10.926629999999998 104.91391999999999 L 10.926629999999998 112.43584999999999 C 10.926629999999998 115.91308999999998, 13.746329999999999 118.73279, 17.222399999999997 118.73279 L 96.09561 118.73279 C 99.57284999999999 118.73279, 102.39255 115.91309, 102.39255 112.43584999999999 L 102.39255 104.91391999999999 C 102.39255 104.13352999999998, 102.25098 103.38355999999997, 101.98772999999998 102.69326 C 102.69440999999999 100.84465999999999, 103.69709999999999 98.91064999999999, 104.55353999999998 97.42006999999998 L 105.13151999999998 97.42006999999998 C 106.76366999999998 97.42006999999998, 108.30104999999999 96.66190999999999, 109.29437999999998 95.36788999999997 C 116.94149999999998 85.40182999999998, 120.98150999999999 73.48771999999998, 120.98150999999999 60.91489999999998 C 120.98151 40.40129, 109.83959999999999 21.43442, 91.89882 11.419220000000001 Z M 115.73639999999999 60.91606999999999 C 115.73639999999999 68.47426999999999, 114.07499999999999 75.63467, 111.14064 82.09540999999999 L 95.25204000000001 82.09540999999999 C 99.39618 76.06405999999998, 101.82861 68.77027999999999, 101.82861 60.91723999999999 C 101.82861 48.6065, 95.85692999999999 37.67752999999999, 86.66658 30.836539999999992 L 94.73958 24.81103999999999 L 98.14896 22.23820999999999 C 108.91881 31.66022, 115.73639999999999 45.482600000000005, 115.73639999999999 60.91606999999999 Z M 50.83181999999999 70.63759999999999 C 51.16409999999999 69.34475, 51.37587 68.02031, 51.46127999999999 66.68534 L 66.85496999999998 55.15031 L 68.62986 53.82119 L 68.53157999999999 51.60521 L 68.21918999999998 44.6051 L 80.73584999999999 35.26382 C 89.18324999999999 40.67858, 94.78871999999998 50.13803, 94.78871999999998 60.918409999999994 C 94.78871999999998 69.15404, 91.51037999999997 76.61395999999999, 86.20208999999998 82.09657999999999 L 68.54211 82.09657999999999 L 68.54211 70.63759999999999 L 50.83181999999999 70.63759999999999 Z M 64.31841 13.17188 C 70.0245 13.17188, 75.48723 14.19095, 80.55800999999998 16.03019 L 40.96872 45.718939999999996 C 37.666979999999995 43.894909999999996, 33.93 42.91679, 30.121649999999995 42.91679 C 26.072279999999996 42.91679, 22.280309999999997 44.01191, 18.998459999999998 45.89678 C 25.29189 26.888959999999997, 43.198739999999994 13.17188, 64.31841 13.17188 Z M 96.09561 112.43701999999999 L 17.22123 112.43701999999999 L 17.22123 104.91508999999999 L 96.09443999999998 104.91508999999999 L 96.09443999999998 112.43701999999999 Z M 96.00786000000001 100.71829999999999 L 19.09323 100.71829999999999 C 19.61622 97.12991, 20.189519999999998 91.94212999999999, 20.384909999999998 85.52233999999999 C 23.335649999999994 86.95324999999998, 26.63037 87.77575999999999, 30.121649999999995 87.77575999999999 C 33.948719999999994 87.77575999999999, 37.70090999999999 86.78944999999999, 41.01435 84.95021 L 56.71458 96.4127 C 57.61197000000001 97.07024, 58.696560000000005 97.42124, 59.80806 97.42124 L 97.42707 97.42124 C 96.92514 98.45551999999999, 96.4314 99.57637999999999, 96.00786000000001 100.71829999999999 Z M 106.42085999999999 90.41645 C 106.41617999999998 90.40357999999999, 106.41501 90.39188, 106.4115 90.38018 C 105.99029999999999 90.98273, 105.57963 91.59347, 105.13152000000001 92.17496 L 59.80806 92.17496 L 41.13135 78.53861 L 41.13135 78.5351 C 38.150189999999995 81.0272, 34.31259 82.52830999999999, 30.12282 82.52830999999999 C 26.320320000000002 82.52830999999999, 22.81851 81.27875, 19.97307 79.18912999999999 C 19.12365 78.56551999999999, 18.33507 77.86703, 17.61435 77.10301999999999 C 17.6085 77.096, 17.601480000000002 77.09015, 17.59563 77.08196 C 17.24229 76.70522, 16.90533 76.31326999999999, 16.58709 75.90493999999998 C 16.5789 75.89558, 16.57188 75.88504999999998, 16.56486 75.87686 C 16.24662 75.46735999999999, 15.94359 75.04498999999998, 15.66279 74.60623999999999 C 13.94757 71.93279, 12.940199999999999 68.75975, 12.940199999999999 65.34685999999999 C 12.940199999999999 63.34381999999999, 13.300559999999999 61.42852999999999, 13.931189999999999 59.64076999999999 C 14.284529999999998 58.64041999999999, 14.724450000000001 57.68218999999999, 15.245099999999999 56.77660999999999 C 15.25095 56.76724999999999, 15.257969999999997 56.75788999999999, 15.263819999999999 56.74735999999999 C 15.52122 56.30509999999999, 15.793829999999998 55.873369999999994, 16.0875 55.45801999999999 C 16.103879999999997 55.43461999999999, 16.1226 55.41238999999999, 16.13898 55.38898999999999 C 16.42914 54.980659999999986, 16.73334 54.585199999999986, 17.05743 54.20494999999999 C 20.20941 50.51359999999998, 24.889409999999998 48.16423999999999, 30.12399 48.16423999999999 C 34.31493 48.16423999999999, 38.15136 49.66768999999999, 41.13252 52.15978999999999 L 41.13252 52.15627999999999 L 86.09679 18.43337 L 89.34003 15.99977 C 90.37197 16.57658, 91.37583 17.193170000000002, 92.3598 17.83667 C 92.3598 17.83316, 92.35863 17.82965, 92.35746000000002 17.82614 C 93.18582 18.36551, 93.99429000000002 18.92828, 94.78755000000001 19.51328 L 94.78755000000001 19.53785 L 63.92763 42.57047 L 64.33713 51.79124 L 47.27969999999999 64.57348999999999 C 47.290229999999994 64.83089, 47.304269999999995 65.08712, 47.304269999999995 65.34685999999999 C 47.304269999999995 68.48714, 46.44899999999999 71.41916, 44.97830999999999 73.95221 L 44.97830999999999 74.83438999999998 L 64.34415 74.83438999999998 L 64.34415 86.29102999999999 L 109.02410999999998 86.29102999999999 C 108.21915 87.70907, 107.35334999999999 89.0885, 106.42085999999999 90.41645 Z" />
		<path d="M 64.31841 13.17188 C 70.0245 13.17188, 75.48723 14.19095, 80.55800999999998 16.03019 L 40.96872 45.718939999999996 C 37.666979999999995 43.894909999999996, 33.93 42.91679, 30.121649999999995 42.91679 C 26.072279999999996 42.91679, 22.280309999999997 44.01191, 18.998459999999998 45.89678 C 25.29189 26.888959999999997, 43.198739999999994 13.17188, 64.31841 13.17188 Z" fill="#58595B" />
		<path d="M 96 101 L 19 101 C 19 97, 20 92, 20 85 C 23 87, 26.5 87.6, 30 87.78863 C 33.948719999999994 87.78863, 37.70090999999999 86.80115, 41.01435 84.96074 L 56.71458 96.42323 C 57.61197000000001 97.07960000000001, 58.696560000000005 97.43294, 59.80806 97.43294 L 97.42707 97.43294 C 96.92514 98.46605, 96.5 100, 96 101 Z" fill="#58595B" />
	</g>
</svg>