<svg xmlns="http://www.w3.org/2000/svg" viewbox="0 0 128 128" width="128" height="128">
	<g data-id="skull_bmx_helmet" fill="black">
		<circle cx="78.5142" cy="64.91895" r="2.052425" />
		<circle cx="30.6711" cy="75.5004" r="2.052425" />
		<path d="M 69.57177499999999 94.3313 L 74.05557499999999 94.3313 L 74.05557499999999 101.058325 L 69.57177499999999 101.058325 L 69.57177499999999 94.3313 Z" data-id="helmet" fill="white" />
		<path d="M 121.19245 46.1384 C 116.12829999999998 28.009749999999993, 106.98844999999999 15.586549999999997, 94.02464999999998 9.211974999999997 C 84.14015 4.353199999999999, 72.36354999999999 3.0759, 58.020425 5.3125 L 57.581849999999996 5.382725 C 42.040924999999994 7.865774999999999, 21.544500000000003 14.3649, 12.15025 31.221549999999997 C 5.417924999999999 43.30555, 5.671 58.336349999999996, 12.904175 75.9085 L 14.255675 81.03625 C 15.964925 87.91035, 22.32625 91.6071, 30.640625 90.68754999999999 C 39.229275 106.56105, 57.1923 116.0878, 75.998025 113.08269999999999 C 77.450225 112.850825, 78.87327499999999 112.54607499999999, 80.267175 112.17904999999999 C 81.67565 113.6233, 83.1411 115.0225, 84.642325 116.28787499999999 L 84.85300000000001 116.449525 C 86.3105 117.47507499999999, 88.25427499999999 118.23695, 90.07085000000001 117.94677499999999 C 90.78105000000001 117.83282499999999, 91.47270000000002 117.55987499999998, 92.10737500000002 117.07757499999998 C 94.373125 115.35507499999999, 94.70172500000001 112.08497499999997, 93.10112500000001 106.43517499999999 C 107.00700000000002 97.26617499999998, 115.05902500000002 80.51419999999997, 112.26327500000002 63.02684999999998 C 112.14402500000001 62.27557499999998, 111.99960000000003 61.53092499999998, 111.84192500000002 60.79289999999998 L 113.00262500000002 60.60607499999998 C 115.86727500000003 60.147624999999984, 118.31322500000002 58.67289999999998, 119.88865000000003 56.44689999999998 C 122.13982500000003 53.27219999999998, 121.83242500000003 49.82322499999997, 121.64162500000002 48.65324999999998 L 121.30375000000004 46.54119999999998 L 121.19245 46.1384 Z M 70.825225 100.92847499999999 L 70.117675 101.36439999999999 L 67.775075 97.54044999999999 L 73.50835 94.02654999999999 L 75.85227499999999 97.84785 L 70.825225 100.92847499999999 Z M 69.4194 93.089775 C 61.3899 89.0366, 52.126825 84.002925, 44.8486 79.966975 C 46.1365 77.062575, 46.66385 74.17275000000001, 46.710225 72.119 C 46.800324999999994 70.1527, 48.58775 69.343125, 49.5444 69.051625 L 59.76015 67.42055 L 59.840975 67.405975 L 59.95095 67.387425 C 60.4518 67.30659999999999, 61.974225000000004 67.06412499999999, 63.137575000000005 69.329875 C 63.2078 69.467675, 63.3403 69.72605, 63.547 70.04669999999999 C 63.7113 70.299775, 63.874275 70.55682499999999, 64.0346 70.80989999999998 C 65.580875 73.25187499999998, 68.042725 77.13544999999999, 72.242975 78.88709999999999 C 71.19224999999999 83.7525, 70.125625 88.9677, 69.4194 93.089775 Z M 38.447525 87.83614999999999 C 39.629425 87.031875, 40.647025 86.10834999999999, 41.537425 85.121225 C 48.530775 89.00214999999999, 57.426825 93.847675, 65.355625 97.88494999999999 C 65.402 98.21222499999999, 65.511975 98.52890000000001, 65.69085 98.81774999999999 L 68.03345 102.63904999999998 C 68.55285 103.48969999999998, 69.524075 103.936225, 70.5059 103.77854999999998 C 70.822575 103.72819999999999, 71.12335 103.61689999999999, 71.397625 103.44862499999999 L 72.303925 102.89477499999998 C 72.833925 103.58774999999999, 73.416925 104.32444999999997, 74.0198 105.07704999999999 C 59.3812 107.12814999999999, 45.51242499999999 99.9228, 38.447525 87.83614999999999 Z M 87.88989999999998 111.0157 C 87.49107499999998 110.6659, 87.09622499999999 110.30284999999999, 86.70137499999998 109.93185 C 87.00214999999999 109.79935, 87.29629999999997 109.65625, 87.59309999999998 109.517125 C 87.7309 110.1094, 87.82894999999999 110.60892499999999, 87.88989999999998 111.0157 Z M 104.16222499999999 64.32005 C 106.9275 81.62984999999999, 96.678625 98.00287499999999, 80.643475 103.49499999999999 C 79.51192499999999 102.15939999999999, 78.45589999999999 100.848975, 77.519125 99.63659999999999 C 78.351225 98.86014999999998, 78.55395 97.57754999999997, 77.9365 96.57055 L 75.664125 92.864525 C 76.36769999999999 88.947825, 77.357475 84.16324999999999, 78.322075 79.699325 C 78.60695 79.6715, 78.88387499999999 79.65559999999999, 79.17802499999999 79.609225 C 83.70157499999999 78.885775, 92.104725 77.539575, 93.53705 66.6494 C 93.63112499999998 66.067725, 93.88419999999999 64.54795, 94.03392499999998 63.637674999999994 L 103.72629999999998 62.090075 C 103.891925 62.82545, 104.04165 63.566125, 104.16222499999999 64.32005 Z M 114.4005 49.837799999999994 C 114.4005 49.837799999999994, 114.95037500000001 52.866749999999996, 111.8459 53.36229999999999 L 92.213375 56.4999 C 92.213375 56.4999, 92.197475 56.50122499999999, 92.167 56.506524999999996 C 91.6953 56.583375, 87.75607500000001 57.339949999999995, 86.913375 61.730999999999995 C 86.913375 61.730999999999995, 86.28002500000001 65.56687500000001, 86.27605 65.59469999999999 C 85.73280000000001 69.94467499999999, 83.8884 71.200775, 80.023375 72.00372499999999 C 79.40724999999999 72.13092499999999, 78.743425 72.24885, 78.0213 72.3628 C 77.6344 72.4264, 77.275325 72.443625, 76.925525 72.43567499999999 C 76.8606 72.43567499999999, 76.793025 72.43435, 76.7281 72.43302499999999 C 76.387575 72.41314999999999, 76.0603 72.372075, 75.751575 72.29522499999999 C 75.72904999999999 72.29257499999999, 75.709175 72.281975, 75.68665 72.27534999999999 C 75.02414999999999 72.10442499999999, 74.429225 71.8063, 73.885975 71.41409999999999 L 73.885975 71.41409999999999 C 72.21912499999999 70.204375, 71.02132499999999 68.102925, 69.7003 66.051825 C 69.611525 65.924625, 66.45935 58.914049999999996, 58.79024999999999 60.141 C 58.701474999999995 60.15425, 58.611374999999995 60.168825000000005, 58.52127499999999 60.184725 L 47.99812499999999 61.867475000000006 C 47.99812499999999 61.867475000000006, 39.65459999999999 63.74500000000001, 39.376349999999995 71.905675 C 39.376349999999995 71.905675, 39.333949999999994 73.97665, 38.425 76.38285 C 38.11229999999999 77.210975, 37.49484999999999 78.55850000000001, 36.19899999999999 80.11935000000001 C 34.944224999999996 81.52120000000001, 33.28532499999999 82.36125, 33.12367499999999 82.44737500000001 C 31.28589999999999 83.419925, 29.571349999999992 83.46895, 27.59047499999999 83.4663 C 25.12199999999999 83.34705, 22.156649999999992 82.49374999999999, 21.36562499999999 79.224975 L 19.87234999999999 73.556625 C 7.685 44.38145, 18.453274999999998 28.53445, 34.5772 20.123350000000002 C 34.96145 22.4103, 37.11325 23.959225, 39.40285 23.5922 C 41.704375 23.225174999999997, 43.273174999999995 21.061449999999997, 42.904824999999995 18.757274999999996 L 42.570924999999995 16.667749999999998 C 46.045075 15.427549999999998, 49.61595 14.449699999999998, 53.155024999999995 13.683849999999996 L 53.88377499999999 18.244499999999995 C 54.25212499999999 20.547349999999994, 56.41584999999999 22.116149999999998, 58.717375 21.749124999999996 C 61.018899999999995 21.380774999999996, 62.58902499999999 19.217049999999997, 62.22067499999999 16.914199999999994 L 61.47867499999999 12.276699999999995 C 61.477349999999994 12.262124999999996, 61.47072499999999 12.250199999999996, 61.468074999999985 12.235624999999995 C 65.15024999999999 11.758624999999995, 68.90264999999998 11.508199999999995, 72.64179999999999 11.620824999999995 L 73.01412499999998 13.948849999999997 C 73.38114999999999 16.251699999999992, 75.54619999999998 17.819174999999994, 77.84772499999998 17.452149999999996 C 80.14925 17.083799999999997, 81.71804999999999 14.920074999999997, 81.35102499999999 12.617224999999998 L 81.34837499999998 12.605299999999996 C 92.41477499999998 14.898874999999997, 102.68219999999997 21.466899999999995, 109.65169999999998 36.014075 L 105.53889999999998 36.66995 C 103.23604999999998 37.0383, 101.66989999999997 39.204675, 102.03692499999998 41.504875 C 102.40527499999999 43.807725, 104.56899999999997 45.37520000000001, 106.87052499999997 45.008175 L 112.86747499999997 44.050200000000004 C 113.30472499999996 45.36195000000001, 113.72872499999997 46.704175000000006, 114.12357499999996 48.1153 L 114.4005 49.837799999999994 Z" />
	</g>
</svg>