<svg xmlns="http://www.w3.org/2000/svg" viewbox="0 0 128 128" width="128" height="128">
	<g data-id="downhill_splash" fill="#010101">
		<path d="M 91.637 70.623 C 91.632 70.358, 91.627 70.098, 91.627 69.845 C 91.627 67.419, 89.94999999999999 64.972, 86.20299999999999 64.972 C 84.19699999999999 64.972, 81.92799999999998 65.64399999999999, 80.267 66.136 C 79.89399999999999 66.246, 79.383 66.399, 79.18299999999999 66.442 C 78.684 66.54899999999999, 78.222 66.601, 77.76599999999999 66.601 C 75.88999999999999 66.601, 74.19899999999998 65.663, 71.832 64.23 L 61.212999999999994 57.79900000000001 C 59.102 56.519000000000005, 58.24199999999999 55.13100000000001, 58.584999999999994 53.55700000000001 C 58.745999999999995 52.81700000000001, 58.88099999999999 52.05200000000001, 59.01199999999999 51.30600000000001 C 59.413999999999994 49.03500000000001, 59.82999999999999 46.68800000000001, 60.93099999999999 45.33500000000001 C 62.13799999999999 43.85300000000001, 64.591 42.864000000000004, 66.99499999999999 41.894000000000005 C 67.719 41.604000000000006, 68.46699999999998 41.303000000000004, 69.175 40.98700000000001 C 69.326 40.918000000000006, 69.807 40.74800000000001, 70.161 40.62200000000001 C 71.504 40.14300000000001, 73.342 39.48700000000001, 74.919 38.577000000000005 C 78.868 36.294000000000004, 78.785 33.56400000000001, 78.38799999999999 32.15200000000001 C 75.90599999999999 22.58700000000001, 69.53299999999999 14.501000000000008, 61.754999999999995 11.051000000000009 C 55.663999999999994 8.35100000000001, 47.175999999999995 6.739000000000009, 39.05 6.739000000000009 C 36.333999999999996 6.739000000000009, 33.769 6.920000000000009, 31.424999999999997 7.274000000000009 L 30.801 7.37 C 25.363 8.183, 14.044 9.878, 7.076 18.664 C .359 27.136000000000003, .843 38.958, 1.3629999999999995 43.648 C 1.7839999999999996 47.445, 2.6879999999999997 51.405, 4.047 55.417 C 4.34 56.28, 4.694999999999999 57.063, 5.0089999999999995 57.752 C 5.520999999999999 58.883, 5.9639999999999995 59.858000000000004, 5.9319999999999995 60.677 C 5.757999999999999 65.169, 10.166 66.889, 12.047 67.624 L 73.54 92.219 C 73.67200000000001 92.271, 73.80300000000001 92.33099999999999, 73.94800000000001 92.398 C 74.248 92.535, 74.62 92.703, 75.05300000000001 92.851 C 75.85400000000001 93.123, 76.644 93.262, 77.40400000000001 93.262 C 80.39600000000002 93.262, 82.14300000000001 91.219, 83.34 89.821 L 83.681 89.425 C 83.74799999999999 89.349, 83.946 89.163, 84.118 89.00099999999999 C 85.19699999999999 87.97899999999998, 87.67699999999999 85.62799999999999, 86.642 82.91999999999999 C 86.817 82.50399999999999, 87.113 81.93499999999999, 87.28699999999999 81.6 C 87.50699999999999 81.17899999999999, 87.713 80.783, 87.87299999999999 80.393 C 88.282 79.404, 88.282 79.404, 88.91199999999999 78.86 C 91.733 76.419, 91.676 72.937, 91.637 70.623 Z" />
		<path d="M 18.979 63.183 L 14.994 48.47 C 13.844 43.487, 7.920999999999999 41.174, 4.385999999999999 40.221 C 4.123999999999999 33.471, 5.4319999999999995 26.001999999999995, 9.639 20.695999999999998 C 16.066 12.590999999999998, 26.979 11.260999999999997, 31.919 10.507999999999997 C 40.478 9.203999999999997, 52.388999999999996 10.473999999999997, 60.432 14.039999999999997 C 67.842 17.326999999999998, 73.005 24.218999999999998, 75.10900000000001 31.915 C 73.88100000000001 34.272999999999996, 63.92600000000001 36.757999999999996, 62.60900000000001 37.348 C 59.519000000000005 38.728, 55.37700000000001 40.554, 53.165000000000006 43.272 C 51.072 45.844, 50.83500000000001 49.75, 50.159000000000006 52.863 C 49.403000000000006 56.342, 51.52400000000001 58.92, 54.287000000000006 60.595 C 57.828 62.738, 61.367000000000004 64.882, 64.90700000000001 67.02799999999999 C 68.043 68.92399999999999, 75.879 73.42899999999999, 79.87100000000001 71.6 C 81.54700000000001 70.83399999999999, 88.358 66.579, 88.358 69.845 C 88.358 72.092, 88.672 74.743, 86.77300000000001 76.385 C 85.64000000000001 77.364, 85.49400000000001 77.587, 84.85100000000001 79.143 C 84.38100000000001 80.28, 82.68 82.766, 83.45300000000002 83.847 C 84.15300000000002 84.82799999999999, 81.91900000000001 86.473, 81.22100000000002 87.27 C 80.79300000000002 87.758, 80.39600000000002 87.591, 79.98700000000002 88.018 L 18.979 63.183 Z" data-id="helmet" fill="white" />
		<path d="M 64.904 31.859 C 64.088 31.293000000000003, 63.458 33.660000000000004, 63.709999999999994 34.185 C 64.858 34.78, 65.389 32.195, 64.904 31.859 Z M 87.884 71.414 C 87.674 71.217, 88.047 70.893, 88.235 71.001 C 87.65 70.80600000000001, 87.574 70.149, 87.858 69.58800000000001 C 87.65700000000001 69.168, 87.06 69.179, 86.944 68.73800000000001 C 86.995 68.69800000000001, 87.047 68.66500000000002, 87.098 68.63000000000001 C 85.048 68.62700000000001, 81.094 71.04100000000001, 79.871 71.60000000000001 C 75.878 73.429, 68.042 68.924, 64.907 67.028 C 61.367 64.882, 57.827999999999996 62.73800000000001, 54.287 60.595000000000006 C 51.522999999999996 58.919000000000004, 49.403 56.34100000000001, 50.159 52.86300000000001 C 50.518 51.209, 50.757 49.33200000000001, 51.211 47.55100000000001 C 50.265 47.55800000000001, 49.766999999999996 48.84100000000001, 48.919 49.04400000000001 C 48.151999999999994 48.32900000000001, 49.148999999999994 47.21400000000001, 48.977999999999994 46.36400000000001 C 48.519999999999996 45.99200000000001, 48.035999999999994 45.80400000000001, 47.510999999999996 45.53100000000001 C 47.181999999999995 45.661000000000016, 47.20099999999999 46.094000000000015, 46.98 46.37300000000001 C 46.9 46.46500000000001, 46.543 46.53200000000001, 46.574 46.299000000000014 C 46.333 46.46400000000001, 46.126999999999995 46.77800000000001, 45.866 46.850000000000016 C 45.708 47.329000000000015, 45.925 47.725000000000016, 45.941 48.16500000000001 C 45.853 48.423000000000016, 45.689 48.353000000000016, 45.591 48.579000000000015 C 45.021 48.18800000000002, 45.161 47.63900000000002, 45.044000000000004 47.146000000000015 C 44.539 47.076000000000015, 44.32600000000001 47.250000000000014, 44.18900000000001 47.78500000000002 C 43.98400000000001 47.94900000000002, 43.668000000000006 47.77300000000002, 43.52400000000001 47.548000000000016 C 44.64900000000001 47.256000000000014, 44.20400000000001 45.69400000000002, 44.687000000000005 44.83900000000001 C 44.781000000000006 44.51900000000001, 45.033 44.896000000000015, 45.17400000000001 44.78400000000001 C 45.25500000000001 44.359000000000016, 44.92600000000001 44.024000000000015, 44.80500000000001 43.64500000000001 C 44.337 43.45700000000001, 44.06300000000001 44.13000000000001, 43.67300000000001 44.29100000000001 C 43.69800000000001 44.046000000000014, 43.61100000000001 43.82300000000001, 43.46500000000001 43.61400000000001 C 44.13600000000001 42.67600000000001, 45.00500000000001 44.02600000000001, 45.74500000000001 43.875000000000014 C 46.03700000000001 43.549000000000014, 45.97800000000001 43.304000000000016, 45.78900000000001 43.088000000000015 C 45.91400000000001 42.96100000000001, 46.196000000000005 43.146000000000015, 46.12300000000001 42.84600000000002 C 45.91700000000001 42.59200000000002, 45.82100000000001 42.81800000000002, 45.677000000000014 42.83600000000002 C 45.121000000000016 42.45500000000002, 45.07100000000001 41.70100000000002, 44.91200000000001 41.17600000000002 C 44.56600000000002 40.044000000000025, 44.79300000000001 38.52200000000002, 45.445000000000014 37.166000000000025 C 45.11700000000001 38.538000000000025, 45.231000000000016 39.80800000000003, 45.546000000000014 41.03300000000002 C 45.77300000000001 41.05500000000002, 46.012000000000015 41.13200000000002, 46.15600000000001 40.78300000000002 C 46.50100000000001 41.130000000000024, 46.57100000000001 41.675000000000026, 47.134000000000015 41.672000000000025 C 47.52800000000001 41.322000000000024, 47.847000000000016 40.89600000000002, 47.69900000000001 40.48800000000003 C 47.296000000000014 40.260000000000026, 46.860000000000014 39.88700000000003, 46.49200000000001 39.818000000000026 C 46.26600000000001 40.053000000000026, 46.42500000000001 40.20400000000003, 46.29500000000001 40.41800000000003 C 46.12400000000001 39.60400000000003, 46.87500000000001 38.102000000000025, 46.34000000000001 37.187000000000026 C 46.13100000000001 37.08300000000003, 45.88100000000001 36.79600000000003, 45.73900000000001 36.99000000000002 C 45.76600000000001 36.43000000000002, 45.49300000000001 35.697000000000024, 44.89100000000001 35.46000000000002 C 43.63200000000001 36.25700000000002, 44.963000000000015 37.87100000000002, 43.88900000000001 38.63200000000002 C 44.00100000000001 38.86900000000002, 44.02600000000001 38.865000000000016, 44.30200000000001 38.98300000000002 C 44.02100000000001 39.53800000000002, 43.708000000000006 39.95500000000002, 43.25900000000001 39.77500000000002 C 43.104000000000006 40.05400000000002, 43.16700000000001 40.57100000000002, 43.49300000000001 40.55500000000002 C 43.68800000000001 40.76300000000002, 43.74300000000001 40.35800000000002, 43.86800000000001 40.24600000000002 C 44.02600000000001 41.22900000000002, 42.88200000000001 42.169000000000025, 42.81000000000001 42.931000000000026 C 42.11300000000001 42.611000000000026, 43.29400000000001 41.39000000000003, 43.50000000000001 40.83000000000003 C 43.28300000000001 40.77100000000003, 43.39000000000001 40.63400000000003, 43.217000000000006 40.560000000000024 C 42.967000000000006 40.443000000000026, 42.775000000000006 40.57300000000002, 42.607000000000006 40.810000000000024 C 42.31700000000001 40.55500000000002, 42.074000000000005 40.36900000000002, 41.772000000000006 40.55700000000002 C 41.462 41.18300000000002, 42.190000000000005 41.57300000000002, 42.026 42.16400000000002 C 41.61300000000001 42.636000000000024, 41.216 42.46000000000002, 40.984 42.95800000000002 C 40.885000000000005 43.16700000000002, 41.1 43.53200000000002, 41.005 43.78600000000002 C 40.808 44.312000000000026, 40.385000000000005 44.45500000000002, 39.88 44.70700000000002 C 39.86 44.508000000000024, 39.649 44.35300000000002, 39.379000000000005 44.21000000000002 C 39.14900000000001 44.44800000000002, 39.215 44.61900000000002, 39.288000000000004 44.78600000000002 C 38.934000000000005 44.93900000000002, 38.59 45.14000000000002, 38.214000000000006 45.19800000000002 C 37.837 44.752000000000024, 37.386 43.70700000000002, 36.553000000000004 44.24000000000002 C 36.45100000000001 44.078000000000024, 36.785000000000004 43.81700000000002, 36.434000000000005 43.71400000000002 C 36.164 44.37000000000002, 36.79900000000001 45.27800000000002, 35.891000000000005 45.72600000000002 C 35.871 45.09200000000002, 35.50000000000001 44.53800000000002, 34.798 44.58500000000002 C 34.367000000000004 45.12800000000002, 34.552 45.52800000000002, 35.086 45.852000000000025 C 34.035 46.443000000000026, 32.952 46.89300000000002, 31.825 47.14900000000002 C 31.259999999999998 46.37800000000002, 31.203 45.42600000000002, 30.38 44.69900000000002 C 29.697 44.09500000000002, 28.369999999999997 43.865000000000016, 28.672 42.80900000000002 C 28.47 42.75700000000002, 28.44 42.39000000000002, 28.219 42.52300000000002 C 28.002000000000002 42.304000000000016, 27.956 42.83600000000002, 27.779 42.789000000000016 C 27.38 42.49800000000002, 27.056 42.54100000000002, 26.757 42.689000000000014 C 26.718 43.695000000000014, 27.409000000000002 44.518000000000015, 28.478 45.13000000000002 C 28.687 45.07500000000002, 28.864 44.869000000000014, 29.064 44.77600000000002 C 30.332 45.63500000000002, 29.881 46.88500000000002, 31.18 47.740000000000016 C 30.124 49.12000000000002, 28.687 48.82500000000002, 27.463 49.472000000000016 C 27.323 49.347000000000016, 27.249000000000002 49.50100000000002, 27.098000000000003 49.33300000000001 C 26.486000000000004 49.81600000000001, 25.895000000000003 50.39200000000001, 25.17 50.38000000000001 C 24.505000000000003 51.28600000000001, 23.781000000000002 51.93200000000001, 22.916 51.94700000000001 C 22.351 51.59500000000001, 22.22 50.74200000000001, 21.588 50.75000000000001 C 21.572000000000003 51.51200000000001, 21.493000000000002 52.525000000000006, 21.986 52.99300000000001 C 21.533 53.153000000000006, 21.608 53.70400000000001, 21.568 54.08800000000001 C 20.673000000000002 54.53500000000001, 21.091 55.409000000000006, 20.92 56.12500000000001 C 20.634 57.318000000000005, 20.001 58.65700000000001, 20.331000000000003 59.64600000000001 C 20.120000000000005 59.775000000000006, 19.838000000000005 59.592000000000006, 19.633000000000003 59.74900000000001 C 19.298000000000002 60.28800000000001, 19.132 60.78800000000001, 19.035000000000004 61.27300000000001 C 19.572000000000003 61.59900000000001, 20.030000000000005 61.58300000000001, 20.415000000000003 61.238000000000014 C 20.799000000000003 62.28100000000001, 21.104000000000003 63.344000000000015, 21.777 64.32100000000001 L 33.868 69.24300000000001 C 33.895 69.23500000000001, 33.925000000000004 69.224, 33.95 69.22000000000001 C 33.976000000000006 69.24600000000001, 33.996 69.27800000000002, 34.018 69.30400000000002 L 42.447 72.73600000000002 C 42.505 72.68100000000001, 42.549 72.62200000000001, 42.537000000000006 72.54600000000002 C 43.10300000000001 72.67300000000002, 43.854000000000006 72.31400000000002, 44.30700000000001 72.75700000000002 C 44.85900000000001 72.74100000000001, 45.33900000000001 72.40500000000002, 45.89200000000001 72.39800000000002 C 46.14200000000001 72.45400000000002, 46.04300000000001 72.48400000000002, 46.28200000000001 72.64100000000002 C 46.65800000000001 72.42600000000002, 47.01700000000001 72.12900000000002, 47.38800000000001 71.89100000000002 C 48.164000000000016 72.05800000000002, 48.47300000000001 72.96100000000001, 48.91000000000001 73.21100000000001 C 49.08800000000001 73.70800000000001, 49.02300000000001 74.25900000000001, 48.994000000000014 74.80400000000002 C 49.58600000000001 74.71900000000002, 50.009000000000015 74.09000000000002, 50.554000000000016 74.33800000000002 C 51.16900000000002 74.61600000000003, 51.21100000000001 75.71100000000003, 51.39200000000002 76.31500000000003 C 51.128000000000014 76.17700000000002, 50.75800000000002 75.95600000000003, 50.47300000000002 76.00300000000003 L 53.13200000000002 77.08600000000003 C 52.95900000000002 76.19800000000002, 52.14400000000002 75.45700000000002, 51.94200000000002 74.57800000000003 C 52.59700000000002 74.36600000000003, 53.25700000000002 74.17400000000004, 53.99700000000002 74.33400000000003 C 55.185000000000024 73.85600000000004, 56.273000000000025 72.93600000000004, 57.52800000000002 72.75300000000003 C 59.12600000000002 73.55700000000003, 60.00400000000002 74.90700000000002, 61.36700000000002 75.71600000000002 C 61.475000000000016 75.55900000000003, 61.61400000000002 75.59300000000002, 61.57000000000002 75.39100000000002 C 61.10800000000002 74.52500000000002, 60.895000000000024 72.72700000000002, 59.40300000000002 72.94000000000003 C 57.89700000000002 72.01400000000002, 58.85300000000002 70.82400000000003, 59.18800000000002 69.54400000000003 C 59.759000000000015 69.89700000000002, 59.32500000000002 70.47600000000003, 59.923000000000016 70.82100000000003 C 59.890000000000015 71.65100000000002, 59.97400000000002 72.12700000000002, 60.72900000000001 72.41500000000002 C 61.064000000000014 72.54400000000003, 61.45900000000001 72.27800000000002, 61.79300000000001 72.45200000000003 C 62.10700000000001 72.61800000000002, 62.14200000000001 73.00200000000002, 62.448000000000015 73.13700000000003 C 62.63600000000002 73.15400000000002, 62.77500000000001 72.94400000000003, 62.92800000000001 72.80500000000004 C 63.65000000000001 73.31700000000004, 64.12200000000001 73.99800000000003, 64.00000000000001 74.84000000000003 C 63.66600000000001 75.09600000000003, 63.372000000000014 75.49900000000004, 63.411000000000016 75.91800000000003 C 62.81300000000002 75.48400000000004, 62.45900000000002 76.12600000000003, 61.95000000000002 76.08200000000004 C 61.72000000000002 76.69000000000004, 62.228000000000016 77.13100000000004, 62.94400000000002 77.52300000000004 C 63.243000000000016 77.29300000000003, 63.552000000000014 77.10400000000004, 63.911000000000016 77.13700000000004 C 64.07100000000001 76.95200000000004, 63.97900000000001 76.82500000000005, 64.02600000000001 76.66600000000004 C 64.58000000000001 76.57400000000004, 65.10900000000001 76.37800000000004, 65.48400000000001 75.50000000000004 C 65.78000000000002 75.67500000000004, 65.57100000000001 75.96300000000004, 65.37500000000001 76.24900000000004 C 65.19000000000001 77.37700000000004, 66.82500000000002 78.03700000000003, 67.54700000000001 77.25500000000004 C 67.46800000000002 77.46300000000004, 67.058 77.72900000000004, 67.08100000000002 78.13800000000003 C 67.69900000000001 78.67300000000003, 67.67900000000002 77.95000000000003, 68.06600000000002 77.58100000000003 C 68.85700000000001 76.83000000000003, 70.50200000000001 77.35900000000004, 70.34400000000002 78.56300000000003 C 69.55900000000003 79.15500000000003, 69.12700000000002 79.58400000000003, 68.80200000000002 80.58100000000003 C 68.57800000000002 80.61300000000003, 68.38000000000002 80.22400000000003, 68.11900000000001 80.51500000000003 C 68.05000000000001 80.86200000000002, 68.37500000000001 80.88700000000003, 68.63800000000002 80.84000000000003 C 68.76700000000002 81.23600000000003, 68.08900000000001 81.81600000000003, 68.33300000000001 82.18800000000003 C 69.30900000000001 82.08200000000004, 69.90100000000001 81.23700000000004, 70.62900000000002 80.55300000000003 C 71.10600000000002 80.10700000000003, 71.64900000000002 79.47700000000003, 72.16800000000002 79.26100000000002 C 72.46600000000002 79.13600000000002, 72.73900000000002 79.25100000000002, 73.10200000000002 79.21500000000002 C 73.51800000000001 79.17300000000002, 73.91700000000002 78.96200000000002, 74.33000000000001 78.99200000000002 C 74.64800000000001 79.01500000000001, 74.95500000000001 79.23100000000002, 75.27000000000001 79.22200000000002 C 75.558 79.21500000000002, 75.76200000000001 79.01300000000002, 76.058 79.26600000000002 C 76.158 79.13000000000002, 76.135 79.02500000000002, 75.98700000000001 78.94900000000003 C 76.95200000000001 77.75800000000002, 77.98 79.43000000000002, 78.983 78.93500000000003 C 79.41300000000001 79.27900000000002, 79.778 79.33900000000003, 80.119 79.28800000000003 C 80.695 78.50900000000003, 80.613 77.88000000000002, 80.28 77.30800000000002 C 80.71300000000001 75.98700000000002, 82.107 77.12500000000001, 82.849 76.39100000000002 C 82.918 75.96400000000001, 83.375 75.33900000000001, 83.738 75.41200000000002 C 84.05499999999999 75.80200000000002, 84.375 76.19200000000002, 84.619 76.59900000000002 C 85.098 76.47700000000002, 84.296 75.77200000000002, 84.396 75.37400000000002 C 84.946 74.93200000000003, 85.687 74.96200000000002, 85.983 74.29000000000002 C 86.23 73.72800000000002, 85.742 73.12300000000002, 85.81 72.55300000000003 C 86.355 71.69100000000003, 87.01 71.31400000000002, 87.78 71.43900000000002 C 87.994 71.73400000000002, 88.12 72.19300000000003, 88.348 72.60600000000002 C 88.372 72.20200000000003, 88.379 71.79400000000003, 88.376 71.38800000000002 C 88.186 71.364, 88.014 71.368, 87.884 71.414 Z M 42.521 46.553 C 42.03 46.196999999999996, 41.711 45.646, 42.167 45.244 C 42.651 45.108, 43.065000000000005 45.824, 43.627 45.801 C 43.507000000000005 46.068000000000005, 43.603 46.289, 43.413000000000004 46.572 C 43.035 46.209, 42.769 46.341, 42.521 46.553 Z M 59.456 68.537 C 59.306000000000004 68.36800000000001, 59.231 68.522, 59.091 68.39800000000001 C 59.208 68.174, 59.365 68.135, 59.554 68.236 C 59.52 68.338, 59.568 68.419, 59.456 68.537 Z M 60.498 70.189 C 60.303999999999995 69.77499999999999, 60.805 69.214, 61.271 69.67999999999999 C 61.044 69.985, 60.833 70.36, 60.498 70.189 Z M 61.756 67.902 C 62.188 68.063, 61.31 68.68900000000001, 61.42 68.869 C 60.979 68.835, 59.946000000000005 68.695, 59.813 68.4 C 59.800000000000004 68.087, 60.425000000000004 68.489, 60.618 68.272 C 59.931000000000004 68.311, 59.594 67.84400000000001, 59.029 67.634 C 59.28 67.075, 59.031000000000006 66.489, 59.351000000000006 66.115 C 59.714000000000006 65.69099999999999, 59.99100000000001 65.984, 60.56100000000001 66.062 C 61.288000000000004 66.163, 61.827000000000005 65.984, 62.50800000000001 66.565 C 62.333 67.071, 62.047 67.838, 61.756 67.902 Z M 61.979 37.079 C 61.333 36.829, 61.262 37.477000000000004, 61.018 37.74 C 60.832 37.943000000000005, 60.63 38.138000000000005, 60.434 38.336 C 60.840999999999994 38.144999999999996, 61.242 37.961999999999996, 61.632999999999996 37.785 C 61.778 37.59, 61.902 37.364, 61.979 37.079 Z M 22.659 41.285 C 22.47 41.608, 22.558 42.799, 23.002 43.041 C 23.329 43.218999999999994, 23.43 42.922, 23.831 43.019999999999996 C 24.142 43.419999999999995, 23.951 43.791, 24.348 44.068 C 25.628 44.967, 26.038999999999998 42.515, 24.279999999999998 42.306999999999995 C 24.434 41.291, 23.25 40.284, 22.659 41.285 Z M 19.214 39.567 C 19.404999999999998 40.605, 21.034 40.954, 21.977999999999998 41.218 C 22.019 41.153000000000006, 22.058999999999997 41.088, 22.101 41.022000000000006 C 21.669 40.297, 20.192 39.131, 19.214 39.567 Z M 21.114 37.414 C 21.141000000000002 37.370000000000005, 21.169 37.328, 21.196 37.283 C 21.185000000000002 36.08, 19.75 34.283, 18.421000000000003 34.36 C 18.048 35.639, 19.878 37.021, 21.114 37.414 Z M 56.208 21.947 C 56.352 21.811, 56.547 21.634, 56.576 21.362 C 56.602000000000004 21.107, 56.008 19.715, 55.786 19.595999999999997 C 54.063 18.685, 54.554 23.504, 56.208 21.947 Z M 23.798 47.524 C 24.156999999999996 48.254, 25.404999999999998 48.968, 25.721999999999998 47.921 C 26.002 46.992, 24.535999999999998 46.043, 23.616 46.233 C 23.371 46.62, 23.048 46.668, 22.81 47.083999999999996 C 22.964 47.489, 23.453 47.578, 23.798 47.524 Z M 56.79 39.424 C 58.147999999999996 39.882, 59.367 37.506, 59.448 36.209 C 58.631 35.553000000000004, 58.313 37.081, 57.57 36.747 C 57.228 37.773, 55.876 39.102, 55.853 40.189 C 56.26 40.357, 56.497 39.765, 56.79 39.424 Z M 34.173 36.948 C 34.275 36.442, 34.128 35.763, 33.373000000000005 35.631 C 32.88 36.226, 33.606 36.771, 34.173 36.948 Z M 33.628 42.129 C 33.051 43.11, 33.072 43.957, 33.757 44.653 C 33.815 44.585, 33.909 44.674, 33.992 44.711 C 35.058 44.007, 34.924 42.122, 33.628 42.129 Z M 34.463 39.938 C 35.046 39.511, 34.669000000000004 38.406000000000006, 33.852000000000004 38.464000000000006 C 33.381 39.08, 34.081 39.7, 34.463 39.938 Z M 38.738 36.745 C 39.463 37.421, 40.054 37.991, 40.983 38.068 C 40.644 36.36, 38.23 36.254, 37.214999999999996 35.424 C 36.589999999999996 36.109, 36.977999999999994 37.028999999999996, 37.443 37.650999999999996 C 37.716 37.002, 38.233 36.976, 38.738 36.745 Z M 41.611 32.761 C 41.702999999999996 32.843, 41.76 32.77, 41.846 32.819 C 42.794999999999995 31.637000000000004, 42.293 30.310000000000002, 42.346 29.149 C 42.428999999999995 28.864, 42.623 29.066000000000003, 42.721 28.842000000000002 C 42.467 28.326, 42.416 27.763, 41.766999999999996 27.336000000000002 C 40.601 28.472, 41.422 29.918000000000003, 41.672999999999995 31.079 C 41.471 31.681, 41.571 32.215, 41.611 32.761 Z M 36.561 41.351 C 36.876 40.496, 36.552 39.298, 35.424 39.275999999999996 C 34.458 40.051, 35.585 41.525, 36.561 41.351 Z M 21.334 25.42 C 21.544 25.558000000000003, 21.466 25.762, 21.77 25.877000000000002 C 21.893 26.275000000000002, 21.893 26.701000000000004, 21.887999999999998 27.127000000000002 C 22.278 28.134000000000004, 22.470999999999997 29.228, 23.348 30.130000000000003 C 23.555 30.344, 23.862 30.463, 24.084999999999997 30.686000000000003 C 25.270999999999997 31.868000000000002, 27.096999999999998 32.328, 28.690999999999995 32.139 C 28.569999999999997 32.557, 28.951999999999995 32.959, 29.353999999999996 33.099000000000004 C 29.567999999999994 32.698, 29.167999999999996 32.437000000000005, 29.178999999999995 32.085 C 30.251999999999995 31.936, 30.918999999999993 31.354, 31.402999999999995 30.134 C 31.613999999999994 29.999, 31.910999999999994 30.244, 32.17399999999999 30.347 C 32.40699999999999 30.326, 31.77499999999999 30.035, 31.629999999999992 29.916 C 32.63299999999999 28.403, 33.46499999999999 27.562, 33.38199999999999 26.129 C 33.349999999999994 25.578000000000003, 32.79499999999999 23.951, 32.48199999999999 23.388 C 32.23199999999999 22.94, 31.749999999999993 22.633000000000003, 31.641999999999992 22.136000000000003 C 30.21999999999999 21.320000000000004, 29.32699999999999 20.069000000000003, 27.92299999999999 19.702 C 27.72399999999999 19.723000000000003, 27.62399999999999 20.183000000000003, 27.42599999999999 20.205000000000002 C 26.490999999999993 20.448, 25.301999999999992 20.231, 24.40299999999999 20.836000000000002 C 23.658999999999992 21.334000000000003, 23.214999999999993 22.263, 22.382999999999992 22.46 C 21.868999999999993 22.583000000000002, 21.55099999999999 22.227, 20.93699999999999 22.456 C 21 23.461, 21.979 24.256, 21.334 25.42 Z" data-id="splash" fill="darkgray" />
		<path d="M 98.603 15.258 C 98.64 15.213, 98.681 15.165999999999999, 98.71199999999999 15.122 C 98.746 15.074, 98.76499999999999 15.029, 98.79099999999998 14.983 C 98.81399999999998 14.942, 98.84299999999999 14.899000000000001, 98.85899999999998 14.860000000000001 C 98.87699999999998 14.816, 98.87799999999999 14.777000000000001, 98.88699999999999 14.735000000000001 C 98.89399999999999 14.698, 98.90899999999999 14.659, 98.90799999999999 14.625000000000002 C 98.90699999999998 14.587000000000002, 98.88699999999999 14.555000000000001, 98.87399999999998 14.521000000000003 C 98.86299999999999 14.490000000000002, 98.86099999999998 14.456000000000003, 98.83999999999997 14.427000000000003 C 98.81599999999997 14.396000000000003, 98.76999999999998 14.372000000000003, 98.73299999999998 14.346000000000004 C 98.69999999999997 14.323000000000004, 98.67799999999997 14.295000000000003, 98.63299999999998 14.276000000000003 C 98.58299999999998 14.254000000000003, 98.50799999999998 14.240000000000004, 98.44299999999998 14.223000000000003 C 98.38599999999998 14.208000000000002, 98.33999999999999 14.189000000000002, 98.26999999999998 14.179000000000002 C 98.19199999999998 14.167000000000002, 98.08499999999998 14.165000000000003, 97.98999999999998 14.160000000000002 C 97.90999999999998 14.155000000000001, 97.84699999999998 14.144000000000002, 97.75499999999998 14.144000000000002 L 97.70499999999998 14.144000000000002 C 97.70499999999998 14.144000000000002, 97.66599999999998 14.145000000000001, 97.60999999999999 14.146000000000003 C 97.42699999999998 14.150000000000002, 96.96399999999998 14.159000000000002, 96.25599999999999 14.166000000000002 C 96.24499999999999 14.166000000000002, 96.23299999999999 14.166000000000002, 96.22199999999998 14.166000000000002 C 96.05099999999997 14.168000000000003, 95.86599999999999 14.169000000000002, 95.66799999999998 14.171000000000003 C 95.64299999999997 14.171000000000003, 95.61599999999997 14.171000000000003, 95.59099999999998 14.171000000000003 C 95.40499999999997 14.172000000000002, 95.20599999999997 14.173000000000004, 94.99899999999998 14.174000000000003 C 94.94999999999997 14.174000000000003, 94.90099999999998 14.175000000000002, 94.85099999999998 14.175000000000002 C 94.67099999999998 14.175000000000002, 94.48099999999998 14.176000000000002, 94.28699999999999 14.176000000000002 C 94.20899999999999 14.176000000000002, 94.13099999999999 14.176000000000002, 94.05099999999999 14.176000000000002 C 93.69099999999999 14.176000000000002, 93.30899999999998 14.175000000000002, 92.90499999999999 14.173000000000002 C 92.82799999999999 14.172000000000002, 92.74499999999999 14.171000000000001, 92.66699999999999 14.171000000000001 C 92.35599999999998 14.169, 92.02899999999998 14.166, 91.695 14.163000000000002 C 91.53399999999999 14.161000000000001, 91.375 14.160000000000002, 91.21 14.158000000000001 C 90.827 14.153, 90.42999999999999 14.147000000000002, 90.02199999999999 14.14 C 89.80999999999999 14.137, 89.58999999999999 14.132000000000001, 89.37199999999999 14.128 C 89.12199999999999 14.123, 88.86599999999999 14.118, 88.60699999999999 14.112 C 88.35799999999999 14.106, 88.10999999999999 14.101, 87.85499999999999 14.094 C 87.451 14.084, 87.03699999999999 14.072999999999999, 86.61699999999999 14.059999999999999 C 86.326 14.050999999999998, 86.029 14.040999999999999, 85.731 14.031999999999998 C 85.515 14.024, 85.29499999999999 14.015999999999998, 85.076 14.008999999999999 C 84.544 13.988999999999999, 84.002 13.967999999999998, 83.452 13.943999999999999 C 83.247 13.934999999999999, 83.044 13.927, 82.837 13.918 C 82.49600000000001 13.902, 82.15 13.885, 81.804 13.866999999999999 C 81.601 13.857, 81.397 13.845999999999998, 81.193 13.834999999999999 C 80.593 13.802999999999999, 79.987 13.767999999999999, 79.376 13.729 C 79.179 13.716999999999999, 78.983 13.705, 78.786 13.691999999999998 C 78.421 13.668, 78.054 13.641999999999998, 77.686 13.615999999999998 C 77.483 13.600999999999997, 77.27900000000001 13.585999999999999, 77.07600000000001 13.569999999999999 C 76.47200000000001 13.524999999999999, 75.867 13.475999999999999, 75.26100000000001 13.423999999999998 C 75.02900000000001 13.403999999999998, 74.79700000000001 13.383999999999999, 74.56400000000001 13.362999999999998 C 74.21000000000001 13.330999999999998, 73.855 13.297999999999998, 73.5 13.262999999999998 C 73.247 13.237999999999998, 72.994 13.210999999999999, 72.741 13.185999999999998 C 72.192 13.128999999999998, 71.644 13.068999999999997, 71.099 13.005999999999998 C 70.839 12.975999999999999, 70.57900000000001 12.944999999999999, 70.321 12.913999999999998 C 69.992 12.872999999999998, 69.664 12.832999999999998, 69.338 12.789999999999997 C 68.859 12.727999999999998, 68.384 12.662999999999997, 67.91199999999999 12.594999999999997 C 67.618 12.552999999999997, 67.32799999999999 12.506999999999998, 67.03699999999999 12.461999999999996 C 66.73799999999999 12.415999999999997, 66.442 12.368999999999996, 66.14699999999999 12.320999999999996 C 65.87299999999999 12.274999999999997, 65.597 12.230999999999996, 65.326 12.183999999999996 C 64.741 12.080999999999996, 64.16099999999999 11.976999999999995, 63.596 11.864999999999995 C 63.596 11.864999999999995, 59.855999999999995 10.918999999999995, 57.324999999999996 10.918999999999995 C 56.239 10.918999999999995, 55.376 11.093999999999996, 55.126999999999995 11.592999999999995 C 55.126999999999995 11.592999999999995, 57.818999999999996 11.975999999999996, 62.584999999999994 13.809999999999995 C 62.584999999999994 13.809999999999995, 60.69499999999999 15.181999999999995, 58.41499999999999 15.181999999999995 C 58.41499999999999 15.181999999999995, 58.27199999999999 15.160999999999994, 58.02599999999999 15.160999999999994 C 57.22699999999999 15.160999999999994, 55.34999999999999 15.398999999999994, 53.79399999999999 17.242999999999995 L 53.77599999999999 17.242999999999995 C 53.66299999999999 17.376999999999995, 53.54999999999999 17.515999999999995, 53.441999999999986 17.668999999999993 L 46.39499999999999 27.822999999999993 C 46.39499999999999 27.822999999999993, 42.45799999999999 32.797, 47.84699999999999 33.831999999999994 L 55.09999999999999 35.07599999999999 C 55.09999999999999 35.07599999999999, 55.12599999999999 35.081999999999994, 55.16699999999999 35.090999999999994 C 55.17899999999999 35.092999999999996, 55.18499999999999 35.093999999999994, 55.200999999999986 35.096999999999994 C 55.246999999999986 35.105999999999995, 55.30899999999998 35.117, 55.387999999999984 35.12799999999999 C 55.40699999999998 35.129999999999995, 55.41899999999998 35.13199999999999, 55.43999999999998 35.13499999999999 C 55.639999999999986 35.16199999999999, 55.91999999999998 35.18799999999999, 56.268999999999984 35.18999999999999 C 56.28199999999998 35.18999999999999, 56.29199999999999 35.19099999999999, 56.304999999999986 35.19099999999999 C 56.32199999999999 35.19099999999999, 56.341999999999985 35.188999999999986, 56.35899999999999 35.188999999999986 C 56.50799999999999 35.18799999999999, 56.66699999999999 35.18099999999998, 56.83699999999999 35.16899999999998 C 56.877999999999986 35.16599999999998, 56.91499999999999 35.16299999999998, 56.95699999999999 35.15999999999998 C 57.365999999999985 35.12399999999998, 57.822999999999986 35.048999999999985, 58.31599999999999 34.914999999999985 C 58.37399999999999 34.89899999999999, 58.43199999999999 34.880999999999986, 58.490999999999985 34.862999999999985 C 58.68499999999999 34.804999999999986, 58.883999999999986 34.73699999999999, 59.08699999999998 34.658999999999985 C 59.152999999999984 34.633999999999986, 59.216999999999985 34.60899999999999, 59.283999999999985 34.58199999999999 C 59.80299999999998 34.365999999999985, 60.341999999999985 34.075999999999986, 60.886999999999986 33.692999999999984 C 60.96199999999999 33.639999999999986, 61.036999999999985 33.58199999999999, 61.11199999999999 33.52599999999998 C 61.31599999999999 33.37299999999998, 61.51999999999999 33.20599999999998, 61.72399999999999 33.024999999999984 C 61.80299999999999 32.954999999999984, 61.880999999999986 32.886999999999986, 61.95899999999999 32.81299999999998 C 62.22999999999999 32.55599999999998, 62.50099999999999 32.28099999999998, 62.76799999999999 31.96699999999998 L 66.29199999999999 27.82199999999998 C 66.29199999999999 27.82199999999998, 67.951 24.71299999999998, 75.618 23.15899999999998 C 75.618 23.15899999999998, 90.954 20.360999999999983, 96.13399999999999 17.25199999999998 C 96.13399999999999 17.25199999999998, 96.20399999999998 17.20799999999998, 96.31099999999999 17.13799999999998 C 96.323 17.12999999999998, 96.329 17.12699999999998, 96.342 17.11799999999998 C 96.358 17.10699999999998, 96.38 17.092999999999982, 96.396 17.08199999999998 C 96.45100000000001 17.045999999999978, 96.506 17.00899999999998, 96.574 16.96299999999998 C 96.588 16.952999999999978, 96.605 16.94199999999998, 96.619 16.93199999999998 C 96.695 16.87999999999998, 96.774 16.82599999999998, 96.861 16.76499999999998 C 96.90700000000001 16.731999999999978, 96.959 16.693999999999978, 97.00800000000001 16.658999999999978 C 97.06800000000001 16.61599999999998, 97.12500000000001 16.57599999999998, 97.18700000000001 16.529999999999976 C 97.24000000000001 16.490999999999975, 97.29400000000001 16.447999999999976, 97.34800000000001 16.406999999999975 C 97.41000000000001 16.359999999999975, 97.47200000000001 16.314999999999976, 97.53400000000002 16.264999999999976 C 97.58700000000002 16.223999999999975, 97.63900000000002 16.179999999999975, 97.69200000000002 16.136999999999976 C 97.75400000000002 16.085999999999977, 97.81800000000003 16.035999999999976, 97.87900000000002 15.983999999999975 C 97.93400000000003 15.937999999999976, 97.98300000000002 15.890999999999975, 98.03600000000002 15.843999999999975 C 98.09300000000002 15.793999999999974, 98.15100000000001 15.743999999999975, 98.20400000000002 15.693999999999974 C 98.25500000000002 15.645999999999974, 98.29900000000002 15.597999999999974, 98.34600000000002 15.549999999999974 C 98.39500000000002 15.500999999999975, 98.44700000000002 15.450999999999974, 98.49000000000002 15.403999999999973 C 98.53 15.354, 98.563 15.307, 98.603 15.258 Z" />
		<circle cx="51.301" cy="29.939" r="2.016" data-id="visor_hole" fill="#939598" />
		<path d="M 18.978 63.51 L 14.993000000000002 48.141999999999996 C 13.844000000000001 43.157999999999994, 7.921000000000002 40.848, 4.386000000000003 39.894999999999996 C 4.124000000000002 33.144999999999996, 5.432000000000003 25.673999999999996, 9.638000000000002 20.368999999999996 C 16.065 12.262999999999996, 26.978 10.934999999999997, 31.919 10.180999999999996 C 40.478 8.876999999999995, 52.388000000000005 10.147999999999996, 60.432 13.712999999999996 C 67.84100000000001 16.998999999999995, 73.004 24.546999999999997, 75.10900000000001 32.242999999999995 C 73.88100000000001 34.599, 65.88700000000001 37.084999999999994, 64.57100000000001 37.67399999999999 C 61.48100000000001 39.05599999999999, 57.33900000000001 40.227999999999994, 55.12700000000001 42.94499999999999 C 53.03300000000001 45.517999999999994, 52.79700000000001 49.42399999999999, 52.12000000000001 52.53699999999999 C 51.36400000000001 56.01499999999999, 53.485000000000014 58.59199999999999, 56.24900000000001 60.267999999999994 C 59.78900000000001 62.41199999999999, 63.32800000000001 64.556, 66.867 66.699 C 70.003 68.598, 75.99300000000001 71.458, 79.87 70.62 C 81.671 70.233, 88.357 66.251, 88.357 69.51700000000001 C 88.357 71.76500000000001, 88.67099999999999 74.41400000000002, 86.772 76.05900000000001 C 85.63900000000001 77.03800000000001, 85.49300000000001 77.26, 84.85000000000001 78.81700000000001 C 84.38100000000001 79.95400000000001, 82.679 82.44000000000001, 83.453 83.521 C 84.153 84.5, 81.919 86.147, 81.22 86.943 C 80.79299999999999 87.432, 80.396 87.919, 79.986 88.344 L 18.978 63.51 Z" fill="none" />
	</g>
</svg>