<svg xmlns="http://www.w3.org/2000/svg" viewbox="0 0 128 128" width="128" height="128">
	<g data-id="downhill_flames" fill="#010101">
		<path d="M 114.05319999999999 89.7932 C 114.04839999999999 89.4764, 114.0424 89.1644, 114.0424 88.856 C 114.0424 85.93999999999998, 112.0252 82.99759999999999, 107.5204 82.99759999999999 C 105.10839999999999 82.99759999999999, 102.38199999999999 83.8064, 100.3852 84.39799999999998 C 99.9364 84.5312, 99.322 84.71479999999998, 99.0808 84.76639999999999 C 98.482 84.896, 97.9252 84.9572, 97.37919999999998 84.9572 C 95.12319999999998 84.9572, 93.08919999999998 83.82799999999999, 90.24519999999997 82.10719999999999 L 77.47959999999998 74.3744 C 74.94159999999998 72.8372, 73.90719999999997 71.16799999999999, 74.31999999999998 69.2768 C 74.51439999999997 68.38759999999999, 74.67399999999998 67.46719999999999, 74.83359999999998 66.5696 C 75.31719999999997 63.84199999999999, 75.81639999999997 61.0196, 77.13999999999997 59.392399999999995 C 78.59079999999997 57.6104, 81.53919999999997 56.4212, 84.43119999999996 55.2572 C 85.30119999999995 54.9068, 86.20119999999996 54.544399999999996, 87.05079999999997 54.165200000000006 C 87.23319999999997 54.083600000000004, 87.81039999999996 53.878400000000006, 88.23639999999996 53.726000000000006 C 89.85039999999996 53.1512, 92.06199999999997 52.3616, 93.95679999999996 51.2684 C 98.70399999999997 48.524, 98.60439999999997 45.242000000000004, 98.12559999999996 43.544000000000004 C 95.14359999999996 32.04440000000001, 87.48039999999997 22.324400000000004, 78.13119999999996 18.178400000000003 C 70.80999999999999 14.93, 60.6076 12.992, 50.83839999999999 12.992 C 47.5744 12.992, 44.4892 13.2104, 41.672799999999995 13.6376 L 40.9216 13.7528 C 34.38279999999999 14.7284, 20.7736 16.767200000000003, 12.398799999999998 27.3296 C 4.323999999999998 37.513999999999996, 4.904799999999998 51.724399999999996, 5.531199999999998 57.362 C 6.0375999999999985 61.9292, 7.123599999999998 66.6884, 8.756799999999998 71.5112 C 9.1084 72.548, 9.538 73.49, 9.913599999999999 74.31920000000001 C 10.5292 75.67880000000001, 11.061999999999998 76.85000000000001, 11.023599999999998 77.8352 C 10.814799999999998 83.23400000000001, 16.113999999999997 85.3028, 18.3748 86.18480000000001 L 92.29839999999999 115.75400000000002 C 92.4568 115.81640000000003, 92.61399999999999 115.8884, 92.7892 115.96880000000002 C 93.1504 116.13320000000002, 93.598 116.33600000000001, 94.1176 116.51360000000001 C 95.08 116.8412, 96.03039999999999 117.00800000000002, 96.9436 117.00800000000002 C 100.5388 117.00800000000002, 102.64120000000001 114.55040000000001, 104.0788 112.86920000000002 L 104.48799999999999 112.39400000000002 C 104.56839999999998 112.30280000000003, 104.806 112.07960000000001, 105.0136 111.88400000000003 C 106.3108 110.65640000000003, 109.29159999999999 107.82920000000001, 108.04839999999999 104.57240000000002 C 108.25839999999998 104.07320000000003, 108.61599999999999 103.39040000000001, 108.82359999999998 102.98720000000002 C 109.08639999999998 102.48080000000003, 109.33479999999999 102.00440000000002, 109.52799999999999 101.53520000000003 C 110.0188 100.34720000000003, 110.0188 100.34720000000003, 110.776 99.69200000000002 C 114.1696 96.75919999999999, 114.1 92.5748, 114.05319999999999 89.7932 Z" />
		<path d="M 94.33239999999999 44.5676 C 91.89519999999999 35.136799999999994, 85.6144 25.795999999999996, 76.5388 21.769999999999996 C 66.87039999999999 17.4848, 52.5532 15.957199999999995, 42.2632 17.524399999999996 C 36.3232 18.429199999999994, 23.203599999999998 20.027599999999996, 15.477999999999996 29.770399999999995 C 9.64 37.133599999999994, 8.4412 47.9672, 9.436 56.9288 C 9.940000000000001 61.466, 11.014 65.9288, 12.478 70.2476 C 13.3744 72.89240000000001, 15.058 75.182, 14.95 77.9876 C 14.8408 80.81240000000001, 18.163600000000002 81.8636, 20.3356 82.73360000000001 C 27.8884 85.754, 35.443599999999996 88.77680000000001, 42.9964 91.7984 C 59.9164 98.56760000000001, 76.8364 105.33560000000001, 93.7564 112.1 C 94.30239999999999 112.31960000000001, 94.83039999999998 112.604, 95.3824 112.79119999999999 C 98.4508 113.83639999999998, 99.76719999999999 111.81679999999999, 101.53 109.80319999999999 C 102.37 108.8468, 105.05560000000001 106.868, 104.2144 105.6896 C 103.2856 104.38879999999999, 105.33040000000001 101.4008, 105.8944 100.034 C 106.66720000000001 98.1644, 106.84240000000001 97.89560000000002, 108.2056 96.7184 C 110.48800000000001 94.7432, 110.1112 91.556, 110.1112 88.8548 C 110.1112 84.92960000000001, 102.07360000000001 88.1396, 99.91 88.6076 C 95.24919999999999 89.61200000000001, 91.978 87.7484, 88.20879999999998 85.4696 C 83.95479999999999 82.8908, 79.69839999999999 80.3108, 75.44439999999999 77.7368 C 72.12039999999999 75.7208, 69.57039999999999 72.6236, 70.47999999999999 68.4416 C 71.2948 64.6988, 71.57799999999999 60.0032, 74.0944 56.9108 C 76.75359999999999 53.6444, 81.73359999999998 52.2356, 85.44639999999998 50.574799999999996 C 87.2284 49.778, 95.24919999999999 47.667199999999994, 94.33239999999999 44.5676 Z" data-id="trim" fill="black" />
		<path d="M 26.7064 81.6356 L 21.916 63.160399999999996 C 20.5324 57.17, 13.414 54.3884, 9.1648 53.2448 C 8.8504 45.12799999999999, 10.421199999999999 36.14959999999999, 15.478 29.7704 C 23.203599999999998 20.0276, 36.3244 18.429199999999998, 42.263200000000005 17.5244 C 52.5532 15.9572, 66.8704 17.4848, 76.5388 21.77 C 85.4464 25.7216, 91.654 34.794799999999995, 94.1848 44.04559999999999 C 92.7076 46.87879999999999, 83.0992 49.868, 81.51639999999999 50.57359999999999 C 77.80239999999999 52.234399999999994, 72.82239999999999 53.64439999999999, 70.16319999999999 56.90959999999999 C 67.64679999999998 60.00199999999999, 67.36359999999999 64.6976, 66.54999999999998 68.4404 C 65.64039999999999 72.6224, 68.19039999999998 75.7196, 71.5132 77.73559999999999 C 75.76839999999999 80.3108, 80.02359999999999 82.8896, 84.2788 85.4684 C 88.048 87.7472, 95.2504 91.1852, 99.9112 90.17960000000001 C 102.07600000000001 89.7128, 110.11240000000001 84.9284, 110.11240000000001 88.8548 C 110.11240000000001 91.55600000000001, 110.4892 94.7432, 108.20680000000002 96.7184 C 106.84360000000002 97.8944, 106.66840000000002 98.1644, 105.89560000000002 100.034 C 105.33160000000001 101.4008, 103.2868 104.38880000000002, 104.21560000000001 105.6896 C 105.0568 106.8668, 102.3712 108.8468, 101.53120000000001 109.80319999999999 C 101.01760000000002 110.39, 100.5412 110.978, 100.048 111.4892 L 26.7064 81.6356 Z" data-id="helmet" fill="white" />
		<path d="M 69.9148 57.2432 C 66.8668 54.03680000000001, 64.7224 48.446, 61.751200000000004 44.721199999999996 C 58.116400000000006 40.169599999999996, 52.3132 37.111999999999995, 47.2144 35.846 C 47.178399999999996 35.864, 47.1328 35.8784, 47.0896 35.8964 C 48.466 37.352, 50.892399999999995 38.5496, 52.267599999999995 40.0088 C 54.95799999999999 42.8276, 57.2908 45.8828, 59.5912 49.40959999999999 C 61.50279999999999 52.339999999999996, 62.1004 57.27439999999999, 57.6352 57.94519999999999 C 50.57919999999999 58.99999999999999, 49.740399999999994 46.3784, 46.1692 40.367599999999996 C 43.37799999999999 35.67679999999999, 40.2352 31.949599999999993, 35.6776 31.34839999999999 C 44.64039999999999 35.07919999999999, 43.767999999999994 52.13599999999999, 47.69199999999999 60.7208 C 50.3548 65.29039999999999, 52.9516 68.26999999999998, 56.3872 70.9112 C 59.702799999999996 73.4624, 63.837999999999994 74.3972, 68.1664 74.9132 C 68.1652 74.912, 68.164 74.9096, 68.1628 74.9084 C 67.99719999999999 74.7056, 67.84360000000001 74.4968, 67.69720000000001 74.28320000000001 C 67.672 74.2484, 67.64920000000001 74.2112, 67.6264 74.1776 C 67.50280000000001 73.98920000000001, 67.3876 73.7996, 67.2796 73.604 C 67.2568 73.5596, 67.2316 73.5176, 67.2088 73.47319999999999 C 67.096 73.2632, 66.994 73.04599999999999, 66.9028 72.8228 C 66.8944 72.80239999999999, 66.8836 72.782, 66.8764 72.76039999999999 C 66.77680000000001 72.512, 66.6892 72.254, 66.6172 71.99359999999999 C 66.6112 71.972, 66.6088 71.9516, 66.6028 71.9288 C 66.5428 71.70319999999998, 66.4936 71.4704, 66.4564 71.234 C 66.4444 71.15839999999999, 66.436 71.07919999999999, 66.4264 70.99999999999999 C 66.40360000000001 70.81519999999999, 66.3868 70.62679999999999, 66.37960000000001 70.43719999999999 C 66.376 70.34479999999999, 66.3724 70.25119999999998, 66.3724 70.15879999999999 C 66.37 69.96679999999999, 66.37960000000001 69.7712, 66.394 69.57439999999998 C 66.4 69.48559999999999, 66.40360000000001 69.39919999999998, 66.4144 69.31039999999999 C 66.4432 69.02479999999998, 66.48760000000001 68.73679999999999, 66.5512 68.44039999999998 C 66.6016 68.2088, 66.6508 67.9724, 66.6976 67.73479999999998 C 66.70360000000001 67.70359999999998, 66.70840000000001 67.67479999999999, 66.71440000000001 67.64479999999998 C 67.3852 64.18639999999999, 67.79679999999999 60.10999999999999, 69.9148 57.2432 Z M 13.3888 43.5764 C 14.951199999999998 45.0428, 17.407600000000002 46.202, 18.427599999999998 49.8056 C 20.5528 57.3044, 26.039199999999997 64.18039999999999, 30.592 63.9572 C 33.739599999999996 63.801199999999994, 36.260799999999996 63.8756, 38.272 64.1336 C 41.851600000000005 64.5884, 48.6712 71.0684, 48.9268 71.48119999999999 C 42.46359999999999 62.63239999999999, 43.334799999999994 49.93399999999999, 30.8488 47.7932 C 26.701600000000003 47.0804, 24.056800000000003 45.6488, 21.6208 43.352 C 21.0196 42.7868, 20.8048 42.9896, 21.2752 43.6712 C 23.4796 46.8452, 25.642 49.717999999999996, 27.916 50.34199999999999 C 30.0904 50.934799999999996, 34.8832 51.87199999999999, 36.04 54.68599999999999 C 36.5404 55.8884, 36.3364 57.12199999999999, 35.4724 58.145599999999995 C 34.6456 59.12239999999999, 33.525999999999996 59.590399999999995, 32.2288 59.50039999999999 C 27.9136 59.19559999999999, 23.2996 52.745599999999996, 21.5104 49.99399999999999 C 19.3012 46.584799999999994, 16.3504 44.4548, 13.6948 43.135999999999996 C 13.0552 42.8204, 12.8728 43.0856, 13.3888 43.5764 Z M 42.2176 79.556 C 43.647999999999996 83.9252, 47.892399999999995 86.3264, 53.01519999999999 88.2032 C 59.577999999999996 90.6044, 72.13 89.10199999999999, 72.3988 96.23359999999998 C 72.45759999999999 97.87519999999998, 71.83599999999998 98.95879999999998, 70.86999999999999 99.61159999999998 L 91.20399999999998 107.88799999999999 C 89.78319999999998 102.37279999999998, 89.05719999999998 96.3248, 84.89919999999998 92.60719999999999 C 81.66879999999999 89.71759999999999, 78.26439999999998 87.71600000000001, 73.28439999999998 85.94239999999999 C 64.1296 83.6684, 47.5372 87.6752, 42.2176 79.556 Z M 81.51639999999999 50.574799999999996 C 81.5356 50.5664, 81.56199999999998 50.5556, 81.58479999999999 50.5484 C 77.27919999999999 46.260799999999996, 68.26239999999999 42.4172, 63.108399999999996 42.7892 C 69.0688 44.5652, 72.964 48.05479999999999, 76.9276 52.4768 C 76.9348 52.474399999999996, 76.942 52.4708, 76.94919999999999 52.4684 C 77.3248 52.3076, 77.7016 52.152800000000006, 78.076 51.9992 C 78.124 51.9788, 78.172 51.9596, 78.21879999999999 51.9416 C 78.61 51.7796, 79 51.622400000000006, 79.3852 51.4676 C 79.6792 51.348800000000004, 79.96839999999999 51.2324, 80.25399999999999 51.1124 C 80.3476 51.0752, 80.44 51.035599999999995, 80.5312 50.999599999999994 C 80.866 50.8592, 81.1972 50.718799999999995, 81.51639999999999 50.574799999999996 Z M 88.43799999999999 91.304 Q 90.85 95.5472, 91.54599999999999 99.092 C 88.43799999999999 91.304, 90.85 95.5472, 91.54599999999999 99.092 C 91.5364 99.1172, 91.68159999999999 99.9932, 91.9432 101.252 C 92.0428 101.75119999999998, 92.1544 102.2708, 92.26719999999999 102.7388 L 92.26719999999999 102.74 C 92.746 104.83040000000001, 93.4288 107.372, 94.20879999999998 109.11200000000001 L 100.04679999999998 111.4892 C 100.53999999999998 110.97679999999998, 101.01639999999999 110.39, 101.52999999999999 109.80319999999999 C 102.36999999999999 108.8468, 105.05559999999998 106.868, 104.21439999999998 105.6896 C 103.55559999999997 104.76679999999999, 104.38959999999999 103.0004, 105.13479999999997 101.5616 C 105.14679999999998 101.53519999999999, 105.15999999999998 101.5124, 105.17319999999997 101.4872 C 105.24999999999996 101.33720000000001, 105.32439999999998 101.1932, 105.39639999999999 101.0552 C 105.42879999999998 100.99520000000001, 105.45879999999998 100.93520000000001, 105.48999999999998 100.8764 C 105.52359999999999 100.8104, 105.55719999999998 100.7468, 105.58959999999998 100.68440000000001 C 105.62679999999999 100.61000000000001, 105.66159999999998 100.5404, 105.69519999999997 100.47080000000001 C 105.71679999999998 100.4264, 105.73959999999998 100.38320000000002, 105.75879999999997 100.34240000000001 C 105.81039999999997 100.23320000000002, 105.85719999999996 100.1312, 105.89559999999997 100.03640000000001 C 106.66839999999998 98.16680000000001, 106.84359999999998 97.89800000000002, 108.20679999999997 96.72080000000001 C 110.48919999999998 94.74560000000001, 110.11239999999997 91.5584, 110.11239999999997 88.85720000000002 C 110.11239999999997 88.72040000000001, 110.10039999999996 88.59320000000001, 110.07999999999997 88.47680000000003 C 110.07519999999997 88.44080000000002, 110.06439999999996 88.40840000000001, 110.05599999999997 88.37480000000004 C 110.03799999999997 88.29680000000003, 110.01759999999997 88.22120000000002, 109.99119999999998 88.15280000000003 C 109.97799999999998 88.12040000000003, 109.96479999999997 88.08800000000002, 109.94799999999996 88.05680000000002 C 109.91799999999996 87.99320000000003, 109.88199999999996 87.93440000000002, 109.84479999999998 87.88040000000002 C 109.82799999999997 87.85880000000002, 109.81239999999997 87.83360000000002, 109.79439999999997 87.81200000000003 C 109.74039999999997 87.74720000000002, 109.68159999999997 87.69080000000002, 109.61679999999997 87.64040000000001 C 109.60719999999998 87.63440000000003, 109.60119999999996 87.62720000000003, 109.59279999999998 87.61880000000002 C 109.51239999999999 87.56120000000001, 109.42599999999999 87.51200000000001, 109.32999999999998 87.47240000000002 L 109.32639999999999 87.47120000000001 C 109.234 87.43280000000001, 109.13319999999999 87.40400000000001, 109.02759999999999 87.38000000000002 C 109.01199999999999 87.37640000000002, 108.9952 87.37280000000003, 108.97959999999999 87.37040000000003 C 108.88239999999998 87.35240000000003, 108.78279999999998 87.34040000000002, 108.67719999999998 87.33200000000004 C 108.66159999999998 87.33080000000002, 108.646 87.32960000000004, 108.628 87.32840000000003 C 108.51039999999999 87.32360000000003, 108.38680000000001 87.32240000000003, 108.2572 87.32840000000003 L 108.25599999999999 87.32840000000003 C 109.01919999999998 89.84600000000003, 108.874 92.42840000000002, 107.2528 94.04120000000002 C 104.63799999999999 94.64720000000001, 104.0008 91.45400000000002, 102.80559999999998 89.22320000000002 C 102.70599999999999 89.21120000000002, 102.60879999999999 89.20280000000002, 102.51039999999999 89.19680000000001 C 101.0608 91.66880000000002, 101.3464 96.45320000000001, 103.7008 99.74480000000001 C 103.49080000000001 99.59, 103.282 99.4256, 103.0732 99.2612 C 101.8948 98.24480000000001, 99.36040000000001 95.5496, 98.16040000000001 90.35959999999999 Q 98.16040000000001 90.35839999999999, 98.16040000000001 90.35719999999999 C 98.16040000000001 90.35959999999999, 98.16040000000001 90.35839999999999, 98.16040000000001 90.35719999999999 C 97.93600000000002 90.3584, 97.70920000000001 90.3488, 97.47760000000001 90.3368 C 97.39840000000001 90.33080000000001, 97.31920000000001 90.33080000000001, 97.23880000000001 90.3248 C 97.02160000000002 90.30919999999999, 96.802 90.28519999999999, 96.57880000000002 90.2576 C 96.48280000000001 90.2456, 96.38680000000002 90.23479999999999, 96.28960000000002 90.2216 C 96.07120000000002 90.19279999999999, 95.85040000000002 90.15679999999999, 95.6272 90.116 C 95.5276 90.0956, 95.4256 90.0788, 95.32120000000002 90.0572 C 95.09920000000001 90.014, 94.87480000000001 89.96600000000001, 94.64920000000001 89.91319999999999 C 94.5484 89.8892, 94.44640000000001 89.86399999999999, 94.3456 89.83879999999999 C 94.11640000000001 89.7824, 93.8872 89.72359999999999, 93.65680000000002 89.66 C 93.56440000000002 89.6348, 93.47200000000002 89.606, 93.38200000000002 89.5796 C 93.14080000000003 89.5076, 92.89840000000001 89.4392, 92.65720000000002 89.36 C 92.60440000000001 89.342, 92.55040000000001 89.324, 92.49760000000002 89.306 C 91.67320000000002 89.03479999999999, 90.85480000000003 88.7276, 90.05560000000003 88.39519999999999 C 89.96680000000002 88.35799999999999, 89.87800000000003 88.32199999999999, 89.79040000000002 88.28479999999999 C 89.59120000000003 88.2008, 89.39560000000003 88.11199999999998, 89.20000000000002 88.02799999999999 C 89.07280000000002 87.9704, 88.94440000000002 87.914, 88.81960000000002 87.85879999999999 C 88.64200000000002 87.77599999999998, 88.46800000000002 87.69439999999999, 88.29400000000003 87.61159999999998 C 88.15480000000002 87.54679999999998, 88.01560000000002 87.48199999999999, 87.87880000000001 87.41599999999998 C 87.71800000000002 87.33919999999999, 87.56080000000001 87.25999999999999, 87.40480000000002 87.18319999999999 C 87.25600000000003 87.10879999999999, 87.11200000000002 87.03679999999999, 86.96680000000002 86.96239999999999 C 86.82640000000002 86.88799999999999, 86.68600000000004 86.8172, 86.54800000000002 86.74399999999999 C 86.39560000000003 86.66359999999999, 86.24560000000002 86.58319999999999, 86.09680000000002 86.50399999999998 C 85.97440000000002 86.43799999999997, 85.85200000000002 86.37319999999998, 85.73440000000001 86.30839999999999 C 85.5688 86.216, 85.40920000000001 86.12599999999999, 85.2508 86.03599999999999 C 85.15960000000001 85.98319999999998, 85.0648 85.93159999999997, 84.976 85.87999999999998 C 84.73120000000002 85.73959999999998, 84.4984 85.60039999999998, 84.27640000000001 85.46839999999999 C 83.3008 84.87679999999999, 82.3252 84.28519999999997, 81.3496 83.69359999999999 C 83.926 85.82359999999998, 86.002 88.24279999999997, 87.9292 90.6488 C 88.10679999999999 90.8684, 88.27359999999999 91.0868, 88.43799999999999 91.304 Z M 26.674 68.1308 C 26.674 68.186, 26.6728 68.2364, 26.6716 68.2832 C 36.0124 68.73920000000001, 41.7472 73.0004, 46.8076 77.312 C 48.3568 78.6332, 49.5736 80.02640000000001, 51.3088 81.14120000000001 C 54.3604 83.456, 55.2628 79.77560000000001, 53.848 77.4548 C 51.532 73.1012, 42.8932 70.0712, 38.882799999999996 68.9144 C 36.984399999999994 68.588, 31.7248 67.5332, 26.674 68.1308 Z M 52.4044 70.358 Q 54.540400000000005 79.2608, 64.2796 81.9944 C 52.4044 70.358, 54.540400000000005 79.2608, 64.2796 81.9944 C 70.27 83.6756, 70.88560000000001 80.80760000000001, 75.9208 84.87440000000001 C 69.3424 72.99799999999999, 59.1988 84.116, 52.4044 70.358 Z" data-id="flames" fill="darkgray" />
		<path d="M 59.662 38.3384 L 68.13279999999999 26.131999999999998 C 68.2636 25.949599999999997, 68.3992 25.7804, 68.53479999999999 25.618399999999998 L 69.6916 25.618399999999998 C 71.2648 23.653999999999996, 74.40879999999999 23.981599999999997, 74.40879999999999 23.981599999999997 C 76.50639999999999 23.981599999999997, 78.27519999999998 22.931599999999996, 78.27519999999998 22.931599999999996 C 79.86999999999999 22.1684, 81.32799999999999 20.7476, 82.3804 19.531999999999996 C 98.9416 22.4228, 121.3492 21.894799999999996, 121.3492 21.894799999999996 C 125.48559999999999 21.858799999999995, 119.45559999999999 25.630399999999995, 119.45559999999999 25.630399999999995 C 113.2276 29.368399999999994, 94.79079999999999 32.7332, 94.79079999999999 32.7332 C 85.57239999999999 34.60039999999999, 83.58039999999998 38.33839999999999, 83.58039999999998 38.33839999999999 L 79.3444 43.3208 C 75.10839999999999 48.304399999999994, 70.12599999999999 47.0564, 70.12599999999999 47.0564 L 61.40679999999999 45.5624 C 54.928 44.318, 59.662 38.3384, 59.662 38.3384 Z" data-id="visor" fill="black" />
		<circle cx="65.5624" cy="40.883599999999994" r="2.4252" data-id="visor_hole" fill="#6D6E71" />
		<path d="M 82.3156 21.122 C 94.2724 23.186, 109.0276 23.505200000000002, 117.05320000000002 23.505200000000002 C 118.16440000000001 23.505200000000002, 119.08960000000002 23.500400000000003, 119.79760000000002 23.492 C 119.42320000000002 23.7692, 119.01760000000002 24.0512, 118.61920000000002 24.2996 C 112.73200000000001 27.8324, 94.69000000000001 31.152800000000003, 94.50760000000001 31.186400000000003 C 85.60960000000001 32.9876, 82.87120000000002 36.506, 82.29640000000002 37.418 L 78.14560000000002 42.3032 C 75.81280000000001 45.0464, 73.28560000000002 45.6236, 71.57560000000001 45.6236 C 70.912 45.6236, 70.49920000000002 45.529999999999994, 70.4944 45.5276 L 70.45 45.518 L 70.39120000000001 45.508399999999995 L 61.67200000000001 44.01319999999999 C 60.896800000000006 43.861999999999995, 59.88400000000001 43.541599999999995, 59.640400000000014 42.886399999999995 C 59.26480000000001 41.876, 60.34600000000001 40.011199999999995, 60.89560000000001 39.3152 L 60.926800000000014 39.276799999999994 L 60.95440000000002 39.236 L 69.42640000000002 27.027199999999997 C 70.93240000000003 24.917599999999997, 72.88000000000002 24.689599999999995, 73.64560000000002 24.689599999999995 C 73.78480000000002 24.689599999999995, 73.87960000000002 24.696799999999996, 73.90960000000001 24.7004 L 74.00200000000001 24.711199999999998 L 74.11360000000002 24.713599999999996 C 77.32840000000002 24.713599999999996, 79.93960000000001 22.843999999999998, 80.05000000000003 22.764799999999994 L 82.3156 21.122 M 72.8008 18.0188 C 71.4952 18.0188, 70.4572 18.23, 70.1572 18.8288 Q 73.3948 19.2896, 79.1248 21.494 C 70.1572 18.8288, 73.3948 19.2896, 79.1248 21.494 Q 76.85079999999999 23.144000000000002, 74.1112 23.144000000000002 C 79.1248 21.494, 76.85079999999999 23.144000000000002, 74.1112 23.144000000000002 Q 73.9384 23.1188, 73.6432 23.1188 C 74.1112 23.144000000000002, 73.9384 23.1188, 73.6432 23.1188 C 72.6112 23.1188, 70.0696 23.419999999999998, 68.13159999999999 26.1332 L 59.6608 38.3396 Q 54.9268 44.318, 61.4044 45.5648 C 59.6608 38.3396, 54.9268 44.318, 61.4044 45.5648 L 70.1236 47.0588 Q 70.678 47.1968, 71.5732 47.1968 C 70.1236 47.0588, 70.678 47.1968, 71.5732 47.1968 C 73.3624 47.1968, 76.5184 46.6436, 79.3408 43.322 L 83.57679999999999 38.3396 Q 85.57 34.6016, 94.78719999999998 32.7344 C 83.57679999999999 38.3396, 85.57 34.6016, 94.78719999999998 32.7344 Q 113.22399999999999 29.369600000000002, 119.45199999999998 25.631600000000002 C 94.78719999999998 32.7344, 113.22399999999999 29.369600000000002, 119.45199999999998 25.631600000000002 Q 125.42079999999999 21.896, 121.40559999999999 21.896 C 119.45199999999998 25.631600000000002, 125.42079999999999 21.896, 121.40559999999999 21.896 C 121.3852 21.896, 121.36599999999999 21.896, 121.34439999999998 21.896 Q 119.73039999999999 21.9344, 117.0496 21.9344 C 121.34439999999998 21.896, 119.73039999999999 21.9344, 117.0496 21.9344 C 109.324 21.9344, 92.7292 21.617600000000003, 80.3356 19.157600000000002 C 80.33919999999999 19.156399999999998, 75.844 18.0188, 72.8008 18.0188 L 72.8008 18.0188 Z" />
	</g>
</svg>