<svg xmlns="http://www.w3.org/2000/svg" viewbox="0 0 128 128" width="128" height="128">
	<g data-id="skull_bmx_helmet" fill="black">
		<path d="M 94.03392499999998 63.637674999999994 C 93.88419999999999 64.549275, 93.63244999999999 66.067725, 93.53705 66.6494 C 92.10472499999999 77.5409, 83.70157499999999 78.885775, 79.17802499999999 79.609225 C 70.48469999999999 80.997825, 66.28577499999999 74.370175, 64.03062499999999 70.80857499999999 C 63.868974999999985 70.5555, 63.70599999999999 70.29845, 63.54302499999998 70.04537499999999 C 63.33632499999998 69.72472499999999, 63.20382499999998 69.465025, 63.13359999999998 69.32854999999999 C 61.97157499999998 67.0628, 60.44782499999998 67.30659999999999, 59.94697499999998 67.3861 L 59.83699999999998 67.40465 L 59.756174999999985 67.419225 L 49.540424999999985 69.05030000000001 C 48.58377499999998 69.343125, 46.79634999999999 70.15137500000002, 46.70624999999998 72.117675 C 46.61349999999998 76.20530000000001, 44.66574999999998 83.600125, 38.44354999999998 87.83482500000001 C 45.621074999999976 100.11095, 59.81447499999998 107.36135, 74.70217499999998 104.98165 C 94.06704999999998 101.88777500000002, 107.25344999999997 83.682275, 104.15957499999999 64.318725 C 104.03899999999999 63.564800000000005, 103.88662499999998 62.82412500000001, 103.72099999999998 62.08742500000001 L 94.03392499999998 63.637674999999994 Z" fill="white" />
		<path d="M 59.15065 12.561575 C 33.7345 16.52465, 1.930525 30.602774999999998, 19.872349999999997 73.556625 L 21.365624999999998 79.224975 C 22.786025 85.08545, 31.194474999999997 83.19732499999999, 31.194474999999997 83.19732499999999 C 39.23325 80.987225, 39.375024999999994 71.907, 39.375024999999994 71.907 C 39.653275 63.746325, 47.99679999999999 61.86879999999999, 47.99679999999999 61.86879999999999 L 58.519949999999994 60.18604999999999 C 66.383825 58.75107499999999, 69.61019999999999 65.92595, 69.7003 66.05314999999999 C 71.901125 69.47032499999999, 73.75215 73.04649999999998, 78.0213 72.36412499999999 C 83.2736 71.52539999999998, 85.64667499999999 70.63765, 86.27605 65.596025 C 86.28002500000001 65.56819999999999, 86.913375 61.732324999999996, 86.913375 61.732324999999996 C 87.8104 57.05904999999999, 92.213375 56.50122499999999, 92.213375 56.50122499999999 L 111.8459 53.36362499999999 C 114.95037500000001 52.86807499999998, 114.4005 49.83912499999998, 114.4005 49.83912499999998 L 114.1249 48.11529999999998 C 104.20727500000001 12.610599999999998, 80.134675 9.291475, 59.15065 12.561575 Z" data-id="helmet" fill="white" />
		<circle cx="78.5142" cy="64.91895" r="2.052425" />
		<circle cx="30.6711" cy="75.5004" r="2.052425" />
		<path d="M 69.57177499999999 94.3313 L 74.05557499999999 94.3313 L 74.05557499999999 101.058325 L 69.57177499999999 101.058325 L 69.57177499999999 94.3313 Z" data-id="helmet" fill="white" />
		<path d="M 121.19245 46.1384 C 116.12829999999998 28.009749999999993, 106.98844999999999 15.586549999999997, 94.02464999999998 9.211974999999997 C 84.14015 4.353199999999999, 72.36354999999999 3.0759, 58.020425 5.3125 L 57.581849999999996 5.382725 C 42.040924999999994 7.865774999999999, 21.544500000000003 14.3649, 12.15025 31.221549999999997 C 5.417924999999999 43.30555, 5.671 58.336349999999996, 12.904175 75.9085 L 14.255675 81.03625 C 15.964925 87.91035, 22.32625 91.6071, 30.640625 90.68754999999999 C 39.229275 106.56105, 57.1923 116.0878, 75.998025 113.08269999999999 C 77.450225 112.850825, 78.87327499999999 112.54607499999999, 80.267175 112.17904999999999 C 81.67565 113.6233, 83.1411 115.0225, 84.642325 116.28787499999999 L 84.85300000000001 116.449525 C 86.3105 117.47507499999999, 88.25427499999999 118.23695, 90.07085000000001 117.94677499999999 C 90.78105000000001 117.83282499999999, 91.47270000000002 117.55987499999998, 92.10737500000002 117.07757499999998 C 94.373125 115.35507499999999, 94.70172500000001 112.08497499999997, 93.10112500000001 106.43517499999999 C 107.00700000000002 97.26617499999998, 115.05902500000002 80.51419999999997, 112.26327500000002 63.02684999999998 C 112.14402500000001 62.27557499999998, 111.99960000000003 61.53092499999998, 111.84192500000002 60.79289999999998 L 113.00262500000002 60.60607499999998 C 115.86727500000003 60.147624999999984, 118.31322500000002 58.67289999999998, 119.88865000000003 56.44689999999998 C 122.13982500000003 53.27219999999998, 121.83242500000003 49.82322499999997, 121.64162500000002 48.65324999999998 L 121.30375000000004 46.54119999999998 L 121.19245 46.1384 Z M 70.825225 100.92847499999999 L 70.117675 101.36439999999999 L 67.775075 97.54044999999999 L 73.50835 94.02654999999999 L 75.85227499999999 97.84785 L 70.825225 100.92847499999999 Z M 69.4194 93.089775 C 61.3899 89.0366, 52.126825 84.002925, 44.8486 79.966975 C 46.1365 77.062575, 46.66385 74.17275000000001, 46.710225 72.119 C 46.800324999999994 70.1527, 48.58775 69.343125, 49.5444 69.051625 L 59.76015 67.42055 L 59.840975 67.405975 L 59.95095 67.387425 C 60.4518 67.30659999999999, 61.974225000000004 67.06412499999999, 63.137575000000005 69.329875 C 63.2078 69.467675, 63.3403 69.72605, 63.547 70.04669999999999 C 63.7113 70.299775, 63.874275 70.55682499999999, 64.0346 70.80989999999998 C 65.580875 73.25187499999998, 68.042725 77.13544999999999, 72.242975 78.88709999999999 C 71.19224999999999 83.7525, 70.125625 88.9677, 69.4194 93.089775 Z M 38.447525 87.83614999999999 C 39.629425 87.031875, 40.647025 86.10834999999999, 41.537425 85.121225 C 48.530775 89.00214999999999, 57.426825 93.847675, 65.355625 97.88494999999999 C 65.402 98.21222499999999, 65.511975 98.52890000000001, 65.69085 98.81774999999999 L 68.03345 102.63904999999998 C 68.55285 103.48969999999998, 69.524075 103.936225, 70.5059 103.77854999999998 C 70.822575 103.72819999999999, 71.12335 103.61689999999999, 71.397625 103.44862499999999 L 72.303925 102.89477499999998 C 72.833925 103.58774999999999, 73.416925 104.32444999999997, 74.0198 105.07704999999999 C 59.3812 107.12814999999999, 45.51242499999999 99.9228, 38.447525 87.83614999999999 Z M 87.88989999999998 111.0157 C 87.49107499999998 110.6659, 87.09622499999999 110.30284999999999, 86.70137499999998 109.93185 C 87.00214999999999 109.79935, 87.29629999999997 109.65625, 87.59309999999998 109.517125 C 87.7309 110.1094, 87.82894999999999 110.60892499999999, 87.88989999999998 111.0157 Z M 104.16222499999999 64.32005 C 106.9275 81.62984999999999, 96.678625 98.00287499999999, 80.643475 103.49499999999999 C 79.51192499999999 102.15939999999999, 78.45589999999999 100.848975, 77.519125 99.63659999999999 C 78.351225 98.86014999999998, 78.55395 97.57754999999997, 77.9365 96.57055 L 75.664125 92.864525 C 76.36769999999999 88.947825, 77.357475 84.16324999999999, 78.322075 79.699325 C 78.60695 79.6715, 78.88387499999999 79.65559999999999, 79.17802499999999 79.609225 C 83.70157499999999 78.885775, 92.104725 77.539575, 93.53705 66.6494 C 93.63112499999998 66.067725, 93.88419999999999 64.54795, 94.03392499999998 63.637674999999994 L 103.72629999999998 62.090075 C 103.891925 62.82545, 104.04165 63.566125, 104.16222499999999 64.32005 Z M 114.4005 49.837799999999994 C 114.4005 49.837799999999994, 114.95037500000001 52.866749999999996, 111.8459 53.36229999999999 L 92.213375 56.4999 C 92.213375 56.4999, 92.197475 56.50122499999999, 92.167 56.506524999999996 C 91.6953 56.583375, 87.75607500000001 57.339949999999995, 86.913375 61.730999999999995 C 86.913375 61.730999999999995, 86.28002500000001 65.56687500000001, 86.27605 65.59469999999999 C 85.73280000000001 69.94467499999999, 83.8884 71.200775, 80.023375 72.00372499999999 C 79.40724999999999 72.13092499999999, 78.743425 72.24885, 78.0213 72.3628 C 77.6344 72.4264, 77.275325 72.443625, 76.925525 72.43567499999999 C 76.8606 72.43567499999999, 76.793025 72.43435, 76.7281 72.43302499999999 C 76.387575 72.41314999999999, 76.0603 72.372075, 75.751575 72.29522499999999 C 75.72904999999999 72.29257499999999, 75.709175 72.281975, 75.68665 72.27534999999999 C 75.02414999999999 72.10442499999999, 74.429225 71.8063, 73.885975 71.41409999999999 L 73.885975 71.41409999999999 C 72.21912499999999 70.204375, 71.02132499999999 68.102925, 69.7003 66.051825 C 69.611525 65.924625, 66.45935 58.914049999999996, 58.79024999999999 60.141 C 58.701474999999995 60.15425, 58.611374999999995 60.168825000000005, 58.52127499999999 60.184725 L 47.99812499999999 61.867475000000006 C 47.99812499999999 61.867475000000006, 39.65459999999999 63.74500000000001, 39.376349999999995 71.905675 C 39.376349999999995 71.905675, 39.333949999999994 73.97665, 38.425 76.38285 C 38.11229999999999 77.210975, 37.49484999999999 78.55850000000001, 36.19899999999999 80.11935000000001 C 34.944224999999996 81.52120000000001, 33.28532499999999 82.36125, 33.12367499999999 82.44737500000001 C 31.28589999999999 83.419925, 29.571349999999992 83.46895, 27.59047499999999 83.4663 C 25.12199999999999 83.34705, 22.156649999999992 82.49374999999999, 21.36562499999999 79.224975 L 19.87234999999999 73.556625 C 7.685 44.38145, 18.453274999999998 28.53445, 34.5772 20.123350000000002 C 34.96145 22.4103, 37.11325 23.959225, 39.40285 23.5922 C 41.704375 23.225174999999997, 43.273174999999995 21.061449999999997, 42.904824999999995 18.757274999999996 L 42.570924999999995 16.667749999999998 C 46.045075 15.427549999999998, 49.61595 14.449699999999998, 53.155024999999995 13.683849999999996 L 53.88377499999999 18.244499999999995 C 54.25212499999999 20.547349999999994, 56.41584999999999 22.116149999999998, 58.717375 21.749124999999996 C 61.018899999999995 21.380774999999996, 62.58902499999999 19.217049999999997, 62.22067499999999 16.914199999999994 L 61.47867499999999 12.276699999999995 C 61.477349999999994 12.262124999999996, 61.47072499999999 12.250199999999996, 61.468074999999985 12.235624999999995 C 65.15024999999999 11.758624999999995, 68.90264999999998 11.508199999999995, 72.64179999999999 11.620824999999995 L 73.01412499999998 13.948849999999997 C 73.38114999999999 16.251699999999992, 75.54619999999998 17.819174999999994, 77.84772499999998 17.452149999999996 C 80.14925 17.083799999999997, 81.71804999999999 14.920074999999997, 81.35102499999999 12.617224999999998 L 81.34837499999998 12.605299999999996 C 92.41477499999998 14.898874999999997, 102.68219999999997 21.466899999999995, 109.65169999999998 36.014075 L 105.53889999999998 36.66995 C 103.23604999999998 37.0383, 101.66989999999997 39.204675, 102.03692499999998 41.504875 C 102.40527499999999 43.807725, 104.56899999999997 45.37520000000001, 106.87052499999997 45.008175 L 112.86747499999997 44.050200000000004 C 113.30472499999996 45.36195000000001, 113.72872499999997 46.704175000000006, 114.12357499999996 48.1153 L 114.4005 49.837799999999994 Z" />
		<path d="M 70.51915 35.816649999999996 C 69.304125 30.181424999999997, 63.519175 26.574774999999995, 57.519575 27.871949999999995 C 51.5213 29.165149999999993, 47.65495 34.85072499999999, 48.8713 40.485949999999995 C 49.54175 43.59307499999999, 51.611399999999996 45.996624999999995, 54.34885 47.366674999999994 L 55.326699999999995 52.46659999999999 L 55.5281 52.46527499999999 C 56.96175 52.46395, 58.13570000000001 52.45997499999999, 59.130775 52.43877499999999 L 58.32517500000001 48.25044999999999 L 60.180175000000006 48.35379999999999 L 60.967225000000006 52.36722499999998 C 62.21802500000001 52.28374999999998, 63.15082500000001 52.124749999999985, 64.07965000000002 51.81734999999999 L 63.24225000000001 47.54554999999999 L 64.97800000000001 46.901599999999995 L 65.79287500000002 51.105824999999996 C 66.61702500000001 50.704350000000005, 67.55777500000002 50.18495, 68.77677500000001 49.510524999999994 L 69.29617500000002 49.223 L 68.36470000000003 44.341699999999996 C 70.29655 41.96995, 71.190925 38.92509999999999, 70.51915 35.816649999999996 Z M 56.8001 40.03545 C 56.626525 39.239125, 55.86067499999999 38.70912499999999, 55.04580000000001 38.8403 C 54.201775000000005 38.975449999999995, 53.62672500000001 39.767799999999994, 53.761875 40.611824999999996 C 53.822825 40.990775, 54.016275 41.3154, 54.2879 41.54594999999999 C 53.54325 41.88779999999999, 52.746925000000005 42.183274999999995, 51.912175 42.433699999999995 C 48.361175 34.143175, 56.463550000000005 34.277, 58.5809 38.1089 C 58.118475 38.83235, 57.51427499999999 39.471000000000004, 56.8001 40.03545 Z M 61.596599999999995 44.884949999999996 L 59.9748 45.27715 C 59.104274999999994 45.4865, 58.54115 44.94324999999999, 58.722675 44.0661 L 59.357350000000004 41.006674999999994 C 59.538875000000004 40.12819999999999, 60.100675 40.012924999999996, 60.606825 40.7536 L 62.256449999999994 43.1598 C 62.765249999999995 43.89915, 62.467125 44.676925000000004, 61.596599999999995 44.884949999999996 Z M 67.8771 39.7731 C 66.961525 39.74395, 66.071125 39.684324999999994, 65.2218 39.57435 C 65.31852500000001 39.325250000000004, 65.35430000000001 39.04965, 65.30925 38.767425 C 65.17410000000001 37.9234, 64.380425 37.349675000000005, 63.537725 37.484825 C 62.83415 37.596125, 62.318725 38.1672, 62.24320000000001 38.8403 C 61.501200000000004 38.538199999999996, 60.834725000000006 38.142025, 60.26630000000001 37.619975000000004 C 61.322325 33.369375000000005, 69.174275 30.849224999999997, 67.8771 39.7731 Z" data-id="skull_outline" fill="black" />
		<path d="M 58.14895 27.755349999999996 C 63.918 26.834474999999998, 69.346525 30.378849999999996, 70.51915 35.817975 C 71.190925 38.926425, 70.29787499999999 41.971275, 68.366025 44.34435 L 69.2975 49.225649999999995 L 68.7781 49.51317499999999 C 67.5591 50.18759999999999, 66.61834999999999 50.706999999999994, 65.79419999999999 51.10847499999999 L 64.97932499999999 46.90424999999999 L 63.24357499999999 47.54819999999999 L 64.08097499999998 51.81999999999999 C 63.564224999999986 51.99092499999999, 63.04482499999998 52.116799999999984, 62.471099999999986 52.20822499999999 C 62.01397499999999 52.28109999999999, 61.52372499999998 52.33277499999999, 60.968549999999986 52.369874999999986 L 60.18149999999998 48.35644999999999 L 58.32649999999998 48.25309999999998 L 59.13209999999998 52.44142499999998 C 58.13702499999998 52.46262499999998, 56.96307499999998 52.46659999999998, 55.529424999999975 52.46792499999999 L 55.328024999999975 52.46924999999998 L 54.35017499999998 47.36932499999998 C 51.612724999999976 45.99927499999998, 49.54307499999998 43.59439999999998, 48.87262499999998 40.488599999999984 C 47.65627499999998 34.853374999999986, 51.52262499999998 29.167799999999982, 57.520899999999976 27.874599999999983 C 57.73025 27.825574999999997, 57.9396 27.788475000000002, 58.14895 27.755349999999996 M 62.241875 38.8403 C 62.3174 38.165875, 62.832825 37.596124999999994, 63.53639999999999 37.484825 C 64.380425 37.348349999999996, 65.172775 37.923399999999994, 65.307925 38.767424999999996 C 65.352975 39.050974999999994, 65.3172 39.326575, 65.220475 39.574349999999995 C 66.0698 39.684324999999994, 66.9602 39.74395, 67.87577499999999 39.77309999999999 C 68.57934999999999 34.93684999999999, 66.5945 33.459475, 64.45992499999998 33.8 C 62.65792499999999 34.090174999999995, 60.74859999999999 35.672225, 60.263649999999984 37.61997499999999 C 60.8334 38.140699999999995, 61.499874999999996 38.538199999999996, 62.241875 38.8403 M 51.910849999999996 42.433699999999995 C 52.746925 42.184599999999996, 53.54324999999999 41.8878, 54.28657499999999 41.54594999999999 C 54.01495 41.3154, 53.82149999999999 40.99077499999999, 53.760549999999995 40.611824999999996 C 53.6254 39.767799999999994, 54.20045 38.975449999999995, 55.044475 38.8403 C 55.85935 38.70912499999999, 56.62519999999999 39.240449999999996, 56.79877499999999 40.03545 C 57.51295 39.471000000000004, 58.118475 38.83235, 58.57824999999999 38.1089 C 57.59642499999999 36.329425, 55.32272499999999 35.3476, 53.52602499999999 35.635124999999995 C 51.4524 35.966375, 50.00814999999999 37.990975, 51.910849999999996 42.433699999999995 M 59.846275 45.303650000000005 C 59.88867499999999 45.297025, 59.931075 45.290400000000005, 59.976124999999996 45.27715 L 61.597925 44.884949999999996 C 62.46845 44.676925000000004, 62.765249999999995 43.89915, 62.2591 43.1598 L 60.609475 40.7536 C 60.361700000000006 40.391875, 60.100675 40.232875, 59.878075 40.269975 C 59.644875 40.307075, 59.45275 40.556175, 59.36000000000001 41.008 L 58.725325000000005 44.067425 C 58.55175 44.898199999999996, 59.04995 45.43085, 59.846275 45.303650000000005 M 57.79915 25.5691 C 57.55004999999999 25.606199999999998, 57.302274999999995 25.652575, 57.053174999999996 25.708225 C 53.600224999999995 26.452875000000002, 50.621624999999995 28.43905, 48.66327499999999 31.30105 C 46.683724999999995 34.196175, 45.988099999999996 37.622625, 46.70625 40.952349999999996 C 47.4085 44.20655, 49.447675000000004 47.011575, 52.3693 48.797675000000005 L 53.152375 52.88265 L 53.499525 54.6926 L 55.542675 54.678025 C 56.972350000000006 54.6767, 58.155575000000006 54.674049999999994, 59.1586 54.65019999999999 C 59.1586 54.65019999999999, 61.884125000000004 54.678025, 64.120725 54.11489999999999 C 64.120725 54.11489999999999, 65.70145 53.865799999999986, 69.8487 51.44634999999999 L 71.771275 50.38104999999998 L 71.471825 48.80827499999999 L 70.7232 44.88229999999999 C 72.677575 42.04414999999999, 73.39042500000001 38.62167499999998, 72.68287500000001 35.346274999999984 C 71.26114999999999 28.75705, 64.72359999999999 24.4614, 57.79915 25.5691 L 57.79915 25.5691 Z" data-id="skull_fill" fill="none" />
	</g>
</svg>