<svg xmlns="http://www.w3.org/2000/svg" viewbox="0 0 128 128" width="128" height="128">
	<g data-id="space_helmet" fill="black">
		<path d="M 22.906240000000004 46.375840000000004 L 20.366080000000004 60.77008000000001 C 20.366080000000004 60.77008000000001, 19.731040000000004 65.00368, 17.825920000000004 67.33216 C 17.825920000000004 67.33216, 8.724800000000002 82.14752000000001, 20.366080000000004 86.80672000000001 L 69.26192 107.97248 C 69.26192 107.97248, 82.38608 115.8024, 88.94816 107.97248 L 103.12960000000001 88.49904000000001 L 106.93984 89.55744 C 106.93984 89.55744, 107.99712000000001 85.11104, 110.32672000000001 81.5136 L 104.18800000000002 51.24335999999999 C 104.18800000000002 51.24335999999999, 103.12960000000002 47.434239999999996, 101.85952000000002 46.37583999999998 C 101.85952000000002 46.37583999999998, 101.63888000000001 44.839199999999984, 102.70400000000002 43.914079999999984 L 22.906240000000004 46.375840000000004 Z" fill="white" />
		<path d="M 18.9448 80.09792000000002 C 17.92 77.00224000000001, 20.033440000000002 71.92752000000002, 21.316959999999998 69.7424 C 23.614079999999998 66.73744, 24.38912 62.454560000000015, 24.54368 61.45888000000001 L 26.47792 50.503040000000006 L 97.85776 48.300000000000004 L 97.89808 48.58784 L 98.96655999999999 49.47712 C 99.26448 49.94864, 99.76511999999998 51.20416, 100.06975999999999 52.24912 L 102.1944 62.7312 C 92.81327999999999 67.33552, 74.50352 77.82768000000002, 55.012159999999994 97.19248 L 22.04832 82.92032 L 21.993440000000003 82.89792000000001 L 21.938560000000003 82.87440000000001 C 19.796000000000003 82.01760000000002, 19.20352 80.87968000000001, 18.9448 80.09792000000002 Z" fill="white" />
		<path d="M 86.53456000000001 98.08624 C 88.58080000000001 94.45744000000002, 88.64576000000002 90.61584, 86.67904000000001 89.50704 C 84.71344000000002 88.40048000000002, 81.46096000000001 90.44112000000001, 79.41472000000002 94.07216 C 77.36848000000002 97.70096, 77.30352 101.54256000000001, 79.27024000000002 102.65136 C 81.23584000000001 103.75904, 84.48832000000002 101.71728000000002, 86.53456000000001 98.08624 Z M 20.3672 86.80672000000001 L 69.26304 107.97248 C 69.26304 107.97248, 75.096 111.45232, 80.92896 111.45232 C 83.49488 111.45232, 86.05968 110.77584, 88.12944 108.83824 C 108.69040000000001 107.79776, 109.22128000000002 97.19472, 106.82000000000001 89.52272 L 106.94096000000002 89.55632000000001 C 106.94096000000002 89.55632000000001, 107.99824000000002 85.10992, 110.32784000000001 81.51248000000001 L 104.18912000000002 51.24224 C 104.18912000000002 51.24224, 103.13072000000003 47.43312, 101.86064000000003 46.374719999999996 C 101.86064000000003 46.374719999999996, 101.64000000000003 44.83808, 102.70512000000004 43.91295999999999 L 22.907360000000022 46.374719999999996 L 20.36720000000002 60.76896 C 20.36720000000002 60.76896, 19.73216000000002 65.00256, 17.827040000000018 67.33104 C 17.82704 67.33216, 8.725920000000002 82.14752000000001, 20.3672 86.80672000000001 Z M 59.20880000000001 99.00688000000001 C 77.18256000000001 81.44752000000001, 93.91424 71.61952000000001, 103.06800000000001 67.02528000000001 L 105.85344 80.75984000000001 C 105.27776000000001 81.81376000000002, 104.79504000000001 82.87328000000001, 104.3896 83.86224 C 103.61792000000001 82.4376, 103.01760000000002 81.56736, 103.01760000000002 81.56736 C 102.51248000000002 82.20688, 101.99056000000002 82.90351999999999, 101.45968 83.6416 L 101.43392000000001 83.63488 L 99.70688000000001 86.00592 L 85.62064000000001 105.34944 C 84.89712000000002 106.18048000000002, 83.62592000000001 107.22096000000002, 80.92896000000002 107.22096000000002 C 76.38960000000002 107.22096000000002, 71.47952000000002 104.36496000000001, 71.43248000000001 104.33696 L 71.19728000000002 104.19584 L 70.94528000000001 104.08720000000001 L 59.20880000000001 99.00688000000001 Z M 19.06576 75.31888000000001 C 19.06688 75.31328, 19.06912 75.30656, 19.070240000000002 75.30095999999999 C 19.116160000000004 75.11728, 19.16656 74.93472, 19.218080000000004 74.75327999999999 C 19.243840000000006 74.66255999999998, 19.268480000000007 74.57072, 19.294240000000006 74.48111999999999 C 19.321120000000008 74.39264, 19.349120000000006 74.30528, 19.37600000000001 74.21791999999999 C 19.970720000000004 72.33408, 20.801760000000005 70.63504, 21.324800000000003 69.73008 C 21.366240000000005 69.67632, 21.403200000000005 69.6192, 21.444640000000003 69.56432 C 21.543200000000006 69.42992, 21.640640000000005 69.29552, 21.733600000000003 69.15888 C 21.777280000000005 69.09392, 21.816480000000006 69.0256, 21.857920000000004 68.96064 C 21.944160000000007 68.82847999999998, 22.031520000000004 68.69519999999999, 22.112160000000003 68.55744 C 22.154720000000005 68.48687999999999, 22.191680000000005 68.41519999999998, 22.230880000000006 68.34464 C 22.308160000000004 68.21136, 22.38544000000001 68.07808, 22.457120000000007 67.94256 C 22.50192000000001 67.85744, 22.541120000000006 67.7712, 22.58480000000001 67.68607999999999 C 22.64752000000001 67.56175999999999, 22.71136000000001 67.43968, 22.770720000000008 67.31536 C 22.81664000000001 67.22015999999999, 22.859200000000012 67.12272, 22.90064000000001 67.0264 C 22.95216000000001 66.91215999999999, 23.00592000000001 66.80015999999999, 23.05296000000001 66.68591999999998 C 23.097760000000008 66.58175999999999, 23.13696000000001 66.47984, 23.17728000000001 66.37791999999999 C 23.220960000000012 66.27263999999998, 23.266880000000008 66.16623999999999, 23.30608000000001 66.06208 C 23.355360000000008 65.93552, 23.399040000000007 65.8112, 23.444960000000005 65.68799999999999 C 23.472960000000004 65.60623999999999, 23.505440000000004 65.52447999999998, 23.533440000000006 65.44607999999998 C 23.581600000000005 65.30832, 23.625280000000007 65.17504, 23.668960000000006 65.04063999999998 C 23.691360000000003 64.97679999999998, 23.713760000000004 64.91071999999998, 23.736160000000005 64.84575999999998 C 23.783200000000004 64.69007999999998, 23.828000000000003 64.54111999999999, 23.872800000000005 64.39215999999999 C 23.885120000000004 64.35295999999998, 23.898560000000003 64.31039999999999, 23.909760000000006 64.27231999999998 C 23.948960000000007 64.13679999999998, 23.985920000000007 64.00687999999998, 24.020640000000004 63.87583999999999 C 24.032960000000003 63.826559999999986, 24.048640000000002 63.77391999999998, 24.062080000000005 63.72575999999999 C 24.091200000000004 63.61151999999999, 24.116960000000002 63.505119999999984, 24.144960000000005 63.39871999999998 C 24.158400000000007 63.338239999999985, 24.176320000000004 63.274399999999986, 24.190880000000007 63.21503999999998 C 24.211040000000008 63.133279999999985, 24.226720000000007 63.05711999999998, 24.245760000000004 62.97759999999998 C 24.263680000000004 62.90255999999998, 24.283840000000005 62.82191999999998, 24.299520000000005 62.75023999999998 C 24.307360000000006 62.712159999999976, 24.314080000000004 62.68079999999998, 24.321920000000002 62.642719999999976 C 24.4384 62.108479999999986, 24.510080000000002 61.691839999999985, 24.545920000000002 61.45887999999998 L 26.480160000000005 50.50303999999997 L 67.2 49.24416000000001 C 67.0824 50.21968000000001, 67.28624 51.38784000000001, 68.0904 52.74752000000001 L 70.33600000000001 57.55792000000001 C 70.33600000000001 57.55792000000001, 73.77552000000001 65.80560000000001, 85.59824000000002 57.55792000000001 L 98.34384000000001 48.957440000000005 L 98.96880000000002 49.476000000000006 C 99.26672000000002 49.94752000000001, 99.76736000000001 51.20304000000001, 100.07200000000002 52.24800000000001 L 102.19664000000003 62.730080000000015 C 92.81552000000002 67.33440000000002, 74.50576000000002 77.82656, 55.014400000000016 97.19136000000002 L 22.04832 82.92032 L 21.993440000000003 82.89792000000001 L 21.938560000000003 82.87440000000001 C 21.806400000000004 82.81952000000001, 21.6776 82.76464000000001, 21.55664 82.71088000000002 C 21.48832 82.68064000000001, 21.427840000000003 82.64816000000002, 21.364 82.61680000000001 C 21.31248 82.59216, 21.25648 82.5664, 21.20832 82.54176000000001 C 21.146720000000002 82.51152000000002, 21.09296 82.47792000000001, 21.03584 82.44544000000002 C 20.987680000000005 82.42080000000001, 20.936160000000005 82.39392000000001, 20.89136 82.36704000000003 C 20.84544 82.34128000000003, 20.80512 82.31440000000003, 20.76144 82.28752000000003 C 20.7088 82.25616000000002, 20.655040000000003 82.22256000000002, 20.60576 82.19120000000002 C 20.574400000000004 82.16992000000002, 20.547520000000002 82.14752000000003, 20.516160000000003 82.12736000000002 C 20.459040000000005 82.08816000000003, 20.4008 82.04784000000004, 20.349280000000004 82.00976000000003 C 20.326880000000003 81.99184000000001, 20.307840000000002 81.97728000000002, 20.285440000000005 81.96048000000003 C 20.229440000000004 81.91456000000002, 20.171200000000002 81.87088000000003, 20.119680000000006 81.82720000000003 C 20.107360000000003 81.81600000000002, 20.098400000000005 81.80592000000001, 20.087200000000003 81.79584000000003 C 20.027840000000005 81.74544000000002, 19.970720000000004 81.69392000000002, 19.918080000000003 81.64352000000002 C 19.908000000000005 81.63344000000002, 19.900160000000007 81.62448000000003, 19.891200000000005 81.61552000000002 C 19.838560000000005 81.56400000000001, 19.78592 81.51136000000001, 19.738880000000005 81.45872000000001 C 19.732160000000004 81.45312000000003, 19.727680000000003 81.44640000000003, 19.722080000000005 81.43968000000002 C 19.671680000000002 81.38480000000001, 19.625760000000007 81.32992000000003, 19.58096 81.27504000000002 C 19.57648 81.27056000000002, 19.572000000000003 81.26272000000002, 19.568640000000002 81.25712000000001 C 19.52496 81.20224, 19.482400000000002 81.14736, 19.445440000000005 81.09360000000001 C 19.439840000000004 81.08800000000001, 19.436480000000007 81.08016, 19.432000000000002 81.07344 C 19.393920000000005 81.02080000000001, 19.3592 80.96592000000001, 19.325600000000005 80.91440000000001 C 19.320000000000007 80.90544000000001, 19.316640000000007 80.89648000000001, 19.309920000000005 80.88864000000002 C 19.279680000000003 80.83936000000003, 19.250560000000004 80.79008000000002, 19.224800000000005 80.74192000000002 C 19.215840000000007 80.72624000000002, 19.209120000000006 80.71392000000002, 19.202400000000004 80.69936000000003 C 19.180000000000007 80.65568000000002, 19.157600000000006 80.61312000000002, 19.136320000000005 80.57280000000002 C 19.128480000000003 80.55264000000003, 19.122880000000002 80.53808000000001, 19.113920000000004 80.51904000000002 C 19.096000000000007 80.48208000000001, 19.078080000000003 80.44512000000002, 19.063520000000004 80.40816000000001 C 19.054560000000002 80.38464000000002, 19.045600000000004 80.36448000000001, 19.037760000000002 80.34208000000002 C 19.025440000000003 80.31296000000002, 19.012000000000004 80.28048000000001, 19.001920000000002 80.25024000000002 C 18.992960000000004 80.22672000000003, 18.984000000000005 80.20096000000002, 18.976160000000004 80.17744000000003 C 18.967200000000005 80.15392000000003, 18.958240000000007 80.12816000000004, 18.951520000000006 80.10576000000003 C 18.885440000000003 79.90752000000003, 18.832800000000002 79.70256000000003, 18.791360000000005 79.49200000000003 C 18.5472 78.24992, 18.7096 76.77376000000001, 19.06576 75.31888000000001 Z" />
		<path d="M 24.389120000000002 54.55968 L 21.50176 53.3736 L 25.024160000000002 38.75536 L 26.505920000000003 30.499840000000003 C 31.373440000000002 7.0056, 63.96992000000001 8.275680000000001, 63.96992000000001 8.275680000000001 C 99.10768000000002 8.275680000000001, 102.91792 29.865920000000003, 102.91792 29.865920000000003 L 104.08272000000001 42.79632 L 58.38112 44.13808 L 57.38432 56.369600000000005 C 57.34512000000001 56.775040000000004, 57.2936 57.16368000000001, 57.23088 57.540000000000006 C 56.7896 63.52752000000001, 51.796640000000004 68.24832, 45.69712 68.24832 C 44.67008 68.24832, 43.67552 68.11280000000001, 42.727999999999994 67.86192000000001 C 40.229279999999996 67.25712000000001, 38.76431999999999 65.94224000000001, 38.76431999999999 65.94224000000001 L 38.73071999999999 65.91648 C 38.58624 65.80672000000001, 38.44399999999999 65.6936, 38.30511999999999 65.57824000000001 L 24.389120000000002 54.55968 Z" fill="white" />
		<path d="M 19.018720000000005 54.64256 L 23.308320000000002 56.40544 L 36.972319999999996 67.22576000000001 C 37.11904 67.34672, 37.26687999999999 67.46432, 37.4192 67.57968000000001 C 37.80896 67.91120000000001, 39.50576 69.25632, 42.20831999999999 69.916 C 43.346239999999995 70.21504, 44.518879999999996 70.36512, 45.69712 70.36512 C 52.79344 70.36512, 58.76528 64.85024000000001, 59.33648 57.79088000000001 C 59.40368000000001 57.36416000000001, 59.454080000000005 56.96208000000001, 59.492160000000005 56.56784000000001 L 60.33664 46.19776000000001 L 106.39328 44.84592000000001 L 105.00224 29.497440000000008 C 104.95856 29.251040000000007, 103.86880000000001 23.382240000000007, 98.12432 17.580640000000006 C 88.78688000000001 8.15136, 74.42624 6.163360000000001, 64.00800000000001 6.16 C 63.89488000000001 6.15664, 63.5824 6.14768, 63.096320000000006 6.14768 C 57.467200000000005 6.14768, 29.15024 7.301280000000001, 24.4328 30.072000000000003 L 24.422719999999998 30.128000000000004 L 22.95216 38.321920000000006 L 19.018720000000005 54.64256 Z M 26.368160000000003 42.19936 L 27.107360000000003 39.130559999999996 L 28.58464 30.904159999999997 C 32.654720000000005 11.371360000000001, 58.045120000000004 10.38128, 63.096320000000006 10.38128 C 63.588 10.38128, 63.86688000000001 10.39024, 63.89040000000001 10.391360000000002 L 63.96992000000001 10.393600000000003 C 95.97728000000001 10.393600000000003, 100.54688000000002 28.89488, 100.81904 30.167200000000005 L 101.77216 40.74784000000001 L 74.60992 41.544160000000005 L 26.368160000000003 42.19936 Z M 23.9848 52.10464 L 25.54944 45.59744 L 56.17248 45.1808 L 55.27424 56.19712 C 55.24624 56.49728, 55.20256 56.833279999999995, 55.14208 57.19952 L 55.1208 57.38432 C 54.75904 62.2888, 50.61952 66.13264000000001, 45.696 66.13264000000001 C 44.87616 66.13264000000001, 44.05856 66.02512, 43.26896 65.8168 L 43.22416 65.80672000000001 C 41.330239999999996 65.34752000000002, 40.18896 64.37872, 40.17776 64.36864000000001 L 40.0008 64.22416000000001 C 39.8832 64.13680000000001, 39.76784 64.04496000000002, 39.65584 63.952000000000005 L 39.617760000000004 63.920640000000006 L 25.467680000000005 52.71728000000001 L 23.9848 52.10464 Z M 38.454080000000005 56.264320000000005 C 38.454080000000005 60.205600000000004, 41.650560000000006 63.40208, 45.591840000000005 63.40208 C 49.533120000000004 63.40208, 52.728480000000005 60.205600000000004, 52.728480000000005 56.264320000000005 C 52.728480000000005 52.323040000000006, 49.533120000000004 49.12768, 45.591840000000005 49.12768 C 41.650560000000006 49.12768, 38.454080000000005 52.323040000000006, 38.454080000000005 56.264320000000005 Z M 42.11088 56.264320000000005 C 42.11088 54.34352, 43.6688 52.78448, 45.59072 52.78448 C 47.512640000000005 52.78448, 49.07056 54.343520000000005, 49.07056 56.264320000000005 C 49.07056 58.18736, 47.51152 59.7464, 45.59072 59.7464 C 43.668800000000005 59.7464, 42.11088 58.187360000000005, 42.11088 56.264320000000005 Z" />
	</g>
</svg>