<svg xmlns="http://www.w3.org/2000/svg" viewbox="0 0 128 128" width="128" height="128">
	<g data-id="afro" fill="black">
		<circle cx="75.87100000000001" cy="87.55" r="28.729999999999997" fill="white" stroke="#010101" stroke-width="5.95" />
		<path d="M 118.67105 42.074999999999996 C 119.4063 37.5479, 114.91574999999999 32.725, 114.91574999999999 32.725 C 115.55324999999999 23.162499999999998, 107.57515 21.675, 107.57515 21.675 C 105.5904 14.172899999999998, 94.09074999999999 14.875, 94.09074999999999 14.875 C 89.62825 10.2, 80.27824999999999 12.325, 80.27824999999999 12.325 C 66.89075 8.2875, 57.96574999999999 14.875, 57.96574999999999 14.875 C 49.67824999999999 11.475, 39.690749999999994 19.974999999999998, 39.690749999999994 19.974999999999998 C 32.97064999999999 18.513849999999998, 26.940749999999994 27.412499999999998, 26.940749999999994 27.412499999999998 C 12.873249999999999 31.348000000000003, 13.12825 40.8, 13.12825 40.8 C 6.32825 45.6875, 8.02825 54.824999999999996, 8.02825 54.824999999999996 C 2.29075 67.9983, 12.07255 78.42439999999999, 12.075099999999999 78.42694999999999 L 12.075099999999999 78.42694999999999 C 10.38445 91.82889999999999, 20.9899 97.11845, 20.9899 97.11845 C 24.387349999999998 109.2301, 36.295 108.65124999999999, 36.30775 108.65039999999999 C 36.30775 108.65039999999999, 36.3086 108.65039999999999, 36.309450000000005 108.65124999999999 C 45.67645000000001 115.72494999999999, 51.809200000000004 110.08434999999999, 51.809200000000004 110.08434999999999 L 52.8598 109.3253 C 56.45785 107.9313, 57.73455 105.8352, 57.73455 105.8352 C 61.41845 102.15215, 61.4686 96.25144999999999, 61.4686 96.25144999999999 C 52.44075 87.55, 60.489399999999996 82.63869999999999, 60.489399999999996 82.63869999999999 C 65.9107 79.2863, 71.80035 85.64854999999999, 71.80035 85.64854999999999 C 75.6857 89.2738, 80.47290000000001 83.60344999999998, 80.47290000000001 83.60344999999998 C 84.1075 80.7636, 99.97615 78.46774999999998, 99.97615 78.46774999999998 C 104.07825 77.56334999999997, 105.19685 75.51314999999998, 105.19685 75.51314999999998 C 111.20209999999999 74.52629999999998, 114.4627 66.84909999999999, 114.4627 66.84909999999999 C 119.74799999999999 65.48485, 118.75265 56.949999999999996, 118.75265 56.949999999999996 C 122.8029 51, 118.67105 42.074999999999996, 118.67105 42.074999999999996 Z" fill="#BE202E" />
		<path d="M 119.0017 56.553900000000006 L 116.55030000000002 56.409400000000005 C 115.84734999999999 48.64465, 111.94075 47.6, 111.94075 47.6 C 112.15324999999999 42.5, 103.86574999999999 38.25, 103.86574999999999 38.25 C 100.25325 30.599999999999998, 89.89089999999999 33.15, 89.89089999999999 33.15 C 83.35354999999998 24.65, 67.05394999999999 29.325, 67.05394999999999 29.325 C 58.927949999999996 25.5, 53.07825 33.15, 53.07825 33.15 C 37.77825 29.325, 25.87825 43.01935, 25.87825 43.01935 C 15.67825 41.8387, 10.23655 55.076600000000006, 10.23655 55.076600000000006 L 7.9713 54.965250000000005 C 2.3647 68.0714, 12.07255 78.4244, 12.07425 78.42695 C 10.3836 91.8289, 20.98905 97.11845, 20.98905 97.11845 C 24.386499999999998 109.2301, 36.294149999999995 108.65125, 36.3069 108.6504 C 36.3069 108.6504, 36.30775 108.6504, 36.3086 108.65125000000002 C 45.6756 115.72495, 51.80835 110.08435000000001, 51.80835 110.08435000000001 L 52.85895 109.32530000000001 C 56.457 107.93130000000002, 57.7337 105.83520000000003, 57.7337 105.83520000000003 C 61.4176 102.15215000000002, 61.467749999999995 96.25145000000002, 61.467749999999995 96.25145000000002 C 52.44075 87.55, 60.489399999999996 82.63869999999999, 60.489399999999996 82.63869999999999 C 65.9107 79.2863, 71.80035 85.64854999999999, 71.80035 85.64854999999999 C 75.6857 89.2738, 80.47290000000001 83.60344999999998, 80.47290000000001 83.60344999999998 C 84.1075 80.7636, 99.97615 78.46774999999998, 99.97615 78.46774999999998 C 104.07825 77.56334999999997, 105.19685 75.51314999999998, 105.19685 75.51314999999998 C 111.20209999999999 74.52629999999998, 114.4627 66.84909999999999, 114.4627 66.84909999999999 C 119.74799999999999 65.48485, 118.75265 56.949999999999996, 118.75265 56.949999999999996 C 118.84104999999998 56.81994999999999, 118.92095 56.686499999999995, 119.0017 56.553900000000006 Z" fill="#DBCC26" />
		<path d="M 112.50684999999999 66.01780000000001 C 113.9493 57.09365000000001, 105.19599999999998 53.0808, 105.19599999999998 53.0808 C 100.78875 46.2366, 87.07825 49.725, 87.07825 49.725 C 73.90324999999999 36.97500000000001, 59.878249999999994 46.325, 59.878249999999994 46.325 C 45.853249999999996 40.800000000000004, 33.95324999999999 55.845, 33.95324999999999 55.845 C 17.803249999999995 56.865, 13.628899999999993 76.97685, 13.628899999999993 76.97685 L 10.160049999999993 75.88289999999999 C 11.216599999999993 77.50725, 12.073399999999992 78.42525, 12.074249999999992 78.4261 C 10.383599999999992 91.82805, 20.98904999999999 97.1176, 20.98904999999999 97.1176 C 24.38649999999999 109.22925, 36.294149999999995 108.65039999999999, 36.30689999999999 108.64955 C 36.30689999999999 108.64955, 36.30774999999999 108.64955, 36.30859999999999 108.6504 C 45.67559999999999 115.7241, 51.80834999999999 110.08350000000002, 51.80834999999999 110.08350000000002 L 52.85894999999999 109.32445000000001 C 56.45699999999999 107.93045000000001, 57.7337 105.83435000000001, 57.7337 105.83435000000001 C 61.4176 102.15130000000002, 61.467749999999995 96.25060000000002, 61.467749999999995 96.25060000000002 C 52.44075 87.55, 60.489399999999996 82.63869999999999, 60.489399999999996 82.63869999999999 C 65.9107 79.2863, 71.80035 85.64854999999999, 71.80035 85.64854999999999 C 75.6857 89.2738, 80.47290000000001 83.60344999999998, 80.47290000000001 83.60344999999998 C 84.1075 80.7636, 99.97615 78.46774999999998, 99.97615 78.46774999999998 C 104.07825 77.56334999999997, 105.19685 75.51314999999998, 105.19685 75.51314999999998 C 111.1528 74.53479999999999, 114.4049 66.98509999999999, 114.45844999999998 66.86014999999999 L 112.50684999999999 66.01780000000001 Z" fill="#00AEEF" />
		<path d="M 83.67824999999999 64.175 C 73.90324999999999 53.125, 57.66654999999999 61.614799999999995, 57.66654999999999 61.614799999999995 C 39.46465 61.434599999999996, 36.07825 74.8, 36.07825 74.8 C 22.90325 80.325, 22.775750000000002 95.6437, 22.775750000000002 95.6437 L 23.03585 96.54469999999999 L 19.82625 96.40954999999998 C 20.53175 96.88724999999998, 20.989900000000002 97.11845, 20.989900000000002 97.11845 C 24.38735 109.2301, 36.295 108.65124999999999, 36.30775 108.65039999999999 C 36.30775 108.65039999999999, 36.3086 108.65039999999999, 36.309450000000005 108.65124999999999 C 45.67645000000001 115.72494999999999, 51.809200000000004 110.08434999999999, 51.809200000000004 110.08434999999999 L 52.8598 109.3253 C 56.45785 107.9313, 57.73455 105.8352, 57.73455 105.8352 C 61.41845 102.15215, 61.4686 96.25144999999999, 61.4686 96.25144999999999 C 52.44075 87.55, 60.489399999999996 82.63869999999999, 60.489399999999996 82.63869999999999 C 65.9107 79.2863, 71.80035 85.64854999999999, 71.80035 85.64854999999999 C 75.6857 89.2738, 80.47290000000001 83.60344999999998, 80.47290000000001 83.60344999999998 C 84.1075 80.7636, 99.97615 78.46774999999998, 99.97615 78.46774999999998 C 104.07825 77.56334999999997, 105.19685 75.51314999999998, 105.19685 75.51314999999998 C 104.0043 73.593, 99.297 68.85, 99.297 68.85 C 93.398 62.18685, 83.67824999999999 64.175, 83.67824999999999 64.175 Z" fill="#65307E" />
		<path d="M 45.5311 114.3403 C 42.26115 114.3403, 38.92660000000001 113.1418, 35.6099 110.7754 C 29.659050000000004 110.62325, 22.067700000000002 107.33885000000001, 19.198950000000007 98.53710000000001 C 18.103300000000004 97.8537, 16.112600000000004 96.4291, 14.249400000000005 94.14005000000002 C 11.865150000000005 91.21095000000001, 9.228450000000006 86.26395000000001, 9.864250000000006 79.10780000000001 C 7.64405 76.34615, 0.9341499999999999 66.58475, 5.84205 54.54280000000001 C 5.56665 52.2325, 5.17395 44.598650000000006, 11.0823 39.69755 C 11.45885 36.78545, 13.60935 29.2111, 25.65045 25.57565 C 27.16345 23.57475, 32.129999999999995 17.6885, 38.17605 17.6885 C 38.48375 17.6885, 38.7923 17.7038, 39.09745 17.7344 C 41.220749999999995 16.116, 47.3127 11.947600000000001, 53.7353 11.947600000000001 C 55.118249999999996 11.947600000000001, 56.44595000000001 12.1414, 57.6963 12.524750000000001 C 59.71164999999999 11.328800000000001, 64.67395 8.891, 71.6533 8.891 C 74.53394999999999 8.891, 77.46730000000001 9.3109, 80.37855 10.140500000000001 C 81.2464 9.98325, 83.0161 9.718900000000001, 85.10285 9.718900000000001 C 89.23725 9.718900000000001, 92.60495 10.758450000000002, 94.9161 12.73385 C 97.75085 12.74065, 106.5441 13.313550000000001, 109.22925 19.924 C 112.57825 21.0681, 117.20649999999999 24.56755, 117.0756 31.974450000000004 C 118.38969999999998 33.5784, 121.2015 37.54705, 120.85045 41.7656 C 121.7268 43.928, 124.3839 51.56015000000001, 120.93544999999999 57.474450000000004 C 121.18449999999999 61.14815, 120.35404999999999 66.7386, 115.99609999999998 68.57119999999999 C 114.89704999999998 70.7251, 111.68489999999997 76.08945, 106.38939999999998 77.43499999999999 C 105.52494999999999 78.38274999999999, 103.7391 79.81585, 100.43515 80.54429999999999 L 100.28044999999999 80.57235 C 94.47154999999998 81.413, 84.48745 83.38924999999999, 81.92044999999999 85.1768 C 81.13589999999998 86.0455, 78.22294999999998 88.98564999999999, 74.70224999999998 88.98564999999999 C 74.70224999999998 88.98564999999999, 74.70224999999998 88.98564999999999, 74.70139999999998 88.98564999999999 C 73.10509999999998 88.98479999999999, 71.60059999999997 88.36855, 70.35109999999997 87.2032 L 70.24059999999999 87.0927 C 69.38294999999998 86.17725, 66.56179999999998 83.7879, 63.88429999999999 83.7879 C 63.06744999999999 83.7879, 62.32284999999998 84.0038, 61.60629999999998 84.44579999999999 C 61.59014999999998 84.45685, 59.55439999999998 85.7735, 59.33084999999998 87.97840000000001 C 59.13449999999998 89.92235000000001, 60.38314999999997 92.2539, 62.942499999999974 94.72145 L 63.599549999999965 95.35555000000001 L 63.592749999999974 96.26845 C 63.58934999999997 96.54215, 63.48904999999997 102.93755, 59.38354999999997 107.18925 C 58.87779999999997 107.8973, 57.26279999999997 109.83104999999999, 53.88914999999997 111.2038 L 53.13349999999997 111.7495 C 52.51045 112.28245, 49.82785 114.3403, 45.5311 114.3403 Z M 36.970749999999995 106.4965 L 37.588699999999996 106.95465 C 40.34354999999999 109.03545000000001, 43.01594999999999 110.08945, 45.531949999999995 110.08945 C 48.57919999999999 110.08945, 50.35484999999999 108.53564999999999, 50.37099999999999 108.5195 L 50.56564999999999 108.3597 L 51.83894999999999 107.4417 L 52.093099999999986 107.34309999999999 C 54.88279999999998 106.26275, 55.900249999999986 104.75995, 55.94104999999999 104.69705 L 56.23344999999998 104.33155 C 58.49699999999998 102.068, 59.115799999999986 98.6408, 59.28324999999998 97.06745 C 56.17054999999997 93.82809999999999, 54.76804999999998 90.60575, 55.11144999999998 87.47775 C 55.583199999999984 83.18865, 59.22884999999997 80.9183, 59.38269999999998 80.82395 C 60.76054999999998 79.97225, 62.277799999999985 79.5362, 63.88514999999998 79.5362 C 68.69359999999998 79.5362, 72.70559999999998 83.521, 73.29209999999998 84.13215 C 73.88709999999998 84.66935, 74.38009999999997 84.7331, 74.70224999999998 84.7331 C 76.34019999999998 84.7331, 78.29689999999998 82.87584999999999, 78.85364999999997 82.22559999999999 L 78.99219999999998 82.0641 L 79.16474999999998 81.9281 C 83.01099999999998 78.92335, 96.66794999999998 76.8009, 99.59109999999997 76.37504999999999 C 102.48874999999998 75.71969999999999, 103.33789999999998 74.47615, 103.37274999999997 74.4226 L 103.83939999999997 73.3754 L 104.85174999999998 73.4162 C 109.57179999999998 72.64099999999999, 112.47879999999998 66.08409999999999, 112.50684999999999 66.01780000000001 L 112.91654999999999 65.05305 L 113.93144999999998 64.7904 C 117.27194999999999 63.92850000000001, 116.64889999999998 57.262800000000006, 116.64124999999997 57.19480000000001 L 116.54944999999996 56.40855000000001 L 116.99484999999997 55.75320000000001 C 120.27499999999998 50.93285000000001, 116.77809999999997 43.04485000000001, 116.74239999999996 42.965800000000016 L 116.46869999999997 42.37590000000001 L 116.57324999999996 41.73330000000001 C 117.03564999999996 38.88580000000001, 114.40829999999995 35.307300000000005, 113.35684999999997 34.16915000000001 L 112.73719999999996 33.49765000000001 L 112.79499999999996 32.58305000000001 C 113.30159999999997 24.991700000000012, 107.43489999999997 23.810200000000012, 107.18499999999997 23.763450000000013 L 105.86324999999997 23.516950000000012 L 105.51984999999996 22.218150000000016 C 104.23464999999996 17.359550000000013, 97.03939999999996 16.982150000000015, 94.86509999999997 16.982150000000015 C 94.48004999999996 16.982150000000015, 94.24544999999996 16.994050000000012, 94.21569999999997 16.99575000000001 L 93.23479999999998 17.052700000000012 L 92.55224999999997 16.342100000000013 C 90.67969999999997 14.379450000000013, 87.46584999999999 13.967200000000014, 85.09944999999998 13.967200000000014 C 82.69139999999997 13.967200000000014, 80.76274999999997 14.393050000000015, 80.74489999999997 14.397300000000014 L 80.20004999999998 14.519700000000013 L 79.66284999999996 14.359900000000014 C 76.98109999999997 13.551550000000013, 74.28489999999996 13.140150000000013, 71.64989999999996 13.140150000000013 C 63.980349999999966 13.140150000000013, 59.27219999999996 16.550350000000012, 59.22544999999995 16.58520000000001 L 58.26324999999995 17.294950000000014 L 57.156549999999946 16.841050000000013 C 56.11529999999995 16.414350000000013, 54.96354999999995 16.197600000000012, 53.731899999999946 16.197600000000012 C 47.51159999999995 16.197600000000012, 41.12809999999995 21.54155000000001, 41.06434999999995 21.595950000000013 L 40.26449999999995 22.273400000000013 L 39.23769999999995 22.05240000000001 C 38.89089999999995 21.976750000000013, 38.533899999999946 21.938500000000012, 38.17349999999995 21.938500000000012 C 34.13089999999995 21.938500000000012, 29.961649999999945 26.75205000000001, 28.696849999999948 28.60760000000001 L 28.259949999999943 29.248500000000007 L 27.511949999999942 29.459300000000006 C 15.362049999999943 32.858450000000005, 15.250699999999942 40.44640000000001, 15.251549999999943 40.767700000000005 L 15.255799999999942 41.861650000000004 L 14.367549999999945 42.52635 C 8.728649999999943 46.579150000000006, 10.102249999999943 54.3592, 10.116699999999943 54.43740000000001 L 10.235699999999945 55.077450000000006 L 9.975599999999945 55.674150000000004 C 4.884949999999945 67.36335, 13.269349999999944 76.59095, 13.628049999999943 76.97770000000001 L 14.302949999999944 77.70445000000001 L 14.181399999999943 78.69215000000001 C 12.708349999999943 90.36520000000002, 21.56704999999994 95.02830000000003, 21.945299999999943 95.22040000000003 L 22.774049999999946 95.64370000000002 L 23.034149999999944 96.54470000000003 C 25.700599999999945 106.04940000000003, 34.33659999999995 106.53050000000003, 36.04169999999995 106.53050000000003 L 36.970749999999995 106.4965 Z" fill="#010101" />
	</g>
</svg>