<svg xmlns="http://www.w3.org/2000/svg" viewbox="0 0 128 128" width="128" height="128">
	<g data-id="backward_cap">
		<path d="M 41.169 60.946 C 36.97 47.830999999999996, 41.82899999999999 33.021, 53.928999999999995 25.150999999999996 C 68.43299999999999 15.717999999999996, 87.83599999999998 19.828999999999997, 97.269 34.331999999999994 C 99.11200000000001 37.166, 100.43100000000001 40.18899999999999, 101.263 43.288999999999994 L 41.169 60.946 Z" data-id="back" fill="none" />
		<path d="M 60.101 55.383 L 41.168 60.946000000000005 C 37.525 49.569, 40.708999999999996 36.92400000000001, 49.513 28.632000000000005 C 52.115 36.598, 55.665 46.185, 60.101 55.383 Z" data-id="front" fill="#FEFEFE" />
		<circle cx="70.473" cy="52.5" r="33.75" fill="white" stroke="black" stroke-width="7" />
		<path d="M 95.955 35.72 C 70.699 43.291, 45.543 50.857, 20.391000000000005 58.525 C 16.828000000000007 59.647999999999996, 13.261000000000006 60.671, 9.598000000000006 61.796 C 2.1710000000000065 64.05199999999999, 5.767000000000007 75.536, 13.194000000000006 73.28 C 38.345000000000006 65.612, 63.59700000000001 57.942, 88.753 50.375 C 92.316 49.252, 95.884 48.229, 99.54599999999999 47.103 C 106.874 44.851, 103.281 33.467, 95.955 35.72 L 95.955 35.72 Z" />
	</g>
</svg>