<svg xmlns="http://www.w3.org/2000/svg" viewbox="0 0 128 128" width="128" height="128">
	<g data-id="block_head" fill="black">
		<path d="M 93.9376 24.355200000000004 L 84.23360000000001 24.355200000000004 L 84.23360000000001 15.347200000000004 C 84.23360000000001 12.966400000000007, 82.28320000000001 11.017600000000005, 79.9008 11.017600000000005 L 47.2976 11.017600000000005 C 44.9168 11.017600000000005, 42.9664 12.966400000000007, 42.9664 15.347200000000004 L 42.9664 24.355200000000004 L 33.2624 24.355200000000004 C 25.289599999999997 24.355200000000004, 18.827199999999998 30.817600000000006, 18.827199999999998 38.78880000000001 L 18.827199999999998 91.18400000000003 C 18.827199999999998 99.15520000000002, 25.289599999999997 105.61760000000002, 33.2624 105.61760000000002 L 35.6928 105.61760000000002 L 35.6928 114.22720000000002 C 35.6928 115.01920000000004, 36.34239999999999 115.6688, 37.135999999999996 115.6688 L 90.06240000000001 115.6688 C 90.8576 115.6688, 91.50720000000001 115.01920000000001, 91.50720000000001 114.22720000000002 L 91.50720000000001 105.61760000000002 L 93.9376 105.61760000000002 C 101.9104 105.61760000000002, 108.37280000000001 99.15680000000003, 108.37280000000001 91.18400000000003 L 108.37280000000001 38.790400000000005 C 108.37280000000001 30.8176, 101.91040000000001 24.355200000000004, 93.9376 24.355200000000004 Z" data-id="skin" fill="#fbcf3e" />
		<path d="M 93.9376 21.830399999999997 L 86.3984 21.830399999999997 L 86.3984 15.3472 C 86.3984 11.7664, 83.4832 8.851200000000002, 79.9008 8.851200000000002 L 47.2976 8.851200000000002 C 43.716800000000006 8.851200000000002, 40.80160000000001 11.764800000000001, 40.80160000000001 15.3472 L 40.80160000000001 21.830399999999997 L 33.2624 21.830399999999997 C 23.908800000000003 21.830399999999997, 16.300800000000002 29.4384, 16.300800000000002 38.790400000000005 L 16.300800000000002 91.18560000000001 C 16.300800000000002 100.536, 23.908800000000003 108.1456, 33.2624 108.1456 L 33.528000000000006 108.1456 L 33.528000000000006 114.2288 C 33.528000000000006 116.21600000000001, 35.147200000000005 117.83680000000001, 37.136 117.83680000000001 L 90.06240000000001 117.83680000000001 C 92.0528 117.83680000000001, 93.67040000000001 116.21599999999998, 93.67040000000001 114.2288 L 93.67040000000001 108.1456 L 93.93760000000002 108.1456 C 103.2912 108.1456, 110.9008 100.536, 110.9008 91.18560000000001 L 110.9008 38.790400000000005 C 110.9008 29.436800000000005, 103.2912 21.830399999999997, 93.9376 21.830399999999997 Z M 45.1328 15.3472 C 45.1328 14.1536, 46.104 13.182399999999998, 47.2976 13.182399999999998 L 79.9008 13.182399999999998 C 81.096 13.182399999999998, 82.06560000000002 14.153599999999997, 82.06560000000002 15.3472 L 82.06560000000002 21.830399999999997 L 45.1328 21.830399999999997 L 45.1328 15.3472 Z M 89.3424 113.5024 L 37.857600000000005 113.5024 L 37.857600000000005 108.14240000000001 L 89.3424 108.14240000000001 L 89.3424 113.5024 Z M 105.84800000000001 83.0288 C 102.7136 83.52960000000002, 93.664 84.26240000000001, 84.72640000000001 78.21280000000002 C 83.5712 77.43040000000002, 82.0016 77.73280000000001, 81.2192 78.888 C 80.4368 80.04480000000001, 80.7376 81.6144, 81.8944 82.3936 C 89.168 87.3168, 96.416 88.42880000000001, 101.47840000000001 88.42880000000001 C 103.22240000000001 88.42880000000001, 104.7104 88.2944, 105.8464 88.14240000000001 L 105.8464 91.18240000000002 C 105.8464 97.74880000000002, 100.5024 103.09120000000001, 93.93599999999999 103.09120000000001 L 33.2624 103.09120000000001 C 26.696000000000005 103.09120000000001, 21.352000000000004 97.7472, 21.352000000000004 91.18240000000002 L 21.352000000000004 38.790400000000005 C 21.352000000000004 32.224000000000004, 26.694400000000005 26.881600000000006, 33.2624 26.881600000000006 L 93.9376 26.881600000000006 C 100.504 26.881600000000006, 105.84800000000001 32.224000000000004, 105.84800000000001 38.790400000000005 L 105.84800000000001 83.0288 Z" />
		<path d="M 95.3872 49.798399999999994 C 98.32712218029928 49.798399999999994, 100.71039999999999 53.167367714473244, 100.71039999999999 57.3232 C 100.71039999999999 61.479032285526756, 98.32712218029928 64.84800000000001, 95.3872 64.84800000000001 C 92.44727781970073 64.84800000000001, 90.06400000000001 61.479032285526756, 90.06400000000001 57.3232 C 90.06400000000001 53.167367714473244, 92.44727781970073 49.798399999999994, 95.3872 49.798399999999994 Z" />
		<path d="M 85.11200000000001 48.6496 C 84.4704 48.6496, 83.8352 48.3648, 83.40960000000001 47.8208 C 82.6688 46.88159999999999, 82.83200000000001 45.519999999999996, 83.7728 44.7808 C 91.864 38.42400000000001, 101.096 41.8544, 101.48320000000001 42.00320000000001 C 102.6016 42.43200000000001, 103.1616 43.6832, 102.7328 44.800000000000004 C 102.304 45.9136, 101.05760000000001 46.47200000000001, 99.94560000000001 46.0496 C 99.61760000000001 45.92959999999999, 92.5584 43.385600000000004, 86.44800000000001 48.1872 C 86.0512 48.4992, 85.57920000000001 48.6496, 85.11200000000001 48.6496 Z" />
	</g>
</svg>