<svg xmlns="http://www.w3.org/2000/svg" viewbox="0 0 128 128" width="128" height="128">
	<g data-id="chicken_head" fill="black">
		<path d="M 97.7364 36.699200000000005 C 97.5648 35.6228, 97.32360000000001 34.556, 97.026 33.506 C 96.8148 32.7704, 96.63480000000001 31.8932, 96.26039999999999 31.2224 C 95.8536 30.498800000000003, 95.3712 29.812399999999997, 94.842 29.172800000000002 C 93.99119999999999 28.144399999999997, 92.94839999999999 27.1544, 91.6752 26.6876 C 90.05999999999999 26.0972, 88.5024 26.72, 87.32759999999999 27.8924 C 87.56639999999999 24.7328, 87.3936 21.1028, 85.97279999999999 18.2228 C 85.02239999999999 16.2956, 83.41559999999998 15.198800000000002, 81.24479999999998 15.2324 C 78.5496 15.2732, 76.0572 17.2232, 74.2524 19.028 C 74.16 17.3792, 73.83239999999999 15.7172, 73.33919999999999 14.1416 C 72.1668 10.379600000000002, 69.39119999999998 6.662000000000003, 64.99799999999999 7.210400000000002 C 60.60719999999999 7.758800000000003, 56.47439999999999 10.4036, 56.47439999999999 15.256400000000001 C 54.041999999999994 12.2072, 50.0916 10.217600000000001, 46.416 9.200000000000001 C 42.618 8.15, 38.616 7.8176000000000005, 34.908 9.3032 C 33.492 9.872000000000002, 31.955999999999996 10.8236, 31.6008 12.422 C 31.0608 14.8664, 33.2724 17.2772, 34.8348 18.8396 C 33.6012 18.959600000000002, 32.3724 19.2092, 31.174799999999998 19.523600000000002 C 26.934 20.6372, 22.4016 23.0108, 22.1964 27.9116 C 22.159200000000002 28.8044, 22.6992 29.6828, 23.319599999999998 30.2756 C 25.326 32.1944, 28.6452 32.3984, 31.251599999999996 32.3984 C 28.423199999999998 34.3676, 25.240799999999997 37.856, 25.406399999999994 41.5304 C 25.442399999999996 42.3368, 26.042399999999997 43.0412, 26.661599999999996 43.495999999999995 C 28.59959999999999 44.924, 31.399199999999993 45.0548, 33.70439999999999 45.0548 C 33.15839999999999 47.9264, 33.160799999999995 51.13399999999999, 34.078799999999994 53.922799999999995 C 37.69199999999999 44.9, 45.419999999999995 37.82599999999999, 54.740399999999994 35.0564 C 62.29319999999999 32.8136, 70.57799999999999 33.476, 77.6856 36.876799999999996 C 85.16999999999999 40.4576, 91.06679999999999 46.947199999999995, 93.93599999999999 54.7328 C 97.3368 49.4012, 98.7456 42.9572, 97.7364 36.699200000000005 Z" fill="#a6272d" />
		<path d="M 58.5972 97.016 C 59.148 93.28880000000001, 60.937200000000004 89.9012, 63.6636 87.3044 C 64.704 86.3132, 65.892 85.52, 66.9864 84.5936 C 68.2884 83.4896, 69.5076 82.2704, 70.57679999999999 80.936 C 71.61959999999999 79.634, 72.4704 78.2276, 73.00919999999999 76.6448 C 73.1844 76.1312, 73.1964 75.96799999999999, 73.6452 75.6896 C 73.8804 75.542, 74.118 75.39439999999999, 74.3508 75.24680000000001 C 75.954 74.246, 77.5572 73.244, 79.158 72.242 C 80.6652 71.3012, 82.1688 70.3592, 83.676 69.41839999999999 C 86.0868 67.91120000000001, 88.2708 65.68520000000001, 89.9628 63.4232 C 90.8724 62.2076, 91.5468 60.895999999999994, 92.1804 59.52439999999999 C 92.2848 59.301199999999994, 91.974 58.59199999999999, 91.9116 58.35079999999999 C 91.7844 57.86119999999999, 91.6392 57.37639999999999, 91.4868 56.89639999999999 C 91.152 55.85959999999999, 90.7596 54.840799999999994, 90.3108 53.847199999999994 C 88.6356 50.142799999999994, 86.1756 46.800799999999995, 83.1372 44.09839999999999 C 77.03160000000001 38.667199999999994, 68.7432 36.01879999999999, 60.61680000000001 36.941599999999994 C 52.45320000000002 37.84279999999999, 44.98320000000001 42.28759999999999, 40.19880000000001 48.94879999999999 C 38.38200000000001 51.47959999999999, 36.98760000000001 54.32119999999999, 36.07200000000001 57.298399999999994 C 35.752800000000015 57.93559999999999, 35.63760000000001 58.851199999999984, 35.48280000000001 59.5652 C 35.23560000000001 60.7016, 35.05440000000001 61.85, 34.94160000000001 63.0068 C 34.83960000000001 64.01599999999999, 34.84560000000001 65.0264, 34.792800000000014 66.0368 C 34.72920000000001 67.274, 34.62360000000001 68.5112, 34.500000000000014 69.7448 C 33.97920000000001 74.9528, 33.09480000000001 80.1548, 31.650000000000013 85.1912 C 30.158400000000015 90.38119999999999, 28.05000000000001 95.69359999999999, 24.14640000000001 99.7496 C 30.031200000000013 98.30120000000001, 36.82080000000001 97.7084, 42.80760000000001 99.2564 C 44.46840000000001 99.6848, 46.00560000000001 100.4432, 47.42760000000001 101.39959999999999 C 48.62040000000001 102.2012, 49.562400000000004 103.3076, 50.66280000000001 104.222 C 53.488800000000005 106.5752, 56.82240000000001 108.4004, 60.38160000000001 109.358 C 58.8672 105.464, 57.980399999999996 101.1932, 58.5972 97.016 C 59.2776 92.4032, 57.952799999999996 101.372, 58.5972 97.016 Z" data-id="skin" fill="white" />
		<path d="M 96.68759999999999 90.92599999999999 C 95.448 91.87759999999999, 93.97919999999998 92.79199999999999, 92.26559999999999 93.5324 C 92.79119999999999 94.592, 93.29039999999999 95.74879999999999, 93.69599999999998 97.00759999999998 C 95.32199999999999 102.05119999999998, 95.81159999999998 109.42519999999998, 89.52599999999998 116.72839999999998 C 93.91559999999998 115.43719999999999, 96.30359999999997 111.40279999999997, 96.30359999999997 111.40279999999997 C 102.5508 102.8384, 99.8316 95.4476, 96.68759999999999 90.92599999999999 Z M 96.90599999999999 87.7676 C 96.88319999999999 87.7928, 96.86159999999998 87.81439999999999, 96.83639999999998 87.8372 C 96.8628 87.81439999999999, 96.8832 87.79039999999999, 96.90599999999999 87.7676 L 96.90599999999999 87.7676 Z M 91.1844 91.54039999999999 C 91.1844 91.5392, 91.18319999999999 91.538, 91.18319999999999 91.5368 L 91.18319999999999 91.538 C 91.1844 91.5392, 91.1844 91.5392, 91.1844 91.54039999999999 Z M 85.94519999999999 116.1572 Q 85.74119999999999 116.342, 85.38119999999999 116.63000000000001 C 85.94519999999999 116.1572, 85.74119999999999 116.342, 85.38119999999999 116.63000000000001 C 85.74479999999998 116.3396, 85.94519999999999 116.1572, 85.94519999999999 116.1572 Z" fill="#a6272d" />
		<path d="M 100.36319999999999 78.9644 C 94.95599999999999 81.10159999999999, 89.7792 80.6384, 89.7792 80.6384 C 86.88839999999999 80.03960000000001, 89.1 77.99719999999999, 89.1 77.99719999999999 C 93.9792 73.1192, 110.904 72.8432, 110.904 72.8432 C 100.722 62.6588, 93.7476 61.526, 93.7476 61.526 C 91.4148 66.5684, 86.07360000000001 70.58840000000001, 84.2724 71.8448 L 83.7816 75.2108 C 83.7708 75.28040000000001, 82.84559999999999 82.10240000000002, 88.0788 87.33800000000001 L 88.1064 87.3632 L 88.13159999999999 87.3896 C 88.2276 87.48800000000001, 89.6712 89.02400000000002, 91.1844 91.53920000000001 C 97.3992 88.9268, 100.092 83.78120000000001, 100.092 83.78120000000001 C 102.4776 80.38520000000001, 109.7712 76.4864, 109.7712 76.4864 C 108.8628 75.79759999999999, 100.36319999999999 78.9644, 100.36319999999999 78.9644 Z" fill="#f8d032" />
		<path d="M 95.54159999999999 65.2916 C 96.70802539164262 65.2916, 97.6536 65.88312138852356, 97.6536 66.6128 C 97.6536 67.34247861147645, 96.70802539164262 67.934, 95.54159999999999 67.934 C 94.37517460835736 67.934, 93.42959999999998 67.34247861147645, 93.42959999999998 66.6128 C 93.42959999999998 65.88312138852356, 94.37517460835736 65.2916, 95.54159999999999 65.2916 Z" />
		<path d="M 80.7948 74.7752 Q 79.57919999999999 83.1044, 85.94519999999999 89.4692 C 80.7948 74.7752, 79.57919999999999 83.1044, 85.94519999999999 89.4692 Q 98.9592 103.1444, 85.94519999999999 116.15599999999999 C 85.94519999999999 89.4692, 98.9592 103.1444, 85.94519999999999 116.15599999999999 Q 74.886 126.24799999999999, 67.46279999999999 116.15599999999999 C 85.94519999999999 116.15599999999999, 74.886 126.24799999999999, 67.46279999999999 116.15599999999999 Q 53.85839999999999 98.04079999999999, 67.46279999999999 88.05439999999999 C 67.46279999999999 116.15599999999999, 53.85839999999999 98.04079999999999, 67.46279999999999 88.05439999999999 Q 73.8504 83.52919999999999, 75.76199999999999 77.9228 C 67.46279999999999 88.05439999999999, 73.8504 83.52919999999999, 75.76199999999999 77.9228 L 80.7948 74.7752 Z" fill="#a6272d" />
		<path d="M 118.07039999999999 75.7448 C 114.53999999999998 72.2132, 111.1008 68.54480000000001, 107.11559999999999 65.5124 C 104.49719999999998 63.5204, 101.68559999999998 61.7588, 98.68319999999999 60.4052 C 97.7028 59.96359999999999, 96.70079999999999 59.564, 95.67719999999998 59.227999999999994 C 95.3964 59.13439999999999, 95.21879999999999 59.15959999999999, 95.14799999999998 58.8512 C 95.05559999999998 58.46359999999999, 95.03999999999998 58.40839999999999, 95.26439999999998 58.1132 C 95.54399999999998 57.742399999999996, 95.81399999999998 57.364399999999996, 96.07559999999998 56.9792 C 99.46799999999998 51.9812, 101.29559999999998 45.959599999999995, 101.09159999999999 39.914 C 100.89959999999999 34.1516, 99.32039999999999 27.5156, 93.92639999999999 24.429199999999998 C 93.1776 24.000799999999998, 92.36399999999998 23.6816, 91.51559999999999 23.5304 C 91.12559999999998 23.4596, 90.72959999999999 23.4272, 90.33239999999998 23.4272 C 90.26999999999997 23.4272, 90.14999999999998 22.0844, 90.12599999999999 21.9224 C 89.79839999999999 19.679599999999997, 89.17439999999998 17.378, 87.85799999999999 15.501199999999999 C 85.14959999999998 11.634799999999998, 80.19839999999999 11.5268, 76.34879999999998 13.635199999999998 C 74.95559999999998 8.995999999999999, 71.78759999999998 4.597999999999999, 66.59879999999998 4.166 C 62.24279999999998 3.8023999999999987, 57.11999999999998 6.0211999999999986, 54.85679999999998 9.826399999999998 C 52.76039999999998 8.381599999999997, 50.43719999999998 7.276399999999999, 48.00599999999998 6.521599999999999 C 45.22199999999997 5.657599999999999, 41.98679999999998 5.021599999999999, 39.05999999999998 5.276 C 36.19679999999998 5.5244, 33.010799999999975 6.330799999999998, 30.79559999999998 8.260399999999999 C 28.23599999999998 10.49, 27.97799999999998 13.896799999999999, 29.50559999999998 16.82 C 25.75559999999998 17.948, 21.83399999999998 20.0552, 20.08439999999998 23.744 C 19.21679999999998 25.573999999999998, 18.82319999999998 27.900799999999997, 19.516799999999982 29.8472 C 20.36759999999998 32.2304, 22.516799999999982 33.757999999999996, 24.839999999999982 34.533199999999994 C 22.77359999999998 37.4144, 21.11159999999998 41.858000000000004, 23.75519999999998 44.9036 C 24.892799999999983 46.214, 26.511599999999984 46.9868, 28.161599999999982 47.435599999999994 C 28.63199999999998 47.56399999999999, 29.10959999999998 47.6672, 29.588399999999982 47.7512 C 29.843999999999983 47.796800000000005, 30.101999999999983 47.834, 30.356399999999983 47.8688 C 30.350399999999983 48.056, 30.34439999999998 48.2444, 30.339599999999983 48.434 C 30.320399999999985 49.337599999999995, 30.350399999999983 50.2436, 30.439199999999982 51.144800000000004 C 30.62999999999998 53.0816, 31.095599999999983 55.0184, 31.993199999999984 56.756 C 32.21879999999998 57.1916, 32.46839999999998 57.6116, 32.74559999999998 58.0124 C 32.613599999999984 58.5452, 32.49359999999998 59.0792, 32.387999999999984 59.616800000000005 C 32.15399999999998 60.7976, 31.988399999999984 61.9904, 31.891199999999984 63.190400000000004 C 31.756799999999984 64.81880000000001, 31.75799999999998 66.452, 31.618799999999982 68.08279999999999 C 31.190399999999983 73.088, 30.41639999999998 78.092, 29.146799999999985 82.95439999999999 C 27.789599999999982 88.1564, 25.851599999999987 93.776, 21.967199999999984 97.6628 C 19.279199999999985 100.34960000000001, 16.589999999999982 103.03760000000001, 13.901999999999983 105.72680000000001 C 22.676399999999983 103.2908, 32.192399999999985 99.6944, 41.37359999999998 102.0008 C 43.127999999999986 102.44, 44.85599999999999 103.1504, 46.26959999999998 104.29880000000001 C 46.84679999999998 104.77040000000001, 47.350799999999985 105.33200000000001, 47.90279999999998 105.83120000000001 C 49.92839999999998 107.65760000000002, 52.227599999999974 109.2056, 54.67439999999998 110.4128 C 56.38559999999998 111.2576, 58.18199999999998 111.93200000000002, 60.03359999999998 112.394 C 60.51479999999998 112.51280000000001, 60.99959999999998 112.6196, 61.486799999999974 112.70960000000001 C 61.94639999999998 112.79480000000001, 62.171999999999976 113.59280000000001, 62.39879999999997 113.99600000000001 C 62.88719999999997 114.86720000000001, 63.41519999999998 115.71560000000002, 63.980399999999975 116.53520000000002 C 65.77079999999997 119.12960000000002, 67.93559999999997 121.51400000000001, 70.90679999999998 122.74640000000001 C 72.20039999999997 123.2804, 73.58399999999997 123.58280000000002, 74.98199999999997 123.64640000000001 C 76.92839999999998 123.7352, 78.85319999999997 123.65360000000001, 80.72759999999998 123.07280000000002 C 82.42319999999997 122.54960000000001, 84.01199999999997 121.70840000000003, 85.44119999999997 120.66200000000002 C 85.73159999999997 120.44960000000002, 85.99919999999997 120.12200000000001, 86.36279999999998 120.13520000000003 C 86.81279999999997 120.15200000000003, 87.26279999999997 120.14360000000003, 87.71279999999997 120.11120000000004 C 88.62959999999997 120.04520000000002, 89.53679999999997 119.88200000000003, 90.41879999999996 119.61920000000003 C 95.83319999999996 118.00520000000004, 99.75359999999996 112.87040000000005, 101.73119999999997 107.79320000000003 C 103.19759999999997 104.02160000000003, 103.47119999999998 99.88640000000004, 102.40559999999998 95.97440000000003 C 101.84999999999998 93.94040000000003, 100.96319999999997 92.00600000000003, 99.84359999999997 90.22400000000003 C 99.70079999999997 89.99840000000002, 99.55679999999997 89.77400000000003, 99.40799999999997 89.55080000000002 C 99.60719999999996 89.35040000000002, 99.80159999999997 89.14760000000003, 99.99359999999997 88.93880000000003 C 100.33799999999998 88.56800000000003, 100.67039999999996 88.18160000000003, 100.98959999999997 87.78680000000003 C 101.48759999999997 87.16880000000003, 101.95559999999998 86.52200000000002, 102.37559999999996 85.84640000000003 C 103.12799999999996 84.63320000000003, 104.24399999999997 83.72240000000002, 105.37559999999996 82.86560000000003 C 106.82399999999996 81.76520000000002, 108.35639999999997 80.77160000000003, 109.92959999999997 79.85720000000003 C 111.65759999999996 78.84920000000002, 113.44919999999996 77.94320000000003, 115.21079999999996 77.00120000000004 C 115.25639999999996 76.97840000000002, 115.29959999999996 76.95560000000003, 115.34159999999996 76.93160000000003 C 114.85079999999995 76.55840000000003, 114.36119999999997 76.18520000000004, 113.86919999999995 75.81320000000002 C 115.2708 75.7892, 116.6724 75.7664, 118.07039999999999 75.7448 Z M 33.703199999999995 45.0548 C 31.399199999999993 45.0548, 28.5996 44.924, 26.6604 43.496 C 26.0412 43.0412, 25.4412 42.3368, 25.405199999999997 41.5304 C 25.239599999999996 37.856, 28.421999999999997 34.367599999999996, 31.2504 32.3984 C 28.644000000000002 32.3984, 25.324800000000003 32.1944, 23.3184 30.2756 C 22.699200000000005 29.6828, 22.158000000000005 28.8044, 22.195200000000003 27.9116 C 22.4004 23.010800000000003, 26.932800000000004 20.6372, 31.1736 19.523600000000002 C 32.3712 19.2092, 33.598800000000004 18.959600000000002, 34.833600000000004 18.8396 C 33.2712 17.2772, 31.059600000000003 14.8664, 31.599600000000002 12.422 C 31.955999999999996 10.8236, 33.492 9.872000000000002, 34.908 9.3032 C 38.616 7.8176000000000005, 42.618 8.15, 46.416 9.200000000000001 C 50.0916 10.217600000000001, 54.041999999999994 12.206, 56.4756 15.2552 C 56.4756 10.402400000000002, 60.6072 7.7576, 64.9992 7.209200000000001 C 69.3936 6.6608, 72.1692 10.378400000000001, 73.3404 14.140400000000001 C 73.8336 15.7148, 74.1612 17.378, 74.2536 19.0268 C 76.0584 17.223200000000002, 78.5508 15.273200000000001, 81.24600000000001 15.231200000000001 C 83.41800000000002 15.197600000000001, 85.0236 16.293200000000002, 85.974 18.221600000000002 C 87.3948 21.1016, 87.56760000000001 24.7316, 87.32880000000002 27.8912 C 88.50360000000002 26.7188, 90.06120000000001 26.096, 91.67640000000002 26.6864 C 92.94960000000003 27.154400000000003, 93.99240000000003 28.1432, 94.84320000000001 29.171599999999998 C 95.37120000000002 29.8112, 95.85480000000003 30.4976, 96.26160000000002 31.221200000000003 C 96.63600000000001 31.892, 96.81600000000002 32.7692, 97.02720000000002 33.5048 C 97.32480000000002 34.5548, 97.56600000000002 35.620400000000004, 97.73760000000003 36.698 C 98.74680000000002 42.956, 97.33800000000002 49.4, 93.93480000000002 54.7316 C 91.06560000000002 46.946, 85.16880000000002 40.4564, 77.68440000000002 36.8756 C 70.57680000000002 33.476, 62.29320000000003 32.8124, 54.73920000000003 35.0552 C 45.418800000000026 37.824799999999996, 37.689600000000034 44.8988, 34.07760000000003 53.9216 C 33.1596 51.1352, 33.157199999999996 47.9264, 33.703199999999995 45.0548 Z M 49.072799999999994 102.7676 C 45.572399999999995 99.26599999999999, 40.300799999999995 98.33720000000001, 35.5392 98.3084 C 31.735199999999995 98.2844, 27.825599999999998 98.75240000000001, 24.1464 99.7496 C 28.247999999999998 95.6492, 30.399599999999996 89.80279999999999, 31.8948 84.31639999999999 C 33.239999999999995 79.37839999999998, 34.0728 74.2928, 34.5528 69.20119999999999 C 34.656 68.10439999999998, 34.7448 67.00639999999999, 34.7988 65.90719999999999 C 34.9632 62.459599999999995, 35.3604 59.14639999999999, 36.54 55.89439999999999 C 38.91 49.36399999999999, 43.6536 43.80439999999999, 49.7196 40.41919999999999 C 55.9968 36.91639999999999, 63.5076 35.88079999999999, 70.50599999999999 37.52359999999999 C 77.25599999999999 39.10879999999999, 83.3064 43.16599999999999, 87.37079999999999 48.780799999999985 C 89.40479999999998 51.591199999999986, 90.92999999999999 54.76399999999999, 91.8468 58.11079999999999 C 91.9716 58.57159999999999, 92.082 59.035999999999994, 92.19 59.502799999999986 C 92.17439999999999 59.66599999999999, 92.0112 59.89159999999998, 91.94279999999999 60.03919999999999 C 91.626 60.72079999999999, 91.3008 61.39279999999999, 90.9084 62.03479999999998 C 89.8812 63.70999999999999, 88.5648 65.20399999999998, 87.14999999999999 66.5624 C 84.36959999999999 69.22999999999999, 81.0252 71.07319999999999, 77.77799999999999 73.10479999999998 C 76.8036 73.71319999999999, 75.82919999999999 74.32159999999999, 74.8548 74.92999999999998 C 74.4216 75.20239999999998, 73.54679999999999 75.55519999999999, 73.25039999999998 75.93319999999999 C 73.02359999999999 76.21879999999999, 72.9648 76.79239999999999, 72.83399999999999 77.14759999999998 C 72.50639999999999 78.03559999999999, 72.04079999999999 78.87199999999999, 71.51399999999998 79.65799999999999 C 70.50479999999999 81.1676, 69.26159999999999 82.51999999999998, 67.93319999999999 83.75119999999998 C 66.97079999999998 84.64399999999999, 65.9232 85.39519999999999, 64.90559999999998 86.216 C 63.42239999999998 87.4112, 62.10359999999998 88.81519999999999, 61.06319999999998 90.41599999999998 C 58.816799999999986 93.87199999999999, 58.085999999999984 98.02879999999998, 58.52879999999998 102.09079999999999 C 58.79999999999998 104.58559999999999, 59.47199999999998 107.02399999999999, 60.38039999999998 109.35919999999999 C 56.2236 108.24080000000001, 52.0596 105.9104, 49.072799999999994 102.7676 Z M 85.94519999999999 116.1572 C 84.21239999999999 117.7052, 82.1064 118.9568, 79.93679999999999 119.77159999999999 C 78.24479999999998 120.404, 76.43279999999999 120.81920000000001, 74.64359999999998 120.4376 C 72.86519999999999 120.05720000000001, 71.21639999999998 119.2148, 69.75719999999998 118.1432 C 68.34239999999998 117.1064, 67.36679999999998 116.10679999999999, 66.45599999999999 114.6752 C 65.37359999999998 112.97359999999999, 64.42199999999998 111.1868, 63.62519999999998 109.3328 C 61.50719999999998 104.408, 60.35039999999998 98.5316, 62.789999999999985 93.5 C 63.951599999999985 91.1024, 65.78879999999998 89.3504, 67.87199999999999 87.75319999999999 C 70.00919999999998 86.1116, 71.97959999999999 84.182, 73.56719999999999 82.0016 C 74.3928 80.864, 75.11759999999998 79.63640000000001, 75.62039999999999 78.32 C 75.85079999999998 77.7116, 76.40399999999998 77.5232, 76.95599999999999 77.1788 C 78.23639999999999 76.3784, 79.51679999999999 75.5792, 80.7948 74.77879999999999 C 80.15639999999999 79.61359999999999, 81.92879999999998 84.9104, 85.08719999999998 88.5536 C 85.97279999999999 89.5748, 86.86799999999998 90.5132, 87.64679999999998 91.628 C 89.03039999999999 93.60799999999999, 90.15479999999998 95.7896, 90.87599999999999 98.0996 C 91.72799999999998 100.8116, 91.98479999999999 103.7024, 91.43519999999998 106.502 C 90.7068 110.22439999999999, 88.6044 113.5004, 85.94519999999999 116.1572 Z M 96.306 111.4028 C 94.80839999999999 113.84839999999998, 92.2896 115.9052, 89.538 116.71879999999999 C 92.454 113.32639999999999, 94.43159999999999 109.1732, 94.71239999999999 104.67199999999998 C 94.95479999999999 100.81159999999998, 93.98039999999999 96.97999999999999, 92.27159999999998 93.53119999999998 C 93.84479999999998 92.84959999999998, 95.32799999999997 91.97239999999998, 96.68759999999999 90.92719999999998 C 98.484 93.50839999999998, 99.75359999999999 96.49519999999998, 100.0176 99.65119999999999 C 100.37519999999999 103.91359999999999, 98.79119999999999 107.99479999999998, 96.306 111.4028 Z M 89.7792 80.63839999999999 C 93.6084 80.9408, 97.368 80.0444, 100.938 78.75319999999999 C 102.4056 78.22399999999999, 103.8828 77.71879999999999, 105.3756 77.2664 C 106.1892 77.0192, 107.00999999999999 76.78399999999999, 107.84160000000001 76.60159999999999 C 108.29880000000001 76.49959999999999, 109.3476 76.16839999999999, 109.77120000000001 76.4888 C 107.95080000000002 77.47039999999998, 106.18440000000001 78.57199999999999, 104.49720000000002 79.7708 C 103.22520000000002 80.67559999999999, 101.97360000000002 81.6464, 100.90560000000002 82.78999999999999 C 100.13760000000002 83.61439999999999, 99.52920000000002 84.6176, 98.90520000000002 85.55359999999999 C 97.83840000000002 86.94439999999999, 96.57120000000003 88.1912, 95.16960000000002 89.24599999999998 C 94.37640000000002 89.84479999999999, 93.53400000000002 90.37999999999998, 92.65320000000003 90.8444 C 92.17440000000003 91.0988, 91.68240000000003 91.32919999999999, 91.18320000000004 91.54039999999999 C 90.95760000000003 91.46359999999999, 90.53520000000003 90.51559999999999, 90.39120000000004 90.30079999999998 C 89.44320000000003 88.88599999999998, 88.31640000000004 87.70159999999998, 87.22560000000003 86.40919999999998 C 86.04360000000004 85.00399999999998, 85.13640000000004 83.37559999999999, 84.54960000000003 81.63439999999999 C 83.87640000000002 79.64119999999998, 83.54400000000004 77.42599999999999, 83.76720000000003 75.32239999999999 C 83.84280000000003 74.624, 83.96760000000003 73.92919999999998, 84.06960000000002 73.23319999999998 C 84.13440000000003 72.7952, 84.19800000000002 72.35839999999999, 84.26160000000002 71.91919999999999 C 84.29640000000002 71.67439999999999, 84.99240000000002 71.32759999999999, 85.19040000000003 71.1788 C 87.84600000000002 69.19279999999999, 90.33600000000001 66.8672, 92.22960000000002 64.13239999999999 C 92.75520000000002 63.377599999999994, 93.22680000000003 62.58559999999999, 93.62760000000003 61.75759999999999 C 93.97440000000003 61.84999999999999, 94.31760000000003 61.95199999999999, 94.65840000000001 62.06119999999999 C 95.62200000000001 62.37319999999999, 96.56400000000001 62.7476, 97.48680000000002 63.16519999999999 C 102.53400000000002 65.44879999999999, 107.00280000000001 68.942, 110.90160000000002 72.84199999999998 C 107.19840000000002 72.91399999999999, 103.47240000000002 73.2704, 99.82560000000002 73.90279999999998 C 97.15080000000002 74.3648, 94.43160000000002 74.9768, 91.95600000000003 76.1216 C 90.91680000000002 76.6028, 87.90240000000003 78.07159999999999, 88.31640000000003 79.68679999999998 C 88.476 80.3024, 89.24040000000001 80.5256, 89.7792 80.63839999999999 Z" />
		<path d="M 75.47999999999999 57.3776 C 75.648 57.6788, 75.7608 57.8324, 75.7608 57.8324 Q 75.4968 61.358000000000004, 65.9052 61.358000000000004 C 75.7608 57.8324, 75.4968 61.358000000000004, 65.9052 61.358000000000004 C 56.313599999999994 61.358000000000004, 56.4756 56.558, 56.4756 56.558 C 56.53680000000001 56.488400000000006, 56.5944 56.412800000000004, 56.6556 56.339600000000004 C 54.565200000000004 56.846000000000004, 53.0124 58.708400000000005, 53.0124 60.93320000000001 C 53.0124 63.5504, 55.1532 65.6696, 57.794399999999996 65.6696 C 58.6164 65.6696, 59.388 65.4656, 60.0624 65.10320000000002 C 60.90839999999999 67.5188, 63.2016 69.2516, 65.9052 69.2516 C 68.3916 69.2516, 70.53 67.7852, 71.5176 65.67200000000001 C 72.1476 65.9684, 72.8532 66.14000000000001, 73.60079999999999 66.14000000000001 C 76.2216 66.14000000000001, 78.3468 64.0952, 78.3468 61.570400000000014 C 78.348 59.6912, 77.16600000000001 58.0772, 75.47999999999999 57.3776 Z" fill="#a6272d" />
		<path d="M 58.4484 53.684 Q 57.507600000000004 55.3688, 56.4756 56.5592 C 58.4484 53.684, 57.507600000000004 55.3688, 56.4756 56.5592 Q 56.3136 61.3592, 65.9052 61.3592 C 56.4756 56.5592, 56.3136 61.3592, 65.9052 61.3592 C 75.4968 61.3592, 75.7608 57.833600000000004, 75.7608 57.833600000000004 Q 75.0996 56.9612, 74.5356 55.052 C 75.7608 57.833600000000004, 75.0996 56.9612, 74.5356 55.052 Q 73.122 48.7436, 66.03479999999999 48.7448 C 74.5356 55.052, 73.122 48.7436, 66.03479999999999 48.7448 C 66.0348 48.7436, 61.001999999999995 48.5672, 58.4484 53.684 Z" fill="#ffffff" />
		<path d="M 76.5996 56.2556 C 76.4232 55.8848, 76.20479999999999 55.364000000000004, 75.9948 54.6656 C 75.38759999999999 52.065200000000004, 72.5568 47.2424, 66.0552 47.233999999999995 C 66.03479999999999 47.233999999999995, 66.0096 47.233999999999995, 65.976 47.233999999999995 C 65.36399999999999 47.233999999999995, 59.92559999999999 47.394800000000004, 57.117599999999996 52.9736 C 57.018 53.1476, 56.44559999999999 54.1364, 55.7724 55.028 C 53.234399999999994 55.8788, 51.50399999999999 58.2356, 51.50399999999999 60.934400000000004 C 51.50399999999999 64.3784, 54.328799999999994 67.17920000000001, 57.79559999999999 67.17920000000001 C 58.300799999999995 67.17920000000001, 58.803599999999996 67.1192, 59.291999999999994 67.0004 C 60.6624 69.2996, 63.16319999999999 70.7624, 65.90639999999999 70.7624 C 68.4228 70.7624, 70.7712 69.5144, 72.198 67.4948 C 72.65639999999999 67.5992, 73.1256 67.6508, 73.602 67.6508 C 77.052 67.6508, 79.8576 64.9244, 79.8576 61.57280000000001 C 79.8576 59.336, 78.59159999999999 57.3152, 76.5996 56.2556 Z M 65.976 48.7436 C 66.0144 48.7436, 66.03479999999999 48.7436, 66.03479999999999 48.7436 L 66.0384 48.7436 C 73.12199999999999 48.7436, 74.5356 55.050799999999995, 74.5356 55.050799999999995 C 74.5704 55.175599999999996, 74.6472 55.4, 74.6472 55.4012 C 74.874 56.0972, 75.426 57.2828, 75.48 57.3788 L 75.48 57.3788 L 75.48 57.3788 C 75.64800000000001 57.68, 75.7608 57.833600000000004, 75.7608 57.833600000000004 Q 75.49680000000001 61.3592, 65.90520000000001 61.3592 C 75.7608 57.833600000000004, 75.49680000000001 61.3592, 65.90520000000001 61.3592 C 56.3136 61.3592, 56.47560000000001 56.5592, 56.47560000000001 56.5592 C 56.92440000000001 56.0432, 57.97440000000001 54.476, 57.979200000000006 54.467600000000004 L 58.44840000000001 53.684000000000005 C 60.837599999999995 48.896, 65.39999999999999 48.7436, 65.976 48.7436 Z M 73.602 66.1424 C 72.8544 66.1424, 72.1488 65.9708, 71.5188 65.67439999999999 C 70.5324 67.7876, 68.394 69.25399999999999, 65.9064 69.25399999999999 C 63.204 69.25399999999999, 60.9096 67.5212, 60.0636 65.10559999999998 C 59.3892 65.46679999999999, 58.6164 65.672, 57.7956 65.672 C 55.1544 65.672, 53.013600000000004 63.5528, 53.013600000000004 60.93559999999999 C 53.013600000000004 59.35159999999999, 53.8092 57.96199999999999, 55.0164 57.103999999999985 C 55.1184 57.777199999999986, 55.4448 58.90759999999998, 56.5116 60.01159999999999 C 58.3452 61.90759999999998, 61.506 62.868799999999986, 65.9064 62.868799999999986 C 74.74080000000001 62.868799999999986, 76.7124 59.94439999999999, 77.14800000000001 58.540399999999984 C 77.8944 59.34679999999998, 78.348 60.40879999999999, 78.348 61.573999999999984 C 78.348 64.0976, 76.2216 66.1424, 73.602 66.1424 Z" />
		<circle cx="66.2688" cy="55.050799999999995" r="1.7772000000000001" />
	</g>
</svg>