<svg xmlns="http://www.w3.org/2000/svg" viewbox="0 0 128 128" width="128" height="128">
	<g data-id="classic_block_head" fill="black">
		<path d="M 75.93824 51.15564 L 12.141719999999998 57.599439999999994 L 12.141719999999998 85.53107999999999 C 12.141719999999998 91.31136, 16.826959999999996 95.99775999999999, 22.607239999999994 95.99775999999999 L 24.369279999999993 95.99775999999999 L 24.369279999999993 102.23624 C 24.369279999999993 102.81159999999998, 24.84023999999999 103.28372, 25.415599999999994 103.28372 L 63.78723999999999 103.28372 C 64.3626 103.28372, 64.83355999999999 102.8116, 64.83355999999999 102.23624 L 64.83355999999999 95.99775999999999 L 66.59559999999999 95.99775999999999 C 72.37587999999998 95.99775999999999, 77.06112 91.31135999999998, 77.06112 85.53107999999999 L 77.06112 51.04544 L 75.93824 51.15564 Z" data-id="skin" fill="#fbcf3e" />
		<path d="M 67.64656 55.53116 C 69.77800358071697 55.53116, 71.50587999999999 57.97314224330291, 71.50587999999999 60.98548 C 71.50587999999999 63.997817756697096, 69.77800358071697 66.43979999999999, 67.64656 66.43979999999999 C 65.51511641928302 66.43979999999999, 63.787240000000004 63.997817756697096, 63.787240000000004 60.98548 C 63.787240000000004 57.97314224330291, 65.51511641928302 55.53116, 67.64656 55.53116 Z" />
		<path d="M 45.73184 15.87772 C 41.9398 15.87772, 39.359959999999994 16.37188, 39.334439999999994 16.377679999999998 C 25.380799999999997 18.84152, 16.22028 25.800359999999998, 12.068639999999998 37.06744 C 8.94824 45.540079999999996, 9.928439999999998 53.31904, 9.93888 53.39792 L 9.963239999999999 53.613679999999995 L 79.05748 46.633959999999995 L 79.0192 46.26508 C 77.45436 34.90056, 71.05 15.87772, 45.73184 15.87772 Z" data-id="hat" fill="white" />
		<path d="M 75.23064 79.62088 C 72.95819999999999 79.9828, 66.3984 80.51523999999999, 59.91863999999999 76.12812 C 59.08111999999999 75.56204, 57.94199999999999 75.78128, 57.374759999999995 76.6188 C 56.80752 77.45747999999999, 57.027919999999995 78.59544, 57.864279999999994 79.16152 C 63.13879999999999 82.72852, 68.39359999999999 83.53587999999999, 72.06267999999999 83.53587999999999 C 73.32824 83.53587999999999, 74.40588 83.4396, 75.22948 83.32708 L 75.22948 85.52991999999999 C 75.22948 90.29055999999999, 71.35507999999999 94.16496, 66.59443999999999 94.16496 L 22.60724 94.16496 C 17.846600000000002 94.16496, 13.97336 90.29055999999999, 13.97336 85.52991999999999 L 13.97336 57.415 L 10.31124 57.783879999999996 L 10.31124 85.52991999999999 C 10.31124 92.31243999999998, 15.8282 97.82939999999998, 22.6084 97.82939999999998 L 22.80096 97.82939999999998 L 22.80096 102.23624 C 22.80096 103.67927999999999, 23.974880000000002 104.85436, 25.41676 104.85436 L 63.788399999999996 104.85436 C 65.23143999999999 104.85436, 66.4042 103.67927999999999, 66.4042 102.23624 L 66.4042 97.82939999999998 L 66.59676 97.82939999999998 C 73.37696 97.82939999999998, 78.89392 92.31243999999998, 78.89392 85.52991999999999 L 78.89392 50.86448 L 75.93824 51.156800000000004 L 75.23179999999999 51.228719999999996 L 75.23179999999999 79.62088 Z M 63.26407999999999 101.71539999999999 L 25.93876 101.71539999999999 L 25.93876 97.82939999999999 L 63.26407999999999 97.82939999999999 L 63.26407999999999 101.71539999999999 Z M 121.92295999999999 42.808279999999996 C 121.72227999999998 40.795680000000004, 121.16663999999999 39.324799999999996, 119.16099999999999 39.52548 L 82.75555999999999 43.14352 C 80.63971999999998 31.431, 75.4116 22.80988, 67.18024 17.50172 C 59.73652 12.700479999999999, 51.40772 11.69244, 45.73068 11.69244 C 41.498999999999995 11.69244, 38.64308 12.24808, 38.56652 12.26316 C 19.278039999999997 15.66776, 11.3738 26.844359999999998, 8.14088 35.62092 C 4.66552 45.051719999999996, 5.7408399999999995 53.587, 5.782599999999999 53.89904 L 6.0261999999999984 56.13088 C 6.143359999999999 57.20272, 7.049319999999998 57.996159999999996, 8.104919999999998 57.996159999999996 C 8.175679999999998 57.996159999999996, 8.246439999999998 57.99267999999999, 8.318359999999998 57.98571999999999 L 75.93824 51.15564 L 119.88832 46.814919999999994 C 121.90092 46.6154, 122.12363999999998 44.822039999999994, 121.92295999999999 42.808279999999996 Z M 9.7846 50.397 C 9.771840000000001 47.350840000000005, 10.124479999999998 42.34428, 12.068639999999998 37.067440000000005 C 16.22028 25.800359999999998, 25.380799999999997 18.84152, 39.33328 16.377679999999998 C 39.358799999999995 16.37188, 41.9398 15.87772, 45.73068 15.87772 C 69.13252 15.87772, 76.37207999999998 32.12584, 78.56912 43.561119999999995 L 9.7846 50.397 Z" />
	</g>
</svg>