<svg xmlns="http://www.w3.org/2000/svg" viewbox="0 0 128 128" width="128" height="128">
	<g data-id="clown_head" fill="black">
		<path d="M 108.46 77.4336 C 108.09519999999999 76.7196, 108.088 75.9624, 108.24879999999999 75.24719999999999 C 107.52639999999998 74.8176, 104.97399999999999 72.99719999999999, 105.48279999999998 68.9616 C 105.89799999999998 65.66999999999999, 106.26399999999998 62.79479999999999, 109.80399999999999 61.3536 C 107.53839999999998 57.6024, 110.91159999999998 54.086400000000005, 110.91159999999998 54.086400000000005 C 111.93999999999998 50.1816, 109.52319999999999 44.625600000000006, 107.81799999999998 41.385600000000004 L 77.92839999999998 46.9596 L 77.73039999999997 47.6484 L 78.18159999999997 53.9112 L 73.21359999999997 54.4272 L 73.64679999999997 60.044399999999996 L 67.81239999999997 58.4244 L 67.05999999999997 62.891999999999996 L 67.05999999999997 62.89319999999999 C 62.10759999999996 58.12559999999999, 56.94879999999996 61.37519999999999, 56.94879999999996 61.37519999999999 C 49.65399999999997 67.2756, 56.88279999999997 74.3748, 56.88279999999997 74.3748 C 59.93679999999997 77.47559999999999, 62.85759999999996 77.98679999999999, 64.81599999999996 77.84879999999998 L 64.72239999999996 78.47039999999998 L 60.93279999999996 82.0944 L 63.18879999999996 85.6176 L 61.284399999999955 88.55999999999999 L 62.178399999999954 90.71039999999999 L 66.08559999999996 95.7612 C 105.44199999999996 119.6676, 106.23399999999995 97.8564, 106.23399999999995 97.8564 C 111.06399999999996 94.63680000000001, 107.61519999999994 91.3428, 107.61519999999994 91.3428 C 97.49439999999996 95.868, 89.90799999999994 88.76039999999999, 89.90799999999994 88.76039999999999 C 81.85839999999995 80.58479999999999, 89.90799999999994 82.4712, 89.90799999999994 82.4712 C 101.63319999999995 85.0212, 108.30399999999995 82.4712, 108.30399999999995 82.4712 C 111.52359999999999 79.96079999999999, 108.46 77.4336, 108.46 77.4336 Z" fill="white" />
		<path d="M 116.2504 60.7344 C 116.1916 60.7272, 116.1328 60.7272, 116.0752 60.7224 C 113.43639999999999 60.296400000000006, 110.74 61.024800000000006, 110.74 61.024800000000006 C 106.318 62.31960000000001, 105.9304 65.39880000000001, 105.48400000000001 68.9616 C 104.89600000000002 73.6464, 108.4372 75.3528, 108.4372 75.3528 C 110.4424 76.0968, 114.01 76.61160000000001, 114.25240000000001 76.6416 C 118.3168 77.154, 122.06080000000001 74.0064, 122.61280000000001 69.61439999999999 C 123.16359999999999 65.2212, 120.316 61.245599999999996, 116.2504 60.7344 Z" fill="#ec1c24" />
		<path d="M 107.61639999999998 91.5504 C 97.4956 96.0744, 89.90919999999998 88.9692, 89.90919999999998 88.9692 C 81.85959999999999 80.7936, 89.90919999999998 82.6776, 89.90919999999998 82.6776 C 101.63439999999999 85.23, 108.30519999999999 82.6776, 108.30519999999999 82.6776 C 110.88639999999998 80.6688, 109.4284 78.648, 108.74919999999999 77.9244 L 107.26959999999998 77.646 C 96.25479999999999 81.04560000000001, 85.32519999999998 75.87480000000001, 85.32519999999998 75.87480000000001 C 79.04319999999998 71.85000000000001, 75.30759999999998 74.61, 75.30759999999998 74.61 C 69.09879999999998 79.2096, 73.69839999999998 87.02640000000001, 73.69839999999998 87.02640000000001 C 86.46039999999998 104.1588, 104.86599999999997 102.366, 104.86599999999997 102.366 L 105.61239999999997 100.8036 C 106.92519999999996 99.3396, 106.23519999999998 98.064, 106.23519999999998 98.064 C 111.0652 94.84440000000001, 107.61639999999998 91.5504, 107.61639999999998 91.5504 Z" fill="#ec1c24" />
		<path d="M 78.18039999999999 53.9112 L 77.70519999999999 47.298 L 40.920399999999994 53.9112 C 32.92719999999999 58.5792, 9.272799999999993 61.291199999999996, 9.272799999999993 61.291199999999996 C 17.913999999999994 66.21119999999999, 27.812799999999992 67.49520000000001, 27.812799999999992 67.49520000000001 C 23.13039999999999 68.89920000000001, 13.533999999999994 70.9512, 13.533999999999994 70.9512 C 23.955999999999992 77.874, 35.84319999999999 77.64840000000001, 35.84319999999999 77.64840000000001 C 30.335199999999993 80.24040000000001, 24.827199999999994 81.21360000000001, 24.827199999999994 81.21360000000001 C 36.193599999999996 86.1024, 46.53639999999999 86.71440000000001, 46.53639999999999 86.71440000000001 C 43.6204 88.76160000000002, 39.0832 91.04160000000002, 39.0832 91.04160000000002 C 50.46639999999999 95.17320000000002, 66.63159999999999 96.46320000000001, 66.63159999999999 96.46320000000001 L 60.934 89.09880000000001 L 63.19 85.61400000000002 L 60.934 82.09080000000002 L 64.7236 78.4668 L 64.8172 77.8452 C 62.8588 77.98440000000001, 59.938 77.47200000000001, 56.88400000000001 74.3712 Q 49.65520000000001 67.27199999999999, 56.95 61.37160000000001 C 56.88400000000001 74.3712, 49.65520000000001 67.27199999999999, 56.95 61.37160000000001 Q 62.107600000000005 58.12200000000001, 67.06120000000001 62.88960000000001 C 56.95 61.37160000000001, 62.107600000000005 58.12200000000001, 67.06120000000001 62.88960000000001 L 67.06120000000001 62.88840000000001 L 67.81360000000001 58.420800000000014 L 73.64800000000001 60.04080000000001 L 73.21480000000001 54.423600000000015 L 78.18039999999999 53.9112 Z" fill="#f05a28" />
		<path d="M 91.7044 63.0516 Q 94.9072 60.041999999999994, 102.77799999999999 59.8428 C 91.7044 63.0516, 94.9072 60.041999999999994, 102.77799999999999 59.8428 C 101.97999999999999 54.523199999999996, 98.3824 50.507999999999996, 94.0648 50.507999999999996 C 89.158 50.507999999999996, 85.1824 55.6872, 85.1824 62.0772 C 85.1824 68.4672, 89.158 73.6452, 94.0648 73.6452 C 97.9324 73.6452, 101.22399999999999 70.422, 102.4396 65.9256 C 101.308 66.01320000000001, 97.744 65.9736, 91.7044 63.0516 Z" fill="#ec1c24" />
		<path d="M 116.446 37.9068 L 116.14959999999999 36.324 C 115.9648 35.3292, 114.99879999999999 34.668, 114.00399999999999 34.8528 L 105.61359999999999 36.416399999999996 L 103.96959999999999 27.6036 Q 101.76159999999999 5.778000000000002, 69.69519999999999 11.655600000000002 C 103.96959999999999 27.6036, 101.76159999999999 5.778000000000002, 69.69519999999999 11.655600000000002 L 69.69399999999999 11.653200000000002 C 69.65079999999999 11.661600000000002, 69.61 11.670000000000002, 69.56679999999999 11.678400000000002 C 69.52359999999999 11.6856, 69.48639999999999 11.694, 69.442 11.701200000000002 L 69.442 11.7024 C 37.4068 17.7792, 43.21359999999999 38.934, 43.21359999999999 38.934 L 44.856399999999994 47.7468 L 36.466 49.3116 C 35.471199999999996 49.4976, 34.81 50.462399999999995, 34.9948 51.4584 L 35.29 53.04 C 35.476 54.034800000000004, 36.440799999999996 54.696000000000005, 37.4356 54.5112 L 114.97359999999999 40.052400000000006 C 115.9684 39.8664, 116.6308 38.900400000000005, 116.446 37.9068 Z" fill="#00adee" />
		<path d="M 43.520799999999994 33.3048 L 105.32559999999998 33.3048 L 105.32559999999998 42.1572 L 43.520799999999994 42.1572 L 43.520799999999994 33.3048 Z" fill="#fff100" />
		<path d="M 106.498 83.172 L 106.498 87.3276 L 101.8804 87.3276 L 100.8856 83.7996 L 106.498 83.172 Z" />
		<path d="M 98.7028 84.1644 L 97.51719999999999 87.82799999999999 L 94.4548 86.9364 L 93.2812 83.4036 L 98.7028 84.1644 Z" />
		<path d="M 102.7528 59.67959999999999 L 102.74799999999999 59.67959999999999 C 101.89959999999999 54.4428, 98.33679999999998 50.507999999999996, 94.06479999999998 50.507999999999996 C 89.15799999999999 50.507999999999996, 85.18239999999999 55.6872, 85.18239999999999 62.07719999999999 C 85.18239999999999 68.46719999999999, 89.15799999999999 73.64519999999999, 94.06479999999998 73.64519999999999 C 97.84839999999998 73.64519999999999, 101.06919999999998 70.56, 102.35199999999999 66.21959999999999 L 102.35679999999999 66.21959999999999 C 103.69 62.675999999999995, 102.7528 59.67959999999999, 102.7528 59.67959999999999 Z M 99.47439999999999 65.7216 C 97.63839999999999 65.4048, 95.05479999999999 64.6728, 91.7032 63.0516 Q 93.88119999999999 61.007999999999996, 99.05199999999999 60.17759999999999 C 91.7032 63.0516, 93.88119999999999 61.007999999999996, 99.05199999999999 60.17759999999999 C 98.4352 60.6996, 98.0272 61.56119999999999, 98.0272 62.877599999999994 C 98.0272 64.32839999999999, 98.82039999999999 65.226, 99.47439999999999 65.7216 Z M 94.0636 71.8056 C 90.1792 71.8056, 87.01959999999998 67.44120000000001, 87.01959999999998 62.0772 C 87.01959999999998 56.7132, 90.17919999999998 52.348800000000004, 94.0636 52.348800000000004 C 96.87279999999998 52.348800000000004, 99.38439999999999 54.6912, 100.4968 58.1412 C 93.6088 58.8132, 90.5812 61.583999999999996, 90.4432 61.71359999999999 L 88.4956 63.5448 L 90.90159999999999 64.7088 C 94.81839999999998 66.6048, 97.80879999999999 67.3596, 99.82599999999998 67.63919999999999 C 98.5228 70.1988, 96.37719999999999 71.8056, 94.0636 71.8056 Z" />
		<path d="M 61.006 64.6104 Q 66.29560000000001 65.24279999999999, 66.29560000000001 70.10759999999999 C 61.006 64.6104, 66.29560000000001 65.24279999999999, 66.29560000000001 70.10759999999999 C 66.29560000000001 73.1124, 63.0184 73.99799999999999, 61.3792 73.28280000000001 Q 64.3024 71.9508, 64.2268 69.8424 C 61.3792 73.28280000000001, 64.3024 71.9508, 64.2268 69.8424 C 64.2256 69.8412, 64.288 66.7488, 61.006 64.6104 Z" />
		<path d="M 83.3872 88.0536 Q 78.11200000000001 86.5392, 78.2128 82.044 C 83.3872 88.0536, 78.11200000000001 86.5392, 78.2128 82.044 C 78.2728 79.26599999999999, 81.56800000000001 78.5208, 83.19160000000001 79.2192 Q 80.24320000000002 80.3856, 80.2756 82.3356 C 83.19160000000001 79.2192, 80.24320000000002 80.3856, 80.2756 82.3356 C 80.2756 82.3344, 80.092 85.24919999999999, 83.3872 88.0536 Z" />
		<path d="M 122.65719999999999 62.647200000000005 C 121.426 60.927600000000005, 119.6368 59.647200000000005, 117.58239999999999 59.119200000000006 C 115.4188 58.5636, 113.0572 58.659600000000005, 110.884 59.104800000000004 C 110.77840000000002 57.85560000000001, 111.36280000000001 56.6004, 112.1584 55.66440000000001 C 112.3516 55.4352, 112.5604 55.29000000000001, 112.63480000000001 54.9924 C 112.8028 54.318000000000005, 112.9312 53.64480000000001, 112.9732 52.948800000000006 C 113.1904 49.43760000000001, 111.9076 45.90240000000001, 110.45200000000001 42.76800000000001 C 111.53920000000001 42.565200000000004, 112.63000000000001 42.36240000000001, 113.7196 42.158400000000015 C 115.1224 41.89680000000001, 116.5396 41.75280000000001, 117.50200000000001 40.54920000000001 C 118.6252 39.14760000000001, 118.3204 37.347600000000014, 117.9016 35.7372 C 117.4084 33.8352, 115.4932 32.704800000000006, 113.5888 33.06 C 111.42520000000002 33.46320000000001, 109.26160000000002 33.86760000000001, 107.09920000000001 34.27080000000001 C 107.0704 34.27560000000001, 105.9868 28.393200000000007, 105.8812 27.828000000000003 C 105.73120000000002 27.027600000000007, 105.6136 26.228400000000008, 105.406 25.440000000000005 C 104.8228 23.218800000000005, 103.86280000000001 21.091200000000004, 102.598 19.174800000000005 C 100.054 15.312000000000005, 96.2836 12.481200000000005, 91.98160000000001 10.843200000000007 C 84.5992 8.028, 76.32039999999999 8.5104, 68.7328 9.9636 C 60.6376 11.514, 52.0288 14.55, 46.408 20.906399999999998 C 43.3156 24.4044, 41.3788 28.8168, 41.022400000000005 33.4812 C 40.8472 35.7684, 41.1544 37.930800000000005, 41.570800000000006 40.1616 C 41.827600000000004 41.5368, 42.0844 42.91199999999999, 42.34 44.2872 C 42.442 44.830799999999996, 42.5416 45.3732, 42.6436 45.9156 C 42.6796 46.11, 42.79600000000001 46.25999999999999, 42.586 46.298399999999994 C 40.434400000000004 46.700399999999995, 38.2828 47.1012, 36.1312 47.5032 C 34.278400000000005 47.8488, 32.95120000000001 49.6104, 33.1432 51.489599999999996 C 33.2488 52.535999999999994, 33.4432 53.837999999999994, 34.0216 54.71999999999999 C 29.763999999999996 56.0136, 25.381600000000002 56.90159999999999, 21.0028 57.679199999999994 C 17.5948 58.28399999999999, 14.171199999999999 58.80719999999999, 10.7368 59.25359999999999 C 8.319999999999999 59.5704, 5.894799999999999 59.828399999999995, 3.4719999999999995 60.1056 C 5.0752 61.02, 6.678399999999998 61.931999999999995, 8.282799999999998 62.8452 C 11.931999999999999 64.92240000000001, 15.865599999999997 66.4716, 19.897599999999997 67.6344 C 16.233999999999995 68.496, 12.555999999999996 69.282, 8.875599999999997 70.068 C 10.939599999999997 71.4396, 12.975999999999996 72.8832, 15.147999999999996 74.0796 C 19.097199999999994 76.2552, 23.414799999999996 77.73599999999999, 27.831999999999997 78.61439999999999 C 24.758799999999997 79.4616, 21.594399999999997 79.9188, 18.4588 80.4768 C 20.337999999999997 81.2856, 22.217200000000002 82.09559999999999, 24.097599999999996 82.9032 C 28.857999999999993 84.9516, 33.84879999999999 86.4636, 38.92719999999999 87.47879999999999 C 39.6508 87.624, 40.37559999999999 87.7584, 41.102799999999995 87.8808 C 38.919999999999995 89.0952, 36.6748 90.1932, 34.44519999999999 91.314 C 37.14279999999999 92.29199999999999, 39.82479999999999 93.3108, 42.584799999999994 94.09559999999999 C 47.13399999999999 95.38679999999998, 51.798399999999994 96.27, 56.47719999999999 96.93719999999999 C 59.47479999999999 97.36199999999998, 62.487999999999985 97.70759999999999, 65.50839999999998 97.9344 C 65.88399999999999 97.96199999999999, 66.118 98.1348, 66.44919999999999 98.3316 C 67.11639999999998 98.7276, 67.78479999999999 99.11880000000001, 68.45559999999998 99.50519999999999 C 69.69159999999998 100.21319999999999, 70.93359999999998 100.90079999999999, 72.18999999999998 101.56919999999998 C 74.46759999999999 102.77879999999998, 76.78479999999998 103.91759999999998, 79.15239999999997 104.94359999999999 C 82.95279999999998 106.58879999999998, 86.91759999999998 108.00119999999998, 91.01679999999998 108.65999999999998 C 94.88559999999998 109.28159999999998, 99.12879999999998 109.21919999999997, 102.58959999999998 107.17079999999997 C 103.92279999999998 106.38239999999998, 105.08079999999997 105.31559999999998, 105.97119999999998 104.04599999999998 C 106.63959999999999 103.09439999999996, 107.15919999999997 102.03599999999999, 107.52159999999998 100.92959999999998 C 107.67879999999998 100.45199999999998, 107.80599999999997 99.96359999999997, 107.90319999999998 99.46919999999999 C 107.96199999999999 99.16319999999999, 107.97399999999998 99.08039999999998, 108.22359999999998 98.87519999999998 C 108.49839999999998 98.64599999999997, 108.75999999999998 98.40239999999997, 109.00359999999998 98.14199999999998 C 110.57199999999999 96.47039999999997, 111.11679999999997 94.15319999999998, 110.14119999999997 92.02799999999998 C 109.64079999999997 90.93599999999998, 108.84879999999997 90.18359999999998, 107.99799999999998 89.36999999999998 C 107.92359999999998 89.29679999999998, 106.54719999999996 90.00719999999997, 106.37679999999997 90.07799999999997 C 105.06879999999997 90.61319999999998, 103.68999999999997 90.98279999999997, 102.28119999999997 91.13639999999998 C 99.88599999999998 91.39799999999998, 97.45719999999999 91.00319999999998, 95.23479999999998 90.08639999999997 C 92.46639999999998 88.94279999999998, 90.11799999999998 87.05279999999998, 88.54119999999998 84.47759999999998 C 88.51239999999997 84.42959999999998, 88.48359999999997 84.38159999999998, 88.45719999999999 84.33239999999998 C 89.64159999999997 84.38279999999997, 90.82839999999997 84.75119999999997, 91.99479999999997 84.94199999999998 C 92.31639999999997 84.99479999999997, 92.81439999999998 84.91079999999997, 92.92479999999998 85.25039999999997 C 93.02559999999998 85.55519999999997, 93.12759999999997 85.86119999999997, 93.22839999999998 86.16719999999998 C 93.34119999999997 86.49599999999998, 93.44919999999998 86.82719999999998, 93.55599999999997 87.15719999999997 C 93.59559999999998 87.27719999999998, 93.63639999999997 87.59399999999998, 93.73119999999997 87.68399999999998 C 93.78519999999997 87.73439999999998, 93.96279999999997 87.75239999999998, 94.03239999999998 87.77159999999998 C 94.30959999999997 87.85319999999997, 94.58919999999998 87.93239999999999, 94.86879999999998 88.01399999999998 C 95.57199999999999 88.21919999999997, 96.27639999999998 88.42439999999998, 96.98199999999999 88.62839999999998 C 97.24359999999999 88.70639999999997, 97.50639999999997 88.78319999999998, 97.76799999999999 88.85879999999997 C 97.81719999999997 88.87319999999998, 98.06919999999998 88.98599999999998, 98.11719999999998 88.96079999999998 C 98.16999999999997 88.93319999999997, 98.21919999999997 88.64519999999999, 98.23599999999998 88.59119999999999 C 98.34159999999997 88.27199999999998, 98.44239999999998 87.95639999999997, 98.54559999999998 87.63959999999999 C 98.74239999999998 87.02759999999998, 98.93919999999999 86.41559999999998, 99.13479999999997 85.80479999999999 C 99.24039999999997 85.47959999999999, 99.57879999999999 85.64879999999998, 99.88959999999999 85.64879999999998 C 100.31079999999999 85.64879999999998, 100.41759999999998 85.53119999999998, 100.52439999999997 85.91399999999997 C 100.70679999999997 86.55959999999997, 100.89159999999997 87.20759999999999, 101.07279999999997 87.85559999999998 C 101.18319999999997 88.23839999999998, 101.12439999999998 88.24559999999998, 101.50479999999997 88.24559999999998 C 102.07599999999996 88.24559999999998, 102.64959999999996 88.24559999999998, 103.22079999999998 88.24559999999998 C 104.52759999999998 88.24559999999998, 105.83079999999997 88.24559999999998, 107.13759999999998 88.24559999999998 C 107.49639999999998 88.24559999999998, 107.41599999999997 88.21439999999998, 107.41599999999997 87.84359999999998 C 107.41599999999997 87.14759999999998, 107.41599999999997 86.45039999999999, 107.41599999999997 85.75199999999998 C 107.41599999999997 85.49759999999998, 107.41599999999997 85.24319999999999, 107.41599999999997 84.98759999999999 C 107.41599999999997 84.67439999999998, 108.00759999999997 84.69239999999998, 108.27039999999998 84.61679999999998 C 108.96879999999997 84.41279999999998, 109.40559999999998 84.19319999999998, 109.95159999999997 83.68679999999999 C 111.57879999999996 82.16159999999998, 112.10799999999996 79.9536, 111.01839999999997 77.94239999999999 C 112.92759999999996 78.33839999999998, 114.89199999999995 78.75239999999998, 116.83719999999997 78.36239999999998 C 118.78959999999996 77.9724, 120.57159999999996 76.91159999999999, 121.90119999999996 75.43439999999998 C 125.0368 71.9508, 125.3992 66.4728, 122.65719999999999 62.647200000000005 C 121.1548 60.5484, 124.1308 64.7016, 122.65719999999999 62.647200000000005 Z M 109 74.088 C 107.092 72.9804, 106.6336 70.82159999999999, 106.8964 68.7888 C 107.1724 66.63839999999999, 107.4712 64.2264, 109.51719999999999 63.026399999999995 C 111.1864 62.046, 113.37759999999999 61.837199999999996, 115.2616 62.01 C 116.3548 62.10959999999999, 117.39999999999999 62.3196, 118.34440000000001 62.911199999999994 C 119.35 63.542399999999994, 120.1444 64.48679999999999, 120.6496 65.55959999999999 C 122.18680000000002 68.8332, 120.88600000000001 73.14479999999999, 117.56920000000002 74.7468 C 116.29480000000002 75.3612, 114.99040000000002 75.3744, 113.62600000000002 75.1524 C 112.0744 74.8992, 110.482 74.622, 109 74.088 Z M 47.3272 87.84599999999999 C 48.407199999999996 87.0876, 49.487199999999994 86.32919999999999, 50.56720000000001 85.57199999999999 C 48.8932 85.4724, 47.210800000000006 85.41599999999998, 45.54280000000001 85.24199999999999 C 41.610400000000006 84.8316, 37.70920000000001 84.0264, 33.90880000000001 82.95479999999999 C 32.388400000000004 82.5264, 30.88360000000001 82.04879999999999, 29.39560000000001 81.52199999999999 C 33.88720000000001 80.21759999999999, 38.03440000000001 78.14399999999999, 42.24880000000001 76.1592 C 40.12000000000001 76.1952, 37.98880000000001 76.23239999999998, 35.85880000000001 76.2696 C 33.14560000000001 76.31759999999998, 30.37360000000001 75.88559999999998, 27.73360000000001 75.3168 C 24.09040000000001 74.53199999999998, 20.531200000000013 73.2996, 17.23480000000001 71.5512 C 20.98480000000001 70.70759999999999, 24.745600000000014 69.858, 28.42840000000001 68.7528 C 30.414400000000015 68.15639999999999, 32.40280000000001 67.56, 34.39000000000001 66.9648 C 32.27680000000001 66.68879999999999, 30.162400000000012 66.41279999999999, 28.049200000000013 66.1368 C 25.09120000000001 65.75039999999998, 22.147600000000015 64.97879999999999, 19.308400000000013 64.08359999999999 C 17.482000000000017 63.507600000000004, 15.680800000000016 62.84519999999999, 13.925200000000013 62.07599999999999 C 17.863600000000012 61.516799999999996, 21.79000000000001 60.864, 25.688800000000015 60.071999999999996 C 29.869600000000016 59.22119999999999, 34.079200000000014 58.25279999999999, 38.07520000000002 56.73719999999999 C 38.892400000000016 56.42639999999999, 39.69880000000002 56.09039999999999, 40.48480000000002 55.70639999999999 C 40.78360000000002 55.55879999999999, 41.12920000000002 55.27679999999999, 41.45800000000002 55.216799999999985 C 41.83120000000002 55.149599999999985, 42.20680000000002 55.082399999999986, 42.58000000000002 55.015199999999986 C 44.45200000000003 54.67919999999999, 46.325200000000024 54.341999999999985, 48.19720000000002 54.005999999999986 C 53.94040000000002 52.97399999999998, 59.682400000000015 51.94079999999998, 65.42440000000002 50.90759999999998 C 69.06760000000003 50.253599999999985, 72.70720000000003 49.59959999999998, 76.34920000000002 48.94439999999999 C 76.37920000000004 48.93839999999999, 76.40800000000003 48.933599999999984, 76.43920000000003 48.92879999999998 C 76.51960000000003 50.05679999999998, 76.60120000000003 51.18239999999998, 76.68280000000003 52.31039999999999 C 76.70800000000004 52.70039999999998, 76.75600000000004 52.67279999999998, 76.37440000000002 52.71239999999999 C 75.74680000000004 52.777199999999986, 75.11920000000002 52.841999999999985, 74.49520000000003 52.90799999999999 C 73.80040000000002 52.97999999999998, 73.10680000000004 53.051999999999985, 72.41200000000003 53.125199999999985 C 72.27640000000002 53.13959999999999, 71.72800000000002 53.10239999999999, 71.74000000000002 53.271599999999985 C 71.83480000000003 54.51479999999999, 71.93200000000002 55.75799999999999, 72.02800000000003 57.00119999999999 C 72.05560000000003 57.397199999999984, 72.08800000000002 57.793199999999985, 72.11800000000004 58.18799999999998 C 70.31320000000004 57.686399999999985, 68.50840000000002 57.185999999999986, 66.70480000000003 56.68559999999998 C 66.49840000000003 57.91679999999999, 66.29080000000003 59.146799999999985, 66.08320000000003 60.37799999999998 C 63.830800000000025 58.96559999999998, 61.12120000000003 58.57079999999998, 58.55320000000003 59.25239999999997 C 57.75880000000003 59.46359999999998, 56.85640000000003 59.74679999999997, 56.17840000000003 60.232799999999976 C 55.23640000000004 60.907199999999975, 54.39760000000003 61.82999999999998, 53.74960000000003 62.787599999999976 C 52.47280000000003 64.67759999999998, 52.034800000000025 66.96239999999997, 52.49800000000003 69.19439999999997 C 52.884400000000035 71.04959999999997, 53.80480000000003 72.77759999999996, 54.964000000000034 74.26439999999997 C 56.74480000000003 76.55159999999998, 59.300800000000024 78.38999999999997, 62.15320000000003 79.01759999999997 C 61.327600000000025 79.80599999999997, 60.50320000000003 80.59439999999996, 59.67880000000003 81.38399999999997 C 59.53360000000003 81.52319999999997, 59.09440000000003 81.77639999999997, 59.22280000000003 81.97679999999997 C 59.52760000000003 82.45199999999997, 59.831200000000024 82.92599999999997, 60.13600000000003 83.40239999999997 C 60.51040000000003 83.98439999999998, 60.88360000000003 84.56879999999998, 61.25680000000003 85.15199999999997 C 61.418800000000026 85.40519999999997, 61.61080000000003 85.52039999999998, 61.44640000000003 85.77479999999997 C 60.76480000000004 86.82719999999998, 60.08200000000003 87.88199999999998, 59.39920000000003 88.93559999999997 C 59.37160000000002 88.97999999999998, 59.224000000000025 89.14079999999997, 59.26240000000003 89.19239999999996 C 59.37160000000003 89.33159999999997, 59.479600000000026 89.47199999999997, 59.58880000000003 89.61359999999996 C 60.084400000000024 90.25439999999996, 60.58000000000003 90.89639999999997, 61.076800000000034 91.53719999999997 C 61.90960000000003 92.61479999999996, 62.74360000000003 93.69239999999998, 63.576400000000035 94.76879999999997 C 56.50840000000003 93.96479999999997, 49.40200000000004 92.80319999999996, 42.582400000000035 90.74639999999997 C 44.20119999999999 89.8476, 45.8092 88.9104, 47.3272 87.84599999999999 Z M 46.9204 25.5732 C 51.448 18.3624, 60.1648 15.0768, 68.116 13.3764 C 73.2124 12.288, 78.514 11.6952, 83.7208 12.2148 C 87.4792 12.5916, 91.2328 13.5984, 94.4596 15.612 C 98.26959999999998 17.991600000000002, 101.1304 21.768, 102.2752 26.124 C 102.3172 26.284799999999997, 102.358 26.4456, 102.394 26.6088 C 100.2412 27.0096, 98.086 27.4116, 95.9356 27.812399999999997 C 90.85959999999999 28.760399999999997, 85.7788 29.705999999999996, 80.7028 30.6528 C 74.776 31.758, 68.848 32.8644, 62.9212 33.9684 C 58.2184 34.845600000000005, 53.51319999999999 35.72280000000001, 48.808 36.599999999999994 C 47.32 36.8772, 45.829600000000006 37.1556, 44.3404 37.4328 C 43.791999999999994 33.3408, 44.7268 29.0676, 46.9204 25.5732 C 50.7964 19.400399999999998, 43.87 30.430799999999998, 46.9204 25.5732 Z M 45.9604 46.1376 C 45.58839999999999 44.1408, 45.2164 42.1452, 44.8444 40.148399999999995 C 44.8432 40.144800000000004, 46.47039999999999 39.843599999999995, 46.55799999999999 39.8268 C 50.4244 39.105599999999995, 54.28959999999999 38.3844, 58.157199999999996 37.6644 C 63.9208 36.5892, 69.6844 35.513999999999996, 75.44800000000001 34.44 C 81.0292 33.398399999999995, 86.6116 32.358000000000004, 92.194 31.316399999999998 C 95.5156 30.6972, 98.83239999999999 30.078, 102.15520000000001 29.458799999999997 C 102.3976 29.413199999999996, 102.64240000000001 29.3664, 102.8896 29.321999999999996 C 103.0744 30.3204, 103.26280000000001 31.318799999999996, 103.44519999999999 32.3172 C 103.57599999999998 33.0036, 103.70199999999998 33.69, 103.83039999999998 34.3764 C 103.8556 34.504799999999996, 104.08719999999998 35.202, 104.00439999999999 35.3124 C 103.96479999999998 35.37, 103.61919999999999 35.3844, 103.55199999999999 35.3976 C 103.1212 35.4768, 102.68799999999999 35.558400000000006, 102.25839999999998 35.6388 C 98.37759999999999 36.36240000000001, 94.49679999999998 37.086, 90.61599999999999 37.8108 C 84.8488 38.885999999999996, 79.0816 39.961200000000005, 73.3132 41.0376 C 67.73679999999999 42.078, 62.16159999999999 43.1172, 56.58639999999999 44.1576 C 53.282799999999995 44.7732, 49.97919999999999 45.39, 46.6744 46.0056 C 46.4368 46.05, 46.198 46.09439999999999, 45.9604 46.1376 Z M 36.719199999999994 50.6688 C 39.525999999999996 50.1444, 42.333999999999996 49.621199999999995, 45.1408 49.098 C 48.440799999999996 48.4824, 51.7408 47.8668, 55.0408 47.252399999999994 C 60.5164 46.23, 65.9932 45.209999999999994, 71.47 44.1888 C 77.36200000000001 43.0896, 83.25160000000001 41.990399999999994, 89.1424 40.8936 C 93.6832 40.045199999999994, 98.22639999999998 39.199200000000005, 102.7684 38.352000000000004 C 104.61280000000001 38.0076, 106.4596 37.6632, 108.3052 37.32 C 109.70680000000002 37.058400000000006, 111.1108 36.796800000000005, 112.5112 36.5352 C 113.0116 36.4416, 113.5144 36.348, 114.0148 36.2556 C 114.4552 36.174, 114.7396 36.2964, 114.83080000000001 36.7776 C 114.9064 37.185599999999994, 115.2988 38.197199999999995, 114.9736 38.5548 C 114.8572 38.6832, 114.70240000000001 38.7, 114.5464 38.730000000000004 C 114.028 38.827200000000005, 113.51200000000001 38.92320000000001, 112.99360000000001 39.0204 C 107.83600000000001 39.9828, 102.67840000000001 40.944, 97.52080000000001 41.90520000000001 C 93.47200000000002 42.6588, 89.42320000000001 43.4148, 85.37320000000001 44.1696 C 82.36720000000001 44.730000000000004, 79.3588 45.2916, 76.3504 45.852000000000004 C 72.43599999999999 46.58160000000001, 68.5228 47.31120000000001, 64.60719999999999 48.042 C 58.7776 49.129200000000004, 52.9468 50.21640000000001, 47.1172 51.3036 C 43.8268 51.9168, 40.535199999999996 52.53, 37.24479999999999 53.144400000000005 C 36.847599999999986 53.2188, 36.67359999999999 52.932, 36.609999999999985 52.5888 C 36.532 52.1676, 36.0244 50.7984, 36.719199999999994 50.6688 Z M 63.38319999999999 90.0084 C 63.293199999999985 89.7924, 63.201999999999984 89.574, 63.1108 89.3532 C 63.0796 89.27759999999999, 62.79759999999999 88.7628, 62.8408 88.6956 C 63.105999999999995 88.28399999999999, 63.3712 87.8736, 63.63759999999999 87.46439999999998 C 63.996399999999994 86.91359999999999, 64.354 86.36039999999998, 64.7116 85.8072 C 64.8988 85.5204, 64.6948 85.4052, 64.51 85.11719999999998 C 64.3588 84.88079999999998, 62.6344 82.37759999999999, 62.711200000000005 82.30319999999999 C 63.54639999999999 81.50279999999998, 64.3828 80.70479999999999, 65.2192 79.90559999999999 C 65.458 79.67519999999999, 65.69800000000001 79.44599999999998, 65.938 79.21799999999999 C 66.0688 79.0932, 66.0496 78.93119999999999, 66.07600000000001 78.7524 C 66.196 77.952, 66.316 77.15159999999999, 66.43599999999999 76.35 C 64.7596 76.46879999999999, 63.172 76.59719999999999, 61.560399999999994 75.9648 C 59.84199999999999 75.29039999999999, 58.30599999999999 74.05199999999999, 57.173199999999994 72.59879999999998 C 55.980399999999996 71.0688, 54.8776 69.01079999999999, 55.0876 67.0044 C 55.303599999999996 64.94399999999999, 56.702799999999996 62.78999999999999, 58.7044 62.0868 C 60.9724 61.288799999999995, 63.3652 61.716, 65.2672 63.1644 C 66.244 63.912, 67.102 64.8456, 67.9888 65.6964 C 68.2984 63.852, 68.6104 62.00639999999999, 68.92 60.162 C 71.0044 60.74159999999999, 73.09 61.32, 75.1744 61.8984 C 75.01360000000001 59.8236, 74.85280000000002 57.7488, 74.69560000000001 55.6752 C 74.69080000000001 55.6308, 77.49520000000001 55.368, 77.71480000000001 55.346399999999996 C 78.29440000000002 55.285199999999996, 78.87280000000003 55.2264, 79.45120000000001 55.16519999999999 C 79.72720000000002 55.13759999999999, 79.65040000000002 55.09199999999999, 79.63120000000002 54.81719999999999 C 79.54000000000003 53.53079999999999, 79.44640000000003 52.243199999999995, 79.35280000000003 50.956799999999994 C 79.30480000000001 50.29919999999999, 79.25800000000004 49.6416, 79.21120000000003 48.9828 C 79.20160000000004 48.8508, 79.06360000000002 48.2436, 79.14880000000002 48.1332 C 79.17760000000003 48.0948, 79.39480000000002 48.0876, 79.43920000000003 48.0804 C 79.71280000000003 48.029999999999994, 79.98400000000002 47.9784, 80.25520000000004 47.928 C 80.97280000000003 47.7948, 81.69160000000004 47.6604, 82.40920000000004 47.5272 C 82.97440000000005 47.4228, 83.53480000000005 47.3172, 84.09880000000004 47.2116 C 88.73440000000004 46.3476, 93.36880000000004 45.483599999999996, 98.00320000000005 44.618399999999994 C 100.45120000000006 44.161199999999994, 102.89680000000006 43.7052, 105.34600000000005 43.249199999999995 C 105.88720000000004 43.148399999999995, 106.42960000000005 43.04639999999999, 106.96960000000004 42.9456 C 107.23360000000004 42.8964, 107.57200000000003 43.99439999999999, 107.67400000000005 44.218799999999995 C 108.17080000000004 45.315599999999996, 108.61840000000005 46.435199999999995, 108.98200000000004 47.58239999999999 C 109.34800000000006 48.72599999999999, 109.63480000000004 49.904399999999995, 109.74160000000005 51.10079999999999 C 109.78960000000005 51.627599999999994, 109.80280000000005 52.1592, 109.75840000000004 52.68599999999999 C 109.73440000000004 52.9344, 109.70080000000003 53.18039999999999, 109.65160000000004 53.4252 C 109.48360000000004 53.622, 109.32760000000005 53.8272, 109.18000000000004 54.0384 C 108.53920000000004 54.96360000000001, 108.05920000000005 56.0172, 107.81920000000004 57.12120000000001 C 107.68960000000003 57.7188, 107.63200000000003 58.333200000000005, 107.65960000000004 58.94520000000001 C 107.67520000000005 59.26680000000001, 107.71360000000004 59.5872, 107.77600000000004 59.90400000000001 C 107.80840000000003 60.067200000000014, 107.84920000000004 60.22920000000001, 107.89480000000005 60.39000000000001 C 107.97160000000004 60.67440000000001, 108.04960000000004 60.680400000000006, 107.80120000000004 60.84360000000001 C 105.79240000000003 62.15280000000001, 104.85760000000003 64.27680000000001, 104.43760000000005 66.56400000000002 C 104.01400000000005 68.88480000000001, 103.74520000000004 71.26800000000001, 104.81440000000003 73.45920000000001 C 105.28000000000004 74.39520000000002, 105.95800000000004 75.23640000000002, 106.77400000000003 75.89040000000003 C 106.76080000000003 76.19880000000002, 106.78480000000003 76.50720000000003, 106.83400000000002 76.81200000000001 C 106.51720000000003 76.90680000000002, 106.20160000000003 76.99560000000002, 105.88240000000002 77.07720000000002 C 105.17920000000002 77.25600000000001, 104.47000000000001 77.40360000000001, 103.75720000000001 77.52240000000002 C 100.96240000000002 77.98440000000002, 98.10640000000001 77.97960000000002, 95.29960000000001 77.62680000000003 C 93.06760000000001 77.34600000000002, 90.86200000000002 76.85040000000002, 88.71760000000002 76.16520000000003 C 87.70240000000001 75.84000000000002, 86.53240000000001 75.53760000000001, 85.61560000000001 74.96760000000002 C 82.13200000000002 72.79560000000002, 77.10640000000002 71.51880000000003, 73.81000000000002 74.67000000000002 C 70.98040000000002 77.37360000000002, 70.63000000000002 81.41520000000003, 71.79520000000002 84.98400000000002 C 72.02560000000001 85.68600000000002, 72.30640000000002 86.37000000000002, 72.64960000000002 87.02400000000003 C 73.13440000000003 87.95040000000003, 73.85920000000003 88.75560000000003, 74.52640000000002 89.55000000000003 C 76.08760000000002 91.40280000000001, 77.80720000000001 93.12000000000002, 79.67680000000003 94.65840000000001 C 82.82560000000002 97.25040000000001, 86.39080000000003 99.32760000000003, 90.19960000000003 100.78920000000001 C 94.00840000000004 102.2508, 98.07400000000003 103.14240000000001, 102.15640000000003 103.31040000000002 C 99.13720000000002 105.99720000000002, 94.61920000000002 105.8448, 90.88240000000003 105.16680000000001 C 86.82040000000002 104.42760000000001, 82.91080000000004 102.9312, 79.16560000000004 101.226 C 77.04520000000004 100.25999999999999, 74.96560000000004 99.20880000000001, 72.91600000000004 98.0976 C 71.81800000000004 97.50240000000001, 70.72720000000004 96.8892, 69.64480000000005 96.2664 C 69.08080000000004 95.93880000000001, 68.51800000000004 95.60640000000001, 67.95760000000004 95.2728 C 67.66600000000004 95.1, 67.19080000000004 94.92960000000001, 66.98320000000004 94.65960000000001 C 65.782 93.10919999999999, 64.582 91.55999999999999, 63.38319999999999 90.0084 Z M 103.3408 101.4996 C 97.90480000000001 101.4996, 92.4076 100.0572, 87.56680000000001 97.6224 C 83.63920000000002 95.6472, 80.09920000000001 92.9448, 77.1196 89.71560000000001 C 76.0096 88.51440000000001, 74.77120000000001 87.2544, 74.0764 85.75200000000001 C 73.50760000000001 84.51840000000001, 73.1092 83.19000000000001, 72.9916 81.834 C 72.8344 80.046, 73.2352 78.2424, 74.3464 76.80600000000001 C 75.4996 75.3144, 76.93 74.6052, 78.82600000000001 74.6052 C 80.0536 74.6052, 81.2644 74.90400000000001, 82.39959999999999 75.3672 C 83.32359999999998 75.744, 84.1216 76.3344, 85.01679999999999 76.7448 C 85.99719999999998 77.19120000000001, 87.0148 77.55720000000001, 88.03719999999998 77.88840000000002 C 92.746 79.41480000000001, 97.81119999999999 80.09760000000001, 102.7408 79.52280000000002 C 104.128 79.3632, 105.50319999999999 79.10040000000002, 106.84839999999998 78.72600000000001 C 107.1304 78.64800000000001, 107.59479999999999 78.47760000000001, 107.83239999999998 78.7536 C 108.19239999999998 79.17240000000001, 108.53679999999999 79.7532, 108.3376 80.31960000000001 C 108.0676 81.09480000000002, 107.49879999999999 81.29880000000001, 106.79679999999998 81.47400000000002 C 106.01919999999998 81.66720000000002, 105.22359999999998 81.81000000000002, 104.43159999999997 81.92160000000001 C 101.81919999999997 82.28760000000001, 99.16119999999998 82.296, 96.53919999999998 82.08120000000002 C 95.07999999999998 81.95880000000002, 93.62319999999997 81.76560000000002, 92.18439999999997 81.51000000000002 C 91.04919999999997 81.31200000000003, 89.92239999999997 80.98920000000003, 88.76679999999998 80.91600000000003 C 87.13119999999998 80.81160000000001, 85.14039999999997 81.33600000000003, 84.95799999999997 83.25000000000003 C 84.80439999999997 84.89760000000003, 86.06919999999997 86.48880000000003, 87.05079999999997 87.67200000000003 C 87.87999999999997 88.67520000000002, 88.75239999999998 89.65440000000002, 89.79159999999997 90.44520000000003 C 91.00359999999998 91.36800000000002, 92.33919999999998 92.13240000000003, 93.73479999999998 92.73600000000003 C 95.81799999999998 93.63480000000003, 98.06439999999998 94.15800000000003, 100.33599999999998 94.21920000000004 C 101.72919999999998 94.25760000000004, 103.12719999999997 94.12200000000003, 104.49279999999997 93.82320000000004 C 105.16719999999998 93.67440000000005, 105.83199999999998 93.48840000000004, 106.48839999999997 93.26520000000004 C 106.65519999999997 93.20520000000003, 106.82079999999998 93.14640000000003, 106.98279999999998 93.08760000000004 C 107.21919999999999 93.00120000000004, 107.18679999999999 93.08040000000004, 107.26959999999998 93.28920000000005 C 107.4028 93.62760000000004, 107.4664 93.99720000000005, 107.4052 94.35840000000006 C 107.2384 95.38680000000005, 106.28439999999999 96.16200000000005, 105.4708 96.70440000000005 C 105.32679999999999 96.80400000000004, 100.8256 97.56960000000005, 98.97639999999998 97.30080000000005 C 100.8352 97.95360000000005, 102.73119999999999 98.59560000000005, 104.66079999999998 98.99400000000006 C 104.55519999999999 99.44160000000007, 104.41359999999997 99.87840000000004, 104.2408 100.30440000000006 C 104.13999999999999 100.55640000000004, 104.0272 100.80240000000006, 103.90239999999999 101.04360000000005 C 103.8496 101.14560000000004, 103.79439999999998 101.24640000000005, 103.73799999999999 101.34600000000005 C 103.62039999999999 101.5536, 103.5628 101.4996, 103.3408 101.4996 Z M 96.91600000000001 86.6964 C 96.3436 86.52839999999999, 95.77000000000001 86.3616, 95.19520000000001 86.1948 C 95.09200000000001 86.166, 94.99600000000001 85.65119999999999, 94.96360000000001 85.5528 C 94.86640000000001 85.2552, 94.7668 84.9612, 94.6696 84.6636 C 95.59960000000001 84.774, 96.568 84.768, 97.4896 84.92280000000001 C 97.3 85.5132, 97.108 86.1048, 96.91600000000001 86.6964 Z M 102.5764 86.4084 C 102.43599999999999 85.9104, 102.2932 85.4112, 102.154 84.9156 C 103.2976 84.84599999999999, 104.44239999999999 84.7272, 105.5752 84.5388 C 105.5752 84.9828, 105.5752 85.4268, 105.5752 85.8684 C 105.5752 86.04839999999999, 105.5752 86.226, 105.5752 86.40239999999999 C 105.5752 86.4156, 105.3316 86.4084, 105.30999999999999 86.4084 C 104.3992 86.4084, 103.4896 86.4084, 102.5764 86.4084 Z" />
	</g>
</svg>