<svg xmlns="http://www.w3.org/2000/svg" viewbox="0 0 128 128" width="128" height="128">
	<g data-id="downhill" fill="#010101">
		<path d="M 77.95 96.4964 C 86.68 89.7728, 92.3152 79.2236, 92.3152 67.3544 C 92.3152 47.0468, 75.8536 30.587600000000005, 55.54840000000001 30.587600000000005 C 35.244400000000006 30.587600000000005, 18.784000000000006 47.0468, 18.784000000000006 67.3544 C 18.784000000000006 69.98, 19.06480000000001 72.5432, 19.588000000000008 75.0176 L 77.95 96.4964 Z" fill="white" />
		<path d="M 55.547200000000004 30.5876 C 75.8524 30.5876, 92.3152 47.0468, 92.3152 67.3544 C 92.3152 79.2248, 86.6812 89.77400000000002, 77.9488 96.4964 L 19.5868 75.0176 C 19.0624 72.5432, 18.7828 69.98119999999999, 18.7828 67.3544 C 18.7828 47.0468, 35.2432 30.5876, 55.547200000000004 30.5876 M 55.547200000000004 24.9884 C 32.188 24.9884, 13.184800000000005 43.99399999999999, 13.184800000000005 67.3544 C 13.184800000000005 70.3088, 13.495600000000005 73.2788, 14.110000000000005 76.178 L 14.750800000000005 79.20320000000001 L 17.652400000000007 80.27120000000001 L 76.0144 101.75360000000002 L 78.916 102.82280000000002 L 81.3652 100.93640000000002 C 91.88199999999999 92.8388, 97.912 80.60000000000001, 97.912 67.35920000000002 C 97.912 43.99399999999999, 78.9076 24.9884, 55.547200000000004 24.9884 L 55.547200000000004 24.9884 Z" fill="#010101" />
		<path d="M 94.33479999999999 44.5676 C 91.89759999999998 35.1356, 85.61559999999999 25.7948, 76.53999999999999 21.7688 C 66.87039999999999 17.483600000000003, 52.55199999999999 15.9548, 42.26319999999999 17.5244 C 36.3244 18.428, 23.203599999999994 20.026400000000002, 15.477999999999993 29.770400000000002 C 9.64 37.133599999999994, 8.440000000000001 47.9672, 9.4348 56.9288 C 9.9388 61.466, 11.012799999999999 65.9288, 12.478 70.2476 C 13.373199999999999 72.89240000000001, 15.056799999999997 75.1808, 14.95 77.9876 C 14.8408 80.81240000000001, 18.163600000000002 81.86240000000001, 20.3356 82.7324 C 27.8884 85.754, 35.443599999999996 88.77680000000001, 42.997600000000006 91.7996 C 59.91760000000001 98.57, 76.8388 105.3356, 93.75880000000001 112.10239999999999 C 94.3048 112.32079999999999, 94.8328 112.60519999999998, 95.38480000000001 112.79359999999998 C 98.45440000000002 113.8376, 99.76960000000001 111.81919999999998, 101.53240000000001 109.80439999999999 C 102.37360000000001 108.84679999999999, 105.05800000000002 106.86919999999999, 104.21560000000002 105.68959999999998 C 103.28800000000003 104.38999999999999, 105.33160000000002 101.40199999999999, 105.89560000000003 100.03399999999999 C 106.66960000000002 98.16559999999998, 106.84360000000004 97.89679999999998, 108.20560000000002 96.71719999999999 C 110.48800000000003 94.7432, 110.11120000000001 91.556, 110.11120000000001 88.85479999999998 C 110.11120000000001 84.92839999999998, 102.07600000000002 88.13959999999999, 99.91000000000001 88.6064 C 95.24920000000002 89.61199999999998, 91.97920000000002 87.7472, 88.20880000000001 85.46959999999999 C 83.9536 82.89079999999998, 79.6984 80.30959999999999, 75.4432 77.73319999999998 C 72.11800000000001 75.71959999999999, 69.56920000000001 72.62359999999998, 70.4788 68.44159999999998 C 71.29360000000001 64.69879999999998, 71.57560000000001 60.00319999999998, 74.09320000000001 56.91079999999998 C 76.75240000000001 53.64439999999998, 81.73360000000001 52.235599999999984, 85.44640000000001 50.57479999999998 C 87.2284 49.778, 95.2504 47.667199999999994, 94.33479999999999 44.5676 Z" data-id="trim" fill="#000000" />
		<path d="M 26.705199999999998 80.8484 L 21.914799999999996 63.160399999999996 C 20.5324 57.17, 13.412799999999997 54.3908, 9.162399999999998 53.2448 C 8.847999999999999 45.129200000000004, 10.419999999999998 36.148399999999995, 15.476799999999999 29.7704 C 23.202399999999997 20.0264, 36.3232 18.427999999999997, 42.262 17.5244 C 52.5508 15.954799999999999, 66.8716 17.483599999999996, 76.5388 21.7688 C 85.4464 25.720399999999998, 91.654 34.0052, 94.1848 43.2596 C 92.7076 46.0928, 80.74119999999999 49.0808, 79.1584 49.79 C 75.4432 51.4484, 70.4644 53.644400000000005, 67.804 56.9108 C 65.2864 60.0032, 65.00319999999999 64.6988, 64.1896 68.4416 C 63.279999999999994 72.6236, 65.83 75.7196, 69.1528 77.7332 C 73.408 80.3096, 77.6644 82.8908, 81.9184 85.4696 C 85.69 87.7472, 95.1088 93.16640000000001, 99.91 90.96560000000001 C 101.92479999999999 90.0428, 110.1112 84.9284, 110.1112 88.8548 C 110.1112 91.55600000000001, 110.48799999999999 94.7432, 108.2056 96.7172 C 106.84240000000001 97.8944, 106.6684 98.1656, 105.89560000000002 100.034 C 105.32920000000001 101.402, 103.28560000000002 104.39, 104.2168 105.6896 C 105.058 106.868, 102.3724 108.8468, 101.5336 109.8044 C 101.0176 110.39120000000001, 100.54240000000001 110.19080000000001, 100.04920000000001 110.7044 L 26.705199999999998 80.8484 Z" data-id="helmet" fill="white" />
		<path d="M 114.0544 89.79199999999999 C 114.0496 89.4752, 114.0436 89.16319999999999, 114.0436 88.85719999999999 C 114.0436 85.94, 112.0252 82.9976, 107.5204 82.9976 C 105.10839999999999 82.9976, 102.38319999999999 83.80640000000001, 100.3864 84.3968 C 99.9388 84.53, 99.322 84.71600000000001, 99.0832 84.7676 C 98.4832 84.8936, 97.92760000000001 84.9572, 97.38159999999999 84.9572 C 95.1244 84.9572, 93.0904 83.83040000000001, 90.24759999999999 82.106 L 77.48079999999999 74.37559999999999 C 74.94399999999999 72.8384, 73.9084 71.16919999999999, 74.32119999999999 69.27799999999999 C 74.51559999999999 68.3888, 74.67519999999999 67.46839999999999, 74.83479999999999 66.57079999999999 C 75.3196 63.84319999999999, 75.81879999999998 61.020799999999994, 77.14239999999998 59.39479999999999 C 78.5932 57.61279999999999, 81.54159999999999 56.42359999999999, 84.43239999999999 55.25839999999999 C 85.30359999999997 54.90919999999999, 86.20239999999997 54.545599999999986, 87.05319999999998 54.16639999999999 C 87.23319999999998 54.084799999999994, 87.81279999999997 53.879599999999996, 88.23879999999998 53.72719999999999 C 89.85279999999997 53.15239999999999, 92.06439999999998 52.36279999999999, 93.95919999999997 51.26959999999999 C 98.70759999999997 48.52639999999999, 98.60679999999998 45.243199999999995, 98.13039999999997 43.545199999999994 C 95.14719999999997 32.044399999999996, 87.48279999999997 22.324399999999994, 78.13359999999997 18.178399999999996 C 70.81119999999997 14.932399999999994, 60.608799999999974 12.994399999999995, 50.837199999999974 12.994399999999995 C 47.57319999999997 12.994399999999995, 44.489199999999975 13.212799999999994, 41.67159999999998 13.638799999999994 L 40.92039999999997 13.752799999999993 C 34.38039999999997 14.728399999999995, 20.77359999999997 16.767199999999995, 12.397599999999976 27.329599999999996 C 4.321599999999975 37.5128, 4.902399999999975 51.72559999999999, 5.5275999999999765 57.36319999999999 C 6.035199999999977 61.93039999999999, 7.119999999999976 66.68959999999998, 8.754399999999976 71.51239999999999 C 9.105999999999977 72.54919999999998, 9.535599999999976 73.49119999999999, 9.911199999999976 74.32039999999999 C 10.527999999999977 75.67999999999999, 11.059599999999977 76.85119999999999, 11.022399999999976 77.8364 C 10.813599999999976 83.2364, 16.112799999999975 85.30519999999999, 18.373599999999975 86.18719999999999 L 92.29839999999997 115.7564 C 92.45679999999997 115.82, 92.61519999999997 115.892, 92.78919999999998 115.97240000000001 C 93.15039999999998 116.13680000000001, 93.59799999999998 116.33840000000001, 94.11639999999997 116.5184 C 95.07999999999997 116.8436, 96.02919999999996 117.01039999999999, 96.94239999999998 117.01039999999999 C 100.53879999999998 117.01039999999999, 102.63999999999999 114.55279999999999, 104.07639999999999 112.874 L 104.48799999999999 112.3988 C 104.56839999999998 112.3064, 104.8072 112.08319999999999, 105.0136 111.88879999999999 C 106.30959999999999 110.6612, 109.29039999999999 107.83399999999999, 108.0472 104.57600000000001 C 108.2572 104.0768, 108.61359999999999 103.394, 108.8224 102.99080000000001 C 109.08760000000001 102.48559999999999, 109.3336 102.008, 109.5256 101.5412 C 110.0176 100.352, 110.0176 100.352, 110.77720000000001 99.6968 C 114.1708 96.76039999999999, 114.1012 92.5748, 114.0544 89.79199999999999 Z M 103.57600000000001 106.1468 C 103.6936 106.3112, 103.4752 106.8476, 101.7688 108.4652 C 101.4388 108.77720000000001, 101.1508 109.04599999999999, 100.94200000000001 109.2908 C 100.7728 109.4804, 100.61080000000001 109.6724, 100.44760000000001 109.8632 C 99.2848 111.22040000000001, 98.3692 112.29320000000001, 96.9448 112.29320000000001 C 96.54880000000001 112.29320000000001, 96.10960000000001 112.21400000000001, 95.63920000000002 112.05320000000002 C 95.33560000000001 111.9488, 95.0416 111.81560000000002, 94.74760000000002 111.67880000000001 C 94.51600000000002 111.57320000000003, 94.28320000000002 111.46760000000002, 94.05040000000001 111.37400000000001 L 20.6272 82.0052 L 20.086 81.7904 C 17.662 80.8436, 15.6616 79.9064, 15.7348 78.0164 C 15.8164 75.9188, 14.9992 74.1164, 14.2084 72.3728 C 13.857999999999999 71.6, 13.496799999999999 70.80199999999999, 13.2244 69.9968 C 11.697999999999999 65.49680000000001, 10.6876 61.0724, 10.217199999999998 56.8412 C 9.6568 51.785599999999995, 9.105999999999998 39.0704, 16.0936 30.258799999999997 C 23.3116 21.1544, 35.2192 19.3724, 41.6188 18.4148 L 42.382 18.299599999999998 C 44.9584 17.9072, 47.80479999999999 17.709200000000003, 50.83839999999999 17.709200000000003 C 59.98239999999999 17.709200000000003, 69.46959999999999 19.496000000000002, 76.222 22.4888 C 84.2992 26.069599999999998, 90.94719999999998 34.605199999999996, 93.57759999999999 44.7896 C 94.11879999999998 46.6208, 88.8856 48.4856, 86.65119999999999 49.2824 C 85.99359999999999 49.5164, 85.47399999999999 49.702400000000004, 85.12599999999999 49.8572 C 84.33999999999999 50.2076, 83.49639999999998 50.5484, 82.62999999999998 50.8976 C 79.38159999999999 52.2056, 75.7036 53.68879999999999, 73.48239999999998 56.41279999999999 C 71.3848 58.99159999999999, 70.74879999999999 62.587999999999994, 70.18839999999999 65.756 C 70.03479999999999 66.6224, 69.8848 67.4708, 69.71079999999999 68.2748 C 68.85519999999998 72.2084, 70.7464 75.80839999999999, 75.03639999999999 78.4076 L 87.80199999999999 86.1404 C 90.66999999999999 87.8768, 93.63399999999999 89.672, 97.37919999999998 89.672 C 98.25399999999998 89.672, 99.16119999999998 89.57360000000001, 100.07439999999998 89.3744 C 100.48239999999998 89.288, 101.05719999999998 89.11639999999998, 101.72439999999997 88.91959999999999 C 103.44159999999998 88.4096, 105.79119999999998 87.71479999999998, 107.52039999999998 87.71479999999998 C 109.32519999999998 87.71479999999998, 109.32519999999998 88.45519999999999, 109.32519999999998 88.85359999999999 C 109.32519999999998 89.18959999999998, 109.32999999999998 89.53039999999997, 109.33719999999998 89.87959999999998 C 109.37679999999999 92.21359999999997, 109.4164 94.62799999999997, 107.692 96.11839999999998 C 106.25319999999999 97.36519999999999, 105.9928 97.73599999999998, 105.1672 99.73039999999999 C 105.0496 100.01599999999999, 104.842 100.4168, 104.61880000000001 100.84399999999998 C 103.71279999999999 102.5876, 102.58239999999999 104.7572, 103.57600000000001 106.1468 Z" />
		<path d="M 59.662 38.337199999999996 L 68.13279999999999 26.130799999999997 C 68.2636 25.948399999999996, 68.40039999999999 25.7792, 68.53599999999999 25.617199999999997 L 69.69279999999999 25.617199999999997 C 71.2648 23.652799999999996, 74.40999999999998 23.980399999999996, 74.40999999999998 23.980399999999996 C 76.50759999999998 23.980399999999996, 78.27759999999998 22.931599999999996, 78.27759999999998 22.931599999999996 C 79.87359999999998 22.167199999999994, 81.33159999999998 20.747599999999995, 82.38159999999998 19.531999999999996 C 98.94399999999997 22.421599999999994, 121.35279999999997 21.894799999999993, 121.35279999999997 21.894799999999993 C 125.48799999999997 21.857599999999994, 119.45919999999997 25.630399999999995, 119.45919999999997 25.630399999999995 C 113.23119999999997 29.368399999999994, 94.79439999999997 32.732, 94.79439999999997 32.732 C 85.57599999999996 34.60039999999999, 83.58159999999998 38.337199999999996, 83.58159999999998 38.337199999999996 L 79.34679999999999 43.32079999999999 C 75.11199999999998 48.304399999999994, 70.12839999999998 47.0564, 70.12839999999998 47.0564 L 61.40679999999998 45.5624 C 54.9292 44.318, 59.662 38.337199999999996, 59.662 38.337199999999996 Z" data-id="visor" fill="#000000" />
		<circle cx="65.5624" cy="40.883599999999994" r="2.4252" data-id="visor_hole" fill="#6D6E71" />
		<path d="M 82.31679999999999 21.1196 C 94.2748 23.1848, 109.0288 23.5052, 117.05559999999998 23.5052 C 118.1668 23.5052, 119.09319999999998 23.5004, 119.8 23.490799999999997 C 119.4256 23.767999999999997, 119.02 24.049999999999997, 118.6216 24.2984 C 112.7344 27.8312, 94.69239999999999 31.1528, 94.50999999999999 31.185200000000002 C 85.61199999999998 32.9864, 82.8748 36.506, 82.29879999999999 37.418 L 78.14799999999998 42.302 C 75.81519999999999 45.0464, 73.28559999999999 45.6236, 71.57679999999999 45.6236 C 70.91319999999999 45.6236, 70.50039999999998 45.531200000000005, 70.49559999999998 45.5276 L 70.45119999999999 45.518 L 70.39239999999998 45.508399999999995 L 61.67199999999998 44.01319999999999 C 60.896799999999985 43.86319999999999, 59.88399999999998 43.541599999999995, 59.640399999999985 42.886399999999995 C 59.26479999999999 41.87479999999999, 60.34479999999999 40.011199999999995, 60.89559999999999 39.31399999999999 L 60.92679999999999 39.27559999999999 L 60.95439999999999 39.233599999999996 L 69.4264 27.025999999999996 C 70.9336 24.916399999999996, 72.88119999999999 24.688399999999994, 73.6468 24.688399999999994 C 73.786 24.688399999999994, 73.8796 24.695599999999995, 73.9108 24.699199999999994 L 74.00319999999999 24.711199999999998 L 74.1148 24.713599999999996 C 77.3308 24.713599999999996, 79.94200000000001 22.842799999999997, 80.0524 22.764799999999994 L 82.31679999999999 21.1196 M 72.80199999999999 18.0176 C 71.4964 18.0176, 70.4584 18.2288, 70.1584 18.827600000000004 C 70.1584 18.827600000000004, 73.396 19.288400000000003, 79.12719999999999 21.494 C 79.12719999999999 21.494, 76.8544 23.1416, 74.1124 23.1416 C 74.1124 23.1416, 73.94079999999998 23.1176, 73.64439999999999 23.1176 C 72.6112 23.1176, 70.0696 23.4188, 68.13159999999999 26.131999999999998 L 59.66079999999999 38.3384 C 59.66079999999999 38.3384, 54.92799999999999 44.318, 61.404399999999995 45.563599999999994 L 70.12599999999999 47.057599999999994 C 70.12599999999999 47.057599999999994, 70.6792 47.19559999999999, 71.5744 47.19559999999999 C 73.36479999999999 47.19559999999999, 76.52199999999999 46.642399999999995, 79.3444 43.3208 L 83.5792 38.337199999999996 C 83.5792 38.337199999999996, 85.57360000000001 34.60039999999999, 94.79199999999999 32.732 C 94.79199999999999 32.732, 113.2276 29.368399999999998, 119.45679999999999 25.630399999999998 C 119.45679999999999 25.630399999999998, 125.4256 21.8948, 121.4104 21.8948 C 121.39 21.8948, 121.37079999999999 21.8948, 121.3504 21.8948 C 121.3504 21.8948, 119.73400000000001 21.932000000000002, 117.05560000000001 21.932000000000002 C 109.33 21.932000000000002, 92.73400000000001 21.616400000000002, 80.3404 19.1552 C 80.34039999999999 19.1552, 75.8452 18.0176, 72.80199999999999 18.0176 L 72.80199999999999 18.0176 Z" />
	</g>
</svg>