<svg xmlns="http://www.w3.org/2000/svg" viewbox="0 0 128 128" width="128" height="128">
	<g data-id="downhill_splash" fill="#010101">
		<path d="M 77.95 96.4964 C 86.68119999999999 89.7728, 92.3152 79.2236, 92.3152 67.3544 C 92.3152 47.0468, 75.8536 30.587600000000005, 55.54840000000001 30.587600000000005 C 35.244400000000006 30.587600000000005, 18.784000000000006 47.0468, 18.784000000000006 67.3544 C 18.784000000000006 69.98, 19.06480000000001 72.5432, 19.588000000000008 75.0164 L 77.95 96.4964 Z" fill="white" />
		<path d="M 55.547200000000004 30.5876 C 75.8524 30.5876, 92.314 47.0468, 92.314 67.3544 C 92.314 79.2248, 86.68 89.77400000000002, 77.94879999999999 96.4964 L 19.586799999999997 75.0164 C 19.062399999999997 72.5432, 18.782799999999995 69.9812, 18.782799999999995 67.3544 C 18.7828 47.0468, 35.2432 30.5876, 55.547200000000004 30.5876 M 55.547200000000004 24.9884 C 32.188 24.9884, 13.184800000000005 43.99399999999999, 13.184800000000005 67.3544 C 13.184800000000005 70.3088, 13.495600000000005 73.2788, 14.110000000000005 76.1768 L 14.750800000000005 79.20200000000001 L 17.652400000000007 80.27000000000001 L 76.0144 101.75240000000001 L 78.9148 102.8204 L 81.36399999999999 100.93520000000001 C 91.8808 92.83640000000001, 97.91199999999999 80.59760000000001, 97.91199999999999 67.35680000000002 C 97.912 43.99399999999999, 78.9076 24.9884, 55.547200000000004 24.9884 L 55.547200000000004 24.9884 Z" fill="#010101" />
		<path d="M 113.9644 89.7476 C 113.9584 89.42960000000001, 113.9524 89.1176, 113.9524 88.814 C 113.9524 85.9028, 111.93999999999998 82.9664, 107.44359999999999 82.9664 C 105.03639999999999 82.9664, 102.31359999999998 83.77279999999999, 100.32039999999999 84.36319999999999 C 99.87279999999998 84.4952, 99.25959999999999 84.6788, 99.01959999999998 84.73039999999999 C 98.4208 84.85879999999999, 97.86639999999998 84.9212, 97.31919999999998 84.9212 C 95.06799999999998 84.9212, 93.03879999999998 83.7956, 90.19839999999999 82.07600000000001 L 77.45559999999999 74.3588 C 74.9224 72.8228, 73.89039999999999 71.1572, 74.30199999999999 69.26840000000001 C 74.4952 68.38040000000001, 74.65719999999999 67.4624, 74.81439999999999 66.56720000000001 C 75.29679999999999 63.84200000000001, 75.79599999999999 61.02560000000001, 77.11719999999998 59.40200000000001 C 78.56559999999999 57.62360000000001, 81.50919999999999 56.436800000000005, 84.39399999999999 55.272800000000004 C 85.26279999999998 54.924800000000005, 86.16039999999998 54.5636, 87.00999999999999 54.18440000000001 C 87.1912 54.101600000000005, 87.7684 53.89760000000001, 88.1932 53.74640000000001 C 89.8048 53.171600000000005, 92.01039999999999 52.38440000000001, 93.9028 51.29240000000001 C 98.6416 48.552800000000005, 98.54199999999999 45.27680000000001, 98.06559999999999 43.58240000000001 C 95.08719999999998 32.10440000000001, 87.43959999999998 22.40120000000001, 78.106 18.26120000000001 C 70.79679999999999 15.021200000000011, 60.61119999999999 13.08680000000001, 50.85999999999999 13.08680000000001 C 47.60079999999999 13.08680000000001, 44.5228 13.304000000000011, 41.709999999999994 13.72880000000001 L 40.9612 13.844 C 34.435599999999994 14.8196, 20.8528 16.8536, 12.4912 27.396800000000002 C 4.4308 37.5632, 5.0116 51.749599999999994, 5.635599999999999 57.3776 C 6.1408 61.934, 7.2256 66.686, 8.8564 71.5004 C 9.207999999999998 72.536, 9.634 73.4756, 10.0108 74.3024 C 10.6252 75.6596, 11.1568 76.8296, 11.1184 77.8124 C 10.909599999999998 83.2028, 16.199199999999998 85.26679999999999, 18.456400000000002 86.1488 L 92.248 115.66279999999999 C 92.4064 115.7252, 92.56360000000001 115.79719999999999, 92.7376 115.87759999999999 C 93.0976 116.04199999999999, 93.544 116.2436, 94.06360000000001 116.4212 C 95.02480000000001 116.7476, 95.9728 116.9144, 96.88480000000001 116.9144 C 100.47520000000002 116.9144, 102.57160000000002 114.46279999999999, 104.008 112.78519999999999 L 104.4172 112.30999999999999 C 104.49759999999999 112.2188, 104.73519999999999 111.9956, 104.9416 111.80119999999998 C 106.23639999999999 110.57479999999998, 109.21239999999999 107.75359999999998, 107.9704 104.50399999999998 C 108.18039999999999 104.00479999999999, 108.5356 103.32199999999999, 108.74439999999998 102.91999999999999 C 109.00839999999998 102.41479999999999, 109.25559999999999 101.9396, 109.44759999999998 101.4716 C 109.93839999999999 100.28479999999999, 109.93839999999999 100.28479999999999, 110.69439999999999 99.63199999999999 C 114.0796 96.7028, 114.0112 92.5244, 113.9644 89.7476 Z" />
		<path d="M 26.7748 80.8196 L 21.9928 63.163999999999994 C 20.6128 57.184400000000004, 13.505199999999999 54.4088, 9.263199999999998 53.26519999999999 C 8.948799999999999 45.16519999999999, 10.5184 36.2024, 15.566799999999999 29.835199999999997 C 23.2792 20.109199999999994, 36.3748 18.513199999999998, 42.3028 17.609599999999997 C 52.5736 16.044799999999995, 66.86679999999998 17.568799999999996, 76.5184 21.847999999999995 C 85.4104 25.792399999999997, 91.606 34.062799999999996, 94.13080000000001 43.297999999999995 C 92.65720000000002 46.127599999999994, 80.7112 49.10959999999999, 79.13080000000001 49.8176 C 75.42280000000001 51.4736, 70.45240000000001 53.6648, 67.798 56.926399999999994 C 65.2864 60.0128, 65.00200000000001 64.69999999999999, 64.1908 68.4356 C 63.28360000000001 72.6104, 65.8288 75.704, 69.1444 77.714 C 73.3936 80.2856, 77.6404 82.8584, 81.8884 85.43359999999998 C 85.6516 87.70879999999998, 95.0548 93.11479999999999, 99.8452 90.91999999999999 C 101.85640000000001 90.00079999999998, 110.0296 84.89479999999999, 110.0296 88.814 C 110.0296 91.51039999999999, 110.40639999999999 94.6916, 108.12760000000002 96.662 C 106.76800000000001 97.8368, 106.59280000000001 98.1044, 105.82120000000002 99.9716 C 105.25720000000001 101.336, 103.21600000000001 104.31920000000001, 104.14360000000002 105.61639999999998 C 104.98360000000002 106.79359999999998, 102.3028 108.7676, 101.46520000000002 109.72399999999999 C 100.95160000000003 110.30959999999999, 100.47520000000002 110.10919999999999, 99.98440000000002 110.6216 L 26.7748 80.8196 Z" data-id="helmet" fill="white" />
		<path d="M 81.8848 43.2308 C 80.90559999999999 42.5516, 80.14959999999999 45.392, 80.45199999999998 46.022 C 81.8296 46.736, 82.46679999999999 43.634, 81.8848 43.2308 Z M 109.46079999999999 90.6968 C 109.20880000000001 90.46039999999999, 109.65639999999999 90.0716, 109.88199999999999 90.2012 C 109.18 89.9672, 109.08879999999999 89.1788, 109.42960000000001 88.5056 C 109.18840000000002 88.00160000000001, 108.472 88.0148, 108.3328 87.48560000000002 C 108.394 87.4376, 108.45639999999999 87.39800000000002, 108.5176 87.35600000000001 C 106.0576 87.3524, 101.3128 90.24920000000002, 99.84519999999999 90.92 C 95.0536 93.1148, 85.6504 87.70880000000001, 81.88839999999999 85.4336 C 77.6404 82.8584, 73.39359999999999 80.2856, 69.14439999999999 77.714 C 65.82759999999999 75.7028, 63.28359999999999 72.6092, 64.1908 68.43560000000001 C 64.6216 66.4508, 64.9084 64.1984, 65.4532 62.06120000000001 C 64.318 62.06960000000001, 63.72039999999999 63.60920000000001, 62.702799999999996 63.85280000000001 C 61.78239999999999 62.994800000000005, 62.97879999999999 61.65680000000001, 62.77359999999999 60.636800000000015 C 62.22399999999999 60.19040000000001, 61.64319999999999 59.96480000000001, 61.01319999999999 59.637200000000014 C 60.618399999999994 59.79320000000002, 60.64119999999999 60.31280000000002, 60.376 60.64760000000001 C 60.279999999999994 60.75800000000001, 59.8516 60.838400000000014, 59.888799999999996 60.55880000000001 C 59.599599999999995 60.75680000000001, 59.352399999999996 61.133600000000015, 59.0392 61.22000000000002 C 58.849599999999995 61.794800000000016, 59.10999999999999 62.27000000000002, 59.129200000000004 62.798000000000016 C 59.0236 63.10760000000002, 58.8268 63.023600000000016, 58.7092 63.294800000000016 C 58.0252 62.825600000000016, 58.1932 62.166800000000016, 58.052800000000005 61.57520000000002 C 57.4468 61.49120000000001, 57.19120000000001 61.70000000000002, 57.02680000000001 62.34200000000002 C 56.780800000000006 62.53880000000002, 56.40160000000001 62.32760000000002, 56.22880000000001 62.057600000000015 C 57.57880000000001 61.707200000000014, 57.04480000000001 59.83280000000002, 57.6244 58.80680000000002 C 57.73720000000001 58.42280000000002, 58.0396 58.875200000000014, 58.208800000000004 58.740800000000014 C 58.30600000000001 58.230800000000016, 57.91120000000001 57.828800000000015, 57.766000000000005 57.37400000000001 C 57.2044 57.14840000000001, 56.87560000000001 57.95600000000001, 56.40760000000001 58.149200000000015 C 56.43760000000001 57.85520000000002, 56.33320000000001 57.58760000000001, 56.15800000000001 57.33680000000001 C 56.96320000000001 56.21120000000001, 58.00600000000001 57.83120000000001, 58.89400000000001 57.65000000000001 C 59.24440000000001 57.258800000000015, 59.17360000000001 56.96480000000002, 58.94680000000001 56.70560000000002 C 59.09680000000001 56.55320000000001, 59.4352 56.77520000000002, 59.347600000000014 56.41520000000002 C 59.10040000000001 56.11040000000002, 58.98520000000001 56.38160000000002, 58.81240000000002 56.40320000000002 C 58.14520000000002 55.94600000000002, 58.085200000000015 55.041200000000025, 57.89440000000001 54.41120000000003 C 57.47920000000002 53.052800000000026, 57.75160000000002 51.22640000000002, 58.53400000000001 49.59920000000003 C 58.140400000000014 51.24560000000003, 58.277200000000015 52.76960000000003, 58.655200000000015 54.239600000000024 C 58.92760000000001 54.26600000000003, 59.21440000000002 54.358400000000024, 59.387200000000014 53.93960000000003 C 59.801200000000016 54.35600000000003, 59.88520000000001 55.010000000000026, 60.560800000000015 55.00640000000003 C 61.033600000000014 54.586400000000026, 61.41640000000002 54.075200000000024, 61.23880000000001 53.585600000000035 C 60.755200000000016 53.31200000000003, 60.23200000000001 52.86440000000003, 59.79040000000001 52.78160000000003 C 59.51920000000001 53.06360000000003, 59.710000000000015 53.24480000000003, 59.55400000000001 53.50160000000003 C 59.34880000000001 52.524800000000035, 60.25000000000001 50.72240000000003, 59.60800000000001 49.62440000000003 C 59.357200000000006 49.49960000000003, 59.05720000000001 49.15520000000003, 58.886800000000015 49.38800000000003 C 58.91920000000001 48.71600000000002, 58.59160000000001 47.836400000000026, 57.86920000000001 47.55200000000003 C 56.35840000000001 48.50840000000002, 57.95560000000002 50.44520000000003, 56.66680000000001 51.358400000000024 C 56.801200000000016 51.64280000000002, 56.83120000000001 51.63800000000002, 57.162400000000005 51.77960000000002 C 56.82520000000001 52.44560000000002, 56.449600000000004 52.94600000000002, 55.91080000000001 52.730000000000025 C 55.72480000000001 53.06480000000003, 55.80040000000001 53.68520000000002, 56.19160000000001 53.666000000000025 C 56.42560000000001 53.91560000000002, 56.49160000000001 53.42960000000002, 56.64160000000001 53.29520000000003 C 56.83120000000001 54.47480000000002, 55.45840000000001 55.60280000000003, 55.37200000000001 56.51720000000003 C 54.53560000000001 56.13320000000003, 55.95280000000001 54.668000000000035, 56.20000000000001 53.99600000000003 C 55.939600000000006 53.92520000000003, 56.068000000000005 53.76080000000003, 55.860400000000006 53.672000000000025 C 55.56040000000001 53.53160000000003, 55.330000000000005 53.687600000000025, 55.128400000000006 53.97200000000003 C 54.78040000000001 53.666000000000025, 54.488800000000005 53.44280000000003, 54.126400000000004 53.66840000000003 C 53.754400000000004 54.419600000000024, 54.62800000000001 54.88760000000003, 54.431200000000004 55.59680000000002 C 53.93560000000001 56.163200000000025, 53.4592 55.95200000000003, 53.1808 56.54960000000002 C 53.062000000000005 56.800400000000025, 53.32 57.23840000000002, 53.206 57.54320000000003 C 52.9696 58.17440000000003, 52.462 58.346000000000025, 51.856 58.648400000000024 C 51.832 58.409600000000026, 51.5788 58.223600000000026, 51.2548 58.05200000000003 C 50.97880000000001 58.33760000000002, 51.058 58.54280000000002, 51.1456 58.74320000000002 C 50.720800000000004 58.92680000000002, 50.308 59.16800000000003, 49.85680000000001 59.23760000000002 C 49.4044 58.702400000000026, 48.8632 57.44840000000003, 47.863600000000005 58.08800000000003 C 47.741200000000006 57.89360000000003, 48.142 57.580400000000026, 47.720800000000004 57.45680000000002 C 47.3968 58.24400000000002, 48.15880000000001 59.333600000000025, 47.0692 59.87120000000002 C 47.0452 59.11040000000002, 46.60000000000001 58.44560000000002, 45.757600000000004 58.502000000000024 C 45.2404 59.153600000000026, 45.462399999999995 59.63360000000002, 46.103199999999994 60.022400000000026 C 44.84199999999999 60.73160000000003, 43.542399999999994 61.27160000000003, 42.19 61.57880000000002 C 41.51199999999999 60.653600000000026, 41.443599999999996 59.511200000000024, 40.455999999999996 58.638800000000025 C 39.636399999999995 57.91400000000002, 38.044 57.63800000000002, 38.4064 56.370800000000024 C 38.163999999999994 56.30840000000002, 38.128 55.86800000000002, 37.8628 56.02760000000002 C 37.6024 55.764800000000015, 37.5472 56.40320000000002, 37.3348 56.346800000000016 C 36.855999999999995 55.99760000000002, 36.4672 56.04920000000002, 36.1084 56.22680000000002 C 36.0616 57.43400000000002, 36.8908 58.42160000000002, 38.1736 59.15600000000002 C 38.4244 59.09000000000002, 38.6368 58.84280000000002, 38.876799999999996 58.73120000000002 C 40.3984 59.76200000000002, 39.8572 61.26200000000002, 41.416 62.28800000000002 C 40.148799999999994 63.94400000000002, 38.4244 63.59000000000002, 36.9556 64.36640000000001 C 36.7876 64.21640000000002, 36.6988 64.40120000000002, 36.5176 64.1996 C 35.78320000000001 64.7792, 35.074 65.47040000000001, 34.204 65.45600000000002 C 33.406000000000006 66.54320000000001, 32.5372 67.31840000000001, 31.4992 67.33640000000001 C 30.821199999999997 66.91400000000002, 30.663999999999998 65.89040000000001, 29.9056 65.9 C 29.886400000000002 66.8144, 29.791600000000003 68.03, 30.3832 68.5916 C 29.8396 68.7836, 29.9296 69.4448, 29.881600000000002 69.9056 C 28.8076 70.44200000000001, 29.3092 71.49080000000001, 29.104000000000003 72.35000000000001 C 28.7608 73.7816, 28.0012 75.3884, 28.3972 76.57520000000001 C 28.144000000000005 76.73, 27.805600000000005 76.5104, 27.559600000000003 76.6988 C 27.157600000000002 77.3456, 26.9584 77.94560000000001, 26.842000000000002 78.5276 C 27.486400000000003 78.9188, 28.036000000000005 78.8996, 28.498 78.48560000000002 C 28.958800000000004 79.73720000000002, 29.324800000000003 81.01280000000001, 30.1324 82.18520000000001 L 44.641600000000004 88.09160000000001 C 44.674 88.08200000000001, 44.71 88.0688, 44.74 88.06400000000001 C 44.77120000000001 88.0952, 44.7952 88.13360000000002, 44.8216 88.16480000000001 L 54.9364 92.28320000000002 C 55.006 92.2172, 55.0588 92.14640000000001, 55.0444 92.05520000000003 C 55.72360000000001 92.20760000000001, 56.62480000000001 91.77680000000002, 57.16840000000001 92.30840000000002 C 57.83080000000001 92.28920000000001, 58.40680000000001 91.88600000000001, 59.070400000000014 91.87760000000003 C 59.37040000000001 91.94480000000003, 59.25160000000002 91.98080000000003, 59.53840000000001 92.16920000000002 C 59.98960000000001 91.91120000000002, 60.42040000000001 91.55480000000001, 60.865600000000015 91.26920000000003 C 61.79680000000002 91.46960000000003, 62.167600000000014 92.55320000000002, 62.69200000000001 92.85320000000002 C 62.90560000000001 93.44960000000002, 62.82760000000001 94.11080000000001, 62.792800000000014 94.76480000000002 C 63.503200000000014 94.66280000000002, 64.01080000000002 93.90800000000002, 64.66480000000001 94.20560000000002 C 65.40280000000001 94.53920000000004, 65.45320000000001 95.85320000000003, 65.67040000000001 96.57800000000003 C 65.35360000000001 96.41240000000002, 64.90960000000001 96.14720000000004, 64.56760000000003 96.20360000000004 L 67.75840000000002 97.50320000000004 C 67.55080000000001 96.43760000000002, 66.57280000000003 95.54840000000003, 66.33040000000003 94.49360000000003 C 67.11640000000003 94.23920000000003, 67.90840000000003 94.00880000000004, 68.79640000000002 94.20080000000003 C 70.22200000000002 93.62720000000004, 71.52760000000002 92.52320000000005, 73.03360000000002 92.30360000000003 C 74.95120000000001 93.26840000000003, 76.00480000000002 94.88840000000003, 77.64040000000001 95.85920000000003 C 77.77000000000001 95.67080000000003, 77.93680000000002 95.71160000000002, 77.88400000000003 95.46920000000001 C 77.32960000000001 94.43000000000002, 77.07400000000003 92.27240000000002, 75.28360000000002 92.52800000000003 C 73.47640000000003 91.41680000000002, 74.62360000000002 89.98880000000003, 75.02560000000001 88.45280000000002 C 75.71080000000002 88.87640000000002, 75.19000000000001 89.57120000000003, 75.90760000000002 89.98520000000003 C 75.86800000000001 90.98120000000003, 75.96880000000002 91.55240000000002, 76.87480000000001 91.89800000000002 C 77.27680000000001 92.05280000000003, 77.75080000000001 91.73360000000002, 78.15160000000002 91.94240000000003 C 78.52840000000002 92.14160000000003, 78.5704 92.60240000000003, 78.93760000000002 92.76440000000004 C 79.16320000000002 92.78480000000003, 79.33000000000001 92.53280000000004, 79.51360000000001 92.36600000000004 C 80.38000000000001 92.98040000000005, 80.94640000000001 93.79760000000003, 80.80000000000001 94.80800000000004 C 80.39920000000001 95.11520000000003, 80.04640000000002 95.59880000000004, 80.09320000000001 96.10160000000003 C 79.37560000000002 95.58080000000004, 78.95080000000002 96.35120000000003, 78.34000000000002 96.29840000000004 C 78.06400000000002 97.02800000000005, 78.67360000000002 97.55720000000005, 79.53280000000002 98.02760000000005 C 79.89160000000001 97.75160000000004, 80.26240000000001 97.52480000000004, 80.69320000000002 97.56440000000005 C 80.88520000000001 97.34240000000004, 80.77480000000001 97.19000000000005, 80.83120000000001 96.99920000000004 C 81.49600000000001 96.88880000000005, 82.13080000000001 96.65360000000005, 82.58080000000001 95.60000000000005 C 82.93600000000002 95.81000000000004, 82.68520000000001 96.15560000000004, 82.45000000000002 96.49880000000005 C 82.22800000000001 97.85240000000005, 84.19000000000001 98.64440000000003, 85.05640000000001 97.70600000000005 C 84.96160000000002 97.95560000000005, 84.4696 98.27480000000004, 84.49720000000002 98.76560000000003 C 85.23880000000001 99.40760000000003, 85.21480000000001 98.54000000000003, 85.67920000000002 98.09720000000003 C 86.62840000000001 97.19600000000003, 88.6024 97.83080000000004, 88.41280000000002 99.27560000000004 C 87.47080000000003 99.98600000000003, 86.95240000000003 100.50080000000004, 86.56240000000003 101.69720000000004 C 86.29360000000001 101.73560000000003, 86.05600000000003 101.26880000000004, 85.74280000000002 101.61800000000004 C 85.66000000000001 102.03440000000002, 86.05000000000001 102.06440000000003, 86.36560000000001 102.00800000000004 C 86.52040000000002 102.48320000000004, 85.70680000000002 103.17920000000004, 85.99960000000002 103.62560000000003 C 87.17080000000001 103.49840000000005, 87.8812 102.48440000000004, 88.75480000000002 101.66360000000003 C 89.32720000000002 101.12840000000003, 89.97880000000002 100.37240000000004, 90.60160000000002 100.11320000000002 C 90.95920000000002 99.96320000000003, 91.28680000000001 100.10120000000002, 91.72240000000002 100.05800000000002 C 92.22160000000001 100.00760000000001, 92.70040000000002 99.75440000000002, 93.19600000000001 99.79040000000002 C 93.5776 99.81800000000001, 93.94600000000001 100.07720000000002, 94.32400000000001 100.06640000000003 C 94.6696 100.05800000000002, 94.91440000000001 99.81560000000002, 95.26960000000001 100.11920000000002 C 95.3896 99.95600000000003, 95.36200000000001 99.83000000000003, 95.18440000000001 99.73880000000003 C 96.34240000000001 98.30960000000003, 97.57600000000001 100.31600000000002, 98.7796 99.72200000000004 C 99.29560000000001 100.13480000000003, 99.73360000000001 100.20680000000003, 100.1428 100.14560000000003 C 100.83399999999999 99.21080000000003, 100.73559999999999 98.45600000000003, 100.336 97.76960000000003 C 100.85560000000001 96.18440000000002, 102.52839999999999 97.55000000000001, 103.4188 96.66920000000002 C 103.50160000000001 96.15680000000002, 104.05 95.40680000000002, 104.48559999999999 95.49440000000003 C 104.86599999999999 95.96240000000002, 105.25 96.43040000000002, 105.5428 96.91880000000002 C 106.1176 96.77240000000002, 105.15520000000001 95.92640000000002, 105.2752 95.44880000000002 C 105.9352 94.91840000000003, 106.8244 94.95440000000002, 107.17960000000001 94.14800000000002 C 107.476 93.47360000000002, 106.8904 92.74760000000002, 106.972 92.06360000000002 C 107.626 91.02920000000003, 108.412 90.57680000000002, 109.336 90.72680000000003 C 109.5928 91.08080000000002, 109.744 91.63160000000003, 110.0176 92.12720000000003 C 110.04639999999999 91.64240000000002, 110.0548 91.15280000000003, 110.05120000000001 90.66560000000003 C 109.8232 90.63680000000001, 109.6168 90.6416, 109.46079999999999 90.6968 Z M 55.0252 60.8636 C 54.436 60.43639999999999, 54.0532 59.7752, 54.6004 59.2928 C 55.181200000000004 59.129599999999996, 55.678000000000004 59.9888, 56.3524 59.9612 C 56.208400000000005 60.281600000000005, 56.3236 60.5468, 56.095600000000005 60.8864 C 55.641999999999996 60.4508, 55.322799999999994 60.6092, 55.0252 60.8636 Z M 75.3472 87.2444 C 75.16720000000001 87.0416, 75.0772 87.2264, 74.9092 87.0776 C 75.0496 86.8088, 75.238 86.762, 75.4648 86.8832 C 75.424 87.00559999999999, 75.4816 87.10279999999999, 75.3472 87.2444 Z M 76.5976 89.22679999999998 C 76.36479999999999 88.72999999999999, 76.966 88.0568, 77.5252 88.61599999999999 C 77.2528 88.982, 76.9996 89.432, 76.5976 89.22679999999998 Z M 78.10719999999999 86.4824 C 78.6256 86.6756, 77.572 87.4268, 77.704 87.6428 C 77.17479999999999 87.60199999999999, 75.93520000000001 87.43399999999998, 75.7756 87.08 C 75.76 86.7044, 76.51 87.1868, 76.7416 86.9264 C 75.91720000000001 86.9732, 75.5128 86.4128, 74.8348 86.1608 C 75.136 85.49, 74.83720000000001 84.7868, 75.22120000000001 84.338 C 75.6568 83.82919999999999, 75.98920000000001 84.18079999999999, 76.67320000000001 84.2744 C 77.54560000000001 84.39559999999999, 78.1924 84.18079999999999, 79.0096 84.878 C 78.7996 85.48519999999999, 78.45639999999999 86.40559999999999, 78.10719999999999 86.4824 Z M 78.3748 49.4948 C 77.5996 49.1948, 77.5144 49.9724, 77.2216 50.288000000000004 C 76.9984 50.531600000000005, 76.756 50.765600000000006, 76.5208 51.0032 C 77.00919999999999 50.773999999999994, 77.4904 50.554399999999994, 77.9596 50.34199999999999 C 78.1336 50.108000000000004, 78.2824 49.8368, 78.3748 49.4948 Z M 31.1908 54.541999999999994 C 30.964 54.92959999999999, 31.069599999999998 56.358799999999995, 31.6024 56.64919999999999 C 31.9948 56.86279999999999, 32.116 56.50639999999999, 32.5972 56.623999999999995 C 32.9704 57.10399999999999, 32.7412 57.54919999999999, 33.2176 57.8816 C 34.7536 58.9604, 35.24679999999999 56.018, 33.135999999999996 55.76839999999999 C 33.3208 54.54919999999999, 31.9 53.340799999999994, 31.1908 54.541999999999994 Z M 27.0568 52.480399999999996 C 27.285999999999998 53.72599999999999, 29.240799999999997 54.1448, 30.373599999999996 54.461600000000004 C 30.4228 54.38360000000001, 30.470799999999997 54.3056, 30.521199999999997 54.226400000000005 C 30.0028 53.356399999999994, 28.2304 51.9572, 27.0568 52.480399999999996 Z M 29.3368 49.8968 C 29.369200000000003 49.844, 29.4028 49.793600000000005, 29.435200000000002 49.7396 C 29.422 48.296, 27.7 46.1396, 26.105200000000004 46.232 C 25.6576 47.7668, 27.8536 49.4252, 29.3368 49.8968 Z M 71.44959999999999 31.336399999999998 C 71.6224 31.173199999999998, 71.8564 30.9608, 71.8912 30.634399999999996 C 71.9224 30.3284, 71.2096 28.657999999999998, 70.9432 28.515199999999997 C 68.8756 27.421999999999997, 69.4648 33.204800000000006, 71.44959999999999 31.336399999999998 Z M 32.557599999999994 62.0288 C 32.9884 62.904799999999994, 34.486 63.7616, 34.8664 62.505199999999995 C 35.2024 61.39039999999999, 33.4432 60.251599999999996, 32.3392 60.4796 C 32.045199999999994 60.943999999999996, 31.6576 61.001599999999996, 31.371999999999996 61.50079999999999 C 31.5568 61.986799999999995, 32.1436 62.0936, 32.557599999999994 62.0288 Z M 72.148 52.3088 C 73.77759999999999 52.858399999999996, 75.2404 50.0072, 75.3376 48.4508 C 74.35719999999999 47.6636, 73.9756 49.4972, 73.084 49.096399999999996 C 72.6736 50.327600000000004, 71.0512 51.922399999999996, 71.0236 53.2268 C 71.512 53.428399999999996, 71.79639999999999 52.717999999999996, 72.148 52.3088 Z M 45.007600000000004 49.3376 C 45.129999999999995 48.730399999999996, 44.9536 47.9156, 44.0476 47.7572 C 43.456 48.471199999999996, 44.3272 49.1252, 45.007600000000004 49.3376 Z M 44.3536 55.55479999999999 C 43.6612 56.732, 43.6864 57.7484, 44.508399999999995 58.5836 C 44.577999999999996 58.502, 44.690799999999996 58.608799999999995, 44.7904 58.6532 C 46.0696 57.8084, 45.9088 55.5464, 44.3536 55.55479999999999 Z M 45.3556 52.9256 C 46.0552 52.4132, 45.6028 51.0872, 44.622400000000006 51.156800000000004 C 44.0572 51.895999999999994, 44.897200000000005 52.64, 45.3556 52.9256 Z M 50.4856 49.093999999999994 C 51.3556 49.9052, 52.0648 50.5892, 53.17959999999999 50.681599999999996 C 52.7728 48.632, 49.876 48.504799999999996, 48.657999999999994 47.5088 C 47.907999999999994 48.3308, 48.37359999999999 49.434799999999996, 48.931599999999996 50.1812 C 49.2592 49.4024, 49.879599999999996 49.371199999999995, 50.4856 49.093999999999994 Z M 53.93319999999999 44.3132 C 54.04359999999999 44.4116, 54.111999999999995 44.324000000000005, 54.215199999999996 44.3828 C 55.35399999999999 42.964400000000005, 54.751599999999996 41.372, 54.8152 39.9788 C 54.91479999999999 39.6368, 55.1476 39.879200000000004, 55.26519999999999 39.6104 C 54.9604 38.9912, 54.89919999999999 38.3156, 54.1204 37.803200000000004 C 52.721199999999996 39.1664, 53.706399999999995 40.9016, 54.00759999999999 42.2948 C 53.76519999999999 43.0172, 53.8852 43.658, 53.93319999999999 44.3132 Z M 47.8732 54.621199999999995 C 48.2512 53.5952, 47.8624 52.1576, 46.5088 52.13119999999999 C 45.349599999999995 53.0612, 46.702 54.83, 47.8732 54.621199999999995 Z M 29.6008 35.504000000000005 C 29.8528 35.6696, 29.7592 35.9144, 30.124 36.052400000000006 C 30.2716 36.53, 30.2716 37.0412, 30.265599999999996 37.5524 C 30.7336 38.7608, 30.965199999999996 40.0736, 32.0176 41.156 C 32.266 41.4128, 32.6344 41.5556, 32.901999999999994 41.8232 C 34.325199999999995 43.2416, 36.5164 43.793600000000005, 38.429199999999994 43.5668 C 38.28399999999999 44.068400000000004, 38.74239999999999 44.5508, 39.224799999999995 44.7188 C 39.48159999999999 44.2376, 39.001599999999996 43.924400000000006, 39.014799999999994 43.502 C 40.30239999999999 43.3232, 41.10279999999999 42.6248, 41.68359999999999 41.1608 C 41.93679999999999 40.998799999999996, 42.29319999999999 41.2928, 42.60879999999999 41.4164 C 42.88839999999998 41.3912, 42.12999999999999 41.042, 41.95599999999999 40.8992 C 43.15959999999998 39.0836, 44.15799999999999 38.0744, 44.058399999999985 36.3548 C 44.01999999999999 35.6936, 43.353999999999985 33.7412, 42.978399999999986 33.0656 C 42.67839999999999 32.528000000000006, 42.09999999999999 32.1596, 41.97039999999999 31.563200000000002 C 40.26399999999999 30.584000000000003, 39.192399999999985 29.082800000000002, 37.50759999999999 28.642400000000002 C 37.268799999999985 28.667600000000004, 37.14879999999999 29.219600000000003, 36.91119999999999 29.246000000000002 C 35.789199999999994 29.5376, 34.362399999999994 29.2772, 33.28359999999999 30.003200000000003 C 32.390799999999984 30.600800000000003, 31.85799999999999 31.715600000000002, 30.85959999999999 31.952 C 30.242799999999992 32.0996, 29.86119999999999 31.6724, 29.124399999999987 31.9472 C 29.2 33.1532, 30.374799999999997 34.1072, 29.6008 35.504000000000005 Z" data-id="splash" fill="darkgray" />
		<path d="M 122.32359999999998 23.3096 C 122.368 23.255599999999998, 122.4172 23.199199999999998, 122.45439999999998 23.1464 C 122.49519999999998 23.0888, 122.51799999999997 23.0348, 122.54919999999997 22.9796 C 122.57679999999996 22.9304, 122.61159999999998 22.878800000000002, 122.63079999999997 22.832 C 122.65239999999997 22.7792, 122.65359999999998 22.732400000000002, 122.66439999999997 22.682000000000002 C 122.67279999999998 22.6376, 122.69079999999998 22.5908, 122.68959999999998 22.55 C 122.68839999999997 22.5044, 122.66439999999997 22.466, 122.64879999999997 22.425200000000004 C 122.63559999999998 22.388, 122.63319999999996 22.347200000000004, 122.60799999999996 22.312400000000004 C 122.57919999999996 22.2752, 122.52399999999997 22.246400000000005, 122.47959999999996 22.215200000000003 C 122.43999999999997 22.187600000000003, 122.41359999999996 22.154000000000003, 122.35959999999997 22.131200000000003 C 122.29959999999997 22.104800000000004, 122.20959999999997 22.088000000000005, 122.13159999999998 22.067600000000002 C 122.06319999999997 22.0496, 122.00799999999998 22.0268, 121.92399999999998 22.0148 C 121.83039999999997 22.000400000000003, 121.70199999999997 21.998, 121.58799999999997 21.992 C 121.49199999999998 21.986, 121.41639999999997 21.972800000000003, 121.30599999999997 21.972800000000003 L 121.24599999999998 21.972800000000003 C 121.24599999999998 21.972800000000003, 121.19919999999998 21.974, 121.13199999999998 21.9752 C 120.91239999999996 21.98, 120.35679999999998 21.990800000000004, 119.50719999999998 21.999200000000002 C 119.49399999999999 21.999200000000002, 119.47959999999998 21.999200000000002, 119.46639999999996 21.999200000000002 C 119.26119999999996 22.001600000000003, 119.03919999999998 22.0028, 118.80159999999997 22.005200000000002 C 118.77159999999996 22.005200000000002, 118.73919999999997 22.005200000000002, 118.70919999999997 22.005200000000002 C 118.48599999999996 22.006400000000003, 118.24719999999996 22.007600000000004, 117.99879999999997 22.008800000000004 C 117.93999999999997 22.008800000000004, 117.88119999999998 22.01, 117.82119999999998 22.01 C 117.60519999999997 22.01, 117.37719999999997 22.011200000000002, 117.14439999999999 22.011200000000002 C 117.05079999999998 22.011200000000002, 116.95719999999999 22.011200000000002, 116.86119999999998 22.011200000000002 C 116.42919999999998 22.011200000000002, 115.97079999999998 22.01, 115.48599999999998 22.0076 C 115.39359999999998 22.006400000000003, 115.29399999999998 22.005200000000002, 115.20039999999999 22.005200000000002 C 114.82719999999998 22.0028, 114.43479999999998 21.9992, 114.03399999999999 21.995600000000003 C 113.84079999999999 21.9932, 113.64999999999999 21.992, 113.45199999999998 21.9896 C 112.99239999999999 21.9836, 112.51599999999999 21.9764, 112.02639999999998 21.968 C 111.77199999999998 21.9644, 111.50799999999998 21.9584, 111.24639999999998 21.953599999999998 C 110.94639999999998 21.947599999999998, 110.63919999999997 21.9416, 110.32839999999997 21.9344 C 110.02959999999999 21.9272, 109.73199999999999 21.9212, 109.42599999999999 21.912799999999997 C 108.9412 21.9008, 108.44439999999999 21.8876, 107.94039999999998 21.871999999999996 C 107.59119999999999 21.861199999999997, 107.23479999999999 21.849199999999996, 106.87719999999999 21.838399999999996 C 106.618 21.828799999999998, 106.35399999999998 21.8192, 106.09119999999999 21.810799999999997 C 105.4528 21.7868, 104.80239999999999 21.761599999999998, 104.1424 21.732799999999997 C 103.8964 21.721999999999998, 103.6528 21.7124, 103.4044 21.7016 C 102.99520000000001 21.682399999999998, 102.58 21.662, 102.1648 21.6404 C 101.9212 21.6284, 101.6764 21.615199999999998, 101.43159999999999 21.601999999999997 C 100.7116 21.563599999999997, 99.9844 21.5216, 99.2512 21.4748 C 99.0148 21.460399999999996, 98.7796 21.445999999999998, 98.5432 21.4304 C 98.10520000000001 21.4016, 97.6648 21.370399999999997, 97.2232 21.339199999999998 C 96.9796 21.321199999999997, 96.7348 21.303199999999997, 96.4912 21.284 C 95.7664 21.229999999999997, 95.0404 21.1712, 94.31320000000001 21.108799999999995 C 94.0348 21.084799999999998, 93.75640000000001 21.060799999999997, 93.47680000000001 21.035599999999995 C 93.052 20.997199999999996, 92.626 20.9576, 92.2 20.915599999999998 C 91.8964 20.885599999999997, 91.5928 20.853199999999998, 91.2892 20.823199999999996 C 90.6304 20.754799999999996, 89.9728 20.682799999999997, 89.3188 20.6072 C 89.0068 20.571199999999997, 88.6948 20.534, 88.3852 20.496799999999997 C 87.99040000000001 20.447599999999994, 87.5968 20.3996, 87.20559999999999 20.347999999999995 C 86.6308 20.273599999999995, 86.0608 20.195599999999995, 85.49439999999998 20.113999999999997 C 85.1416 20.063599999999994, 84.79359999999998 20.008399999999995, 84.44439999999999 19.954399999999993 C 84.08559999999999 19.899199999999993, 83.73039999999999 19.842799999999997, 83.37639999999999 19.785199999999996 C 83.04759999999999 19.729999999999997, 82.7164 19.677199999999996, 82.39119999999998 19.620799999999996 C 81.6892 19.497199999999992, 80.99319999999999 19.372399999999992, 80.31519999999999 19.237999999999992 C 80.31519999999999 19.237999999999992, 75.82719999999999 18.102799999999995, 72.78999999999999 18.102799999999995 C 71.48679999999999 18.102799999999995, 70.4512 18.312799999999996, 70.15239999999999 18.911599999999993 C 70.15239999999999 18.911599999999993, 73.38279999999999 19.371199999999995, 79.10199999999999 21.571999999999992 C 79.10199999999999 21.571999999999992, 76.83399999999999 23.218399999999992, 74.09799999999998 23.218399999999992 C 74.09799999999998 23.218399999999992, 73.92639999999999 23.193199999999994, 73.63119999999998 23.193199999999994 C 72.67239999999998 23.193199999999994, 70.41999999999999 23.478799999999993, 68.55279999999999 25.691599999999994 L 68.53119999999998 25.691599999999994 C 68.39559999999999 25.852399999999992, 68.25999999999999 26.019199999999994, 68.13039999999998 26.202799999999993 L 59.673999999999985 38.38759999999999 C 59.673999999999985 38.38759999999999, 54.94959999999999 44.356399999999994, 61.41639999999998 45.59839999999999 L 70.11999999999998 47.09119999999999 C 70.11999999999998 47.09119999999999, 70.15119999999999 47.09839999999999, 70.20039999999999 47.109199999999994 C 70.21479999999998 47.111599999999996, 70.22199999999998 47.11279999999999, 70.24119999999998 47.11639999999999 C 70.29639999999998 47.127199999999995, 70.37079999999997 47.14039999999999, 70.46559999999998 47.15359999999999 C 70.48839999999997 47.15599999999999, 70.50279999999998 47.158399999999986, 70.52799999999998 47.161999999999985 C 70.76799999999999 47.19439999999999, 71.10399999999997 47.225599999999986, 71.52279999999998 47.22799999999999 C 71.53839999999998 47.22799999999999, 71.55039999999998 47.229199999999985, 71.56599999999997 47.229199999999985 C 71.58639999999998 47.229199999999985, 71.61039999999998 47.22679999999998, 71.63079999999998 47.22679999999998 C 71.80959999999999 47.225599999999986, 72.00039999999998 47.21719999999998, 72.20439999999998 47.202799999999975 C 72.25359999999998 47.199199999999976, 72.29799999999999 47.19559999999998, 72.34839999999998 47.19199999999998 C 72.83919999999998 47.14879999999997, 73.38759999999998 47.058799999999984, 73.97919999999998 46.89799999999998 C 74.04879999999999 46.878799999999984, 74.11839999999998 46.857199999999985, 74.18919999999999 46.83559999999998 C 74.42199999999998 46.765999999999984, 74.66079999999998 46.68439999999998, 74.90439999999998 46.59079999999998 C 74.98359999999998 46.56079999999998, 75.06039999999997 46.530799999999985, 75.14079999999998 46.49839999999998 C 75.76359999999998 46.23919999999998, 76.41039999999998 45.891199999999984, 77.06439999999998 45.43159999999998 C 77.15439999999998 45.36799999999998, 77.24439999999998 45.29839999999998, 77.33439999999999 45.23119999999998 C 77.57919999999999 45.04759999999998, 77.82399999999998 44.84719999999998, 78.06879999999998 44.62999999999998 C 78.16359999999999 44.54599999999998, 78.25719999999998 44.46439999999998, 78.35079999999998 44.37559999999998 C 78.67599999999999 44.06719999999998, 79.00119999999998 43.73719999999997, 79.32159999999998 43.36039999999998 L 83.55039999999998 38.38639999999997 C 83.55039999999998 38.38639999999997, 85.54119999999999 34.65559999999998, 94.74159999999999 32.790799999999976 C 94.74159999999999 32.790799999999976, 113.14479999999999 29.433199999999978, 119.36079999999998 25.702399999999976 C 119.36079999999998 25.702399999999976, 119.44479999999997 25.649599999999975, 119.57319999999999 25.565599999999975 C 119.58759999999998 25.555999999999976, 119.59479999999999 25.552399999999977, 119.6104 25.541599999999978 C 119.6296 25.528399999999976, 119.65599999999999 25.511599999999977, 119.67519999999999 25.498399999999975 C 119.7412 25.455199999999973, 119.8072 25.410799999999973, 119.88879999999999 25.355599999999974 C 119.90559999999999 25.343599999999974, 119.926 25.330399999999972, 119.94279999999999 25.318399999999976 C 120.03399999999999 25.255999999999975, 120.1288 25.191199999999974, 120.2332 25.117999999999974 C 120.28840000000001 25.078399999999974, 120.35079999999999 25.032799999999973, 120.40960000000001 24.99079999999997 C 120.48160000000001 24.939199999999975, 120.55000000000001 24.891199999999973, 120.62440000000001 24.83599999999997 C 120.688 24.78919999999997, 120.75280000000001 24.73759999999997, 120.81760000000001 24.68839999999997 C 120.89200000000001 24.63199999999997, 120.96640000000001 24.57799999999997, 121.04080000000002 24.51799999999997 C 121.10440000000001 24.46879999999997, 121.16680000000002 24.41599999999997, 121.23040000000002 24.36439999999997 C 121.30480000000001 24.303199999999972, 121.38160000000002 24.24319999999997, 121.45480000000002 24.18079999999997 C 121.52080000000002 24.12559999999997, 121.57960000000001 24.06919999999997, 121.64320000000001 24.01279999999997 C 121.71160000000002 23.952799999999968, 121.78120000000001 23.89279999999997, 121.84480000000002 23.832799999999967 C 121.90600000000002 23.77519999999997, 121.95880000000002 23.71759999999997, 122.01520000000002 23.659999999999968 C 122.07400000000003 23.60119999999997, 122.13640000000001 23.541199999999968, 122.18800000000002 23.484799999999968 C 122.23599999999999 23.424799999999998, 122.2756 23.3684, 122.32359999999998 23.3096 Z" />
		<circle cx="65.5612" cy="40.9268" r="2.4192" data-id="visor_hole" fill="#939598" />
		<path d="M 26.773600000000002 81.21199999999999 L 21.991600000000002 62.770399999999995 C 20.6128 56.78959999999999, 13.505200000000002 54.017599999999995, 9.263200000000003 52.873999999999995 C 8.948800000000002 44.773999999999994, 10.518400000000003 35.80879999999999, 15.565600000000002 29.442799999999995 C 23.278000000000002 19.715599999999995, 36.3736 18.121999999999996, 42.3028 17.217199999999995 C 52.5736 15.652399999999995, 66.8656 17.177599999999995, 76.5184 21.455599999999993 C 85.40920000000001 25.398799999999994, 91.6048 34.456399999999995, 94.13080000000001 43.691599999999994 C 92.65720000000002 46.51879999999999, 83.06440000000002 49.50199999999999, 81.4852 50.20879999999999 C 77.77720000000001 51.86719999999999, 72.80680000000001 53.273599999999995, 70.15240000000001 56.53399999999999 C 67.6396 59.621599999999994, 67.35640000000001 64.30879999999999, 66.54400000000001 68.0444 C 65.63680000000001 72.21799999999999, 68.18200000000002 75.31039999999999, 71.4988 77.32159999999999 C 75.74680000000001 79.89439999999999, 79.99360000000001 82.46719999999999, 84.24040000000001 85.0388 C 88.00359999999999 87.3176, 95.19160000000001 90.7496, 99.84400000000001 89.744 C 102.0052 89.2796, 110.02839999999999 84.5012, 110.02839999999999 88.42040000000001 C 110.02839999999999 91.11800000000001, 110.4052 94.29680000000002, 108.1264 96.27080000000001 C 106.7668 97.44560000000001, 106.59160000000001 97.712, 105.82000000000001 99.58040000000001 C 105.25720000000001 100.9448, 103.2148 103.92800000000001, 104.1436 105.2252 C 104.98360000000001 106.39999999999999, 102.30279999999999 108.3764, 101.464 109.3316 C 100.95159999999998 109.9184, 100.4752 110.5028, 99.9832 111.01279999999998 L 26.773600000000002 81.21199999999999 Z" fill="none" />
	</g>
</svg>