<svg xmlns="http://www.w3.org/2000/svg" viewbox="0 0 128 128" width="128" height="128">
	<g data-id="dragon_head" fill="black">
		<path d="M 85.9533 74.50655 L 88.9617 75.55534999999999 Q 90.19219999999999 79.23649999999999, 96.0089 81.28924999999998 C 88.9617 75.55534999999999, 90.19219999999999 79.23649999999999, 96.0089 81.28924999999998 Q 106.2393 84.88759999999999, 110.13664999999999 88.88154999999999 C 96.0089 81.28924999999998, 106.2393 84.88759999999999, 110.13664999999999 88.88154999999999 L 107.3617 90.16839999999999 C 106.58659999999999 89.98554999999999, 106.08635 89.85559999999998, 106.08635 89.85559999999998 C 98.94485000000002 86.18939999999998, 89.29175000000001 86.82074999999999, 89.29175000000001 86.82074999999999 C 80.65065000000001 87.59929999999999, 76.3922 80.41869999999997, 76.3922 80.41869999999997 C 73.54825000000001 79.07894999999999, 70.34435 79.52974999999998, 70.34435 79.52974999999998 C 70.88715 76.23729999999998, 75.6516 75.30119999999998, 75.6516 75.30119999999998 C 77.4157 75.01139999999998, 82.19739999999999 75.66689999999997, 82.19739999999999 75.66689999999997 C 83.4923 75.18619999999999, 84.74579999999999 74.80554999999998, 85.9533 74.50655 Z" data-id="mouth" fill="gray" />
		<path d="M 113.95235 78.73509999999999 Q 113.22899999999998 81.46749999999999, 111.22224999999999 82.53469999999999 C 113.95235 78.73509999999999, 113.22899999999998 81.46749999999999, 111.22224999999999 82.53469999999999 Q 110.47474999999999 77.92204999999998, 109.4225 77.26999999999998 C 111.22224999999999 82.53469999999999, 110.47474999999999 77.92204999999998, 109.4225 77.26999999999998 C 109.42134999999999 77.26999999999998, 113.18184999999998 77.1688, 113.95235 78.73509999999999 Z" fill="#ffffff" />
		<path d="M 105.09044999999999 77.43445 Q 104.76154999999999 80.06105, 102.36149999999998 80.84535 C 105.09044999999999 77.43445, 104.76154999999999 80.06105, 102.36149999999998 80.84535 Q 101.55994999999997 77.661, 100.56174999999999 76.1177 C 102.36149999999998 80.84535, 101.55994999999997 77.661, 100.56174999999999 76.1177 C 100.5606 76.11885, 104.3188 76.02799999999999, 105.09044999999999 77.43445 Z" fill="#ffffff" />
		<path d="M 94.36784999999999 75.53235 Q 94.35634999999998 77.98069999999998, 92.34615 78.41884999999999 C 94.36784999999999 75.53235, 94.35634999999998 77.98069999999998, 92.34615 78.41884999999999 Q 91.01905 75.67034999999998, 89.96565 75.08614999999999 C 92.34615 78.41884999999999, 91.01905 75.67034999999998, 89.96565 75.08614999999999 C 89.96564999999998 75.085, 93.59849999999999 74.12474999999999, 94.36784999999999 75.53235 Z" fill="#ffffff" />
		<path d="M 114.42845 89.74289999999999 Q 114.98734999999999 87.7649, 114.12599999999999 86.35385 C 114.42845 89.74289999999999, 114.98734999999999 87.7649, 114.12599999999999 86.35385 Q 111.94789999999998 88.96435, 111.04859999999998 88.98275 C 114.12599999999999 86.35385, 111.94789999999998 88.96435, 111.04859999999998 88.98275 C 111.04859999999998 88.9816, 113.36584999999998 90.43865, 114.42845 89.74289999999999 Z" fill="#ffffff" />
		<path d="M 106.95805 87.8316 Q 106.98105 85.7731, 106.0139 84.6047 C 106.95805 87.8316, 106.98105 85.7731, 106.0139 84.6047 Q 103.7162 86.22964999999999, 103.22055 86.99095 C 106.0139 84.6047, 103.7162 86.22964999999999, 103.22055 86.99095 C 103.22055 86.9921, 105.9932 88.4618, 106.95805 87.8316 Z" fill="#ffffff" />
		<path d="M 97.68905 85.49365 Q 97.7132 83.43515, 96.7449 82.26559999999999 C 97.68905 85.49365, 97.7132 83.43515, 96.7449 82.26559999999999 Q 94.44835 83.89169999999999, 93.95270000000001 84.65185 C 96.7449 82.26559999999999, 94.44835 83.89169999999999, 93.95270000000001 84.65185 C 93.95269999999998 84.65299999999999, 96.7242 86.12385, 97.68905 85.49365 Z" fill="#ffffff" />
		<path d="M 88.41085 84.7542 Q 87.8186 83.6617, 86.6962 83.01884999999999 C 88.41085 84.7542, 87.8186 83.6617, 86.6962 83.01884999999999 Q 85.33460000000001 83.83075, 85.16325 84.22404999999999 C 86.6962 83.01884999999999, 85.33460000000001 83.83075, 85.16325 84.22404999999999 C 85.1621 84.22404999999999, 87.82319999999999 85.067, 88.41085 84.7542 Z" fill="#ffffff" />
		<path d="M 40.14075 36.974000000000004 C 42.410849999999996 38.633449999999996, 44.323299999999996 40.17675, 45.93905 41.6016 C 48.8681 42.4687, 51.8443 43.518649999999994, 52.350300000000004 44.317899999999995 L 49.5075 39.58565 L 59.3354 44.5594 L 58.7121 40.48609999999999 C 52.6516 34.16225, 47.1385 32.86045, 47.1385 32.86045 C 37.858 29.5289, 29.74705 22.1183, 29.74705 22.1183 C 27.0848 18.95465, 27.935800000000004 22.5162, 27.935800000000004 22.5162 C 29.665399999999998 28.315649999999998, 40.14075 36.974000000000004, 40.14075 36.974000000000004 Z" data-id="horns" fill="gray" />
		<path d="M 32.43919999999999 45.60589999999999 Q 38.37435 44.75834999999999, 42.564949999999996 46.789249999999996 C 32.43919999999999 45.60589999999999, 38.37435 44.75834999999999, 42.564949999999996 46.789249999999996 L 39.776199999999996 39.962849999999996 Q 51.307249999999996 42.671099999999996, 52.349149999999995 44.31905 C 39.776199999999996 39.962849999999996, 51.307249999999996 42.671099999999996, 52.349149999999995 44.31905 L 49.50635 39.5868 L 59.33425 44.56054999999999 L 58.419999999999995 38.5771 L 66.56315 45.46445 L 66.69999999999999 38.91865 Q 71.36784999999999 43.04485, 73.80239999999999 46.599500000000006 C 66.69999999999999 38.91865, 71.36784999999999 43.04485, 73.80239999999999 46.599500000000006 L 75.42965000000001 42.494 Q 78.7681 49.95405, 79.4972 50.92235 C 75.42965000000001 42.494, 78.7681 49.95405, 79.4972 50.92235 C 80.22630000000001 51.8895, 82.5631 53.2649, 83.80740000000002 53.70995 Q 87.83930000000001 56.45845, 88.48100000000002 59.88085 C 83.80740000000002 53.70995, 87.83930000000001 56.45845, 88.48100000000002 59.88085 Q 90.12780000000002 62.06815, 92.29095000000002 62.6765 C 88.48100000000002 59.88085, 90.12780000000002 62.06815, 92.29095000000002 62.6765 Q 97.44065000000002 62.863949999999996, 98.56190000000002 63.9691 C 92.29095000000002 62.6765, 97.44065000000002 62.863949999999996, 98.56190000000002 63.9691 Q 102.87555000000003 64.2083, 103.43905000000002 65.06965 C 98.56190000000002 63.9691, 102.87555000000003 64.2083, 103.43905000000002 65.06965 Q 109.48575000000002 65.03745, 108.01835000000003 60.489200000000004 C 103.43905000000002 65.06965, 109.48575000000002 65.03745, 108.01835000000003 60.489200000000004 Q 112.30325000000002 62.79725, 112.59305000000002 65.5331 C 108.01835000000003 60.489200000000004, 112.30325000000002 62.79725, 112.59305000000002 65.5331 Q 120.64075000000003 67.1017, 118.47070000000002 78.23715 C 112.59305000000002 65.5331, 120.64075000000003 67.1017, 118.47070000000002 78.23715 Q 115.16675000000002 75.90495000000001, 105.77470000000004 76.2557 C 118.47070000000002 78.23715, 115.16675000000002 75.90495000000001, 105.77470000000004 76.2557 Q 103.74150000000003 77.37925, 101.06660000000004 74.51689999999999 C 105.77470000000004 76.2557, 103.74150000000003 77.37925, 101.06660000000004 74.51689999999999 Q 93.01775000000005 71.6626, 82.19625000000005 75.6669 C 101.06660000000004 74.51689999999999, 93.01775000000005 71.6626, 82.19625000000005 75.6669 Q 77.41455000000005 75.01140000000001, 75.65045000000005 75.3012 C 82.19625000000005 75.6669, 77.41455000000005 75.01140000000001, 75.65045000000005 75.3012 Q 70.88485000000004 76.2373, 70.34320000000004 79.52975 C 75.65045000000005 75.3012, 70.88485000000004 76.2373, 70.34320000000004 79.52975 Q 73.54710000000004 79.08010000000002, 76.39105000000005 80.4187 C 70.34320000000004 79.52975, 73.54710000000004 79.08010000000002, 76.39105000000005 80.4187 Q 80.64950000000006 87.59930000000001, 89.29060000000005 86.82075 C 76.39105000000005 80.4187, 80.64950000000006 87.59930000000001, 89.29060000000005 86.82075 Q 98.94485000000005 86.18825000000001, 106.08520000000004 89.85560000000001 C 89.29060000000005 86.82075, 98.94485000000005 86.18825000000001, 106.08520000000004 89.85560000000001 Q 113.49235000000004 91.78070000000001, 115.30245000000005 91.19420000000001 C 106.08520000000004 89.85560000000001, 113.49235000000004 91.78070000000001, 115.30245000000005 91.19420000000001 Q 116.02465000000005 95.99315000000001, 110.78065000000004 96.11275000000002 C 115.30245000000005 91.19420000000001, 116.02465000000005 95.99315000000001, 110.78065000000004 96.11275000000002 Q 109.17525000000005 99.31665000000001, 106.00585000000004 100.45745000000002 C 110.78065000000004 96.11275000000002, 109.17525000000005 99.31665000000001, 106.00585000000004 100.45745000000002 Q 106.94310000000004 98.06545000000003, 106.46585000000005 96.84415000000003 C 106.00585000000004 100.45745000000002, 106.94310000000004 98.06545000000003, 106.46585000000005 96.84415000000003 Q 102.33965000000006 99.01880000000003, 97.44985000000004 101.30615000000002 C 106.46585000000005 96.84415000000003, 102.33965000000006 99.01880000000003, 97.44985000000004 101.30615000000002 Q 98.80915000000005 96.97525000000002, 97.73160000000006 95.06510000000003 C 97.44985000000004 101.30615000000002, 98.80915000000005 96.97525000000002, 97.73160000000006 95.06510000000003 Q 93.84000000000005 98.77960000000003, 90.02775000000005 100.33440000000002 C 97.73160000000006 95.06510000000003, 93.84000000000005 98.77960000000003, 90.02775000000005 100.33440000000002 Q 90.07375000000006 97.08105000000003, 89.58960000000006 95.76200000000001 C 90.02775000000005 100.33440000000002, 90.07375000000006 97.08105000000003, 89.58960000000006 95.76200000000001 Q 86.19250000000007 98.48290000000001, 83.09670000000006 99.89510000000001 C 89.58960000000006 95.76200000000001, 86.19250000000007 98.48290000000001, 83.09670000000006 99.89510000000001 Q 83.28415000000005 97.00400000000002, 82.93915000000005 96.18865000000001 C 83.09670000000006 99.89510000000001, 83.28415000000005 97.00400000000002, 82.93915000000005 96.18865000000001 Q 79.77320000000006 98.76925000000001, 77.94585000000005 99.70535000000002 C 82.93915000000005 96.18865000000001, 79.77320000000006 98.76925000000001, 77.94585000000005 99.70535000000002 Q 77.92170000000006 97.41915000000003, 77.30875000000005 96.65900000000002 C 77.94585000000005 99.70535000000002, 77.92170000000006 97.41915000000003, 77.30875000000005 96.65900000000002 Q 63.97335000000005 97.68480000000002, 57.84040000000005 92.33960000000002 C 77.30875000000005 96.65900000000002, 63.97335000000005 97.68480000000002, 57.84040000000005 92.33960000000002 Q 56.70880000000005 94.12325000000003, 56.12345000000005 96.10930000000003 C 57.84040000000005 92.33960000000002, 56.70880000000005 94.12325000000003, 56.12345000000005 96.10930000000003 Q 49.24645000000005 88.93560000000004, 39.39210000000005 92.91920000000003 C 56.12345000000005 96.10930000000003, 49.24645000000005 88.93560000000004, 39.39210000000005 92.91920000000003 Q 41.13320000000005 83.19365000000002, 31.51920000000005 80.68895000000003 C 39.39210000000005 92.91920000000003, 41.13320000000005 83.19365000000002, 31.51920000000005 80.68895000000003 Q 33.87440000000005 72.41010000000003, 24.687050000000053 69.47530000000003 C 31.51920000000005 80.68895000000003, 33.87440000000005 72.41010000000003, 24.687050000000053 69.47530000000003 Q 31.634200000000053 60.55130000000004, 17.477700000000056 53.25570000000004 C 24.687050000000053 69.47530000000003, 31.634200000000053 60.55130000000004, 17.477700000000056 53.25570000000004 Q 24.706600000000055 50.20705000000004, 35.390100000000054 55.567200000000035 C 17.477700000000056 53.25570000000004, 24.706600000000055 50.20705000000004, 35.390100000000054 55.567200000000035 C 35.39355 55.568349999999995, 36.213499999999996 49.07084999999999, 32.43919999999999 45.60589999999999 Z" data-id="skin" fill="white" />
		<path d="M 48.50469999999999 60.4892 Q 47.62149999999999 53.318949999999994, 26.602949999999993 44.228199999999994 C 48.50469999999999 60.4892, 47.62149999999999 53.318949999999994, 26.602949999999993 44.228199999999994 Q 11.762199999999995 36.739399999999996, 8.124749999999993 30.2902 C 26.602949999999993 44.228199999999994, 11.762199999999995 36.739399999999996, 8.124749999999993 30.2902 Q 6.145599999999993 26.2721, 10.179799999999991 29.324199999999998 C 8.124749999999993 30.2902, 6.145599999999993 26.2721, 10.179799999999991 29.324199999999998 Q 21.86149999999999 35.964299999999994, 33.83414999999999 37.423649999999995 C 10.179799999999991 29.324199999999998, 21.86149999999999 35.964299999999994, 33.83414999999999 37.423649999999995 Q 46.56349999999999 37.5306, 59.78044999999998 52.1425 C 33.83414999999999 37.423649999999995, 46.56349999999999 37.5306, 59.78044999999998 52.1425 Q 60.862599999999986 55.359049999999996, 55.58869999999998 58.06269999999999 C 59.78044999999998 52.1425, 60.862599999999986 55.359049999999996, 55.58869999999998 58.06269999999999 C 55.588699999999996 58.063849999999995, 52.03059999999999 60.34544999999999, 48.50469999999999 60.4892 Z" data-id="horns" fill="gray" />
		<path d="M 108.59909999999999 67.31215 Q 115.37834999999998 67.3041, 115.58074999999998 72.17089999999999 C 108.59909999999999 67.31215, 115.37834999999998 67.3041, 115.58074999999998 72.17089999999999 C 115.58189999999999 72.16975, 107.25359999999999 72.40549999999999, 108.59909999999999 67.31215 Z" />
		<path d="M 40.8848 90.47659999999999 Q 46.7981 81.42724999999999, 55.979699999999994 80.16569999999999 C 40.8848 90.47659999999999, 46.7981 81.42724999999999, 55.979699999999994 80.16569999999999 L 58.23714999999999 81.7849 Q 49.3028 82.1253, 40.8848 90.47659999999999 C 58.23714999999999 81.7849, 49.3028 82.1253, 40.8848 90.47659999999999 Z" />
		<path d="M 32.84975 79.81725 Q 39.5945 74.73655, 50.37115 73.86484999999999 C 32.84975 79.81725, 39.5945 74.73655, 50.37115 73.86484999999999 L 52.03404999999999 75.91645 Q 44.242799999999995 75.31845, 32.84975 79.81725 C 52.03404999999999 75.91645, 44.242799999999995 75.31845, 32.84975 79.81725 Z" />
		<path d="M 27.148049999999998 68.61855 Q 36.34115 64.41874999999999, 47.8492 67.9159 C 27.148049999999998 68.61855, 36.34115 64.41874999999999, 47.8492 67.9159 L 48.82325 70.56434999999999 C 48.823249999999994 70.56434999999999, 41.63345 65.95400000000001, 27.148049999999998 68.61855 Z" />
		<path d="M 71.68294999999999 79.45845 C 71.67604999999999 79.45845, 71.67029999999998 79.4573, 71.6634 79.4573 C 71.64959999999999 79.4573, 71.6381 79.45845, 71.62315 79.45845 C 71.64385 79.45845, 71.66224999999999 79.45845, 71.68294999999999 79.45845 Z M 91.03285 86.77935 C 91.01905 86.77935, 91.00295 86.77935, 90.988 86.77935 C 90.97075 86.77935, 90.95694999999999 86.77935, 90.94085 86.77935 C 90.97075 86.77935, 91.0018 86.77935, 91.03285 86.77935 Z M 82.1629 75.66114999999999 C 82.16635 75.66114999999999, 82.16864999999999 75.66114999999999, 82.17209999999999 75.66229999999999 L 82.17325 75.66229999999999 C 82.16864999999999 75.66114999999999, 82.16635 75.66114999999999, 82.1629 75.66114999999999 Z M 89.38719999999999 86.81615 C 89.36879999999998 86.81615, 89.35844999999998 86.81729999999999, 89.34579999999998 86.81729999999999 C 89.33659999999999 86.8196, 89.32279999999999 86.82074999999999, 89.31704999999998 86.82074999999999 C 89.33314999999999 86.8196, 89.3573 86.81729999999999, 89.38719999999999 86.81615 Z M 118.02104999999999 66.07589999999999 C 116.8009 64.82585, 115.47954999999999 64.10364999999999, 114.50089999999999 63.701150000000005 C 113.27499999999999 60.79625000000001, 109.89399999999999 58.8424, 109.12924999999998 58.4307 L 104.0106 55.673 L 105.7954 61.20680000000001 C 105.9334 61.634600000000006, 105.9334 61.9129, 105.8736 61.99685 C 105.64475 62.31195, 104.8156 62.5661, 104.08995 62.67305 C 103.3804 62.32, 102.4236 62.07045, 101.1264 61.88185 C 100.46400000000001 61.78525, 99.82575 61.72085, 99.36919999999999 61.68175 C 98.46759999999999 61.17345, 97.1796 60.831900000000005, 95.30624999999999 60.58925 C 94.2195 60.448949999999996, 93.2167 60.38225, 92.71185 60.355799999999995 C 91.88959999999999 60.044149999999995, 91.08 59.294349999999994, 90.62919999999998 58.801 C 89.54129999999999 54.88525, 85.59219999999999 52.09765, 85.12414999999997 51.777950000000004 L 84.87689999999998 51.61005 L 84.59514999999998 51.510000000000005 C 83.53254999999996 51.12935, 81.75809999999997 49.99545, 81.37169999999998 49.5251 C 80.91859999999997 48.83855, 79.04869999999998 44.863, 77.56289999999997 41.539500000000004 L 75.29854999999998 36.4795 L 73.255 41.631499999999996 L 73.1078 42.00525 C 70.8009 39.4327, 68.38935 37.29255, 68.2479 37.167199999999994 L 64.46555 33.8253 L 64.3609 38.870349999999995 L 64.32754999999999 40.51369999999999 L 59.92879999999999 36.79344999999999 L 55.16434999999999 32.76499999999999 L 55.43459999999999 34.53484999999999 C 54.21904999999999 33.657399999999996, 52.97819999999999 32.882299999999994, 51.73274999999999 32.231399999999994 C 49.732899999999994 31.18604999999999, 48.29999999999999 30.75249999999999, 47.82734999999999 30.625999999999994 C 39.699149999999996 27.673949999999998, 32.37365 21.322499999999998, 31.42605 20.483 C 30.5164 19.4204, 29.488300000000002 18.46935, 28.16005 18.46935 C 27.352750000000004 18.46935, 26.60295 18.8316, 26.1027 19.4664 C 25.440299999999997 20.30475, 25.29195 21.5134, 25.661099999999998 23.057850000000002 L 25.67605 23.12225 L 25.694449999999996 23.18435 C 26.522449999999996 25.9593, 28.9869 29.449550000000002, 33.0188 33.55735 C 33.5616 34.11165, 34.0952 34.63605, 34.60465 35.1271 C 34.339 35.10525, 34.13775 35.09605, 34.00895 35.0903 C 23.303600000000003 33.75515, 12.70405 28.04655, 11.456299999999999 27.35885 C 10.01075 26.281299999999998, 9.016 25.84085, 8.04885 25.84085 C 7.090899999999999 25.84085, 6.224949999999999 26.31465, 5.731599999999999 27.10585 C 5.0714999999999995 28.166150000000002, 5.17155 29.58295, 6.027149999999999 31.32175 L 6.055899999999999 31.3804 L 6.088099999999999 31.43675 C 7.785499999999999 34.4463, 11.612699999999998 37.8802, 17.462749999999996 41.643 C 21.680949999999996 44.355850000000004, 25.39315 46.23495, 25.548399999999994 46.3143 L 25.610499999999995 46.345349999999996 L 25.673749999999995 46.37295 C 28.193399999999993 47.462, 30.400249999999993 48.51885, 32.33914999999999 49.529700000000005 C 32.66919999999999 50.32665, 32.86584999999999 51.17075, 32.98084999999999 51.9585 C 29.62399999999999 50.6935, 26.29704999999999 50.054100000000005, 23.052899999999994 50.054100000000005 C 19.167049999999993 50.054100000000005, 16.826799999999995 50.99365, 16.572649999999996 51.10060000000001 L 11.966899999999994 53.042950000000005 L 16.410499999999995 55.332600000000006 C 20.690799999999996 57.53945000000001, 23.281749999999995 60.13385000000001, 23.903899999999993 62.8352 C 24.54789999999999 65.63775, 22.978149999999992 67.85725, 22.84014999999999 68.0447 L 20.69769999999999 70.69545 L 23.978649999999995 71.7017 C 26.884699999999995 72.62975, 28.653399999999994 74.2639, 29.23644999999999 76.55584999999999 C 29.68609999999999 78.32685000000001, 29.30314999999999 79.92535, 29.270949999999992 80.05644999999998 L 28.572899999999994 82.37254999999999 L 30.932699999999993 82.94985 C 34.04804999999999 83.76175, 35.95934999999999 85.48904999999999, 36.77354999999999 88.23295 C 37.41065 90.38345, 37.11279999999999 92.38675, 37.09324999999999 92.5121 L 36.29514999999999 96.71535 L 40.27184999999999 95.08579999999999 C 41.969249999999995 94.39925000000001, 43.68044999999999 94.0531, 45.35714999999999 94.0531 C 50.76444999999999 94.0531, 54.40534999999999 97.6917, 54.43984999999999 97.72734999999999 L 57.23089999999999 100.63685 L 58.370549999999994 96.77055 C 58.4706 96.43245, 58.590199999999996 96.1001, 58.71899999999999 95.7827 C 63.74449999999999 98.60595, 70.64794999999998 99.07515000000001, 74.67984999999999 99.07515000000001 C 75.00069999999998 99.07515000000001, 75.29969999999999 99.07285000000002, 75.57454999999999 99.0671 C 75.59525 99.29365, 75.60789999999999 99.5225, 75.61134999999999 99.7341 L 75.66194999999999 103.4992 L 79.01419999999999 101.78684999999999 C 79.52594999999998 101.5235, 80.11014999999999 101.1647, 80.70124999999999 100.77024999999999 L 80.51839999999999 103.64295 L 84.07189999999999 102.02145 C 85.31504999999999 101.45450000000001, 86.58465 100.70700000000001, 87.69439999999999 99.9871 C 87.69439999999999 100.09405, 87.69439999999999 100.19869999999999, 87.69324999999999 100.29990000000001 L 87.64494999999998 103.8258 L 90.91209999999998 102.49755 C 92.49104999999999 101.8524, 94.05734999999997 100.89789999999999, 95.40514999999998 99.95145000000001 C 95.34879999999997 100.17455000000001, 95.28669999999998 100.39305, 95.22229999999996 100.60235000000002 L 93.63069999999996 105.67155000000001 L 98.44229999999996 103.41985000000001 C 100.18339999999996 102.60680000000002, 101.83479999999997 101.80180000000001, 103.24354999999996 101.10260000000001 L 101.94864999999996 104.40885000000002 L 106.80164999999995 102.6551 C 109.50874999999995 101.67760000000001, 111.26824999999995 99.63750000000002, 112.16984999999995 98.32535 C 114.23754999999996 97.9838, 115.47494999999995 97.00515000000001, 116.17759999999996 96.16795 C 118.02449999999995 93.97145, 117.66339999999997 91.15625, 117.61739999999996 90.84115 L 117.20684999999996 88.11335 L 116.47659999999995 88.35025 C 116.48119999999996 87.4452, 116.32364999999996 86.35385000000001, 115.72449999999995 85.3729 L 114.36404999999995 83.14420000000001 L 112.69194999999995 85.14865 C 112.09279999999995 85.86395, 111.33264999999994 86.63100000000001, 110.87724999999995 86.99555000000001 C 110.15504999999995 86.34925000000001, 109.30634999999995 85.71790000000001, 108.38634999999995 85.11645000000001 C 108.18279999999994 84.52650000000001, 107.88609999999996 83.92735000000002, 107.45484999999995 83.40525000000001 L 106.34854999999995 82.07240000000002 L 104.93519999999995 83.07175000000001 C 104.92139999999995 83.08210000000001, 104.90759999999995 83.09245000000001, 104.89379999999994 83.10050000000001 C 104.42689999999995 82.85900000000001, 103.95884999999994 82.62555, 103.49769999999995 82.40245000000002 C 105.39174999999996 81.55720000000001, 106.35774999999994 79.87360000000001, 106.75219999999995 78.56030000000001 C 107.05924999999993 78.55455, 107.36169999999994 78.5511, 107.65724999999995 78.5511 C 107.75729999999996 78.5511, 107.85389999999997 78.55225, 107.95394999999995 78.55225 L 108.26904999999995 78.74889999999999 C 108.59794999999995 79.30665, 109.10969999999995 81.1731, 109.37879999999996 82.82679999999999 L 109.79509999999995 85.4051 L 112.10199999999995 84.1792 C 114.35254999999994 82.98434999999999, 115.35074999999995 80.4969, 115.66009999999994 79.5516 C 116.56974999999994 79.8391, 117.03894999999994 80.0944, 117.14819999999993 80.1565 L 120.13129999999992 82.48525 L 120.77069999999992 78.67645 C 121.49174999999998 74.95964999999998, 121.6056 69.749, 118.02104999999999 66.07589999999999 Z M 61.13629999999999 40.8748 L 66.56199999999998 45.46445 L 66.69999999999999 38.91865 Q 71.36784999999999 43.04485, 73.80239999999999 46.599500000000006 C 66.69999999999999 38.91865, 71.36784999999999 43.04485, 73.80239999999999 46.599500000000006 L 75.42965000000001 42.494 Q 77.63880000000002 47.430949999999996, 78.8555 49.794200000000004 C 75.42965000000001 42.494, 77.63880000000002 47.430949999999996, 78.8555 49.794200000000004 C 78.5381 49.81375, 78.2299 49.837900000000005, 77.92975 49.86664999999999 C 76.8177 49.818349999999995, 75.70335 49.693, 74.59819999999999 49.5642 C 72.75704999999999 49.346849999999996, 70.9228 49.06164999999999, 69.115 48.648799999999994 C 67.47279999999999 48.272749999999995, 65.89384999999999 47.775949999999995, 64.36089999999999 47.0779 C 62.76699999999998 46.351099999999995, 61.05349999999999 45.820949999999996, 59.28594999999999 45.81635 C 58.50164999999999 45.81635, 57.73689999999999 45.940549999999995, 56.96984999999999 46.04979999999999 C 54.698599999999985 44.02119999999999, 52.47794999999999 42.36749999999999, 50.36654999999999 41.0197 L 49.50519999999999 39.5868 L 59.33309999999999 44.56054999999999 L 58.70979999999999 40.487249999999996 L 58.418849999999985 38.57825 L 61.13629999999999 40.8748 Z M 27.934649999999998 22.51505 Q 27.5264 20.807299999999998, 28.16005 20.807299999999998 C 27.934649999999998 22.51505, 27.5264 20.807299999999998, 28.16005 20.807299999999998 C 28.4418 20.807299999999998, 28.92825 21.14425, 29.745900000000002 22.11715 Q 37.85685 29.527749999999997, 47.13735 32.8593 C 29.745900000000002 22.11715, 37.85685 29.527749999999997, 47.13735 32.8593 Q 51.073800000000006 33.789649999999995, 55.949799999999996 37.8917 C 47.13735 32.8593, 51.073800000000006 33.789649999999995, 55.949799999999996 37.8917 L 56.10965 38.93015 L 56.33735 40.42054999999999 L 50.5632 37.497249999999994 L 43.32855000000001 33.83565 L 46.2323 38.67139999999999 C 43.40445 37.26495, 40.89170000000001 36.408199999999994, 38.882650000000005 35.8884 C 36.046749999999996 33.38945, 29.293949999999995 27.07135, 27.934649999999998 22.51505 Z M 31.376599999999996 46.42355 C 31.374299999999998 46.422399999999996, 31.373149999999995 46.42125, 31.370849999999997 46.42125 C 31.15465 46.3143, 30.936149999999998 46.2085, 30.714199999999995 46.1027 C 30.672799999999995 46.081999999999994, 30.631399999999996 46.0636, 30.588849999999994 46.04405 C 30.380699999999994 45.944, 30.169099999999997 45.8428, 29.955199999999994 45.74275 C 29.901149999999994 45.71745, 29.848249999999997 45.69215, 29.793049999999997 45.66685 C 29.581449999999997 45.56795, 29.367549999999998 45.4679, 29.151349999999997 45.369 C 29.097299999999997 45.3437, 29.043249999999997 45.3184, 28.9892 45.2954 C 28.7661 45.191900000000004, 28.5407 45.08955, 28.311850000000003 44.986050000000006 C 28.306100000000004 44.98375, 28.3015 44.98145, 28.29575 44.979150000000004 L 28.29575 44.9803 C 27.744900000000005 44.7319, 27.1814 44.4812, 26.60065 44.230500000000006 Q 11.759900000000004 36.7417, 8.122450000000002 30.292500000000004 C 26.60065 44.230500000000006, 11.759900000000004 36.7417, 8.122450000000002 30.292500000000004 Q 7.082850000000002 28.183400000000006, 8.046550000000002 28.183400000000006 C 8.122450000000002 30.292500000000004, 7.082850000000002 28.183400000000006, 8.046550000000002 28.183400000000006 C 8.412250000000002 28.183400000000006, 9.066600000000001 28.487000000000005, 10.177500000000004 29.327650000000006 Q 21.8592 35.96775, 33.83185 37.4271 C 10.177500000000004 29.327650000000006, 21.8592 35.96775, 33.83185 37.4271 Q 34.748400000000004 37.4363, 36.343450000000004 37.72840000000001 C 33.83185 37.4271, 34.748400000000004 37.4363, 36.343450000000004 37.72840000000001 C 36.488350000000004 37.754850000000005, 36.63785 37.78360000000001, 36.794250000000005 37.81465 C 36.8046 37.816950000000006, 36.8161 37.81925, 36.82645 37.8227 C 36.98055 37.8526, 37.13925 37.88825, 37.3037 37.9239 C 37.32555 37.927350000000004, 37.34739999999999 37.933099999999996, 37.3681 37.93770000000001 C 37.51299999999999 37.9699, 37.662499999999994 38.00555, 37.814299999999996 38.0412 C 38.030499999999996 38.0941, 38.252449999999996 38.1493, 38.48245 38.21025 C 38.483599999999996 38.21025, 38.48475 38.21025, 38.4859 38.2114 Q 38.4859 38.2114, 38.487049999999996 38.2114 C 38.4859 38.2114, 38.4859 38.2114, 38.487049999999996 38.2114 C 38.708999999999996 38.2712, 38.9413 38.3356, 39.177049999999994 38.4046 C 39.2564 38.4276, 39.34035 38.4529, 39.42085 38.47705 C 39.583 38.52535, 39.745149999999995 38.574799999999996, 39.9119 38.6277 C 40.011950000000006 38.65875, 40.1143 38.69325, 40.21665 38.7266 C 40.373050000000006 38.77605, 40.53175 38.8301, 40.692750000000004 38.886449999999996 C 40.802 38.9244, 40.91125 38.9612, 41.022800000000004 39.000299999999996 C 41.19185 39.06125, 41.36665 39.1245, 41.541450000000005 39.19005 C 41.64495000000001 39.22914999999999, 41.7473 39.264799999999994, 41.853100000000005 39.30735 C 42.12105 39.410849999999996, 42.39475 39.51895, 42.67190000000001 39.632799999999996 C 42.77655000000001 39.675349999999995, 42.88465000000001 39.72365, 42.991600000000005 39.768499999999996 C 43.1779 39.847849999999994, 43.36535000000001 39.9272, 43.55510000000001 40.011149999999994 C 43.68735000000001 40.06864999999999, 43.82190000000001 40.13074999999999, 43.956450000000004 40.1917 C 44.12780000000001 40.26989999999999, 44.299150000000004 40.34809999999999, 44.47395000000001 40.430899999999994 C 44.95810000000001 40.659749999999995, 45.452600000000004 40.903549999999996, 45.95975000000001 41.16919999999999 C 45.96320000000001 41.17034999999999, 45.96665000000001 41.17264999999999, 45.971250000000005 41.174949999999995 C 46.548550000000006 41.47854999999999, 47.13850000000001 41.80399999999999, 47.74110000000001 42.158199999999994 C 51.444100000000006 44.33399999999999, 55.58755000000001 47.506849999999986, 59.77930000000001 52.14249999999999 Q 60.86145000000001 55.359049999999996, 55.58755000000001 58.06269999999999 C 59.77930000000001 52.14249999999999, 60.86145000000001 55.359049999999996, 55.58755000000001 58.06269999999999 Q 52.029450000000004 60.3443, 48.503550000000004 60.48805 C 55.58755000000001 58.06269999999999, 52.029450000000004 60.3443, 48.503550000000004 60.48805 C 48.50469999999999 60.4892, 47.75835 54.445949999999996, 31.376599999999996 46.42355 Z M 39.83369999999999 54.075649999999996 C 39.2081 54.343599999999995, 38.615849999999995 54.6886, 38.0834 55.0934 C 37.280699999999996 54.4931, 36.40325 53.9411, 35.4591 53.49375 C 35.43725 52.79684999999999, 35.368249999999996 51.9723, 35.2084 51.1029 C 37.0415 52.162049999999994, 38.5664 53.15794999999999, 39.83369999999999 54.075649999999996 Z M 77.94815 99.70765 Q 77.94125 99.13035, 77.85730000000001 98.45875000000001 C 77.94815 99.70765, 77.94125 99.13035, 77.85730000000001 98.45875000000001 C 78.09420000000001 98.3978, 78.33340000000001 98.33685000000001, 78.57030000000002 98.2759 C 79.38105000000002 98.0712, 80.19180000000001 97.87799999999999, 81.00600000000001 97.69055 C 80.0101 98.43114999999999, 78.82445 99.25915, 77.94815 99.70765 Z M 83.099 99.89739999999999 Q 83.1979 98.37595, 83.12085 97.2294 C 83.099 99.89739999999999, 83.1979 98.37595, 83.12085 97.2294 C 83.50265 97.14890000000001, 83.88445 97.07069999999999, 84.26740000000001 96.99595 C 85.8268 96.6912, 87.39885000000001 96.429, 88.97665 96.23925 C 87.8577 97.08104999999999, 85.39669999999998 98.84974999999999, 83.099 99.89739999999999 Z M 90.0289 100.33555 Q 90.06685 97.62729999999999, 89.70689999999999 96.1507 C 90.0289 100.33555, 90.06685 97.62729999999999, 89.70689999999999 96.1507 C 89.7253 96.14954999999999, 89.7414 96.14609999999999, 89.7598 96.14495000000001 C 91.49745 95.96555, 93.30754999999999 95.831, 95.0314 96.18060000000001 C 95.4178 96.25995000000002, 95.80650000000001 96.337, 96.19405 96.41060000000002 C 94.71055 97.63534999999999, 92.35534999999999 99.3868, 90.0289 100.33555 Z M 97.451 101.3073 Q 98.23414999999999 98.81064999999998, 98.13985 96.77284999999999 C 97.451 101.3073, 98.23414999999999 98.81064999999998, 98.13985 96.77284999999999 C 98.9828 96.92235, 99.83035 97.0638, 100.67675 97.19835 C 102.01764999999999 97.40995, 103.36314999999999 97.5997, 104.71209999999999 97.75035 C 103.05494999999999 98.5979, 100.39155 99.9319, 97.451 101.3073 Z M 106.00585 100.45859999999999 Q 106.53025 99.12229999999998, 106.5958 97.93894999999999 C 106.00585 100.45859999999999, 106.53025 99.12229999999998, 106.5958 97.93894999999999 C 107.5181 98.0183, 108.45190000000001 98.08154999999998, 109.3857 98.08385 C 108.59219999999999 98.9705, 107.46634999999999 99.93305, 106.00585 100.45859999999999 Z M 111.87889999999999 88.586 Q 111.88005 88.58485, 111.88119999999999 88.5837 C 111.87889999999999 88.586, 111.88005 88.58485, 111.88119999999999 88.5837 C 112.87825 87.84884999999998, 114.12599999999999 86.35385, 114.12599999999999 86.35385 C 114.64349999999999 87.20254999999999, 114.64809999999997 88.25479999999999, 114.56875 88.9609 C 114.51469999999999 88.96549999999999, 114.4365 88.96894999999999, 114.32035 88.96894999999999 C 113.66255 88.96894999999999, 112.73219999999999 88.85279999999999, 111.73859999999999 88.68605 C 111.78459999999998 88.6527, 111.83059999999999 88.62049999999999, 111.87889999999999 88.586 Z M 105.08239999999999 85.29469999999999 C 105.1376 85.2533, 105.19049999999999 85.21189999999999, 105.24225 85.1728 C 105.24799999999999 85.16935, 105.25259999999999 85.16704999999999, 105.2572 85.16244999999999 C 105.31355 85.11989999999999, 105.3676 85.07964999999999, 105.42049999999999 85.04055 C 105.42739999999999 85.03479999999999, 105.4343 85.02905, 105.44235 85.02329999999999 C 105.49295 84.98649999999999, 105.5401 84.95084999999999, 105.58725000000001 84.91634999999998 C 105.593 84.91174999999998, 105.5999 84.90599999999998, 105.60565000000001 84.90139999999998 C 105.65280000000001 84.86804999999998, 105.6965 84.83584999999998, 105.7356 84.80709999999999 C 105.73675000000001 84.80709999999999, 105.73675000000001 84.80594999999998, 105.73675000000001 84.80594999999998 C 105.77815000000002 84.77604999999998, 105.81495000000001 84.74959999999999, 105.84830000000001 84.72429999999999 C 105.8506 84.72314999999999, 105.85290000000002 84.722, 105.85520000000001 84.72084999999998 C 105.88510000000001 84.69784999999999, 105.91155000000002 84.67944999999999, 105.9334 84.66335 C 105.93800000000002 84.6599, 105.9426 84.65759999999999, 105.94605 84.65414999999999 C 105.9886 84.62424999999999, 106.01620000000001 84.6047, 106.01620000000001 84.6047 C 106.07140000000001 84.67254999999999, 106.1243 84.74385, 106.17375000000001 84.81745 C 106.18985 84.8416, 106.20595000000002 84.86805, 106.22205000000001 84.89219999999999 C 106.25195000000001 84.94165, 106.28415000000001 84.99109999999999, 106.31175000000002 85.04169999999999 C 106.33130000000001 85.07275, 106.34625000000001 85.1061, 106.36465000000003 85.1383 C 106.38880000000003 85.18315, 106.41065000000003 85.22915, 106.43250000000002 85.27515 C 106.45090000000003 85.31195, 106.46700000000003 85.3476, 106.48425000000002 85.3867 C 106.50265000000003 85.4258, 106.51760000000002 85.46835, 106.53485000000002 85.5086 C 106.55210000000002 85.55115, 106.56935000000001 85.5937, 106.58430000000003 85.63625 C 106.59235000000004 85.65809999999999, 106.60040000000002 85.6788, 106.60845000000003 85.7018 C 106.67860000000003 85.90305, 106.73495000000003 86.1066, 106.77980000000002 86.3021 C 106.85570000000003 86.63329999999999, 106.89940000000003 86.9438, 106.92700000000004 87.1991 C 106.94540000000003 87.3923, 106.95345000000002 87.5533, 106.95805000000003 87.66255 C 106.94425000000003 87.6591, 106.93045000000004 87.65679999999999, 106.91665000000003 87.6522 C 105.90465000000003 87.1485, 104.85815000000002 86.723, 103.79670000000003 86.36305 C 104.17619999999998 86.00885, 104.66264999999999 85.61784999999999, 105.08239999999999 85.29469999999999 Z M 102.36149999999999 80.84649999999999 Q 101.96245 79.26755, 101.3794 77.79554999999999 C 102.36149999999999 80.84649999999999, 101.96245 79.26755, 101.3794 77.79554999999999 C 102.649 78.57639999999999, 103.78865 78.79835, 104.64540000000001 78.80754999999999 C 104.26474999999999 79.5723, 103.58049999999999 80.4463, 102.36149999999999 80.84649999999999 Z M 87.62424999999999 81.39505 L 86.67549999999999 80.85454999999999 L 85.73824999999998 81.41344999999998 C 83.86144999999998 82.53469999999999, 83.57279999999999 83.19479999999999, 83.44975 83.47654999999999 L 83.41985 83.54669999999999 C 80.09864999999999 82.01835, 78.4277 79.26639999999999, 78.40355 79.22729999999999 L 78.03900000000002 78.60974999999999 L 77.39040000000001 78.30499999999999 C 76.84300000000002 78.0474, 76.29100000000001 77.84384999999999, 75.74705000000002 77.68285 C 75.86665000000002 77.65065, 75.97245000000001 77.6242, 76.06445000000001 77.6035 C 76.16795000000002 77.5897, 76.40715000000002 77.56554999999999, 76.86485 77.56554999999999 C 78.80835 77.56554999999999, 81.85125000000001 77.97724999999998, 81.88230000000001 77.98185 L 82.46190000000001 78.06119999999999 L 83.0116 77.8588 C 84.80445 77.19409999999999, 86.61110000000001 76.69614999999999, 88.42235000000001 76.36264999999999 L 89.0307 76.70304999999999 C 89.36995 76.9664, 90.15655 78.18424999999999, 90.6637 79.2319 L 91.30770000000001 80.56015 L 92.7475 80.24504999999999 C 92.95450000000001 80.19904999999999, 93.14654999999999 80.13924999999999, 93.33055 80.07139999999998 C 93.90785 80.40259999999998, 94.5553 80.72114999999998, 95.28325 81.01324999999999 C 94.3 81.73084999999999, 92.9131 82.82104999999999, 92.38525 83.6318 L 91.85395 84.44829999999999 C 91.55035000000001 84.44369999999999, 91.25825 84.44139999999999, 90.98915000000001 84.44139999999999 C 90.76605 84.44139999999999, 90.55905000000001 84.44254999999998, 90.3716 84.44484999999999 L 90.05765 83.86294999999998 C 89.96909999999998 83.70425, 89.1664 82.27595, 87.62424999999999 81.39505 Z M 88.27514999999998 84.53455 C 88.1797 84.53685, 88.08425 84.5426, 87.99109999999999 84.5426 C 86.97564999999999 84.5426, 86.04069999999999 84.4069, 85.18739999999998 84.18264999999998 C 85.42889999999998 83.77554999999998, 86.69619999999998 83.01884999999999, 86.69619999999998 83.01884999999999 C 87.50925 83.48345, 88.04284999999999 84.18379999999999, 88.27514999999998 84.53455 Z M 90.90635 76.01304999999999 C 91.87235000000001 75.9176, 92.8372 75.86815, 93.79975 75.86815 C 93.98375 75.86815, 94.1643 75.87045, 94.3437 75.87275 C 94.28045 76.3684, 94.07345000000001 77.2953, 93.38690000000001 77.90135000000001 C 93.3202 77.95885, 93.25120000000001 78.01405, 93.17645 78.06465 C 93.17415000000001 78.06695, 93.17070000000001 78.0681, 93.1684 78.06925000000001 C 93.0994 78.11755, 93.02465 78.16125, 92.94645 78.20265 C 92.93495 78.20840000000001, 92.92345 78.21530000000001, 92.91195 78.2199 C 92.83605 78.259, 92.7544 78.2935, 92.6693 78.3257 C 92.65665000000001 78.32915, 92.6417 78.3349, 92.6279 78.3395 C 92.53935 78.36940000000001, 92.44735 78.39699999999999, 92.34845 78.41885 C 92.3473 78.4177, 91.67339999999999 77.02619999999999, 90.90635 76.01304999999999 Z M 96.7449 82.26675 C 97.3912 83.04875, 97.59589999999999 84.2252, 97.6603 84.9221 C 96.3723 84.73235, 95.14640000000001 84.6139, 94.03435 84.5426 C 94.65765 83.74449999999999, 96.7449 82.26675, 96.7449 82.26675 Z M 96.62875 79.52629999999999 C 96.0457 79.32159999999999, 95.52244999999999 79.0985, 95.04520000000001 78.86734999999999 C 95.8042 77.96, 96.12735 76.82379999999999, 96.21360000000001 75.9751 C 97.07955000000001 76.05215, 97.82590000000002 76.1637, 98.43655000000003 76.2764 L 98.99085000000002 77.13544999999999 C 99.60380000000002 78.08304999999999, 100.22365000000002 80.1082, 100.47780000000003 81.042 C 98.3641 80.14155, 96.79435 79.5838, 96.62875 79.52629999999999 Z M 103.2401 84.3655 C 102.67545 84.83239999999999, 102.1407 85.32804999999999, 101.80144999999999 85.76504999999999 C 101.04934999999999 85.5638, 100.29724999999998 85.39359999999999, 99.55664999999999 85.24754999999999 C 99.53939999999999 84.69555, 99.44394999999999 83.56279999999998, 98.9897 82.44845 C 100.22019999999999 82.9556, 101.71519999999998 83.60995, 103.2401 84.3655 Z M 111.22224999999999 82.53469999999999 Q 110.8462 80.22205, 110.25395 78.63964999999999 C 111.22224999999999 82.53469999999999, 110.8462 80.22205, 110.25395 78.63964999999999 C 111.6926 78.73509999999999, 112.8794 78.90299999999999, 113.83735 79.09504999999999 C 113.56594999999999 79.8736, 112.78049999999999 81.70554999999999, 111.22224999999999 82.53469999999999 Z M 118.47185 78.23599999999999 Q 117.43684999999999 77.50805, 114.88499999999999 76.92614999999999 C 118.47185 78.23599999999999, 117.43684999999999 77.50805, 114.88499999999999 76.92614999999999 L 114.88499999999999 76.925 C 114.84244999999999 76.91465, 114.79645 76.90545, 114.75275 76.8974 C 114.67915 76.87899999999999, 114.6044 76.8629, 114.5262 76.8468 C 114.46755 76.83415, 114.4066 76.82265, 114.34565 76.81 C 114.26745000000001 76.79390000000001, 114.18925000000002 76.77780000000001, 114.1076 76.76169999999999 C 114.04320000000001 76.74905, 113.97535000000002 76.73755, 113.90865000000001 76.7249 C 113.8293 76.70995, 113.74765000000001 76.695, 113.66485 76.68120000000002 C 113.5901 76.66740000000001, 113.51190000000001 76.65705, 113.43370000000002 76.6421 C 113.35550000000002 76.62945, 113.27845 76.61680000000001, 113.19680000000001 76.60415 C 113.03925000000001 76.57885000000002, 112.87940000000002 76.55585, 112.71265 76.53285000000001 C 112.64595 76.52365, 112.57464999999999 76.5156, 112.5068 76.50525000000002 C 112.40215 76.49260000000001, 112.29865000000001 76.4788, 112.19285 76.46615000000001 C 112.11695 76.45695, 112.0376 76.44890000000001, 111.9594 76.43970000000002 C 111.85705 76.4282, 111.75355 76.4167, 111.64775 76.40635 C 111.56495 76.39715000000001, 111.47985 76.3914, 111.39590000000001 76.38220000000001 C 111.28895 76.37185, 111.18315 76.3615, 111.07505 76.35345000000001 C 110.98880000000001 76.34540000000001, 110.89795000000001 76.33965, 110.80940000000001 76.33160000000001 C 110.69785000000003 76.3224, 110.59090000000002 76.3155, 110.47820000000002 76.30745 C 110.38505000000002 76.30170000000001, 110.28960000000002 76.29480000000001, 110.19415000000002 76.2902 C 110.08145000000002 76.28215, 109.96990000000002 76.2764, 109.85375000000002 76.2695 C 109.75600000000003 76.26490000000001, 109.65365000000001 76.2603, 109.55360000000002 76.2557 C 109.43745000000003 76.25110000000001, 109.32130000000002 76.24535, 109.20170000000002 76.2419 C 109.09820000000002 76.23845, 108.99240000000002 76.23615000000001, 108.88660000000002 76.23155 C 108.76700000000002 76.22925000000001, 108.64625000000002 76.22579999999999, 108.52435000000003 76.2235 C 108.41395000000001 76.22120000000001, 108.30470000000003 76.22005000000001, 108.19200000000002 76.2189 C 108.07010000000002 76.2166, 107.94475000000001 76.2166, 107.81825000000002 76.21545 C 107.76420000000002 76.21545, 107.71130000000001 76.21430000000001, 107.65610000000001 76.21430000000001 C 107.60665 76.21430000000001, 107.55375000000001 76.21545, 107.50315000000002 76.21545 C 107.31225000000002 76.2166, 107.11790000000002 76.2189, 106.92240000000002 76.22120000000001 C 106.83155000000004 76.22235, 106.74415000000002 76.22350000000002, 106.65330000000003 76.22465000000001 C 106.36695000000003 76.2304, 106.07600000000004 76.23845, 105.77700000000003 76.24995000000001 Q 105.76895000000002 76.2534, 105.75860000000003 76.25800000000001 C 105.77700000000003 76.24995000000001, 105.76895000000002 76.2534, 105.75860000000003 76.25800000000001 C 105.75745000000002 76.25800000000001, 105.75745000000002 76.25800000000001, 105.75630000000002 76.25915 C 105.75285000000002 76.2603, 105.74710000000003 76.2626, 105.74250000000002 76.26375 C 105.73100000000002 76.27065, 105.71835000000003 76.2764, 105.69995000000002 76.28444999999999 C 105.69880000000002 76.28444999999999, 105.69880000000002 76.28444999999999, 105.69880000000002 76.28444999999999 C 105.69190000000002 76.28790000000001, 105.6804 76.29249999999999, 105.67235000000002 76.29595 C 105.65165000000002 76.30515, 105.63210000000002 76.31205, 105.60450000000002 76.32124999999999 C 105.59185000000002 76.32585, 105.57690000000002 76.3316, 105.56195000000001 76.33619999999999 C 105.53665000000001 76.34424999999999, 105.50790000000002 76.35345, 105.47685000000001 76.36265 C 105.45845000000001 76.36840000000001, 105.43775000000001 76.37414999999999, 105.41705 76.37875 C 105.38600000000001 76.38565, 105.3515 76.39485, 105.31470000000002 76.40405 C 105.29055000000001 76.40865, 105.26410000000001 76.4121, 105.23995000000001 76.41785 C 105.20200000000001 76.4259, 105.16405000000002 76.43165, 105.12150000000003 76.43854999999999 C 105.09275000000001 76.44200000000001, 105.06055000000002 76.44545, 105.03065000000002 76.44890000000001 C 104.98810000000002 76.45349999999999, 104.94440000000003 76.4581, 104.89840000000004 76.46039999999999 C 104.86505000000004 76.46270000000001, 104.82825000000003 76.46385000000001, 104.79260000000004 76.46385000000001 C 104.73280000000003 76.46615, 104.67300000000003 76.46615, 104.60975000000003 76.465 C 104.59365000000004 76.46385000000001, 104.57985000000004 76.46385000000001, 104.56375000000003 76.46385000000001 C 104.54305000000002 76.46270000000001, 104.52350000000003 76.46154999999999, 104.50395000000002 76.46039999999999 C 104.46830000000001 76.4581, 104.4338 76.45580000000001, 104.39815000000002 76.4512 C 104.37515000000002 76.4489, 104.35100000000001 76.44659999999999, 104.328 76.44315 C 104.29350000000001 76.4397, 104.259 76.4351, 104.22335000000001 76.42935 C 104.19920000000002 76.4259, 104.17160000000001 76.42245, 104.14745 76.41669999999999 C 104.11295000000001 76.41094999999999, 104.07615000000001 76.40404999999998, 104.03935000000001 76.39599999999999 C 104.01290000000002 76.3914, 103.98645 76.3845, 103.96115000000002 76.37875 C 103.92320000000002 76.36954999999999, 103.88525000000001 76.36035, 103.84730000000002 76.35114999999999 C 103.81970000000001 76.34424999999999, 103.79325000000001 76.33619999999999, 103.76565000000002 76.32815 C 103.72425000000001 76.31664999999998, 103.68400000000003 76.30399999999999, 103.64375000000003 76.29019999999998 C 103.61730000000003 76.28099999999998, 103.59085000000002 76.27409999999998, 103.56440000000002 76.26489999999998 C 103.51725000000002 76.24765, 103.46665000000003 76.23039999999999, 103.41720000000002 76.2097 C 103.39535000000002 76.20164999999999, 103.37580000000003 76.19475, 103.35395000000001 76.18554999999998 C 103.28265000000002 76.15794999999999, 103.21135000000002 76.12574999999998, 103.13775000000001 76.09239999999998 C 103.1228 76.08434999999999, 103.10785000000001 76.07629999999997, 103.09175 76.06824999999998 C 103.0331 76.04064999999997, 102.97445 76.01189999999998, 102.91465000000001 75.98084999999998 C 102.88820000000001 75.96704999999997, 102.8606 75.94979999999998, 102.83300000000001 75.93484999999998 C 102.78470000000002 75.90724999999998, 102.73525000000002 75.87964999999998, 102.68465 75.85089999999998 C 102.6536 75.83249999999998, 102.6214 75.81179999999998, 102.5915 75.79224999999998 C 102.54435000000001 75.76349999999998, 102.49605 75.73359999999997, 102.44775 75.70139999999998 C 102.41555 75.67839999999998, 102.3822 75.65654999999998, 102.34885 75.63354999999999 C 102.30055 75.60019999999997, 102.25225 75.56569999999999, 102.20394999999999 75.53119999999998 C 102.17060000000001 75.50589999999998, 102.13494999999999 75.48174999999998, 102.1016 75.45529999999998 C 102.05215 75.41734999999997, 102.0027 75.37824999999998, 101.9521 75.338 C 101.91875 75.31039999999999, 101.88425000000001 75.28279999999998, 101.84975 75.25404999999998 C 101.798 75.21149999999999, 101.74510000000001 75.16434999999998, 101.6922 75.11834999999999 C 101.66 75.08959999999999, 101.62665 75.06199999999998, 101.59330000000001 75.03209999999999 C 101.53465 74.97804999999998, 101.47485000000002 74.92169999999999, 101.41735 74.86419999999998 C 101.3886 74.83659999999998, 101.35985000000001 74.81129999999999, 101.33340000000001 74.78369999999998 C 101.24600000000001 74.69744999999998, 101.15745 74.60659999999997, 101.0689 74.51114999999997 Q 98.57685000000001 73.62794999999997, 94.5047 73.53364999999997 C 101.0689 74.51114999999997, 98.57685000000001 73.62794999999997, 94.5047 73.53364999999997 C 94.5001 73.53364999999997, 94.49435000000001 73.53364999999997, 94.48975 73.53364999999997 C 94.32990000000001 73.53019999999998, 94.16659999999999 73.52674999999996, 94.001 73.52559999999997 C 93.99295 73.52559999999997, 93.98490000000001 73.52559999999997, 93.97685 73.52559999999997 C 93.9182 73.52444999999997, 93.8584 73.52444999999997, 93.79975 73.52444999999997 C 93.72270000000002 73.52444999999997, 93.64335000000001 73.52559999999997, 93.56400000000001 73.52559999999997 C 93.50650000000002 73.52674999999996, 93.44900000000001 73.52674999999996, 93.39150000000001 73.52789999999999 C 93.26039999999999 73.52904999999998, 93.127 73.53249999999997, 92.9936 73.53479999999998 C 92.94185 73.53594999999999, 92.89009999999999 73.53824999999998, 92.83834999999999 73.53939999999997 C 92.69344999999998 73.54284999999999, 92.54854999999999 73.54974999999997, 92.40135 73.55549999999998 C 92.36455 73.55664999999998, 92.32889999999999 73.55894999999998, 92.2921 73.56009999999998 C 91.45259999999999 73.60149999999999, 90.5671 73.67854999999997, 89.63789999999999 73.79929999999997 L 89.6356 73.79929999999997 C 89.6103 73.80274999999997, 89.58269999999999 73.80849999999998, 89.5574 73.81079999999997 C 89.3159 73.84299999999998, 89.0721 73.87979999999997, 88.82485 73.91889999999998 C 88.78575 73.92349999999996, 88.74665 73.93039999999996, 88.70755 73.93614999999997 C 87.8255 74.07874999999999, 86.91125 74.26274999999998, 85.96479999999998 74.49734999999998 C 85.96134999999998 74.49734999999998, 85.95904999999999 74.49849999999998, 85.95445 74.49964999999997 L 85.95445 74.49964999999997 C 84.74809999999998 74.79864999999998, 83.49229999999999 75.17814999999999, 82.19624999999999 75.65769999999998 Q 82.18589999999999 75.65654999999998, 82.17209999999999 75.65424999999998 C 82.19624999999999 75.65769999999998, 82.18589999999999 75.65654999999998, 82.17209999999999 75.65424999999998 C 82.17094999999998 75.65424999999998, 82.17094999999998 75.65424999999998, 82.1698 75.65424999999998 C 81.87195 75.61399999999998, 78.88425 75.21839999999997, 76.86139999999999 75.21839999999997 C 76.3899 75.21839999999997, 75.97014999999999 75.24024999999997, 75.6493 75.29199999999997 Q 70.88369999999999 76.22809999999998, 70.34204999999999 79.52054999999999 C 75.6493 75.29199999999997, 70.88369999999999 76.22809999999998, 70.34204999999999 79.52054999999999 Q 70.85954999999998 79.44809999999998, 71.66109999999999 79.44809999999998 C 70.34204999999999 79.52054999999999, 70.85954999999998 79.44809999999998, 71.66109999999999 79.44809999999998 C 72.85824999999998 79.44809999999998, 74.68904999999998 79.61024999999998, 76.38874999999999 80.41064999999998 Q 80.22169999999998 86.87134999999998, 87.9888 86.87134999999998 C 76.38874999999999 80.41064999999998, 80.22169999999998 86.87134999999998, 87.9888 86.87134999999998 C 88.40969999999999 86.87134999999998, 88.84324999999998 86.85294999999998, 89.28829999999999 86.81269999999998 Q 89.29289999999999 86.81269999999998, 89.29404999999998 86.81269999999998 C 89.28829999999999 86.81269999999998, 89.29289999999999 86.81269999999998, 89.29404999999998 86.81269999999998 C 89.29865 86.81269999999998, 89.30324999999998 86.81154999999998, 89.30899999999998 86.81154999999998 C 89.31129999999999 86.81154999999998, 89.31244999999998 86.81154999999998, 89.3136 86.81154999999998 C 89.32165 86.81154999999998, 89.3343 86.81039999999999, 89.34349999999999 86.80809999999998 C 89.5114 86.80004999999998, 90.09445 86.77129999999998, 90.9857 86.77129999999998 C 91.87809999999999 86.77129999999998, 93.07409999999999 86.8012, 94.44949999999999 86.90814999999998 C 94.71629999999999 86.92999999999998, 94.98999999999998 86.95299999999999, 95.26944999999998 86.97944999999999 C 95.27289999999998 86.97944999999999, 95.27519999999997 86.97944999999999, 95.27634999999998 86.98174999999998 C 95.86169999999998 87.03809999999999, 96.47349999999997 87.10939999999998, 97.10369999999998 87.19794999999999 C 97.11174999999999 87.19909999999999, 97.11864999999999 87.19909999999999, 97.12554999999999 87.20024999999998 C 97.42914999999998 87.24279999999999, 97.7362 87.29109999999999, 98.04669999999999 87.344 C 99.09089999999999 87.5165, 100.16959999999999 87.74189999999999, 101.25059999999999 88.02939999999998 C 101.37594999999999 88.06389999999999, 101.50359999999999 88.09954999999998, 101.62894999999997 88.13404999999999 C 101.69909999999999 88.15474999999999, 101.77039999999998 88.17429999999999, 101.84169999999999 88.19499999999998 C 101.99119999999998 88.23754999999998, 102.13954999999999 88.28239999999998, 102.2879 88.32839999999999 C 102.3339 88.34334999999999, 102.38219999999998 88.35599999999998, 102.42819999999999 88.37094999999998 C 102.62254999999999 88.43189999999998, 102.81804999999999 88.49399999999999, 103.01124999999999 88.55954999999999 C 103.05839999999999 88.57679999999998, 103.10669999999999 88.59404999999998, 103.1527 88.61014999999998 C 103.2999 88.66074999999998, 103.44595 88.71249999999998, 103.59200000000001 88.76539999999997 C 103.65985 88.78954999999998, 103.72885000000001 88.81714999999998, 103.7967 88.84129999999998 C 103.92205 88.88844999999998, 104.04740000000001 88.93674999999998, 104.17045 88.98619999999998 C 104.2429 89.01379999999997, 104.3165 89.04369999999997, 104.38895000000001 89.07359999999998 C 104.50855 89.12189999999998, 104.63045 89.17249999999997, 104.75005 89.22424999999998 C 104.82135 89.25414999999998, 104.89150000000001 89.28519999999997, 104.96395 89.31624999999998 C 105.09045 89.37259999999998, 105.21695 89.42894999999997, 105.3423 89.48644999999998 C 105.40325 89.51519999999998, 105.46419999999999 89.54279999999999, 105.52629999999999 89.57154999999997 C 105.69535 89.65319999999997, 105.86555 89.73599999999998, 106.03229999999999 89.82109999999997 C 106.04955 89.83029999999998, 106.06679999999999 89.83834999999998, 106.0852 89.84639999999997 Q 106.1082 89.85214999999998, 106.15190000000001 89.86364999999998 C 106.0852 89.84639999999997, 106.1082 89.85214999999998, 106.15190000000001 89.86364999999998 C 106.1887 89.87399999999998, 106.23585 89.88549999999998, 106.3037 89.90274999999997 C 106.29105000000001 89.90044999999998, 106.28300000000002 89.89814999999997, 106.27495 89.89469999999997 C 106.6119 89.97979999999997, 107.3824 90.16954999999997, 108.34725000000002 90.38574999999997 C 108.37485000000001 90.39149999999998, 108.40360000000003 90.39839999999998, 108.4312 90.40414999999997 C 108.51514999999999 90.42369999999998, 108.5991 90.44209999999998, 108.6865 90.46164999999998 C 108.7279 90.46969999999997, 108.77045 90.47889999999997, 108.813 90.48809999999997 C 108.89004999999999 90.50534999999998, 108.96825 90.52029999999998, 109.04759999999999 90.53869999999998 C 109.09244999999999 90.54789999999997, 109.13844999999998 90.55824999999997, 109.18329999999999 90.56744999999997 C 109.30059999999999 90.59159999999997, 109.41904999999998 90.61574999999998, 109.53864999999998 90.63989999999997 C 109.58119999999998 90.64794999999997, 109.62489999999998 90.65714999999997, 109.66974999999998 90.66519999999997 C 109.74909999999998 90.68244999999997, 109.83189999999999 90.69739999999997, 109.91354999999999 90.71464999999996 C 109.97104999999999 90.72614999999996, 110.02854999999998 90.73764999999997, 110.08605 90.74799999999998 C 110.15735 90.76179999999998, 110.2275 90.77444999999997, 110.2988 90.78939999999997 C 110.3333 90.79514999999998, 110.3678 90.80319999999998, 110.40344999999999 90.81009999999998 L 110.40344999999999 90.81009999999998 C 110.92784999999999 90.90899999999998, 111.46029999999999 91.00099999999998, 111.97664999999999 91.07804999999998 C 111.97779999999999 91.07804999999998, 111.97894999999998 91.07804999999998, 111.98009999999998 91.07804999999998 C 112.09279999999998 91.09529999999997, 112.20434999999998 91.11024999999997, 112.31474999999998 91.12634999999997 C 112.33314999999999 91.12864999999998, 112.34924999999998 91.13094999999997, 112.36764999999998 91.13324999999998 C 112.46194999999999 91.14589999999998, 112.55509999999998 91.15854999999998, 112.64479999999999 91.17004999999997 C 112.67354999999999 91.17349999999998, 112.70115 91.17579999999997, 112.72874999999998 91.18039999999998 C 112.80924999999998 91.19074999999997, 112.88974999999998 91.19879999999996, 112.97024999999998 91.20684999999997 C 113.00244999999998 91.21144999999997, 113.03579999999998 91.21489999999997, 113.06914999999998 91.21834999999997 C 113.14044999999997 91.22639999999997, 113.21289999999998 91.23329999999997, 113.28189999999998 91.24019999999997 C 113.31984999999997 91.24364999999997, 113.35664999999997 91.24709999999997, 113.39459999999997 91.24939999999998 C 113.46014999999997 91.25629999999997, 113.52224999999999 91.26089999999998, 113.58549999999997 91.26549999999997 C 113.62344999999998 91.26894999999998, 113.66254999999997 91.27124999999998, 113.70279999999997 91.27354999999997 C 113.76144999999998 91.27814999999997, 113.81894999999997 91.28044999999997, 113.87414999999997 91.28274999999998 C 113.91439999999997 91.28504999999998, 113.95234999999997 91.28734999999998, 113.99259999999997 91.28964999999998 C 114.04549999999998 91.29079999999998, 114.09839999999997 91.29194999999999, 114.15014999999997 91.29309999999998 C 114.18809999999998 91.29424999999998, 114.22604999999997 91.29539999999999, 114.26399999999997 91.29539999999999 C 114.28354999999996 91.29539999999999, 114.30309999999999 91.29769999999998, 114.32264999999998 91.29769999999998 C 114.34564999999998 91.29769999999998, 114.36519999999999 91.29539999999999, 114.38819999999998 91.29539999999999 C 114.44454999999999 91.29424999999998, 114.50089999999997 91.29309999999998, 114.55379999999998 91.29194999999999 C 114.58944999999999 91.29079999999999, 114.62624999999998 91.28849999999998, 114.66189999999997 91.28734999999999 C 114.71364999999999 91.28274999999998, 114.76194999999998 91.27929999999999, 114.81139999999998 91.27469999999998 C 114.84244999999997 91.27124999999998, 114.87579999999997 91.26894999999998, 114.90569999999997 91.26549999999997 C 114.95514999999997 91.25859999999997, 115.00229999999996 91.25054999999998, 115.04829999999995 91.24364999999997 C 115.07244999999996 91.23904999999998, 115.09889999999996 91.23559999999998, 115.12074999999996 91.22984999999998 C 115.18744999999997 91.21604999999998, 115.24839999999996 91.20224999999998, 115.30589999999997 91.18384999999998 Q 115.31394999999998 91.24709999999997, 115.32314999999997 91.35404999999999 C 115.30589999999997 91.18384999999998, 115.31394999999998 91.24709999999997, 115.32314999999997 91.35404999999999 C 115.38639999999997 92.11419999999998, 115.42894999999996 95.22264999999997, 112.11464999999995 95.95059999999998 C 112.11349999999996 95.94829999999997, 112.11119999999995 95.94484999999997, 112.11119999999995 95.94254999999997 C 112.09164999999996 95.88159999999998, 111.78229999999995 95.99774999999997, 111.70869999999996 96.01269999999998 C 111.64314999999996 96.02649999999997, 111.57989999999997 96.03684999999997, 111.51779999999997 96.04834999999999 C 111.28664999999998 96.07479999999998, 111.04514999999996 96.09549999999997, 110.78409999999997 96.10239999999997 Q 110.77834999999996 96.11504999999997, 110.76569999999995 96.13804999999999 C 110.78409999999997 96.10239999999997, 110.77834999999996 96.11504999999997, 110.76569999999995 96.13804999999999 C 110.46209999999996 96.16219999999998, 110.16079999999997 96.1806, 109.85719999999995 96.18634999999999 C 107.95394999999995 96.222, 106.04034999999995 96.02305, 104.15204999999995 95.78844999999998 C 102.19359999999995 95.54579999999999, 100.24319999999994 95.2353, 98.29854999999995 94.88914999999999 C 97.35094999999995 94.72009999999999, 96.40564999999995 94.54184999999998, 95.46264999999995 94.35094999999998 C 94.58864999999994 94.17384999999999, 93.71464999999996 94.09909999999999, 92.82224999999995 94.09334999999999 C 92.21274999999994 94.08874999999998, 91.60094999999995 94.11289999999998, 90.99144999999994 94.15314999999998 C 89.21469999999995 94.26929999999999, 87.44714999999995 94.51539999999999, 85.69339999999995 94.82014999999998 C 83.83154999999995 95.14214999999999, 81.98004999999995 95.52854999999998, 80.14004999999996 95.9575 C 79.19704999999996 96.17829999999998, 78.25404999999996 96.41174999999998, 77.31679999999996 96.65554999999999 C 77.31564999999995 96.65325, 77.31449999999997 96.6498, 77.31334999999996 96.64749999999998 Q 76.28869999999995 96.72684999999998, 74.67984999999996 96.72684999999998 C 77.31334999999996 96.64749999999998, 76.28869999999995 96.72684999999998, 74.67984999999996 96.72684999999998 C 71.51734999999995 96.72684999999998, 66.08819999999994 96.42209999999999, 61.706699999999955 94.62349999999999 C 57.505749999999956 92.40859999999999, 63.076349999999955 85.8536, 63.076349999999955 85.8536 C 60.08174999999996 88.63085, 58.50394999999996 91.14015, 57.854199999999956 92.33500000000001 C 57.850749999999955 92.33155000000001, 57.84844999999995 92.3304, 57.84499999999995 92.3281 Q 56.71339999999995 94.11175, 56.12804999999995 96.0978 C 57.84499999999995 92.3281, 56.71339999999995 94.11175, 56.12804999999995 96.0978 Q 51.91329999999995 91.70365000000001, 45.35714999999995 91.7025 C 56.12804999999995 96.0978, 51.91329999999995 91.70365000000001, 45.35714999999995 91.7025 C 43.53669999999995 91.7025, 41.537999999999954 92.04175000000001, 39.39669999999995 92.9077 Q 41.137799999999956 83.18215000000001, 31.52379999999995 80.67745000000001 C 39.39669999999995 92.9077, 41.137799999999956 83.18215000000001, 31.52379999999995 80.67745000000001 Q 33.87899999999995 72.39860000000002, 24.691649999999953 69.46380000000002 C 31.52379999999995 80.67745000000001, 33.87899999999995 72.39860000000002, 24.691649999999953 69.46380000000002 Q 31.638799999999954 60.539800000000014, 17.482299999999952 53.24420000000001 C 24.691649999999953 69.46380000000002, 31.638799999999954 60.539800000000014, 17.482299999999952 53.24420000000001 Q 19.529299999999953 52.380550000000014, 23.05519999999995 52.380550000000014 C 17.482299999999952 53.24420000000001, 19.529299999999953 52.380550000000014, 23.05519999999995 52.380550000000014 C 26.071649999999952 52.380550000000014, 30.17254999999995 53.01880000000001, 34.99909999999995 55.36480000000001 L 35.01174999999995 55.41080000000001 Q 38.221399999999946 56.65395000000001, 43.415949999999945 60.83535000000001 C 35.01174999999995 55.41080000000001, 38.221399999999946 56.65395000000001, 43.415949999999945 60.83535000000001 Q 41.98994999999994 58.52500000000001, 39.57609999999995 56.317000000000014 C 43.415949999999945 60.83535000000001, 41.98994999999994 58.52500000000001, 39.57609999999995 56.317000000000014 C 39.80839999999995 56.169800000000016, 40.047599999999946 56.032950000000014, 40.29714999999995 55.915650000000014 C 40.718049999999955 55.71670000000002, 41.165399999999956 55.552250000000015, 41.621949999999956 55.43610000000001 C 42.49709999999995 56.15485000000001, 43.19974999999995 56.80805000000001, 43.76094999999995 57.38535000000002 C 44.76834999999995 58.421500000000016, 45.37669999999996 59.27135000000001, 45.733199999999954 59.86245000000001 C 45.505499999999955 60.329350000000005, 44.15884999999996 63.36880000000001, 46.26794999999996 65.72400000000002 Q 45.57564999999997 63.32510000000001, 47.591599999999964 62.85360000000001 C 46.26794999999996 65.72400000000002, 45.57564999999997 63.32510000000001, 47.591599999999964 62.85360000000001 L 48.601299999999966 62.812200000000004 C 52.395149999999965 62.658100000000005, 56.069399999999966 60.50070000000001, 56.74674999999996 60.08440000000001 C 59.44119999999997 58.6837, 61.16619999999997 56.91615, 61.87574999999996 54.828900000000004 C 61.97694999999997 54.533350000000006, 62.04824999999996 54.25160000000001, 62.09884999999996 53.981350000000006 C 62.14369999999997 53.90775000000001, 62.18854999999997 53.80310000000001, 62.23109999999997 53.65935000000001 C 62.87624999999997 51.52035000000001, 65.94444999999996 51.929750000000006, 65.94444999999996 51.929750000000006 L 60.77864999999997 49.7321 Q 60.780949999999976 49.74705000000001, 60.78324999999997 49.7689 C 60.77864999999997 49.7321, 60.780949999999976 49.74705000000001, 60.78324999999997 49.7689 C 60.101299999999966 49.038650000000004, 59.42049999999996 48.347500000000004, 58.74429999999997 47.688550000000006 C 60.433649999999965 47.6, 62.050549999999966 48.064600000000006, 63.58234999999996 48.76265000000001 C 65.11299999999997 49.4607, 66.68964999999996 49.98165, 68.32954999999997 50.37035 C 69.69114999999996 50.69465, 71.06884999999996 50.94650000000001, 72.45229999999997 51.152350000000006 C 68.59059999999997 52.78880000000001, 67.72464999999997 55.248650000000005, 67.72464999999997 55.248650000000005 C 75.08464999999997 50.572750000000006, 79.82149999999997 51.79520000000001, 81.26014999999997 52.367900000000006 C 82.14449999999997 52.941750000000006, 83.13579999999996 53.45580000000001, 83.80969999999996 53.69615000000001 Q 87.84159999999996 56.44465000000001, 88.48329999999997 59.867050000000006 C 83.80969999999996 53.69615000000001, 87.84159999999996 56.44465000000001, 88.48329999999997 59.867050000000006 Q 89.78509999999997 61.5932, 91.59519999999998 62.405100000000004 C 88.48329999999997 59.867050000000006, 89.78509999999997 61.5932, 91.59519999999998 62.405100000000004 C 91.28354999999998 63.40560000000001, 91.73204999999997 64.66025, 91.73204999999997 64.66025 C 92.00459999999997 63.78165, 93.14309999999998 63.08820000000001, 93.77444999999997 62.7616 C 94.86694999999997 62.858200000000004, 96.34124999999996 63.0422, 97.40729999999998 63.373400000000004 C 96.48844999999997 64.65795, 97.09794999999997 66.64630000000001, 97.09794999999997 66.64630000000001 C 97.60164999999996 65.18465, 98.99199999999998 64.39805000000001, 99.78549999999997 64.0565 C 100.61924999999997 64.14505, 101.71174999999997 64.29570000000001, 102.49489999999996 64.53605000000002 C 101.87504999999996 66.72680000000001, 105.34459999999996 68.74620000000002, 105.34459999999996 68.74620000000002 C 103.48159999999996 66.37720000000002, 105.19969999999995 65.03630000000001, 105.94374999999997 64.60275000000001 C 107.40424999999995 64.07605000000001, 108.81529999999997 62.939850000000014, 108.02064999999996 60.474250000000005 Q 112.30554999999995 62.7823, 112.59534999999995 65.51815 C 108.02064999999996 60.474250000000005, 112.30554999999995 62.7823, 112.59534999999995 65.51815 C 112.59419999999999 65.53195, 120.64189999999999 67.10055, 118.47185 78.23599999999999 Z M 43.4148 60.848 Q 43.39985 60.853750000000005, 43.3803 60.8618 C 43.4148 60.848, 43.39985 60.853750000000005, 43.3803 60.8618 C 43.39294999999999 60.8572, 43.400999999999996 60.85375, 43.4148 60.848 Z M 42.9916 61.01705 C 42.92145 61.043499999999995, 42.93639999999999 61.0389, 42.9916 61.01705 L 42.9916 61.01705 Z M 43.258399999999995 60.91125 C 43.1204 60.9653, 43.0376 60.9998, 42.9916 61.01705 C 43.0537 60.99175, 43.1641 60.9469, 43.258399999999995 60.91125 Z" />
		<path d="M 64.85425 63.228500000000004 Q 71.99459999999999 69.26140000000001, 80.24584999999999 65.90455 C 64.85425 63.228500000000004, 71.99459999999999 69.26140000000001, 80.24584999999999 65.90455 Q 73.67935 70.6644, 65.33725 66.6095 C 80.24584999999999 65.90455, 73.67935 70.6644, 65.33725 66.6095 Q 62.358749999999986 65.54230000000001, 60.40489999999999 67.13735 C 65.33725 66.6095, 62.358749999999986 65.54230000000001, 60.40489999999999 67.13735 C 60.4049 67.13735, 63.49954999999999 65.38589999999999, 64.85425 63.228500000000004 Z" />
		<path d="M 71.51504999999999 77.56325 Q 68.60669999999999 79.41935, 69.70495 83.7675 C 71.51504999999999 77.56325, 68.60669999999999 79.41935, 69.70495 83.7675 Q 70.33285 78.93865, 73.64484999999999 79.54814999999999 C 69.70495 83.7675, 70.33285 78.93865, 73.64484999999999 79.54814999999999 L 71.51504999999999 77.56325 Z" />
		<path d="M 69.3795 59.4887 Q 72.35799999999999 55.88575, 76.97409999999999 56.3837 C 69.3795 59.4887, 72.35799999999999 55.88575, 76.97409999999999 56.3837 Q 81.45334999999999 56.70915, 82.26409999999998 60.118900000000004 C 76.97409999999999 56.3837, 81.45334999999999 56.70915, 82.26409999999998 60.118900000000004 Q 80.33094999999999 60.5352, 79.29249999999998 60.9101 C 82.26409999999998 60.118900000000004, 80.33094999999999 60.5352, 79.29249999999998 60.9101 C 79.29135 60.91125, 73.43554999999999 63.15145, 69.3795 59.4887 Z" data-id="eyes" fill="gray" />
		<circle cx="75.8563" cy="58.96315" r="2.6495999999999995" fill="white" />
		<path d="M 83.9615 59.119550000000004 C 83.96724999999999 59.17475, 83.96955 59.2288, 83.9707 59.28285 C 82.90924999999999 55.86965000000001, 79.23845 54.68285, 77.14085 54.51955 C 76.79585 54.48505, 76.4451 54.465500000000006, 76.09895 54.465500000000006 C 71.16199999999999 54.465500000000006, 68.06734999999999 58.13975000000001, 67.9374 58.296150000000004 L 66.7966 59.676150000000014 L 68.12599999999999 60.87560000000001 C 69.99705 62.56495000000001, 72.4592 63.457350000000005, 75.2468 63.457350000000005 C 77.70895 63.457350000000005, 79.67429999999999 62.760450000000006, 79.93305 62.665000000000006 C 80.18145 62.575300000000006, 80.50689999999999 62.479850000000006, 80.8496 62.38555 C 83.25769999999999 61.97155000000001, 87.79905000000001 62.6972, 87.79905000000001 62.6972 C 84.16619999999999 61.747299999999996, 83.9615 59.119550000000004, 83.9615 59.119550000000004 Z M 76.53594999999999 61.51384999999999 C 76.21509999999999 61.54834999999999, 75.87814999999999 61.57134999999999, 75.52509999999998 61.580549999999995 C 74.21984999999998 61.41495, 73.20669999999998 60.312099999999994, 73.20669999999998 58.964299999999994 C 73.20669999999998 57.7016, 74.09334999999999 56.648199999999996, 75.27554999999998 56.382549999999995 C 75.53889999999998 56.35609999999999, 75.81029999999998 56.33769999999999, 76.08744999999999 56.33769999999999 C 77.441 56.45729999999999, 78.50704999999999 57.58084999999999, 78.50704999999999 58.96314999999999 C 78.50704999999999 60.18789999999999, 77.66869999999999 61.2114, 76.53594999999999 61.51384999999999 Z M 72.53625 57.15534999999999 C 72.2407 57.69584999999999, 72.05785 58.30535, 72.05785 58.96315 C 72.05785 59.85555, 72.37985 60.667449999999995, 72.89735 61.31605 C 71.69330000000001 61.0274, 70.47085 60.47539999999999, 69.37835 59.4887 C 69.3795 59.4887, 70.54445 58.08915, 72.53625 57.15534999999999 Z M 79.29135 60.91125 Q 79.19935 60.9446, 79.05905 60.9906 C 79.29135 60.91125, 79.19935 60.9446, 79.05905 60.9906 C 79.4328 60.40295, 79.6582 59.71065, 79.6582 58.963150000000006 C 79.6582 58.185750000000006, 79.42129999999999 57.463550000000005, 79.0188 56.86095 C 80.31484999999999 57.337050000000005, 81.82365 58.274300000000004, 82.26294999999999 60.118900000000004 C 82.26294999999999 60.12005, 80.32979999999999 60.53635, 79.29135 60.91125 Z" data-id="pupils" fill="black" />
		<path d="M 75.88504999999999 56.74135 Q 77.87684999999999 58.868849999999995, 75.97129999999999 61.18495 C 75.88504999999999 56.74135, 77.87684999999999 58.868849999999995, 75.97129999999999 61.18495 Q 73.65865 59.05515, 75.88504999999999 56.74135 C 75.97129999999999 61.18495, 73.65865 59.05515, 75.88504999999999 56.74135 Z" />
	</g>
</svg>