<svg xmlns="http://www.w3.org/2000/svg" viewbox="0 0 128 128" width="128" height="128">
	<g data-id="emma_hat" fill="black">
		<path d="M 102.15639 90.40086 C 99.83817 86.73885, 98.85159 83.46402, 98.85159 83.46402 L 98.84835000000001 83.46726000000001 C 97.92414 60.25995000000001, 86.04954000000001 63.011520000000004, 74.5767 64.62342000000001 C 62.812259999999995 66.27663000000001, 56.340360000000004 75.60621000000002, 56.340360000000004 88.53705000000001 C 56.340360000000004 101.46789000000001, 65.97045 111.95253000000002, 77.85072 111.95253000000002 C 78.37398 111.95253000000002, 78.18281999999999 111.95901000000003, 78.92316 111.95253000000002 L 79.35813 111.95253000000002 C 85.97583 111.62529000000004, 93.75183 109.76877000000003, 93.75183 109.76877000000003 C 96.8922 108.99603000000002, 96.55281000000001 105.71229000000002, 96.55281000000001 105.71229000000002 C 96.55281000000001 104.64957000000001, 97.18542000000001 102.20823000000003, 97.18542000000001 102.20823000000003 L 97.72974 100.74699000000003 L 97.72974 97.48998000000002 C 98.29107 94.71087000000003, 99.94833000000001 94.36176000000003, 99.94833000000001 94.36176000000003 C 104.10363000000001 93.26421, 102.15639 90.40086, 102.15639 90.40086 Z" fill="white" />
		<path d="M 69.65109000000001 93.53799000000001 C 67.12956000000001 85.50198, 58.146660000000004 83.02095000000001, 58.146660000000004 83.02095000000001 C 52.36164000000001 80.95626, 55.343250000000005 86.34114000000001, 55.343250000000005 86.34114000000001 C 56.84742000000001 89.07651000000001, 56.44566000000001 92.79198000000001, 56.44566000000001 92.79198000000001 C 56.16459000000001 97.52400000000002, 60.35067000000001 100.08603000000001, 60.35067000000001 100.08603000000001 C 60.35067000000001 100.08603000000001, 64.10826 102.49173, 65.73960000000001 99.85032000000001" fill="white" />
		<path d="M 106.04682000000001 87.87933 C 104.60907 85.59918, 103.77639 83.49966, 103.45077 82.59570000000001 C 102.65292000000001 66.69297, 96.4062 58.95828, 84.36798 58.95828 C 81.37746000000001 58.95828, 78.32700000000001 59.39892, 75.37617 59.82498 C 74.89422 59.894639999999995, 74.41227 59.964299999999994, 73.93113 60.03234 C 60.22107 61.95770999999999, 51.70392 72.87894, 51.70392 88.53705 C 51.70392 89.57061, 51.760619999999996 90.59121, 51.86268 91.59561 L 47.2473 91.59561 C 47.2473 91.59561, 46.338480000000004 102.53465999999999, 59.60466 110.64923999999999 L 60.176520000000004 109.18637999999999 C 64.83402000000001 113.77907999999998, 71.04267 116.58815999999999, 77.85153000000001 116.58815999999999 L 78.18687 116.58978 L 78.43311000000001 116.59140000000001 C 78.54246 116.59140000000001, 78.69636000000001 116.59059, 78.96204000000002 116.58816000000002 L 79.47477 116.58816000000002 L 79.58979000000001 116.58168 C 86.5566 116.23824, 94.4946 114.35823, 94.82913 114.27804 C 99.30843000000002 113.17563000000001, 101.37393000000002 109.19529, 101.19816000000002 105.66855000000001 C 101.24676000000001 105.26274000000001, 101.42658000000002 104.36850000000003, 101.62017000000002 103.58928000000002 L 102.07620000000001 102.36294000000001 L 102.36537000000001 101.57967000000002 L 102.36537000000001 98.44497000000001 C 105.11613 97.37982000000001, 106.3125 95.59620000000001, 106.83333 94.20462 C 107.73405 91.79001000000001, 107.02853999999999 89.37216000000001, 106.04682000000001 87.87933 Z M 99.94914000000001 94.36176 C 99.94914000000001 94.36176, 98.29188 94.71168, 97.73055000000001 97.48998 L 97.73055000000001 100.74699 L 97.18623000000001 102.20823 C 97.18623000000001 102.20823, 96.55362000000001 104.64957000000001, 96.55362000000001 105.71229 C 96.55362000000001 105.71229, 96.89301 108.99603, 93.75264 109.76877 C 93.75264 109.76877, 85.97664 111.62529, 79.35894 111.95253 L 78.92397 111.95253 C 78.67773 111.95495999999999, 78.53436 111.95577, 78.43311000000001 111.95577 C 78.23223 111.95577, 78.20064 111.95253, 77.85153000000001 111.95253 C 71.59995 111.95253, 65.97288 109.04625, 62.04276000000001 104.40981 L 62.75556 102.58326 C 62.990460000000006 102.61403999999999, 63.23022 102.63104999999999, 63.47322 102.63104999999999 C 63.811800000000005 102.63104999999999, 64.15605000000001 102.59864999999999, 64.49625 102.51926999999999 C 65.57030999999999 102.27545999999998, 66.45483000000002 101.63313, 67.05504 100.66031999999998 C 67.50378 99.93455999999999, 67.27698000000001 98.98280999999999, 66.55203000000002 98.53325999999998 C 65.82465000000002 98.08451999999998, 64.87452000000002 98.31131999999998, 64.42416000000001 99.03626999999997 C 64.21680000000002 99.37322999999998, 64.00053000000003 99.46151999999998, 63.814230000000016 99.50525999999998 C 62.99856000000001 99.69560999999997, 61.68636000000002 99.09782999999997, 61.16472000000002 98.76977999999997 C 61.02540000000002 98.68310999999997, 57.76839000000002 96.59897999999997, 57.982230000000015 92.95640999999998 C 58.00086000000001 92.78549999999998, 58.41720000000002 88.72091999999998, 56.69757000000001 85.59512999999998 C 56.62710000000001 85.46471999999999, 56.55987000000001 85.32377999999999, 56.49588000000002 85.17878999999999 C 56.52747000000002 84.84182999999999, 56.56473000000001 84.50810999999999, 56.606040000000014 84.17600999999999 C 56.86686000000002 84.2319, 57.19653000000002 84.32099999999998, 57.62745000000001 84.47570999999999 L 57.73518000000001 84.50972999999999 C 57.791880000000006 84.52512, 61.71714000000001 85.64616, 64.86318 88.72091999999999 L 65.80926000000001 90.44378999999999 C 65.80926000000001 90.44378999999999, 68.93667000000002 95.18552999999999, 70.38576000000002 101.04344999999999 C 70.38576000000002 101.04344999999999, 71.39421000000002 92.08161, 72.93402000000002 87.10334999999998 L 73.85580000000002 94.92308999999997 C 73.85580000000002 94.92308999999997, 76.92246000000003 81.35072999999997, 79.47639000000002 80.09927999999998 L 75.16638000000003 76.68188999999998 L 63.00504000000003 83.48183999999998 C 60.82533000000003 82.22471999999998, 58.999590000000026 81.65771999999998, 58.618080000000035 81.54674999999997 C 58.29165000000003 81.42848999999998, 57.75624000000003 81.24542999999998, 57.13983000000003 81.12311999999999 C 59.198850000000036 72.12725999999999, 65.20581000000003 65.93804999999998, 74.57670000000003 64.62179999999998 C 77.89851000000003 64.15523999999999, 81.25434000000003 63.592289999999984, 84.36798000000003 63.592289999999984 C 92.00871000000004 63.592289999999984, 98.19306000000003 66.97808999999998, 98.84835000000002 83.46482999999999 L 98.85159000000003 83.46158999999999 C 98.85159000000003 83.46158999999999, 99.83817000000003 86.73722999999998, 102.15639000000003 90.39842999999999 C 102.15639 90.40086, 104.10363000000001 93.26421, 99.94914000000001 94.36176 Z" />
		<path d="M 92.3238 88.16040000000001 C 91.04238000000001 87.72381, 89.30817 87.16653000000001, 86.88060000000002 86.50800000000001 C 86.88060000000002 86.50800000000001, 89.45478000000001 85.89888, 93.25449 84.51621 L 93.25773000000001 84.51459 L 97.18542000000002 82.41993000000001 C 97.18542000000002 82.41993000000001, 95.81895000000002 79.88382, 92.83491000000002 81.1053 C 92.83491000000002 81.1053, 91.82079000000003 81.58482000000001, 89.32437000000002 82.46691 L 89.32518000000002 82.47177 C 85.10184000000002 83.53935, 84.22866000000002 85.84947, 84.22866000000002 85.84947 C 82.13319000000001 90.94761, 88.70067000000002 90.48996, 88.70067000000002 90.48996 C 91.21248000000003 90.29393999999999, 95.09481000000002 89.93106, 95.09481000000002 89.93106 C 93.95676 89.51715, 93.04956000000001 88.88454, 92.3238 88.16040000000001 Z" fill="#ed4187" />
		<path d="M 97.47216 82.68561000000001 C 97.28505000000001 82.30248, 96.82335 82.14372000000002, 96.43941 82.32921 C 94.81455 83.12139, 93.00744 83.78478000000001, 92.99123999999999 83.79126000000001 C 89.28549 85.13910000000001, 86.72913 85.74984000000002, 86.70402 85.75632000000002 C 86.35815 85.83894000000002, 86.11353 86.14269000000002, 86.10948 86.49504000000002 C 86.10300000000001 86.84820000000003, 86.33789999999999 87.16086000000003, 86.6781 87.25482000000002 C 90.09873 88.18389000000003, 92.12129999999999 88.90155000000003, 93.4578 89.37540000000001 C 94.65741 89.80146000000002, 95.31999 90.03636000000002, 95.94612000000001 90.03636000000002 C 96.37299 90.03636000000002, 96.71886 89.69049000000001, 96.71886 89.26362000000003 C 96.71886 88.83756000000002, 96.37298999999999 88.49088000000003, 95.94612000000001 88.49088000000003 C 95.84001 88.49088000000003, 95.70474 88.46739000000004, 95.55165000000001 88.43175000000004 C 95.75415000000001 87.91416000000004, 95.88213 87.24186000000005, 95.88213 86.49747000000004 C 95.88213 85.69962000000004, 95.73957000000001 84.97710000000004, 95.50953000000001 84.44736000000003 C 96.01821000000001 84.23028000000002, 96.57063000000002 83.98566000000004, 97.11414 83.71998000000004 C 97.4997 83.53125, 97.65846 83.06955, 97.47216 82.68561000000001 Z M 93.3768 85.29381000000001 C 93.30228000000001 85.66236, 93.25854000000001 86.06655, 93.25854000000001 86.49666 C 93.25854000000001 86.93001000000001, 93.30309000000001 87.33825, 93.37842 87.70761000000002 C 92.47203 87.39009000000001, 91.30401 86.99076000000001, 89.72288999999999 86.51529000000002 C 90.71838000000001 86.21073000000001, 91.96092 85.80654, 93.3768 85.29381000000001 Z" />
		<path d="M 90.81963 100.01799000000001 C 90.81963 100.01799000000001, 94.12200000000001 97.38468, 98.29188 96.88086 C 98.29188 96.88086, 98.48223 97.38063000000001, 98.96256000000001 97.54505999999999 C 98.96256000000001 97.54505999999999, 99.78957000000001 98.76492, 98.59806 99.65835 C 98.59806 99.65835, 96.57306000000001 99.65429999999999, 95.19282000000001 99.57410999999999 L 90.81963 100.01799000000001 Z" fill="#af2351" />
		<path d="M 98.29188 96.88086 C 98.29188 96.88086, 98.48223 97.38063000000001, 98.96256000000001 97.54505999999999 C 98.96256000000001 97.54505999999999, 99.78957000000001 98.76492, 98.59806 99.65835 C 98.59806 99.65835, 96.57306000000001 99.65429999999999, 95.19282000000001 99.57410999999999 L 90.82044000000002 100.01718 C 90.81963 100.01799000000001, 94.12200000000001 97.38549, 98.29188 96.88086 M 98.29269000000001 96.10812000000001 C 98.26191000000001 96.10812000000001, 98.23032 96.10974, 98.19954000000001 96.11298000000001 C 93.86280000000001 96.63786, 90.47943000000001 99.30114, 90.33768 99.41454 C 90.06957000000001 99.62837999999999, 89.97480000000002 99.99288, 90.10440000000001 100.3104 C 90.22347000000002 100.60281, 90.50778000000001 100.79073, 90.82044000000002 100.79073 C 90.84474000000002 100.79073, 90.87147000000002 100.78992, 90.89739000000002 100.78748999999999 L 95.21145000000001 100.34928 C 96.59169 100.42623, 98.51463000000001 100.43271, 98.59725 100.43271 C 98.59725 100.43271, 98.59806 100.43271, 98.59887 100.43271 C 98.76735 100.43271, 98.92935 100.37844, 99.06299999999999 100.27799999999999 C 100.36791 99.2979, 100.10141999999999 97.848, 99.60327 97.11251999999999 C 99.50849999999998 96.97319999999999, 99.37241999999999 96.86789999999999, 99.21446999999999 96.81524999999999 C 99.10188 96.77555999999998, 99.0144 96.60788999999998, 99.0144 96.60546 C 98.89857 96.30333, 98.60859 96.10812000000001, 98.29269000000001 96.10812000000001 L 98.29269000000001 96.10812000000001 Z" />
		<path d="M 98.50734000000001 102.1167 C 98.50734000000001 102.1167, 99.24120000000002 105.27246, 96.67755000000001 104.85045 C 96.67755000000001 104.85045, 92.06055 103.33413, 90.5661 100.17999 C 90.56691000000001 100.18080000000002, 97.12548000000001 101.27592, 98.50734000000001 102.1167 Z" fill="#af2351" />
		<path d="M 97.12224 105.27651000000002 C 96.96834000000001 105.27651000000002, 96.79905000000001 105.26112, 96.61518 105.23115 C 96.36246 105.15339, 91.76571 103.61196000000001, 90.21699 100.34604 C 90.15624 100.21643999999999, 90.17163000000001 100.06173, 90.2583 99.94752 C 90.34416 99.83330999999998, 90.48915 99.77336999999999, 90.63009 99.80009999999999 C 90.90063 99.84465, 97.28019 100.91789999999999, 98.70822 101.78621999999999 C 98.79813 101.84048999999999, 98.86131 101.92877999999999, 98.8848 102.02921999999998 C 98.901 102.09806999999998, 99.26874000000001 103.72859999999999, 98.53164 104.65605 C 98.30646 104.93874000000001, 97.88040000000001 105.27651000000002, 97.12224 105.27651000000002 Z M 91.30968 100.70163 C 93.00501 103.20939, 96.75936 104.46894, 96.79905000000001 104.48352 C 96.87924000000001 104.49162, 97.00641 104.50215, 97.12224 104.50215 C 97.48755 104.50215, 97.74918000000001 104.39523, 97.92495000000001 104.17572 C 98.29269 103.71402, 98.23923 102.82869000000001, 98.16309 102.36942 C 97.01694 101.80242000000001, 93.37761 101.07261000000001, 91.30968 100.70163 Z" />
		<path d="M 117.26289000000001 43.77078 C 117.65412000000002 41.96529, 117.44352000000002 40.42143, 116.63190000000002 39.171600000000005 C 114.48783000000002 35.86275, 108.80082000000002 35.56386, 99.72963000000001 38.28384 C 95.59134000000002 39.52314, 90.90792 41.35536, 85.91589 43.65252 C 77.48703 21.516840000000002, 76.79124 3.94632, 76.71591000000001 3.25701 C 76.65597000000001 2.88117, 76.53366000000001 2.5385400000000002, 76.33764000000001 2.23884 C 73.34145000000001 -2.39112, 55.048410000000004 3.98034, 35.48610000000001 16.46973 C 15.924600000000002 28.955070000000003, 2.49804 42.83037, 5.50152 47.45790000000001 C 5.719410000000001 47.793240000000004, 6.02559 48.06459000000001, 6.3981900000000005 48.28491 L 6.36498 48.30597000000001 C 6.36498 48.30597000000001, 21.75822 54.554310000000015, 38.66778 74.12310000000001 C 29.663009999999996 82.00278, 23.813190000000002 89.18343000000002, 22.73832 94.13982000000001 C 22.345470000000002 95.94288000000002, 22.5585 97.49322000000001, 23.3685 98.739 C 25.513379999999998 102.04866000000001, 31.200390000000002 102.34674000000001, 40.26996 99.62919000000001 C 50.61608999999999 96.52770000000002, 64.32534 89.78607000000001, 77.88231 81.12798000000002 C 99.60003 67.26645, 115.42581000000001 52.254720000000006, 117.26289000000001 43.77078 Z" fill="#6a4c49" />
		<path d="M 85.50036 59.72211 L 86.79393 58.875659999999996 C 86.71455 58.75497, 78.83324999999999 46.40085, 69.94836 10.008359999999996 C 74.55564 5.252039999999996, 76.33845 2.239649999999996, 76.33845 2.239649999999996 C 75.67506 1.215, 74.26161 0.7290000000000001, 72.25362 0.7290000000000001 C 65.18313 0.7290000000000001, 50.72058 6.744060000000001, 35.48529 16.46973 C 15.924600000000002 28.955070000000003, 2.49804 42.83037, 5.50152 47.45790000000001 C 11.880270000000001 45.19800000000001, 17.720370000000003 42.863580000000006, 23.07366 40.502430000000004 C 47.10474 63.58176, 57.183569999999996 79.03494, 57.2832 79.19046 L 58.582440000000005 78.35211 C 58.48281 78.19902, 48.44529 62.80335, 24.597269999999998 39.82608 C 35.3808 34.97174999999999, 44.10207 30.017789999999994, 51.09075 25.366769999999995 C 63.406800000000004 53.73783000000001, 74.56212000000001 69.82524, 74.67309 69.98562000000001 L 75.93912 69.09948000000001 C 75.82815000000001 68.94072000000001, 64.69308 52.884090000000015, 52.393229999999996 24.488730000000004 C 59.648399999999995 19.547730000000005, 64.93932 14.985810000000004, 68.67260999999999 11.294640000000003 C 77.53968 47.29104, 85.17474 59.22558, 85.50036 59.72211 Z M 60.67224 16.3944 C 51.17418 24.17688, 34.14879 35.45694, 6.676830000000001 45.39564 C 6.687360000000001 45.33732, 6.69789 45.28143, 6.710040000000001 45.22797 C 7.7792400000000015 40.292640000000006, 18.293040000000005 29.276639999999993, 36.31716 17.7714 C 50.83803 8.50257, 65.27871 2.27448, 72.25362 2.27448 C 73.08063 2.27448, 73.76832 2.37168, 74.26566 2.5506900000000003 C 72.71451 4.71906, 68.59971 9.89901, 60.67224 16.3944 Z" fill="#3a2a2a" />
		<path d="M 63.671670000000006 6.169770000000001 C 69.35139000000001 4.23225, 72.25767 4.163400000000001, 73.29042 4.3650899999999995 C 74.09394 8.80227, 74.86344 24.639390000000002, 82.58436 44.92179000000001 L 83.94030000000001 48.48498000000001 L 87.40548000000001 46.89171000000001 C 91.25865000000002 45.11862000000001, 94.87206000000002 43.65252, 98.14446000000001 42.533910000000006 C 99.03870000000002 42.229350000000004, 99.91674000000002 41.94666, 100.75428000000001 41.69637000000001 C 108.9531 39.237210000000005, 112.82004 39.843900000000005, 113.64462 41.113980000000005 C 113.91678000000002 41.535180000000004, 113.96376000000001 42.17508000000001, 113.78231999999998 43.01586 C 113.43726 44.60508000000001, 111.65444999999998 49.234230000000004, 102.57434999999998 57.847770000000004 C 95.63588999999999 64.43145000000001, 86.43105 71.44362000000001, 75.96503999999999 78.12612 C 63.96407999999998 85.78872000000001, 51.54596999999999 92.07108000000001, 41.892389999999985 95.36535 C 40.987619999999986 95.67477000000001, 40.09742999999999 95.95989, 39.247739999999986 96.21585 C 31.047299999999982 98.67258000000001, 27.179549999999985 98.0667, 26.359019999999987 96.80067 C 26.086859999999987 96.37866, 26.039069999999985 95.73714, 26.220509999999987 94.89797999999999 C 27.08396999999999 90.91844999999999, 32.615459999999985 84.15576, 41.014349999999986 76.80582 L 43.68005999999998 74.47302 L 41.365079999999985 71.79273 C 29.001240000000003 57.48732, 19.48374 53.43327, 12.717 48.44205 L 8.70588 45.51147 C 9.02016 44.30781, 10.66041 41.195789999999995, 15.9813 35.99478 C 21.39858 30.701429999999995, 29.006099999999996 24.833789999999997, 37.40256 19.472399999999997 C 46.817190000000004 13.46382, 56.14434 8.739090000000001, 63.671670000000006 6.169770000000001 L 63.671670000000006 6.169770000000001 M 62.52147 2.79774 C 55.0719 5.33952, 45.44262 10.11204, 35.48610000000001 16.46973 C 15.924600000000002 28.955070000000003, 2.49804 42.83037, 5.50152 47.45790000000001 C 5.719410000000001 47.793240000000004, 6.02559 48.06459000000001, 6.3981900000000005 48.28491 L 6.36498 48.30597000000001 C 6.36498 48.30597000000001, 21.75822 54.554310000000015, 38.66778 74.12310000000001 C 29.663009999999996 82.00278, 23.813190000000002 89.18343000000002, 22.73832 94.13982000000001 C 22.345470000000002 95.94288000000002, 22.5585 97.49322000000001, 23.3685 98.739 C 25.513379999999998 102.04866000000001, 31.200390000000002 102.34674000000001, 40.26996 99.62919000000001 C 41.169869999999996 99.36027000000001, 42.09408 99.06219000000002, 43.04259 98.739 C 52.99911 95.34024000000001, 65.50227 89.03358000000001, 77.88150000000002 81.12798000000001 C 99.59922 67.26645, 115.42500000000001 52.254720000000006, 117.26127000000001 43.77078000000001 C 117.6525 41.96529, 117.44190000000002 40.42143000000001, 116.63028000000001 39.171600000000005 C 114.48621000000001 35.862750000000005, 108.7992 35.563860000000005, 99.72801 38.28384000000001 C 98.84025 38.549520000000015, 97.92657 38.84193000000001, 96.99264000000001 39.16188000000001 C 93.56553000000001 40.329900000000016, 89.83548 41.84865000000001, 85.91427000000002 43.651710000000016 C 77.48703 21.516840000000002, 76.79124 3.94632, 76.71591000000001 3.25701 C 76.65597000000001 2.88117, 76.53366000000001 2.5385400000000002, 76.33764000000001 2.23884 C 74.86587000000002 -0.03402, 69.70617 0.34506000000000003, 62.52147 2.79774 L 62.52147 2.79774 Z" />
		<path d="M 69.96132 53.19351000000001 C 70.65225 53.886060000000015, 70.65063 55.00872000000001, 69.95808 55.69884000000001 L 58.423680000000004 67.19193000000001 C 57.730320000000006 67.88367000000001, 56.608470000000004 67.88286000000001, 55.918350000000004 67.18950000000001 L 39.18699 50.399820000000005 C 38.49525 49.70727000000001, 38.49768 48.584610000000005, 39.19023 47.894490000000005 L 50.724630000000005 36.39978000000001 C 51.41799 35.70966000000001, 52.539030000000004 35.71128, 53.22996 36.40545 L 69.96132 53.19351000000001 Z" fill="white" />
		<path d="M 57.17223 68.86863 C 56.38734000000001 68.86863, 55.651050000000005 68.56245, 55.097010000000004 68.0076 L 38.366460000000004 51.21792 C 37.813230000000004 50.663880000000006, 37.51029 49.92678, 37.511100000000006 49.143510000000006 C 37.51191 48.360240000000005, 37.818090000000005 47.62476, 38.37294000000001 47.072340000000004 L 49.906530000000004 35.57763 C 51.018660000000004 34.471979999999995, 52.94646 34.47765, 54.05211 35.58573 L 70.78266 52.3746 C 71.33589 52.930260000000004, 71.63883 53.66655, 71.63883 54.44901000000001 C 71.63721000000001 55.23309000000001, 71.33103000000001 55.967760000000006, 70.77699 56.52018000000001 L 59.24259 68.01327000000002 C 58.68855 68.56407000000002, 57.953070000000004 68.86863, 57.17223 68.86863 Z M 51.97527 37.04211 C 51.81246 37.04211, 51.65856000000001 37.106100000000005, 51.541920000000005 37.22112 L 40.00914 48.715830000000004 C 39.892500000000005 48.83166000000001, 39.82932 48.984750000000005, 39.82932 49.14837 C 39.82932 49.31199, 39.892500000000005 49.4667, 40.00752 49.58172 L 56.73888 66.37140000000001 C 56.96892000000001 66.60225, 57.373110000000004 66.60306, 57.60396 66.37140000000001 L 69.13836 54.878310000000006 C 69.25500000000001 54.76329000000001, 69.31899 54.60939000000001, 69.31899 54.44577 C 69.31899 54.28215, 69.25581 54.12744, 69.13917000000001 54.011610000000005 L 52.41024 37.22274 C 52.294410000000006 37.10691, 52.139700000000005 37.04211, 51.97527 37.04211 Z"  />
		<path d="M 45.060300000000005 77.29101000000001 C 45.060300000000005 77.29101000000001, 37.24056 82.92618, 23.617980000000003 85.51818 C 23.617980000000003 85.51818, 14.544360000000003 87.17463000000001, 12.723480000000002 95.7582 C 12.723480000000002 95.7582, 11.109960000000001 100.56474, 11.357820000000002 108.88668 C 11.357820000000002 108.88668, 3.875850000000002 98.79894, 6.150330000000002 87.62418000000001 C 6.150330000000002 87.62418000000001, 7.2381600000000015 78.65262000000001, 19.802880000000002 77.59395 C 19.802880000000002 77.59395, 32.14809 77.42061000000001, 41.689890000000005 74.43090000000001 L 45.060300000000005 77.29101000000001 Z" fill="#b7494f" />
		<path d="M 13.04991 113.76207000000001 L 10.116900000000001 109.80684000000001 C 9.79533 109.37349, 2.257470000000001 99.04032, 4.63401 87.33015 C 4.8211200000000005 86.23584000000001, 6.77403 77.14116, 19.674090000000003 76.05414 L 19.78263 76.04847000000001 C 19.903320000000004 76.04685, 32.020920000000004 75.84111, 41.229000000000006 72.9567 L 42.04224000000001 72.70155 L 47.56644000000001 77.39064 L 45.96426 78.54570000000001 C 45.63297000000001 78.78303000000001, 37.707930000000005 84.4101, 23.90715 87.03612000000001 C 23.571 87.10011, 15.813630000000002 88.64235000000001, 14.235750000000003 96.07815000000001 L 14.189580000000005 96.24987 C 14.175000000000004 96.29199000000001, 12.668400000000004 100.94301, 12.904110000000005 108.84132 L 13.04991 113.76207000000001 Z M 19.88145 79.13943 C 8.74719 80.10090000000001, 7.695 87.73272, 7.6852800000000006 87.80886000000001 L 7.665840000000001 87.93117000000001 C 6.467040000000001 93.81825, 8.192340000000002 99.44208, 9.924120000000002 103.22397000000001 C 10.249740000000001 98.65071, 11.058120000000002 95.89671, 11.229030000000002 95.35644 C 13.279140000000002 85.93776000000001, 22.92948 84.07233000000001, 23.34015 83.99700000000001 C 32.886810000000004 82.18098, 39.51990000000001 78.82353, 42.45534000000001 77.10795000000002 L 41.33187 76.15458000000001 C 32.06385 78.87132000000001, 20.886660000000003 79.12323, 19.88145 79.13943 Z" />
		<path d="M 52.85088000000001 78.22899 L 48.96450000000001 75.43205999999999 C 40.23594000000001 79.73396999999999, 28.857870000000005 81.12069, 28.857870000000005 81.12069 C 12.234240000000003 83.13192, 11.433960000000003 93.03498, 11.433960000000003 93.03498 C 9.740250000000003 104.97438, 18.399150000000002 114.45381, 18.399150000000002 114.45381 C 17.543790000000005 108.91017000000001, 17.628840000000004 106.80822, 18.101070000000004 104.72408999999999 C 20.612880000000004 111.70710000000001, 25.804980000000004 116.30303999999998, 25.804980000000004 116.30303999999998 C 23.933880000000006 108.60641999999999, 24.488730000000004 103.81526999999998, 24.488730000000004 103.81526999999998 C 24.490350000000003 95.47064999999999, 32.60817000000001 92.14074, 32.60817000000001 92.14074 C 44.774370000000005 87.04340999999998, 50.940900000000006 80.25966, 50.940900000000006 80.25966 L 51.410700000000006 79.84169999999999 C 52.41834 78.75387, 52.85088000000001 78.22899, 52.85088000000001 78.22899 Z" fill="#b7494f" />
		<path d="M 28.469880000000003 120.72645 L 24.780330000000003 117.46133999999999 C 24.623190000000005 117.32121, 21.966390000000004 114.94385999999999, 19.492650000000005 111.02264999999998 C 19.593900000000005 111.93389999999998, 19.736460000000005 112.98608999999999, 19.926810000000007 114.21890999999998 L 20.705220000000004 119.27006999999998 L 17.258670000000006 115.49546999999997 C 16.885260000000006 115.08803999999999, 8.143740000000005 105.35345999999998, 9.899010000000006 92.85191999999998 C 9.999450000000005 91.88396999999998, 11.474460000000006 81.66662999999998, 28.671570000000006 79.58735999999998 C 28.780920000000005 79.57277999999997, 39.89898000000001 78.17714999999997, 48.281670000000005 74.04614999999997 L 49.11354000000001 73.63466999999999 L 55.09215000000002 77.93738999999998 L 54.04401000000002 79.20989999999998 C 54.02538000000002 79.23338999999997, 53.57178000000002 79.78256999999996, 52.54470000000002 80.89145999999997 L 52.436160000000015 80.99756999999997 L 52.02387000000002 81.36368999999996 C 51.31026000000002 82.12913999999996, 45.05139000000001 88.60346999999997, 33.205950000000016 93.56552999999997 C 32.90625000000002 93.68864999999997, 26.036640000000016 96.63866999999996, 26.034210000000016 103.81526999999996 L 26.024490000000018 103.99265999999996 C 26.019630000000017 104.03558999999996, 25.536060000000017 108.65015999999996, 27.306720000000016 115.93772999999995 L 28.469880000000003 120.72645 Z M 17.7633 99.21771000000001 L 19.55583 104.20164000000001 C 20.527020000000004 106.89894000000002, 21.9267 109.22931000000001, 23.24052 111.03561000000002 C 22.69215 106.88679, 22.892220000000002 104.27049000000002, 22.94406 103.73346000000004 C 22.996710000000004 94.51890000000003, 31.65237 90.86175000000003, 32.02254 90.71109000000003 C 43.72623 85.80816000000003, 49.73886 79.28604000000003, 49.797990000000006 79.22124000000002 L 49.915440000000004 79.10298000000003 L 50.328540000000004 78.73686000000004 C 50.41035 78.64776000000003, 50.488110000000006 78.56433000000004, 50.561820000000004 78.48414000000004 L 48.80736 77.22054000000003 C 40.089330000000004 81.27216000000003, 29.50668 82.59813000000003, 29.0466 82.65402000000003 C 14.01624 84.47328000000003, 13.01103 92.81871000000004, 12.974580000000001 93.17268000000003 L 12.965670000000003 93.25125000000003 C 12.096540000000001 99.37647000000003, 14.168520000000001 104.85855000000004, 16.21215 108.55458000000003 C 16.161120000000004 106.81065000000004, 16.318260000000002 105.60537000000004, 16.595280000000002 104.38389000000004 L 17.7633 99.21771000000001 Z" />
		<path d="M 83.43 36.683279999999996 C 56.48211 61.037549999999996, 33.234300000000005 68.13558, 33.234300000000005 68.13558 C 33.234300000000005 68.13558, 45.11376 80.97732, 47.146860000000004 83.83986 C 47.146860000000004 83.83986, 51.682860000000005 84.37608000000002, 70.35255000000001 72.92916000000001 L 73.84041 70.53561 C 92.40237 57.71493, 91.40607000000001 55.31895000000001, 91.40607000000001 55.31895000000001 C 89.58276000000001 52.26849, 83.43 36.683279999999996, 83.43 36.683279999999996 Z" fill="#b7494f" />
		<path d="M 82.18827 41.904540000000004 C 83.85282000000001 46.02501, 86.36382 52.121880000000004, 87.93441 55.34487 C 86.74938 56.77371, 83.09385 60.388740000000006, 72.09080999999999 67.98735 L 68.66937 70.33554000000001 C 56.49992999999999 77.79078000000001, 50.723009999999995 79.90974, 48.46148999999999 80.51157 C 46.135169999999995 77.69763, 41.69312999999999 72.78741000000001, 38.637809999999995 69.44535 C 46.35792 66.33657000000001, 63.090090000000004 58.39533000000001, 82.18827 41.904540000000004 M 83.43 36.683279999999996 C 56.48211 61.037549999999996, 33.234300000000005 68.13558, 33.234300000000005 68.13558 C 33.234300000000005 68.13558, 45.11376 80.97732, 47.146860000000004 83.83986 C 47.146860000000004 83.83986, 47.18088000000001 83.8431, 47.252970000000005 83.8431 C 48.02895 83.8431, 53.28423000000001 83.39274000000002, 70.35255000000001 72.92916000000001 L 73.84041 70.53561 C 92.40237 57.71493, 91.40607000000001 55.31895000000001, 91.40607000000001 55.31895000000001 C 89.58276000000001 52.26849, 83.43 36.683279999999996, 83.43 36.683279999999996 L 83.43 36.683279999999996 Z" />
		<path d="M 98.04645000000001 76.1076 C 98.04645000000001 76.1076, 89.69940000000001 75.77955, 85.50036 79.86924 C 85.50036 79.86924, 85.06296 80.54397, 85.8357 80.51238000000001 C 85.8357 80.51238000000001, 93.14433 76.16025, 98.47413 78.77169 C 98.47332000000002 78.77088, 99.39024 77.25537, 98.04645000000001 76.1076 Z" fill="#d21d51" />
		<path d="M 47.873430000000006 82.54791 L 42.10380000000001 87.22080000000001 C 42.10380000000001 87.22080000000001, 35.370270000000005 79.10379, 26.101440000000004 77.2335 C 26.101440000000004 77.2335, 31.51629000000001 72.90486000000001, 39.63006000000001 72.90486000000001 L 47.873430000000006 82.54791 Z" fill="#b7494f" />
		<path d="M 41.891580000000005 89.38107000000001 L 40.91472 88.20738 C 40.850730000000006 88.13124, 34.398270000000004 80.48565, 25.795260000000003 78.74658 L 22.5504 78.09129 L 25.13511 76.02498 C 25.374060000000004 75.83463, 31.0716 71.35937999999999, 39.62925 71.35937999999999 L 40.34124 71.35937999999999 L 50.07825 82.75040999999999 L 41.891580000000005 89.38107000000001 Z M 29.940030000000004 76.73049 C 35.85951 78.92721, 40.34043 83.08899, 42.26661 85.10022000000001 L 45.66699 82.34703 L 38.92779 74.46249 C 35.15238000000001 74.58885, 32.03145000000001 75.70989, 29.940030000000004 76.73049 Z" />
	</g>
</svg>