<svg xmlns="http://www.w3.org/2000/svg" viewbox="0 0 128 128" width="128" height="128">
	<g data-id="gladiator_helmet" fill="#010101">
		<path d="M 89.6257 52.26225 L 113.89999999999999 28.9 C 113.89999999999999 28.9, 98.6 2.55, 57.8 5.95 C 57.92069999999998 5.837799999999995, 10.676849999999982 9.237799999999995, 4.726849999999982 55.98779999999999 L 24.63639999999998 60.78604999999999 L 89.6257 52.26225 Z" data-id="mohawk" fill="#BE1E2D" />
		<path d="M 58 28.504749999999998 C 19.3154 28.504749999999998, 16.314899999999998 58.65, 16.314899999999998 58.65 L 24.6364 60.78605 L 89.6257 52.2631 L 94.9909 47.085750000000004 C 85.7616 27.087799999999998, 57.921549999999996 28.504749999999998, 57.921549999999996 28.504749999999998 Z" data-id="helmet" fill="#AA923C" />
		<circle cx="58" cy="76.6649" r="28.474999999999998" fill="white" stroke="#010101" stroke-width="6.375" />
		<path d="M 33.26305 87.5551 L 33.26305 101.25625 C 24.581150000000004 107.032, 14.600450000000002 101.25625, 14.600450000000002 101.25625 C 25.3657 92.89055, 22.2054 71.63545, 22.2054 71.63545 C 22.2054 71.63545, 19.1777 36.1131, 57.72605000000001 36.1131 C 98.56855 36.1131, 93.24755 73.559, 93.24755 73.559 L 90.09065 74.23135 C 86.4586 66.42665, 78.3751 67.07095000000001, 78.3751 67.07095000000001 C 78.3751 67.07095000000001, 68.65535 67.37100000000001, 68.65535 76.7941 C 68.65535 86.2155, 78.37594999999999 86.5147, 78.37594999999999 86.5147 C 87.78715 86.5147, 93.24839999999999 84.58520000000001, 93.24839999999999 84.58520000000001 L 88.40424999999999 120.38805 C 39.75365 128.73165, 46.78569999999999 101.25625000000001, 46.78569999999999 101.25625000000001 L 46.78569999999999 87.28565000000002 C 46.78569999999999 87.28565000000002, 46.626749999999994 80.52390000000001, 40.02395 80.52390000000001 C 33.42115 80.52390000000001, 33.26389999999999 87.28565000000002, 33.26389999999999 87.28565000000002 L 33.26389999999999 87.5551 Z" data-id="helmet" fill="#AA923C" />
		<path d="M 67.98384999999999 37.030249999999995 C 68.0102 37.04895, 83.67995 48.064949999999996, 82.50184999999999 57.687799999999996 C 82.50184999999999 57.687799999999996, 65.35905 51.45389999999999, 59.33934999999999 70.4378 C 59.33934999999999 70.4378, 54.45269999999999 88.28779999999999, 69.46964999999999 94.2378 C 69.46964999999999 94.2378, 73.15184999999998 96.2217, 82.56474999999999 95.37169999999999 L 79.09334999999999 121.62225000000001 C 81.94679999999998 121.36640000000001, 85.03654999999999 120.96690000000001, 88.40254999999999 120.3889 L 93.24669999999999 84.58605 C 93.24669999999999 84.58605, 87.78544999999998 86.51555, 78.37424999999999 86.51555 C 78.37424999999999 86.51555, 68.65364999999998 86.21634999999999, 68.65364999999998 76.79495 C 68.65364999999998 67.37185000000001, 78.37424999999999 67.07265000000001, 78.37424999999999 67.07265000000001 C 78.37424999999999 67.07265000000001, 86.45774999999999 66.42835000000001, 90.08979999999998 74.23304999999999 L 93.24669999999999 73.5607 C 93.24755 73.55985, 97.66159999999999 39.1289, 67.98384999999999 37.030249999999995 Z" data-id="shadow" fill="#786726" />
		<path d="M 78.44055 84.39055 C 78.12775 84.38034999999999, 70.7795 84.0718, 70.7795 76.79325 C 70.7795 69.70595, 77.66449999999999 69.22655, 78.44055 69.19595 L 78.53235000000001 69.19085 C 78.5604 69.18915, 78.66325 69.18234999999999, 78.82645000000001 69.18234999999999 C 80.3675 69.18234999999999, 85.59670000000001 69.61245, 88.1637 75.12724999999999 L 88.87855 76.66319999999999 L 95.1422 75.3287 L 95.3513 73.8582 C 95.42864999999999 73.31165, 96.82095 62.85495, 92.21055 52.7204 L 116.62169999999999 29.16435 L 115.7938 27.726999999999997 C 115.22175 26.734199999999998, 101.38289999999999 3.4093499999999963, 65.07005000000001 3.4093499999999963 C 62.68240000000001 3.4093499999999963, 60.21825000000001 3.5138999999999965, 57.76770000000001 3.7178999999999958 C 57.26705000000001 3.7535999999999956, 45.360250000000015 4.6783999999999955, 32.555000000000014 11.506449999999996 C 20.658399999999997 17.849149999999998, 5.8072 30.668850000000003, 2.6188499999999997 55.7192 L 2.37915 57.6079 L 20.74595 62.033849999999994 C 19.74635 67.41265, 20.05915 71.4884, 20.08805 71.81479999999999 L 20.1042 71.9474 C 20.133099999999995 72.14800000000001, 22.969549999999995 92.0601, 13.296549999999998 99.57920000000001 L 10.805199999999996 101.51465000000002 L 13.536249999999997 103.0948 C 13.736849999999997 103.21125, 18.535099999999996 105.94655000000002, 24.566699999999997 105.94655000000002 C 28.203 105.94655000000002, 31.52565 104.96395000000001, 34.4403 103.02425000000001 L 35.38805 102.39355 L 35.38805 87.5534 L 35.3872 87.3477 C 35.4161 86.5623, 35.777350000000006 82.64805, 40.02310000000001 82.64805 C 44.26970000000001 82.64805, 44.6318 86.56400000000001, 44.65985 87.2848 L 44.65985 101.0174 C 44.3394 102.53635, 43.20635 109.5089, 47.8584 115.50224999999999 C 52.280950000000004 121.1998, 60.37635 124.08895, 71.91935000000001 124.08895 L 71.92445000000001 124.08895 C 76.87825000000001 124.08895, 82.54435 123.54749999999999, 88.76379999999999 122.4816 L 90.30144999999999 122.21724999999999 L 95.3547 84.8691 L 95.81454999999998 81.44105 L 92.54544999999999 82.57835 C 92.49189999999999 82.59790000000001, 87.2457 84.38885, 78.44055 84.39055 Z M 82.45085 94.10095 C 80.9336 94.23864999999999, 79.47160000000001 94.30834999999999, 78.10735 94.30834999999999 C 72.4642 94.30834999999999, 70.08590000000001 93.12174999999999, 70.07485 93.11495 L 69.94055 93.05205 C 64.20135 90.77914999999999, 60.87275 86.39485, 60.049099999999996 80.02155 C 59.415000000000006 75.12044999999999, 60.5574 70.82285, 60.5557 70.82285 C 63.92 60.2106, 70.91125 57.98275, 76.1821 57.98275 C 79.51750000000001 57.98275, 82.0437 58.8778, 82.06750000000001 58.88545 L 83.57285 59.43285 L 83.76750000000001 57.84250000000001 C 84.48745 51.96050000000001, 79.62970000000001 45.77760000000001, 75.242 41.49275000000001 C 78.82135000000001 43.09670000000001, 81.83545000000001 45.284600000000005, 84.25370000000001 48.06240000000001 C 91.48720000000002 56.373700000000014, 91.51695000000001 67.80535, 91.27130000000001 71.808 L 91.21520000000001 71.8199 C 86.86915 64.58640000000001, 79.01345 64.90005000000001, 78.26630000000002 64.95020000000001 C 74.18035 65.093, 66.53035000000001 67.74245, 66.53035000000001 76.7941 C 66.53035000000001 85.8772, 74.2356 88.51305, 78.37595000000002 88.6397 C 83.86440000000002 88.6397, 88.06595000000002 88.00560000000002, 90.71795000000002 87.44290000000001 L 86.50960000000002 118.5495 C 84.49935000000002 118.86995, 82.55540000000002 119.1309, 80.68455000000003 119.33319999999999 L 84.03950000000003 93.95899999999999 L 82.45085 94.10095 Z M 57.726049999999994 33.98895 C 45.2166 33.98895, 35.555499999999995 37.6023, 29.010499999999997 44.72955 C 25.2263 48.85035, 23.017149999999994 53.56785, 21.735349999999997 57.90030000000001 L 17.907799999999998 56.97805000000001 C 19.311999999999998 50.65745000000001, 26.349149999999995 29.779750000000007, 57.984449999999995 29.77805000000001 C 58.0023 29.777200000000015, 58.40604999999999 29.75850000000001, 59.11835 29.75850000000001 C 63.39555 29.75850000000001, 84.54695 30.57705000000001, 93.0189 46.03515000000001 L 90.11359999999999 48.83930000000001 C 90.06854999999999 48.767900000000004, 90.02519999999998 48.69650000000001, 89.9793 48.62510000000001 C 89.2636 47.38580000000001, 88.45014999999998 46.18050000000001, 87.51429999999998 45.03725000000001 C 84.72799999999998 41.63640000000001, 81.19879999999999 39.15270000000001, 76.97769999999998 37.59720000000001 C 71.61505 35.198499999999996, 65.18225 33.98895, 57.726049999999994 33.98895 Z M 34.42075 15.328050000000001 C 46.444 8.8791, 57.9598 7.96535, 58.0975 7.95515 C 60.45454999999999 7.75965, 62.8014 7.659349999999999, 65.0709 7.659349999999999 C 93.8876 7.659349999999999, 107.69585 23.6759, 111.19699999999999 28.494549999999997 L 94.9212 44.199999999999996 C 91.1421 37.649049999999995, 84.9524 32.87715, 76.46685 30.0084 C 66.9222 26.7801, 57.93770000000001 27.2221, 57.9156 27.229750000000003 C 24.729049999999997 27.233150000000002, 17.044199999999993 49.3221, 15.4377 56.38305 L 7.1000499999999995 54.3745 C 9.84215 36.7149, 19.0264 23.58495, 34.42075 15.328050000000001 Z M 71.92275 119.8398 L 71.9185 119.8398 C 61.7882 119.8398, 54.831799999999994 117.5176, 51.2465 112.93694999999998 C 47.3688 107.98485, 48.829950000000004 101.8368, 48.84355 101.7841 L 48.90985 101.52484999999999 L 48.909000000000006 87.23549999999999 C 48.825700000000005 83.68249999999999, 46.3913 78.3989, 40.02310000000001 78.3989 C 33.655750000000005 78.3989, 31.221350000000008 83.68334999999999, 31.138050000000007 87.28564999999999 L 31.138050000000007 100.062 C 29.16520000000001 101.14744999999999, 26.959450000000007 101.6974, 24.566700000000008 101.6974 C 22.173950000000005 101.6974, 19.986050000000006 101.14915, 18.378700000000006 100.58985 C 26.864250000000006 90.848, 24.542050000000007 72.96485, 24.319350000000007 71.40085 C 24.253900000000005 70.45139999999999, 23.505900000000004 57.00695, 32.14105000000001 47.6034 C 37.848800000000004 41.388200000000005, 46.45675000000001 38.23725, 57.726900000000015 38.23725 C 61.867250000000006 38.23725, 65.63615000000001 38.644400000000005, 69.0421 39.437450000000005 C 72.71155 42.361450000000005, 80.78995 49.500600000000006, 81.27105000000002 56.0167 C 80.05640000000001 55.734500000000004, 78.26630000000002 55.4319, 76.1838 55.4319 C 64.50650000000002 55.4319, 59.85785000000001 64.59065, 58.11110000000001 70.09864999999999 C 58.059250000000006 70.28819999999999, 53.119050000000016 89.07745, 68.94350000000001 95.39804999999998 C 69.48495000000001 95.66834999999999, 72.20495000000001 96.85749999999999, 78.10820000000001 96.85749999999999 C 79.06530000000001 96.85749999999999, 80.06660000000001 96.82434999999998, 81.09765 96.76144999999998 L 78.08015 119.57374999999998 C 75.91605 119.74884999999999, 73.85735 119.8398, 71.92275 119.8398 Z" data-id="outline" fill="#010101" />
	</g>
</svg>