<svg xmlns="http://www.w3.org/2000/svg" viewbox="0 0 128 128" width="128" height="128">
	<g data-id="headband" fill="black">
		<circle cx="55.623" cy="36.586" r="29.037" fill="white" />
		<path d="M 93.213 29.341 C 92.67999999999999 25.719, 91.625 22.187, 90.08 18.843000000000004 C 89.082 16.683000000000003, 86.92999999999999 15.360000000000003, 84.63499999999999 15.360000000000003 C 84.54799999999999 15.360000000000003, 84.46 15.372000000000003, 84.37299999999999 15.376000000000003 C 77.856 6.5660000000000025, 67.39599999999999 .8420000000000023, 55.62299999999999 .8420000000000023 C 37.73199999999999 .8420000000000023, 22.871999999999993 14.053000000000003, 20.27899999999999 31.232000000000003 C 18.03299999999999 32.223000000000006, 16.57699999999999 34.513000000000005, 16.70999999999999 37.035000000000004 C 16.91899999999999 41.004000000000005, 17.73099999999999 44.883, 19.12199999999999 48.56400000000001 C 19.870999999999988 50.544000000000004, 21.57199999999999 51.90100000000001, 23.527999999999988 52.30500000000001 C 29.355 64.154, 41.55 72.33, 55.623 72.33 C 75.332 72.33, 91.36699999999999 56.295, 91.36699999999999 36.586 C 91.36699999999999 35.933, 91.34599999999999 35.284, 91.31199999999998 34.64 C 92.752 33.326, 93.511 31.361, 93.213 29.341 Z M 55.623 7.55 C 64.134 7.55, 71.789 11.212, 77.1 17.046 L 27.495 29.347 C 30.712 16.813, 42.085 7.55, 55.623 7.55 Z M 55.623 65.623 C 44.891999999999996 65.623, 35.528 59.79900000000001, 30.502 51.143 C 48.543 46.458, 62.81999999999999 42.769, 76.31099999999999 39.304 C 76.336 39.297000000000004, 76.362 39.291000000000004, 76.38699999999999 39.284 C 78.55699999999999 38.696, 80.69399999999999 38.150999999999996, 82.957 37.574 C 83.51599999999999 37.431, 84.08399999999999 37.282, 84.645 37.138999999999996 C 84.348 52.919, 71.474 65.623, 55.623 65.623 Z M 86.523 30.458 C 82.55 31.505, 78.685 32.446, 74.818 33.492 C 66.875 35.532, 58.923 37.583, 50.968999999999994 39.64 C 43.31999999999999 41.619, 35.66799999999999 43.603, 28.014999999999993 45.59 L 28.014999999999993 45.59 C 26.920999999999992 45.874, 25.826999999999995 46.156000000000006, 24.733999999999995 46.441 C 23.579999999999995 43.386, 22.879999999999995 40.117000000000004, 22.700999999999993 36.717 L 68.60999999999999 25.332 L 80.88999999999999 22.287 L 80.88999999999999 22.287 L 84.63099999999999 21.358999999999998 C 85.91199999999999 24.128999999999998, 86.81699999999998 27.101, 87.27599999999998 30.214 C 87.037 30.308, 86.787 30.39, 86.523 30.458 Z" />
		<path d="M 22.702 36.718 C 22.881 40.117000000000004, 23.580000000000002 43.387, 24.735000000000003 46.44200000000001 C 41.438 42.102000000000004, 58.143 37.775000000000006, 74.818 33.49300000000001 C 78.685 32.44700000000001, 82.55 31.506000000000007, 86.523 30.45900000000001 C 86.78699999999999 30.39100000000001, 87.03699999999999 30.30900000000001, 87.277 30.21700000000001 C 86.818 27.10400000000001, 85.914 24.131000000000007, 84.632 21.36200000000001 L 22.702 36.718 Z" data-id="band" fill="white" />
	</g>
</svg>