<svg xmlns="http://www.w3.org/2000/svg" viewbox="0 0 128 128" width="128" height="128">
	<g fill="#010101">
		<path d="M 67.6768 52.4504 C 81.10560000000001 52.4504, 91.99040000000001 63.33440000000001, 91.99040000000001 76.76320000000001 C 91.99040000000001 90.19280000000002, 81.10640000000001 101.07920000000001, 67.6768 101.07920000000001 C 54.248000000000005 101.07920000000001, 43.36080000000001 90.1936, 43.36080000000001 76.76320000000001 C 43.360800000000005 63.3352, 54.248000000000005 52.4504, 67.6768 52.4504 M 67.6768 46.833600000000004 C 51.172000000000004 46.833600000000004, 37.744800000000005 60.260799999999996, 37.744800000000005 76.764 C 37.744800000000005 93.27120000000001, 51.172000000000004 106.6968, 67.6768 106.6968 C 84.1808 106.6968, 97.608 93.2712, 97.608 76.764 C 97.608 60.260799999999996, 84.1808 46.833600000000004, 67.6768 46.833600000000004 L 67.6768 46.833600000000004 Z" />
		<path d="M 67.6768 52.4504 C 81.10560000000001 52.4504, 91.99040000000001 63.33440000000001, 91.99040000000001 76.76320000000001 C 91.99040000000001 90.19280000000002, 81.10640000000001 101.07920000000001, 67.6768 101.07920000000001 C 54.248000000000005 101.07920000000001, 43.36080000000001 90.1936, 43.36080000000001 76.76320000000001 C 43.360800000000005 63.3352, 54.248000000000005 52.4504, 67.6768 52.4504" fill="white" />
		<path d="M 113.5856 27.784 C 113.1008 27.2992, 112.52000000000001 26.888, 111.8472 26.552 C 111.176 26.216800000000003, 110.4784 25.972800000000003, 109.7608 25.8248 C 109.0416 25.675200000000004, 108.39920000000001 25.5704, 107.8368 25.508 C 107.27279999999999 25.4448, 106.7088 25.4144, 106.1472 25.4144 C 106.1456 24.8512, 106.11520000000002 24.2888, 106.05360000000002 23.7256 C 105.99040000000001 23.162399999999998, 105.88400000000001 22.520799999999998, 105.73680000000002 21.799999999999997 C 105.58800000000002 21.081599999999998, 105.34560000000002 20.384, 105.00800000000002 19.711199999999998 C 104.67280000000001 19.04, 104.26160000000003 18.459999999999997, 103.7776 17.975999999999996 C 102.024 16.220799999999997, 100.16720000000001 15.334399999999997, 98.20320000000001 15.309599999999996 C 96.23920000000001 15.287199999999997, 94.39760000000001 16.136799999999994, 92.67760000000001 17.857599999999994 C 92.15280000000001 18.380799999999994, 91.70480000000002 19.012799999999995, 91.33200000000001 19.753599999999995 C 90.96160000000002 20.491199999999996, 90.69760000000001 21.175199999999997, 90.54160000000002 21.799999999999997 C 90.38400000000001 22.424799999999994, 90.26880000000001 23.072799999999997, 90.1936 23.739999999999995 C 90.12080000000002 24.410399999999996, 90.08000000000001 24.885599999999997, 90.07520000000001 25.161599999999996 C 90.07440000000001 25.438399999999998, 90.07920000000001 25.647999999999996, 90.09440000000001 25.7888 L 90.27520000000001 35.8696 L 80.92720000000001 45.9272 C 78.59840000000001 44.761599999999994, 75.54880000000001 43.9464, 71.62800000000001 44.1096 C 63.616 44.662400000000005, 56.1144 47.6, 51.48160000000001 55.3688 L 35.076 40.120000000000005 L 35.2736 29.643200000000004 C 35.2712 25.325600000000005, 34.2296 22.126400000000004, 32.1472 20.044800000000006 C 30.075199999999995 17.971200000000007, 27.855199999999996 16.948800000000002, 25.4904 16.977600000000006 C 23.1248 17.006400000000006, 20.887200000000004 18.075200000000006, 18.776 20.185600000000008 C 18.192800000000002 20.77040000000001, 17.6976 21.468800000000005, 17.2928 22.277600000000007 C 16.888 23.088800000000006, 16.5944 23.92720000000001, 16.416800000000002 24.79440000000001 C 16.2376 25.66080000000001, 16.110400000000002 26.43360000000001, 16.0352 27.11200000000001 C 15.958400000000001 27.789600000000007, 15.921600000000002 28.468800000000005, 15.9208 29.14560000000001 C 15.2432 29.147200000000012, 14.564 29.18400000000001, 13.886400000000002 29.25920000000001 C 13.2072 29.33600000000001, 12.434400000000002 29.46160000000001, 11.568000000000001 29.64080000000001 C 10.700800000000001 29.820000000000007, 9.8632 30.11200000000001, 9.0512 30.51840000000001 C 8.242400000000002 30.92320000000001, 7.543200000000001 31.41760000000001, 6.96 32.00160000000001 C 4.847999999999999 34.112800000000014, 3.7791999999999994 36.34960000000001, 3.7504 38.71440000000001 C 3.7216000000000005 41.08160000000001, 4.7456 43.30000000000001, 6.8176000000000005 45.37200000000001 C 7.449600000000001 46.004000000000005, 8.2096 46.54240000000001, 9.100800000000001 46.991200000000006 C 9.992800000000003 47.4384, 10.814400000000001 47.756800000000005, 11.567200000000001 47.94400000000001 C 12.320000000000002 48.13360000000001, 13.100800000000001 48.272000000000006, 13.904800000000002 48.36240000000001 C 14.712800000000001 48.45200000000001, 15.2832 48.497600000000006, 15.6176 48.50400000000001 C 15.9512 48.50640000000001, 16.2024 48.50160000000001, 16.372799999999998 48.481600000000014 L 28.5152 48.26480000000001 L 46.7272 65.19120000000001 C 47.0208 65.46640000000001, 47.344 65.68560000000001, 47.6768 65.8784 C 47.2264 68.22240000000001, 46.924800000000005 70.79520000000001, 46.7976 73.6264 C 46.708800000000004 75.6136, 48.1512 77.20400000000001, 49.857600000000005 77.70400000000001 C 50.32560000000001 77.84, 50.830400000000004 77.8952, 51.3472 77.8512 C 53.7552 77.652, 55.617599999999996 75.4344, 55.5104 72.90239999999999 C 54.834399999999995 56.996799999999986, 66.1032 52.331199999999995, 72.116 51.874399999999994 C 76.4896 51.54319999999999, 79.6456 51.493599999999994, 83.2784 54.5824 C 86.4376 57.2696, 85.5272 58.7816, 87.6256 57.476 C 89.01440000000001 56.612, 88.47840000000001 54.5224, 87.41680000000001 52.1376 C 87.4008 52.099199999999996, 87.3424 51.985600000000005, 87.26080000000002 51.8328 L 87.26160000000002 51.8304 L 97.03680000000001 41.3136 L 105.73360000000001 41.4792 C 109.3176 41.4768, 111.9744 40.6128, 113.70240000000001 38.8824 C 115.424 37.163199999999996, 116.27280000000002 35.31999999999999, 116.248 33.3576 C 116.2272 31.394400000000005, 115.33760000000001 29.5368, 113.5856 27.784 Z" fill="#e81c23" />
		<path d="M 51.0016 79.87440000000001 C 50.421600000000005 79.87440000000001, 49.848800000000004 79.79200000000002, 49.293600000000005 79.63040000000001 C 46.52000000000001 78.8168, 44.6696 76.3136, 44.79520000000001 73.5392 C 44.90160000000001 71.16799999999999, 45.13120000000001 68.8984, 45.48160000000001 66.77199999999999 C 45.4408 66.7344, 45.400000000000006 66.69839999999999, 45.36240000000001 66.6632 L 27.744 50.2856 L 16.4872 50.488 C 16.300800000000002 50.504000000000005, 16.062400000000004 50.5128, 15.769600000000004 50.5128 L 15.601600000000003 50.5128 C 15.168800000000003 50.504, 14.548000000000002 50.4536, 13.684000000000005 50.3576 C 12.779200000000003 50.2568, 11.903200000000005 50.0984, 11.077600000000004 49.8912 C 10.195200000000005 49.6712, 9.227200000000003 49.300000000000004, 8.203200000000004 48.788000000000004 C 7.119200000000004 48.24080000000001, 6.177600000000004 47.571200000000005, 5.399200000000004 46.792 C 2.9400000000000044 44.332, 1.709600000000004 41.60640000000001, 1.7448000000000043 38.6936 C 1.7808000000000044 35.79520000000001, 3.0576000000000043 33.06720000000001, 5.542400000000004 30.584000000000003 C 6.274400000000004 29.850400000000004, 7.152800000000005 29.2264, 8.154400000000004 28.724800000000005 C 9.119200000000005 28.24320000000001, 10.130400000000005 27.890400000000007, 11.162400000000005 27.676800000000004 C 12.086400000000005 27.486400000000003, 12.928800000000004 27.349600000000006, 13.664800000000003 27.267200000000003 C 13.777600000000001 27.253600000000002, 13.892000000000003 27.244, 14.006400000000003 27.2312 C 14.016800000000003 27.1176, 14.029600000000002 27.003200000000007, 14.041600000000003 26.888 C 14.123200000000004 26.151200000000003, 14.261600000000001 25.308, 14.452000000000005 24.3872 C 14.664000000000005 23.3592, 15.015200000000005 22.3456, 15.498400000000004 21.38 C 16.000000000000004 20.3784, 16.625600000000002 19.499200000000002, 17.3576 18.767999999999997 C 19.843200000000003 16.2824, 22.572000000000003 15.004799999999998, 25.466400000000004 14.9712 L 25.585600000000003 14.970399999999998 C 28.456800000000005 14.970399999999998, 31.141600000000007 16.2016, 33.56720000000001 18.6264 C 36.02720000000001 21.086399999999998, 37.2776 24.792, 37.2792 29.6416 L 37.098400000000005 39.2608 L 51.116800000000005 52.290400000000005 C 55.6184 46.15520000000001, 62.4608 42.732, 71.4896 42.107200000000006 C 71.9064 42.0904, 72.2608 42.08240000000001, 72.6088 42.08240000000001 C 75.4376 42.08240000000001, 78.0632 42.5616, 80.4344 43.509600000000006 L 88.2544 35.0976 L 88.08800000000001 25.9056 C 88.072 25.708, 88.06720000000001 25.4712, 88.06880000000001 25.1448 C 88.07600000000001 24.769599999999997, 88.1192 24.244799999999998, 88.1992 23.519199999999998 C 88.2856 22.751199999999997, 88.4184 22.0096, 88.59440000000001 21.3096 C 88.78399999999999 20.552, 89.1016 19.724, 89.5376 18.853599999999997 C 90.008 17.921599999999998, 90.5872 17.109599999999997, 91.2592 16.4376 C 93.33840000000001 14.357599999999998, 95.6472 13.303999999999997, 98.1232 13.303999999999997 L 98.2256 13.303999999999997 C 100.724 13.335199999999999, 103.06800000000001 14.429599999999997, 105.1936 16.556799999999996 C 105.82959999999999 17.191199999999995, 106.3712 17.951199999999996, 106.80239999999999 18.815199999999997 C 107.21439999999998 19.638399999999997, 107.51679999999999 20.5064, 107.70079999999999 21.393599999999996 C 107.86079999999998 22.175199999999997, 107.9776 22.883199999999995, 108.04639999999998 23.503199999999996 C 108.04639999999998 23.505599999999998, 108.04639999999998 23.510399999999997, 108.04799999999999 23.513599999999997 C 108.05199999999998 23.513599999999997, 108.05519999999997 23.5144, 108.06079999999997 23.5144 C 108.68879999999997 23.5848, 109.39759999999997 23.7008, 110.16799999999996 23.8616 C 111.05359999999996 24.044, 111.92159999999997 24.3456, 112.74799999999996 24.7592 C 113.61199999999997 25.192800000000002, 114.37039999999996 25.732, 115.00399999999996 26.3648 C 117.13279999999996 28.495199999999997, 118.22639999999996 30.840799999999998, 118.25599999999996 33.3352 C 118.28559999999996 35.852, 117.23199999999996 38.194399999999995, 115.12159999999994 40.303200000000004 C 113.01359999999995 42.412800000000004, 109.85759999999993 43.4824, 105.73759999999996 43.4864 L 97.89679999999996 43.3384 L 89.6376 52.224000000000004 C 90.4248 54.1696, 91.388 57.501599999999996, 88.6864 59.1816 C 88.036 59.58480000000001, 87.32080000000002 59.960800000000006, 86.50720000000001 59.960800000000006 C 85.09360000000001 59.960800000000006, 84.38080000000001 58.94160000000001, 83.91040000000001 58.265600000000006 C 83.53840000000001 57.7336, 83.03120000000001 57.00560000000001, 81.97840000000001 56.112000000000016 C 79.64800000000001 54.12960000000002, 77.6824 53.73200000000002, 75.26480000000001 53.73200000000002 C 74.3712 53.73200000000002, 73.4208 53.79040000000001, 72.26800000000001 53.87760000000002 C 60.02720000000001 54.80320000000002, 57.23520000000001 66.22080000000003, 57.51520000000001 72.81840000000003 C 57.668000000000006 76.40880000000003, 54.97760000000001 79.56400000000002, 51.51520000000001 79.85120000000002 C 51.3424 79.8656, 51.172000000000004 79.87440000000001, 51.0016 79.87440000000001 Z M 29.2904 46.2456 L 48.09360000000001 63.72480000000001 C 48.24720000000001 63.867200000000004, 48.43440000000001 64.00160000000001, 48.680800000000005 64.144 L 49.91760000000001 64.8584 L 49.647200000000005 66.2592 C 49.2064 68.5536, 48.921600000000005 71.06480000000002, 48.80160000000001 73.71760000000002 C 48.756 74.74640000000002, 49.58160000000001 75.53280000000002, 50.42080000000001 75.77760000000002 C 50.662400000000005 75.84800000000001, 50.9168 75.87120000000003, 51.1816 75.85360000000001 C 52.50320000000001 75.74480000000003, 53.5688 74.43280000000003, 53.50560000000001 72.98960000000002 C 52.7808 55.90160000000002, 64.7672 50.42160000000002, 71.96560000000001 49.876000000000026 C 73.20800000000001 49.781600000000026, 74.24480000000001 49.71920000000003, 75.26400000000001 49.71920000000003 C 77.92880000000002 49.71920000000003, 81.11920000000002 50.11600000000003, 84.57760000000002 53.05520000000003 C 85.30160000000001 53.668800000000026, 85.84640000000002 54.24000000000002, 86.2656 54.73680000000003 C 86.13760000000002 54.301600000000036, 85.9264 53.72000000000003, 85.584 52.954400000000035 C 85.57920000000001 52.942400000000035, 85.5408 52.87280000000003, 85.49440000000001 52.78400000000004 L 85.05040000000001 51.95920000000004 L 85.5352 50.74240000000003 L 96.17840000000001 39.292800000000035 L 105.77120000000001 39.472800000000035 C 108.74960000000002 39.47040000000004, 110.95360000000001 38.79600000000004, 112.28399999999999 37.46560000000004 C 113.6192 36.131200000000035, 114.25919999999999 34.796000000000035, 114.2408 33.38160000000004 C 114.22479999999999 31.951200000000043, 113.5464 30.58320000000004, 112.1648 29.202400000000036 C 111.83760000000001 28.875200000000035, 111.428 28.586400000000033, 110.94879999999999 28.347200000000033 C 110.43359999999998 28.090400000000034, 109.8984 27.902400000000036, 109.3544 27.790400000000034 C 108.70400000000001 27.656000000000034, 108.1168 27.559200000000033, 107.6112 27.50160000000004 C 107.1304 27.448800000000034, 106.6368 27.421600000000037, 106.14319999999998 27.421600000000037 L 104.1408 27.419200000000036 L 104.1376 25.416800000000038 C 104.1376 24.923200000000037, 104.11040000000001 24.428000000000036, 104.0552 23.948000000000036 C 104 23.450400000000037, 103.904 22.864800000000038, 103.76799999999999 22.204800000000038 C 103.6552 21.66160000000004, 103.46799999999999 21.12320000000004, 103.21039999999999 20.61040000000004 C 102.97199999999998 20.13120000000004, 102.68479999999998 19.72400000000004, 102.35679999999999 19.39520000000004 C 100.97519999999999 18.012800000000038, 99.60719999999999 17.333600000000043, 98.17439999999999 17.31680000000004 L 98.17439999999999 17.31680000000004 C 96.7272 17.31680000000004, 95.41199999999999 17.956000000000042, 94.0912 19.27600000000004 C 93.7232 19.64480000000004, 93.396 20.109600000000043, 93.1208 20.654400000000038 C 92.8184 21.258400000000037, 92.604 21.80880000000004, 92.4848 22.28640000000004 C 92.3504 22.816000000000038, 92.2504 23.380000000000038, 92.1848 23.96480000000004 C 92.0952 24.772000000000038, 92.08 25.09920000000004, 92.0776 25.201600000000038 C 92.0776 25.344000000000037, 92.07600000000001 25.470400000000037, 92.084 25.56240000000004 L 92.0984 25.753600000000034 L 92.2928 36.644000000000034 L 81.3688 48.393600000000035 L 80.0272 47.72080000000003 C 77.868 46.64240000000004, 75.37279999999998 46.094400000000036, 72.6064 46.094400000000036 C 72.31279999999998 46.094400000000036, 72.0144 46.100800000000035, 71.70799999999998 46.112800000000036 C 63.043199999999985 46.713600000000035, 56.97119999999998 50.079200000000036, 53.20319999999998 56.396800000000034 L 51.93199999999999 58.52880000000004 L 33.052800000000005 40.9792 L 33.266400000000004 29.606399999999997 C 33.2648 25.8968, 32.4112 23.145599999999998, 30.728800000000007 21.463199999999997 C 29.060800000000008 19.794399999999996, 27.378400000000006 18.983199999999993, 25.585600000000007 18.983199999999993 C 23.67760000000001 19.005599999999994, 21.937600000000007 19.862399999999994, 20.194400000000005 21.604799999999997 C 19.767200000000006 22.031999999999996, 19.394400000000005 22.559999999999995, 19.086400000000005 23.175999999999995 C 18.760800000000003 23.827999999999996, 18.522400000000005 24.507999999999996, 18.381600000000002 25.196799999999996 C 18.215200000000006 25.99919999999999, 18.097600000000003 26.717599999999994, 18.028800000000004 27.334399999999995 C 17.962400000000006 27.927999999999994, 17.928800000000006 28.537599999999994, 17.928000000000004 29.148799999999994 L 17.925600000000003 31.150399999999998 L 15.924000000000005 31.1528 C 15.316000000000003 31.1528, 14.705600000000004 31.187199999999997, 14.109600000000004 31.2544 C 13.494400000000006 31.321600000000004, 12.776000000000003 31.4392, 11.972800000000005 31.6056 C 11.283200000000004 31.7472, 10.602400000000003 31.9856, 9.949600000000004 32.312000000000005 C 9.334400000000004 32.6192, 8.806400000000004 32.992000000000004, 8.380000000000004 33.419200000000004 C 6.6376000000000035 35.162400000000005, 5.779200000000005 36.9024, 5.756800000000005 38.74 C 5.735200000000004 40.558400000000006, 6.546400000000005 42.264, 8.236800000000004 43.9544 C 8.713600000000005 44.4296, 9.307200000000003 44.8496, 10.004000000000005 45.2008 C 10.760800000000003 45.58, 11.451200000000004 45.848800000000004, 12.053600000000003 45.998400000000004 C 12.710400000000003 46.1648, 13.406400000000003 46.2888, 14.131200000000005 46.370400000000004 C 15.085600000000007 46.476, 15.496000000000004 46.497600000000006, 15.656000000000004 46.5 L 15.770400000000004 46.5008 C 15.929600000000006 46.5008, 16.055200000000006 46.5008, 16.145600000000005 46.4912 L 16.338400000000004 46.477599999999995 L 29.2904 46.2456 Z" />
	</g>
</svg>