<svg xmlns="http://www.w3.org/2000/svg" viewbox="0 0 128 128" width="128" height="128">
	<g data-id="horse_head" fill="black">
		<path d="M 111.5092 55.479600000000005 C 109.4852 53.99240000000001, 107.11580000000001 52.720800000000004, 104.6474 52.1444 C 103.6123 51.9024, 102.6234 51.6659, 101.59380000000002 51.4976 C 100.58070000000001 51.3326, 99.77660000000002 50.699, 98.9307 50.1072 C 94.6616 47.115199999999994, 90.6532 43.7217, 86.67229999999999 40.36229999999999 C 84.975 38.928999999999995, 83.2898 37.48249999999999, 81.6134 36.02389999999999 C 79.9513 34.57629999999999, 78.4718 32.95159999999999, 76.7954 31.525999999999993 C 75.7295 30.619599999999988, 74.6009 29.78139999999999, 73.4184 29.033399999999993 C 72.32280000000002 28.340399999999995, 71.01820000000001 27.939999999999994, 70.15140000000001 26.935699999999994 C 74.0949 26.57709999999999, 78.03840000000001 26.21849999999999, 81.9819 25.85989999999999 C 77.86460000000001 24.606999999999992, 73.7473 23.354099999999992, 69.63 22.10119999999999 C 70.71790000000001 21.624899999999993, 71.80579999999999 21.14859999999999, 72.8937 20.672299999999993 C 70.27680000000001 19.80109999999999, 67.6709 18.874899999999993, 65.0364 18.056499999999993 C 65.9978 16.518699999999992, 66.9592 14.981999999999992, 67.9206 13.444199999999993 C 64.1443 14.302199999999992, 60.194199999999995 14.935799999999993, 56.582899999999995 16.365799999999993 C 57.224199999999996 13.371599999999994, 57.8666 10.377399999999994, 58.50899999999999 7.382099999999993 C 55.6446 10.794299999999994, 52.780199999999994 14.206499999999993, 49.9158 17.618699999999993 C 48.7641 15.725599999999993, 47.09649999999999 12.630199999999993, 44.73479999999999 12.041699999999992 C 41.512899999999995 11.237599999999992, 39.92999999999999 14.374799999999993, 39.314 16.953199999999992 C 37.79599999999999 15.592499999999992, 36.338499999999996 14.162499999999993, 34.9184 12.701699999999992 C 33.6809 11.427899999999992, 32.4907 9.530399999999991, 30.7274 8.98039999999999 C 29.296300000000002 8.53379999999999, 27.7574 9.026599999999991, 26.802599999999998 10.170599999999991 C 25.9116 11.238699999999993, 25.790599999999994 12.289199999999992, 25.848899999999997 13.60149999999999 C 26.107399999999995 19.36219999999999, 27.213999999999995 25.94569999999999, 31.3445 30.303899999999995 C 28.417399999999997 31.852699999999995, 25.3055 32.480799999999995, 22.098999999999997 33.22109999999999 C 23.6643 34.00319999999999, 25.2109 34.898599999999995, 26.8422 35.53549999999999 C 24.478299999999997 36.661899999999996, 22.1133 37.7883, 19.749399999999998 38.914699999999996 C 21.7107 38.914699999999996, 23.6709 38.914699999999996, 25.632199999999997 38.914699999999996 C 23.3794 40.984899999999996, 21.841599999999996 43.406, 20.208099999999995 45.947 C 20.827399999999994 45.8095, 21.447799999999994 45.672, 22.067099999999996 45.5345 C 20.239999999999995 46.817099999999996, 18.682399999999994 48.6222, 17.056599999999996 50.1457 C 19.799999999999997 49.4593, 22.5401 48.7641, 25.286799999999996 48.0953 C 23.569699999999997 49.901500000000006, 21.715099999999996 51.6846, 19.612999999999996 53.042 C 18.615299999999994 53.6866, 17.709999999999994 54.0144, 16.550599999999996 54.07490000000001 C 14.277999999999997 54.19480000000001, 12.005399999999996 54.31470000000001, 9.731699999999996 54.4346 C 12.842499999999996 55.5995, 15.958799999999997 57.0152, 19.194999999999997 57.7984 C 16.804699999999997 59.6024, 14.679499999999996 61.7595, 12.499299999999996 63.8055 C 15.452799999999998 63.318200000000004, 18.382099999999998 62.6681, 21.391699999999997 62.80780000000001 C 20.621699999999997 65.20800000000001, 19.305 67.6203, 17.159999999999997 69.047 C 16.003899999999998 69.8159, 14.712499999999997 70.4143, 13.494799999999998 71.0787 C 15.810299999999998 71.89049999999999, 17.9058 72.87499999999999, 20.4281 72.3591 C 20.049699999999998 74.5426, 19.7054 76.7371, 19.4557 78.9393 C 19.4084 79.3562, 19.1576 80.1108, 19.2885 80.49359999999999 C 19.4623 81.0051, 20.5799 81.8521, 20.979199999999995 82.20299999999999 C 24.411199999999997 85.2093, 28.7419 85.61299999999999, 32.9989 86.44789999999999 C 38.0622 87.44009999999999, 43.1299 88.59839999999998, 48.0106 90.29019999999998 C 50.133599999999994 91.0272, 52.2984 91.84559999999999, 54.20909999999999 93.04789999999998 C 54.66339999999999 93.3339, 55.0495 93.64959999999999, 55.443299999999994 94.01369999999999 C 57.419999999999995 95.84519999999999, 60.44389999999999 96.27749999999999, 62.58669999999999 94.46139999999998 C 63.608599999999996 93.59569999999998, 63.805499999999995 92.76079999999997, 64.1399 91.54419999999999 C 64.59089999999999 89.89419999999998, 65.04299999999999 88.24419999999999, 65.494 86.59419999999999 C 65.8493 85.29399999999998, 66.1144 84.09609999999998, 67.2914 83.25019999999998 C 69.2032 81.87409999999997, 71.89930000000001 81.72009999999997, 74.1719 81.72009999999997 C 78.53229999999999 81.72009999999997, 83.5483 82.38889999999998, 86.8857 85.44029999999998 C 90.38260000000001 88.63689999999998, 95.678 90.43539999999997, 100.2518 88.67979999999997 C 101.08120000000001 88.36189999999996, 101.871 87.93729999999998, 102.5915 87.41919999999998 C 103.52319999999999 86.74709999999996, 104.51979999999999 86.20589999999997, 105.18309999999998 85.23129999999996 C 106.35789999999999 83.50539999999997, 106.19179999999999 81.33839999999996, 105.30189999999999 79.51899999999996 C 108.394 79.75549999999997, 111.8128 80.01509999999996, 114.4704 78.09009999999996 C 117.5262 75.87689999999996, 117.6791 71.86629999999995, 116.4372 68.59819999999996 C 117.04990000000002 63.22690000000001, 115.6243 58.5024, 111.5092 55.479600000000005 Z" data-id="body" fill="black" />
		<path d="M 85.17850000000001 43.18710000000001 C 82.45600000000002 40.8947, 79.7555 38.575900000000004, 77.08800000000001 36.22080000000001 C 75.73060000000001 34.593900000000005, 74.0476 33.22880000000001, 72.2975 32.04740000000001 C 70.9995 31.171800000000008, 69.57169999999999 30.54810000000001, 68.30890000000001 29.603200000000005 C 67.6082 29.079600000000006, 67.089 28.197400000000005, 66.4059 27.612200000000005 C 65.6029 26.924700000000005, 64.7185 26.334000000000007, 63.785700000000006 25.836800000000004 C 62.84740000000001 25.33630000000001, 61.85080000000001 24.904000000000007, 60.82010000000001 24.633400000000005 C 60.832200000000014 24.633400000000005, 60.83330000000001 24.632300000000004, 60.82340000000001 24.631200000000007 C 62.45360000000001 24.482700000000005, 64.08380000000001 24.334200000000006, 65.7129 24.186800000000005 L 60.59570000000001 22.630300000000005 C 60.60230000000001 22.629200000000004, 60.60340000000001 22.628100000000007, 60.59900000000001 22.627000000000006 C 61.78590000000001 22.106700000000007, 62.97390000000001 21.587500000000006, 64.16080000000001 21.067200000000007 C 62.837500000000006 20.62720000000001, 61.310700000000004 20.629400000000008, 59.9269 20.622800000000005 C 60.2162 19.75710000000001, 60.78490000000001 18.944200000000006, 61.264500000000005 18.172000000000004 C 58.04370000000001 18.903500000000005, 54.871300000000005 20.342300000000005, 52.1268 22.182600000000008 C 52.349 21.14420000000001, 52.572300000000006 20.10470000000001, 52.7945 19.06630000000001 C 51.6318 20.451200000000007, 50.4746 21.847100000000005, 49.3042 23.222100000000008 C 48.3736 21.094700000000007, 47.218599999999995 19.060800000000004, 45.8645 17.174300000000006 C 45.528999999999996 16.706800000000005, 44.5918 15.062300000000004, 43.85699999999999 15.065600000000005 C 42.60739999999999 14.961100000000004, 42.247699999999995 18.147800000000007, 42.11679999999999 18.921100000000006 C 41.90999999999999 20.146500000000007, 41.80109999999999 21.396100000000008, 41.7296 22.629200000000004 C 40.11149999999999 21.887800000000006, 38.701299999999996 20.606300000000005, 37.3835 19.435900000000007 C 35.824799999999996 18.052100000000006, 34.33539999999999 16.589100000000006, 32.88119999999999 15.096400000000004 C 32.110099999999996 14.305500000000006, 31.346699999999995 13.506900000000005, 30.600899999999992 12.690700000000005 C 30.341299999999993 12.405800000000005, 29.981599999999993 11.823900000000005, 29.505299999999995 11.969100000000005 C 28.636299999999995 12.214400000000007, 28.991599999999995 13.695000000000004, 29.028999999999996 14.285700000000006 C 29.352399999999996 19.341300000000007, 30.394099999999995 25.81040000000001, 34.709399999999995 29.109300000000008 C 35.105399999999996 29.411800000000007, 35.5278 29.656000000000006, 35.9777 29.866100000000007 C 36.772999999999996 30.188400000000005, 37.2746 31.40500000000001, 37.460499999999996 32.176100000000005 C 37.7619 33.42790000000001, 37.727799999999995 35.2561, 37.1239 36.443000000000005 C 33.769999999999996 40.487700000000004, 31.429199999999998 45.380500000000005, 29.544899999999995 50.251300000000015 C 27.733199999999997 54.93400000000001, 26.333999999999996 59.77400000000001, 25.192199999999996 64.6624 C 24.073499999999996 69.45290000000001, 23.149499999999996 74.316, 22.582999999999995 79.20660000000001 C 22.520299999999995 79.7467, 23.718199999999996 80.39460000000001, 24.120799999999996 80.6564 C 25.144899999999996 81.3208, 26.278999999999996 81.8037, 27.440599999999996 82.17000000000002 C 28.8101 82.6012, 30.2522 82.90480000000002, 31.687699999999996 83.00710000000001 C 33.0451 83.1028, 34.46189999999999 83.534, 35.794 83.81230000000001 C 37.34499999999999 84.13680000000001, 38.89049999999999 84.48110000000001, 40.429399999999994 84.85400000000001 C 42.785599999999995 85.42380000000001, 45.1275 86.0552, 47.43639999999999 86.79220000000001 C 50.12479999999999 87.65130000000002, 52.837399999999995 88.62480000000001, 55.29259999999999 90.0361 C 56.0802 90.4882, 56.9613 91.0008, 57.5498 91.71360000000001 C 58.08219999999999 92.35930000000002, 59.25039999999999 92.71020000000001, 60.0336 92.38790000000002 C 60.9576 92.02380000000001, 60.9796 91.19440000000002, 61.213899999999995 90.33860000000001 C 62.12029999999999 87.02650000000001, 62.543800000000005 82.69800000000001, 65.6007 80.61570000000002 C 64.45009999999999 79.49260000000001, 62.9365 78.67970000000001, 61.51749999999999 77.96140000000001 C 57.404599999999995 75.88020000000002, 52.900099999999995 74.58220000000001, 48.4143 73.59330000000001 C 42.770199999999996 72.35140000000001, 34.558699999999995 72.4042, 31.973699999999994 66.03960000000002 C 30.724099999999996 62.96070000000002, 31.242199999999997 58.75210000000001, 31.890099999999993 55.63470000000002 C 32.50939999999999 52.653700000000015, 33.641299999999994 49.76730000000001, 35.3529 47.240600000000015 C 36.817 45.08020000000002, 38.72 43.40270000000002, 40.6571 41.69220000000002 C 37.5661 47.35610000000002, 34.6291 53.835100000000025, 35.1923 60.43840000000002 C 35.6147 65.39060000000002, 39.0093 69.04590000000003, 43.925200000000004 69.93800000000002 C 46.788500000000006 70.45720000000001, 49.58250000000001 71.35040000000002, 52.42490000000001 71.96420000000002 C 62.18520000000001 74.06850000000001, 69.92370000000001 78.936, 69.86430000000001 78.96460000000002 C 73.73190000000002 78.13630000000002, 78.27490000000002 78.51470000000002, 82.09960000000002 79.51130000000002 C 79.98760000000001 72.83870000000002, 84.19840000000002 67.11430000000003, 89.71600000000002 63.82860000000002 C 90.65870000000002 63.26650000000002, 92.01830000000002 62.945300000000024, 92.51880000000003 61.93000000000003 C 92.86530000000002 61.22490000000003, 92.97310000000003 60.38230000000002, 93.23050000000003 59.64090000000002 C 94.11050000000003 57.11310000000002, 95.60650000000003 54.64910000000002, 97.90770000000003 53.18830000000002 C 93.41970000000002 50.217200000000005, 89.28920000000001 46.651, 85.17850000000001 43.18710000000001 Z M 37.866400000000006 28.978400000000004 C 31.5161 27.195300000000007, 30.066300000000002 15.831200000000003, 30.066300000000002 15.831200000000003 C 29.398600000000002 12.599400000000001, 30.9573 15.273500000000002, 30.9573 15.273500000000002 C 34.077999999999996 19.284100000000006, 35.0702 21.2905, 35.0702 21.2905 C 36.509 24.4112, 40.986000000000004 31.097, 40.986000000000004 31.097 C 40.095000000000006 30.0938, 37.866400000000006 28.9795, 37.866400000000006 28.978400000000004 Z" fill="#874F24" />
		<path d="M 62.80780000000001 32.219 C 59.45720000000001 32.219, 57.0427 34.247400000000006, 54.2289 35.748900000000006 C 54.080400000000004 35.828100000000006, 54.143100000000004 37.6244, 54.191500000000005 37.9093 C 54.46210000000001 39.494400000000006, 55.731500000000004 41.2599, 56.7853 42.42920000000001 C 59.2504 45.16270000000001, 63.00800000000001 46.289100000000005, 66.6127 45.73030000000001 C 68.96340000000001 45.3662, 70.87740000000001 44.336600000000004, 72.90690000000001 43.1948 C 72.501 42.58650000000001, 71.9906 41.9804, 71.6628 41.327000000000005 C 71.31410000000001 40.711, 71.2063 39.857400000000005, 71.08970000000001 39.171 C 70.9621 38.4109, 70.4869 37.62330000000001, 70.1503 36.9369 C 68.7159 34.0307, 66.1144 32.219, 62.80780000000001 32.219 Z" />
		<path d="M 62.80780000000001 34.300200000000004 C 64.96600000000001 34.300200000000004, 66.968 35.3386, 67.9899 37.282300000000006 C 68.409 38.0787, 68.9216 38.95430000000001, 69.0943 39.842 C 69.2615 40.709900000000005, 69.432 41.7329, 69.9292 42.480900000000005 C 66.7634 44.19030000000001, 62.480000000000004 44.361900000000006, 59.5221 42.1333 C 58.63550000000001 41.4656, 57.8952 40.6186, 57.3089 39.6781 C 57.088899999999995 39.325, 55.7832 37.2834, 56.35850000000001 36.9721 C 58.521100000000004 35.8006, 60.2096 34.300200000000004, 62.80780000000001 34.300200000000004" fill="white" />
		<path d="M 47.671800000000005 26.862000000000005 L 49.23160000000001 26.862000000000005 L 49.23160000000001 28.421800000000005 L 51.7935 26.862000000000005 L 51.7935 29.091700000000007 C 52.350100000000005 28.421800000000005, 54.91420000000001 26.473700000000008, 54.91420000000001 26.473700000000008 L 56.807300000000005 28.310700000000004 L 56.807300000000005 25.971 C 57.4761 26.0832, 61.04120000000001 27.308600000000002, 61.04120000000001 27.308600000000002 C 60.59570000000001 26.194300000000005, 59.92580000000001 24.634500000000003, 59.92580000000001 24.634500000000003 L 61.61100000000001 24.8809 C 62.71210000000001 24.6983, 65.7206 24.189, 65.7206 24.189 L 60.59570000000001 22.6303 L 64.39730000000002 20.969299999999997 C 62.64390000000001 20.2125, 59.92690000000001 20.622799999999994, 59.92690000000001 20.622799999999994 C 60.15130000000001 19.955099999999995, 61.647300000000016 17.874999999999993, 61.647300000000016 17.874999999999993 C 56.645600000000016 18.339199999999995, 52.12680000000001 22.182599999999994, 52.12680000000001 22.182599999999994 L 52.794500000000006 19.064099999999993 L 49.30310000000001 23.222099999999994 L 48.67170000000001 24.522299999999994 C 46.66640000000001 24.634499999999992, 41.72740000000001 22.629199999999994, 41.72740000000001 22.629199999999994 C 46.148300000000006 24.744500000000002, 47.671800000000005 26.862000000000005, 47.671800000000005 26.862000000000005 Z" />
		<circle cx="63.104800000000004" cy="39.050000000000004" r="3.2307" fill="black" />
		<path d="M 113.18670000000002 68.9821 C 115.86520000000002 55.6083, 100.26280000000001 54.49620000000001, 100.26280000000001 54.49620000000001 C 96.02890000000002 56.05490000000001, 94.91460000000002 61.84970000000001, 94.91460000000002 61.84970000000001 C 94.24690000000002 64.3027, 92.68710000000002 64.74820000000001, 92.68710000000002 64.74820000000001 C 79.31660000000002 71.434, 84.92440000000002 80.49140000000001, 84.92440000000002 80.49140000000001 L 84.92440000000002 80.49800000000002 C 87.69640000000001 81.73550000000002, 89.12090000000002 83.24360000000001, 89.12090000000002 83.24360000000001 C 96.69990000000001 89.2639, 101.37490000000001 84.3601, 101.37490000000001 84.3601 C 103.23720000000002 83.5978, 103.16570000000002 82.15790000000001, 102.3627 80.6663 C 102.3627 80.7257, 102.36160000000001 80.7697, 102.36160000000001 80.78070000000001 L 102.35280000000002 80.905 L 102.311 81.02159999999999 C 102.08440000000002 81.6596, 101.56190000000002 82.39110000000001, 100.41350000000001 82.6903 C 100.39590000000001 82.69579999999999, 100.38380000000002 82.7046, 100.3662 82.7101 C 100.3662 82.7101, 100.34420000000001 82.7079, 100.3354 82.70679999999999 C 100.02080000000001 82.7816, 99.6699 82.8322, 99.2552 82.8322 C 95.32050000000001 82.8322, 88.49390000000001 78.8733, 88.20570000000001 78.7039 L 88.16940000000001 78.68520000000001 L 88.1331 78.6588 C 87.8823 78.4773, 87.6865 78.254, 87.5149 78.0142 C 87.5072 78.0098, 87.50059999999999 78.0065, 87.4929 78.00210000000001 L 87.48960000000001 77.98010000000001 C 86.8373 77.03960000000001, 86.71740000000001 75.78010000000002, 86.71850000000002 75.0222 C 86.71850000000002 74.70100000000001, 86.73940000000002 74.47000000000001, 86.74600000000002 74.393 C 86.91100000000003 72.72760000000001, 88.01540000000001 71.7332, 89.70280000000002 71.7332 C 90.39250000000003 71.7332, 90.94690000000003 71.8971, 91.00960000000003 71.918 L 91.03820000000002 71.9257 L 91.06790000000002 71.9378 C 97.91430000000003 74.5921, 102.75760000000002 75.9088, 104.25030000000002 76.2916 C 106.62520000000002 76.48630000000001, 108.05960000000002 76.56219999999999, 108.05960000000002 76.56219999999999 C 117.1984 76.78110000000001, 113.18670000000002 68.9821, 113.18670000000002 68.9821 Z M 108.10250000000002 66.96910000000001 C 107.1059 68.32430000000001, 104.85090000000001 68.35950000000001, 103.06670000000001 67.04610000000001 C 101.2814 65.73270000000001, 100.64340000000001 63.572300000000006, 101.6389 62.2149 C 102.63440000000001 60.859700000000004, 104.88940000000001 60.8256, 106.67470000000002 62.139 C 108.45890000000001 63.453500000000005, 109.0991 65.6139, 108.10250000000002 66.96910000000001 Z" fill="#61462A" />
		<path d="M 88.0616 76.99780000000001 C 88.0616 76.99780000000001, 97.031 83.05770000000001, 101.00750000000001 80.9094 L 101.34300000000002 78.71820000000001 C 101.34300000000002 78.71820000000001, 101.32760000000002 78.386, 100.48060000000001 77.7711 C 100.48060000000001 77.7711, 96.68780000000002 79.7159, 88.0627 75.9539 L 88.0627 76.99780000000001 Z" fill="white" />
		<path d="M 95.733 74.756 C 95.733 74.756, 94.19190000000002 73.7418, 91.25160000000001 73.5273 C 91.25160000000001 73.5273, 89.35410000000002 73.7935, 88.60170000000001 74.7263 C 93.1876 76.72829999999999, 95.8815 77.1496, 97.3335 77.1496 C 97.79000000000002 77.1496, 98.098 77.10780000000001, 98.29380000000002 77.06930000000001 C 97.85820000000001 76.35430000000001, 97.08270000000002 75.55460000000001, 95.733 74.756 Z" fill="#BE1E2D" />
	</g>
</svg>