<svg xmlns="http://www.w3.org/2000/svg" viewbox="0 0 128 128" width="128" height="128">
	<g data-id="long_hair_girl" fill="black">
		<path d="M 97.87140000000001 97.8811 Q 93.4967 93.1885, 92.64200000000001 87.7908 Q 98.5215 93.5812, 106.89140000000002 94.1543 C 98.83390000000001 87.8161, 95.66590000000002 66.35730000000001, 95.66590000000002 66.35730000000001 L 94.75840000000001 65.6027 C 92.3472 71.0939, 88.46640000000002 76.26830000000001, 82.35260000000001 80.16340000000001 C 82.35260000000001 80.16340000000001, 79.51240000000001 82.19730000000001, 74.42380000000001 82.0598 L 74.1136 84.8604 C 79.5014 93.84410000000001, 87.5479 97.72160000000001, 87.5479 97.72160000000001 C 86.62280000000001 93.76050000000001, 85.79010000000001 90.03150000000001, 85.79010000000001 90.03150000000001 C 89.8854 95.9737, 97.87140000000001 97.8811, 97.87140000000001 97.8811 Z" data-id="bottom" fill="#BE1F45" />
		<path d="M 67.2232 61.256600000000006 Q 65.5952 70.3998, 68.36280000000001 81.71550000000002 C 77.21450000000002 84.4424, 82.33830000000002 80.76070000000001, 82.33830000000002 80.76070000000001 C 100.936 68.91480000000001, 99.4994 45.5838, 98.054 36.2272 C 93.49450000000002 43.1836, 84.3326 51.5854, 67.2232 61.256600000000006 Z" fill="white" />
		<path d="M 103.89170000000001 22.3991 L 100.5642 18.1762 C 99.2277 16.5152, 97.7702 15.342600000000001, 96.2885 14.526399999999999 L 96.2852 14.5242 C 96.24010000000001 14.5, 96.1939 14.478, 96.1477 14.4538 C 95.97500000000001 14.360299999999999, 95.80120000000001 14.2668, 95.6263 14.1832 C 70.9225 1.0128999999999948, 35.151599999999995 12.435299999999998, 29.164299999999994 33.2022 C 23.35299999999999 53.359700000000004, 31.897799999999993 72.2753, 31.897799999999993 72.2753 C 37.10959999999999 89.04260000000001, 21.43129999999999 99.4222, 21.43129999999999 99.4222 C 29.32379999999999 96.7283, 33.34539999999999 92.8079, 33.34539999999999 92.8079 C 31.55569999999999 102.214, 19.36769999999999 111.94130000000001, 19.36769999999999 111.94130000000001 C 29.38869999999999 111.94130000000001, 39.99159999999999 100.79390000000001, 39.99159999999999 100.79390000000001 C 38.22939999999999 107.1068, 36.38249999999999 109.21770000000001, 36.38249999999999 109.21770000000001 C 56.13739999999999 105.3116, 56.8546 83.86270000000002, 56.8546 83.86270000000002 C 59.142599999999995 88.23190000000001, 65.4203 92.13250000000001, 65.4203 92.13250000000001 C 63.298399999999994 87.73800000000001, 63.149899999999995 82.47230000000002, 63.149899999999995 82.47230000000002 C 68.0394 89.34400000000001, 72.83209999999998 92.03350000000002, 72.83209999999998 92.03350000000002 C 64.9 76.661, 67.661 61.207100000000004, 67.661 61.207100000000004 C 82.7343 52.686499999999995, 91.45840000000001 45.180099999999996, 96.2621 38.8144 C 98.4313 40.4446, 100.45970000000001 41.4247, 101.95240000000001 41.725 L 102.3781 50.9254 C 102.3781 50.9254, 118.58000000000001 40.670100000000005, 103.89170000000001 22.3991 Z" data-id="top" fill="#511534" />
		<path d="M 76.3598 45.158100000000005 Q 67.81170000000002 50.0993, 67.0219 51.90990000000001 Q 65.9131 47.354800000000004, 66.5467 45.158100000000005 Q 62.220400000000005 48.201800000000006, 61.7353 50.080600000000004 C 61.7353 50.080600000000004, 59.95 44.22420000000001, 60.479099999999995 42.3267 C 60.479099999999995 42.3267, 55.3102 47.133700000000005, 54.835 51.0596 C 54.835 51.0596, 52.4601 46.50780000000001, 52.3028 44.179100000000005 C 52.3028 44.179100000000005, 49.771699999999996 48.777100000000004, 50.087399999999995 50.93200000000001 C 50.087399999999995 50.93200000000001, 47.3231 47.67380000000001, 47.360499999999995 45.158100000000005 C 47.360499999999995 45.158100000000005, 44.3124 48.16770000000001, 43.717299999999994 53.00110000000001 C 43.717299999999994 53.00110000000001, 41.1741 50.185100000000006, 41.474399999999996 48.65610000000001 C 41.474399999999996 48.65610000000001, 38.4593 51.979200000000006, 38.4186 54.19570000000001 C 38.3779 56.412200000000006, 35.013 47.830000000000005, 35.903999999999996 45.158100000000005 C 35.903999999999996 45.158100000000005, 32.678799999999995 50.871500000000005, 32.678799999999995 54.19570000000001 C 32.678799999999995 54.19570000000001, 29.1951 50.28300000000001, 29.037799999999997 48.44160000000001 C 29.037799999999997 48.44160000000001, 27.295399999999997 51.90880000000001, 27.780499999999996 56.546400000000006 C 29.056499999999996 65.8733, 31.946199999999997 72.28300000000002, 31.946199999999997 72.28300000000002 C 33.5126 77.3243, 33.184799999999996 81.78040000000001, 31.970399999999994 85.5578 L 42.64919999999999 85.8482 L 67.947 76.80290000000001 C 66.5203 67.8764, 67.7094 61.214800000000004, 67.7094 61.214800000000004 C 72.8376 58.31630000000001, 77.22109999999999 55.53660000000001, 80.9765 52.87680000000001 L 81.30760000000001 52.02320000000001 L 75.72730000000001 53 C 75.72730000000001 53, 74.46010000000001 49.5713, 76.3598 45.158100000000005 Z" data-id="middle" fill="#7B184D" />
		<path d="M 65.43900000000001 70.4955 Q 62.27540000000001 69.8542, 61.48340000000001 68.433 C 61.48340000000001 68.433, 60.42630000000001 71.92000000000002, 60.48020000000001 72.86930000000001 C 60.48020000000001 72.86930000000001, 56.690700000000014 70.9751, 54.99450000000001 69.70570000000001 Q 54.83500000000001 71.92000000000002, 54.99450000000001 73.34450000000001 L 50.87940000000001 70.88930000000002 C 50.87940000000001 70.88930000000002, 50.385500000000015 75.46860000000001, 48.337300000000006 79.3923 C 48.337300000000006 79.3923, 48.27460000000001 74.769, 47.36160000000001 73.02770000000001 C 47.36160000000001 73.02770000000001, 45.822700000000005 75.561, 43.445600000000006 78.41000000000001 C 43.445600000000006 78.41000000000001, 42.9671 75.90530000000001, 42.49190000000001 73.91320000000002 C 42.49190000000001 73.91320000000002, 41.067400000000006 76.41900000000001, 39.00930000000001 79.39340000000001 C 39.00930000000001 79.39340000000001, 38.058900000000015 76.51140000000001, 37.42750000000001 75.08690000000001 C 37.42750000000001 75.08690000000001, 37.36700000000001 77.40020000000001, 34.90740000000001 80.62540000000001 L 32.872400000000006 81.37010000000001 C 31.611800000000002 92.71440000000001, 21.483000000000004 99.42880000000001, 21.483000000000004 99.42880000000001 C 29.375500000000006 96.73270000000001, 33.3971 92.81230000000001, 33.3971 92.81230000000001 C 31.607400000000005 102.2184, 19.419400000000003 111.9479, 19.419400000000003 111.9479 C 29.4404 111.9479, 40.0433 100.80160000000001, 40.0433 100.80160000000001 C 38.28 107.11120000000001, 36.434200000000004 109.22540000000001, 36.434200000000004 109.22540000000001 C 56.188 105.316, 56.90630000000001 83.86710000000002, 56.90630000000001 83.86710000000002 C 59.194300000000005 88.23630000000001, 65.47200000000001 92.13910000000001, 65.47200000000001 92.13910000000001 C 63.350100000000005 87.74570000000001, 63.201600000000006 82.4778, 63.201600000000006 82.4778 C 68.09000000000002 89.35170000000001, 72.88380000000002 92.04010000000001, 72.88380000000002 92.04010000000001 C 68.90620000000001 84.3335, 67.617 76.6093, 67.32000000000001 70.82000000000001 L 65.43900000000001 70.4955 Z" data-id="bottom" fill="#BE1F45" />
		<path d="M 95.06750000000001 15.9795 Q 88.65890000000002 17.3446, 85.80990000000001 21.958 C 85.80990000000001 21.958, 86.20370000000001 15.8904, 87.15520000000001 13.8334 Q 80.7444 17.4722, 78.8447 22.0614 Q 79.4772 15.2337, 81.851 12.8599 Q 75.0805 16.2061, 74.11359999999999 19.6876 Q 73.38539999999999 15.335999999999999, 76.0749 12.011800000000001 Q 68.2418 17.3127, 66.9757 23.0107 C 66.9757 23.0107, 65.3136 16.296300000000002, 68.321 11.458499999999999 C 68.321 11.458499999999999, 62.546 16.6813, 61.754 19.686500000000002 C 61.754 19.686500000000002, 61.3591 16.2952, 62.7517 12.8588 C 62.7517 12.8588, 56.057100000000005 16.9959, 55.1067 20.3179 C 55.1067 20.3179, 54.235499999999995 17.2335, 55.5819 13.909300000000002 C 55.5819 13.909300000000002, 50.3602 18.8934, 49.568200000000004 20.793100000000003 C 49.568200000000004 20.793100000000003, 49.8839 16.9948, 50.6759 16.3623 C 50.6759 16.3623, 44.6633 19.054000000000002, 43.3961 20.9526 C 43.3961 20.9526, 45.733599999999996 16.7726, 50.6759 13.8312 C 50.674800000000005 13.8334, 76.07490000000001 4.205099999999998, 95.06750000000001 15.9795 Z" />
		<path d="M 45.310100000000006 85.3686 C 45.310100000000006 85.3686, 47.482600000000005 79.79820000000001, 43.477500000000006 62.25320000000001 Q 40.88260000000001 52.01660000000001, 46.062500000000014 40.8241 Q 43.81190000000001 53.447700000000005, 46.277000000000015 64.14520000000002 C 46.277 64.1452, 49.5506 79.301, 45.310100000000006 85.3686 Z" />
		<path d="M 68.6367 54.1891 Q 89.7655 42.7568, 93.88060000000002 27.5823 Q 82.80250000000001 44.534400000000005, 68.6367 54.1891 Z" />
		<path d="M 37.635400000000004 71.70439999999999 Q 38.1084 65.9096, 35.3694 57.2537 Q 33.5445 51.6074, 36.3352 44.153800000000004 C 36.3352 44.153800000000004, 34.727 49.044399999999996, 36.80929999999999 56.9017 C 36.80930000000001 56.902800000000006, 39.0632 63.5369, 37.635400000000004 71.70439999999999 Z" />
		<path d="M 112.90840000000001 96.47090000000001 L 108.06730000000002 92.66050000000001 C 103.25700000000002 88.87980000000002, 100.03400000000002 78.17350000000002, 98.46210000000002 70.96960000000001 C 101.38810000000001 65.58070000000001, 103.19760000000001 59.28760000000001, 103.82130000000002 52.23770000000001 C 105.35910000000001 51.13660000000001, 110.54560000000002 46.95990000000001, 111.71710000000002 39.92210000000001 C 112.70490000000001 33.97110000000001, 110.57090000000001 27.675800000000006, 105.38330000000002 21.224300000000003 L 102.04150000000001 16.986 C 100.7116 15.332699999999999, 99.1705 14.027000000000001, 97.47540000000001 13.044699999999999 C 97.4578 13.0304, 97.4281 13.007299999999999, 97.4193 13.0018 L 97.20810000000002 12.8643 C 96.99250000000002 12.743299999999998, 96.76480000000001 12.6421, 96.54480000000002 12.5255 C 96.51840000000003 12.511199999999999, 96.48980000000003 12.4969, 96.46120000000003 12.4826 C 89.28920000000004 8.672199999999998, 80.85000000000004 6.644899999999998, 71.96530000000004 6.644899999999998 C 50.803500000000035 6.644899999999998, 31.61620000000004 17.836299999999998, 27.338300000000036 32.6753 C 21.572100000000034 52.674400000000006, 29.333700000000036 71.1632, 30.115800000000032 72.9419 C 34.73580000000003 88.05480000000001, 20.969300000000036 97.44550000000001, 20.383000000000035 97.83600000000001 L 8.0685 105.9925 L 22.0473 101.2196 C 24.9502 100.2307, 27.3581 99.07900000000001, 29.265500000000003 97.9955 C 25.410000000000004 104.62740000000001, 18.2754 110.38700000000001, 18.183000000000003 110.4585 L 13.952400000000003 113.84100000000001 L 19.368800000000004 113.84100000000001 C 25.2571 113.84100000000001, 31.1795 110.4398, 35.3969 107.2993 C 35.11970000000001 107.76240000000001, 34.95360000000001 107.9692, 34.9547 107.9692 L 31.286200000000004 112.1613 L 36.752100000000006 111.08109999999999 C 51.797900000000006 108.10449999999999, 56.57520000000001 95.56339999999999, 58.0767 88.61249999999998 C 60.886100000000006 91.5319, 64.2246 93.62409999999998, 64.4204 93.7451 L 69.9787 97.2002 L 67.133 91.30639999999998 C 66.7898 90.59799999999998, 66.5038 89.8599, 66.2629 89.12289999999999 C 69.37700000000001 92.25019999999999, 71.75959999999999 93.612, 71.9037 93.69229999999999 L 77.42349999999999 96.78769999999999 L 74.5217 91.1645 C 73.92219999999999 90.0029, 73.38869999999999 88.8402, 72.9091 87.68299999999999 C 73.17309999999999 87.705, 73.43599999999999 87.70389999999999, 73.69999999999999 87.716 C 79.2209 95.7449, 86.39839999999998 99.277, 86.7229 99.4332 L 90.29899999999999 101.1558 L 89.3981 97.29149999999998 C 89.28589999999998 96.8108, 89.1759 96.33449999999999, 89.067 95.86919999999998 C 93.05779999999999 98.65219999999998, 97.18499999999999 99.66639999999998, 97.4314 99.72689999999999 L 103.55179999999999 101.18879999999999 L 99.26179999999998 96.58309999999999 C 98.16069999999998 95.40499999999999, 97.30709999999998 94.17079999999999, 96.64379999999998 93.00479999999999 C 101.67959999999998 95.6646, 106.49099999999999 96.02869999999999, 106.76379999999999 96.04959999999998 L 112.90840000000001 96.47090000000001 Z M 103.356 26.666 C 103.3956 26.0291, 103.3912 25.4219, 103.36370000000001 24.829 C 107.1477 29.9429, 108.7031 34.7906, 107.976 39.2577 C 107.42930000000001 42.6116, 105.66270000000002 45.198800000000006, 104.09410000000001 46.9093 L 103.8554 41.725 C 104.53410000000001 40.361000000000004, 105.93990000000001 36.846500000000006, 104.3262 33.6158 C 104.3262 33.6158, 104.764 37.9674, 101.85560000000001 39.7351 C 101.04160000000002 39.4942, 100.05380000000001 39.0388, 98.95490000000001 38.3502 C 101.6422 34.3737, 103.1162 30.474200000000003, 103.356 26.666 Z M 64.69760000000001 81.3723 L 61.075300000000006 76.2793 L 61.25240000000001 82.5273 C 61.25570000000001 82.6593, 61.315100000000015 84.5062, 61.78920000000001 86.946 C 60.509900000000016 85.7602, 59.27130000000001 84.3852, 58.53870000000001 82.9827 L 55.198000000000015 76.6049 L 54.957100000000004 83.80000000000001 C 54.9516 83.9837, 54.219 100.6212, 40.180800000000005 106.1454 C 40.7055 104.87379999999999, 41.269800000000004 103.281, 41.8209 101.3065 L 43.872400000000006 93.95849999999999 L 38.615500000000004 99.48599999999999 C 38.538500000000006 99.56739999999999, 32.63040000000001 105.7153, 25.778500000000005 108.58850000000001 C 29.531700000000004 104.7, 34.1088 98.9514, 35.211000000000006 93.1621 L 36.32420000000001 87.298 L 32.02320000000001 91.445 C 32.010000000000005 91.45819999999999, 31.49080000000001 91.9499, 30.48210000000001 92.69129999999998 C 33.851400000000005 87.64009999999999, 36.43310000000001 80.47249999999998, 33.71060000000001 71.71209999999999 L 33.62810000000001 71.49539999999999 C 33.544500000000006 71.31169999999997, 25.447400000000005 52.94279999999998, 30.989200000000007 33.72909999999998 C 34.816100000000006 20.4554, 52.4326 10.4443, 71.96640000000001 10.4443 C 80.45620000000002 10.4443, 88.49610000000001 12.4056, 95.23250000000002 16.1126 C 95.9123 16.667, 99.9856 20.2519, 99.561 26.4955 C 99.1144 33.0559, 93.55060000000002 43.6588, 70.2262 57.51990000000001 L 70.22290000000001 57.51550000000001 C 67.58400000000002 59.1831, 63.12460000000001 60.97280000000001, 59.92800000000001 62.15310000000001 C 61.92890000000001 55.72140000000001, 61.69900000000001 50.342400000000005, 61.68580000000001 50.074000000000005 C 61.68580000000001 50.074000000000005, 59.1019 61.64710000000001, 53.2488 68.42750000000001 L 57.313300000000005 67.09980000000002 C 57.56850000000001 67.01620000000001, 61.3998 65.75670000000002, 65.42470000000002 64.08360000000002 C 65.10570000000001 68.38680000000001, 65.08590000000001 76.507, 68.0416 85.48520000000002 C 66.97460000000001 84.3412, 65.8372 82.9761, 64.69760000000001 81.3723 Z M 76.3411 82.0103 L 76.3411 82.0015 C 75.23230000000001 82.095, 73.9794 82.07849999999999, 72.5901 81.9091 C 72.04450000000001 81.83869999999999, 71.48020000000001 81.74849999999999, 70.8961 81.6253 L 70.87740000000001 81.61429999999999 C 70.85210000000001 81.5098, 70.82570000000001 81.40969999999999, 70.8103 81.3624 C 68.39689999999999 71.29849999999999, 69.08 65.1484, 69.4122 62.396199999999986 C 81.95 55.23190000000001, 91.047 48.2139, 96.6559 41.4071 C 97.1927 41.748099999999994, 97.7152 42.0451, 98.22560000000001 42.3113 C 98.63590000000002 48.278800000000004, 98.35760000000002 56.298899999999996, 95.4547 63.90540000000001 C 95.0048 65.0824, 94.48890000000002 66.2484, 93.9081 67.3957 C 93.9081 67.3957, 93.9081 67.399, 93.9081 67.40010000000001 C 91.4661 72.21480000000001, 87.7954 76.6962, 82.35260000000001 80.1645 C 82.35260000000001 80.16340000000001, 80.2175 81.69130000000001, 76.3411 82.0103 Z M 78.287 87.5202 C 80.2142 87.2309, 81.79270000000001 86.7293, 82.99610000000001 86.22770000000001 L 83.93550000000002 90.4451 C 83.93550000000002 90.4451, 84.2292 91.7508, 84.65600000000002 93.6395 C 82.78930000000001 92.2491, 80.4661 90.22510000000001, 78.287 87.5202 Z M 93.97520000000002 86.4367 L 89.86450000000002 82.3865 L 90.76540000000001 88.08670000000001 C 90.79070000000002 88.244, 91.19000000000001 90.64200000000001, 92.69260000000001 93.6725 C 90.78850000000001 92.5692, 88.78540000000001 91.0314, 87.35320000000002 88.9535 L 84.84740000000001 85.3158 C 85.12020000000001 85.1585, 85.3413 85.0188, 85.49640000000001 84.9143 C 89.49490000000002 82.3535, 92.8752 79.17339999999999, 95.61750000000002 75.4444 C 96.89460000000003 80.42079999999999, 98.89110000000002 86.52689999999998, 101.77860000000003 91.07759999999999 C 99.31460000000001 90.2394, 96.39410000000001 88.8182, 93.97520000000002 86.4367 Z" />
	</g>
</svg>