<svg xmlns="http://www.w3.org/2000/svg" viewbox="0 0 128 128" width="128" height="128">
	<g data-id="long_hair" fill="black">
		<path d="M 67.433 34.86 C 84.167 34.86, 97.733 48.425, 97.733 65.161 C 97.733 81.89500000000001, 84.168 95.46000000000001, 67.433 95.46000000000001 C 50.699000000000005 95.46000000000001, 37.13400000000001 81.89600000000002, 37.13400000000001 65.161 C 37.133 48.426, 50.699 34.86, 67.433 34.86" fill="white" />
		<path d="M 67.433 34.86 C 84.167 34.86, 97.733 48.425, 97.733 65.161 C 97.733 81.89500000000001, 84.168 95.46000000000001, 67.433 95.46000000000001 C 50.699000000000005 95.46000000000001, 37.13400000000001 81.89600000000002, 37.13400000000001 65.161 C 37.133 48.426, 50.699 34.86, 67.433 34.86 M 67.433 27.86 C 46.86600000000001 27.86, 30.134000000000007 44.592, 30.134000000000007 65.161 C 30.134000000000007 85.727, 46.86600000000001 102.46000000000001, 67.433 102.46000000000001 C 88 102.46000000000001, 104.733 85.72800000000001, 104.733 65.161 C 104.732 44.593, 88 27.86, 67.433 27.86 L 67.433 27.86 Z" fill="#010101" />
		<path d="M 52.183 8.871 C 52.183 8.871, 38.119 5.41, 26.471 15.046 C 26.471 15.046, 12.868 25.41, 14.759 50.958999999999996 C 14.759 50.958999999999996, 23.428 101.142, 9.702 112.483 C 9.702 112.483, 19.535 112.803, 26.317 108.497 C 26.317 108.497, 35.372 103.599, 36.872 92.892 C 37.785 98.328, 38.932 111.076, 38.851 115.41199999999999 C 38.851 115.41199999999999, 46.915 100.46099999999998, 47.266999999999996 86.01899999999999 C 47.266999999999996 86.01899999999999, 48.885999999999996 93.66, 53.565999999999995 99.64599999999999 C 53.565999999999995 99.64599999999999, 59.145999999999994 82.92499999999998, 64.042 70.03699999999998 C 64.042 70.03699999999998, 66.493 77.51899999999998, 67.938 79.58199999999998 C 67.938 79.58199999999998, 72.01 64.02299999999998, 75.88300000000001 52.08499999999998 C 75.88300000000001 52.08499999999998, 78.05100000000002 59.64699999999998, 79.49600000000001 63.77199999999998 C 79.49600000000001 63.77199999999998, 80.971 49.99299999999998, 84.70100000000001 43.565999999999974 L 91.18 50.93299999999997 L 93.36800000000001 41.65299999999997 C 93.36800000000001 41.65299999999997, 100.19300000000001 51.00299999999997, 101.894 56.56199999999997 C 101.894 56.56199999999997, 104.583 47.52299999999997, 104.458 42.02399999999997 C 104.458 42.02399999999997, 104.463 17.661999999999974, 84.581 10.136999999999972 C 84.584 10.136, 73.368 3.66, 52.183 8.871 Z" data-id="hair" fill="white" />
		<path d="M 104.336 28.068 C 100.854 18.213, 94.387 11.228000000000002, 85.63 7.8580000000000005 C 84.45299999999999 7.237, 78.408 4.3420000000000005, 67.92599999999999 4.3420000000000005 C 62.91999999999999 4.3420000000000005, 57.612999999999985 5.003, 52.14299999999999 6.308000000000001 C 49.11999999999998 5.7250000000000005, 36.04699999999998 3.9020000000000006, 24.908999999999985 13.093 C 23.841999999999985 13.927, 10.333999999999985 25.04, 12.264999999999985 51.143 L 12.294999999999984 51.384 C 14.637999999999984 64.944, 18.451999999999984 102.00800000000001, 8.108999999999984 110.557 L 3.0329999999999844 114.754 L 9.619999999999983 114.983 C 9.619999999999983 114.983, 9.812999999999983 114.989, 10.164999999999983 114.989 C 12.640999999999984 114.989, 21.195999999999984 114.67500000000001, 27.592999999999982 110.647 C 28.209999999999983 110.299, 31.558999999999983 108.307, 34.56199999999998 104.45400000000001 C 34.475999999999985 105.86600000000001, 34.18999999999998 116.304, 34.16699999999998 117.554 L 34.01799999999998 125.658 C 34.01799999999998 125.658, 45.60099999999998 115.974, 48.97599999999998 97.287 C 50.72599999999998 104.537, 53.684999999999974 108.828, 53.684999999999974 108.828 C 53.684999999999974 108.828, 60.01799999999997 88.662, 63.324999999999974 74.719 C 65.34999999999998 81.32799999999999, 67.93399999999997 85.994, 67.93399999999997 85.994 C 67.93399999999997 85.994, 72.91299999999997 70.471, 75.84199999999997 60.656 C 76.28699999999996 62.071999999999996, 76.73699999999997 63.457, 77.13699999999997 64.597 L 80.8 75.048 L 81.984 64.036 C 81.996 63.925000000000004, 83.02199999999999 54.589, 85.378 48.116 L 92.505 56.22 L 94.5 47.757 C 96.507 50.887, 98.712 54.693999999999996, 99.507 57.291 L 101.93100000000001 65.213 L 104.293 57.272999999999996 C 104.40700000000001 56.888999999999996, 107.09400000000001 47.791, 106.962 42.022999999999996 C 106.961 41.757, 106.933 35.419, 104.336 28.068 Z M 101.151 49.079 C 98.597 44.591, 95.58 40.438, 95.38799999999999 40.178 L 92.18299999999999 35.787 L 89.86 45.643 L 84.285 39.303 L 82.541 42.309 C 80.88199999999999 45.166999999999994, 79.652 49.257, 78.779 53.083999999999996 C 78.482 52.06999999999999, 78.295 51.416, 78.289 51.394999999999996 L 76.033 43.526999999999994 L 73.508 51.312 C 71.267 58.218999999999994, 68.94399999999999 66.393, 67.384 72.051 C 67.026 71.059, 65.994 67.543, 65.721 66.711 L 63.519000000000005 59.992999999999995 L 61.008 66.601 C 57.77 75.124, 54.903000000000006 87.951, 52.868 93.912 C 50.352000000000004 75.72300000000001, 48.514 68.742, 48.514 68.742 C 47.289 63.160000000000004, 47.363 59.506, 47.363 59.506 C 46.094 66.111, 46.116 70.41, 46.116 70.41 C 45.477 100.459, 42.74 100.16, 39.157 111.24199999999999 C 39.150999999999996 110.31199999999998, 39.760999999999996 96.48199999999999, 39.693999999999996 95.541 L 39.69499999999999 95.541 C 39.85399999999999 88.473, 37.76599999999999 80.094, 37.76599999999999 80.094 C 36.413999999999994 74.473, 36.605999999999995 67.244, 36.605999999999995 67.244 C 34.26899999999999 70.91, 34.352 77.244, 34.352 77.244 C 35.126999999999995 88.76, 34.065999999999995 94.105, 33.782 95.283 C 31.561999999999998 102.654, 25.412 106.142, 25.127999999999997 106.297 L 24.977999999999998 106.387 C 21.956999999999997 108.303, 18.159999999999997 109.203, 15.131999999999998 109.623 C 18.764 103.051, 20.357999999999997 92.25200000000001, 19.877 77.387 C 19.442999999999998 63.985, 17.482999999999997 52.072, 17.244 50.657 C 16.352 38.28999999999999, 19.314 29.813999999999997, 21.961 24.877999999999997 C 24.831999999999997 19.523999999999997, 27.964999999999996 17.050999999999995, 27.987 17.033999999999995 L 28.066 16.971999999999994 C 34.266 11.842999999999995, 41.25 10.766999999999994, 46.015 10.766999999999994 C 49.334 10.766999999999994, 51.571 11.294999999999995, 51.587 11.298999999999994 L 52.184000000000005 11.444999999999995 L 52.781000000000006 11.298999999999994 C 58.057 10.000999999999994, 63.154 9.342999999999995, 67.927 9.342999999999995 C 77.959 9.342999999999995, 83.29400000000001 12.278999999999995, 83.33500000000001 12.300999999999995 L 83.7 12.473999999999995 C 101.69200000000001 19.283999999999995, 101.962 41.79899999999999, 101.96300000000001 42.07899999999999 C 102.008 44.095, 101.627 46.688, 101.151 49.079 Z" fill="#010101" />
	</g>
</svg>