<svg xmlns="http://www.w3.org/2000/svg" viewbox="0 0 128 128" width="128" height="128">
	<!-- <circle cx="50%" cy="50%" r="33.3" stroke="hsl(0deg 0% 0.39%)" stroke-width="7.5" fill="white" /> -->
	<circle cx="65.04" cy="62.160000000000004" r="27.200000000000003" stroke="hsl(0deg 0% 0.39%)" stroke-width="7.5" fill="white" />
	<g data-id="lovestruck_beanie" stroke="hsl(0deg 0% 0.39%)" stroke-linecap="round" stroke-linejoin="round" stroke-width="4">
		<path d="M 113.8512 31.325599999999998 C 113.7472 30.9256, 113.4144 30.6488, 112.9536 30.5856 L 92.25519999999999 27.721600000000002 L 92.06879999999998 27.708 C 91.65199999999999 27.708, 91.30399999999997 27.9272, 91.15359999999998 28.2832 C 91.09519999999998 28.4208, 90.94399999999997 28.907200000000003, 91.41919999999998 29.388 L 94.97919999999998 33.0152 L 83.82879999999997 35.8656 C 83.49759999999998 35.952, 83.05279999999998 36.1712, 82.77919999999997 36.3888 C 82.57439999999997 36.5504, 80.80719999999997 38.012, 81.22879999999998 39.67040000000001 C 81.56959999999998 40.99040000000001, 82.75599999999997 41.93120000000001, 84.11599999999997 41.95520000000001 L 84.39439999999996 41.96160000000001 L 84.47839999999997 41.94560000000001 C 84.71039999999998 41.90240000000001, 85.09599999999998 41.81840000000001, 85.33759999999997 41.75600000000001 L 96.48399999999998 38.90480000000001 L 95.10159999999998 43.79680000000001 C 94.96719999999998 44.26960000000001, 95.13359999999999 44.58480000000001, 95.24079999999998 44.73040000000001 L 95.55679999999998 45.08960000000001 L 95.97519999999997 45.08960000000001 C 96.20159999999998 45.08960000000001, 96.42479999999998 45.01200000000001, 96.63679999999998 44.85360000000001 L 113.41919999999999 32.40400000000001 C 113.7936 32.1296, 113.95280000000001 31.7256, 113.8512 31.325599999999998 Z" fill="hsl(0deg 0% 0.39%)" stroke="none" />
		<path d="M 40.869600000000005 66.592 C 37.916000000000004 55.88399999999999, 42.317600000000006 44.108, 52.329600000000006 38.163199999999996 C 64.32800000000002 31.038399999999996, 79.83120000000002 34.98799999999999, 86.95920000000001 46.988 C 88.34880000000001 49.331999999999994, 89.31360000000001 51.81199999999999, 89.88000000000001 54.33599999999999 L 40.869600000000005 66.592 Z" fill="#e81c23" stroke="none" />
		<path d="M 65.2072 34.616800000000005 C 73.83120000000001 34.616800000000005, 82.2352 39.03360000000001, 86.95920000000001 46.988 C 88.3488 49.332, 89.31360000000001 51.812000000000005, 89.88 54.336000000000006 L 40.869600000000005 66.592 C 37.916000000000004 55.88399999999999, 42.317600000000006 44.108, 52.329600000000006 38.163199999999996 C 56.3752 35.7616, 60.821600000000004 34.616800000000005, 65.2072 34.616800000000005 M 65.20960000000001 29.567200000000003 L 65.20960000000001 34.616800000000005 L 65.20960000000001 29.567200000000003 L 65.2072 29.567200000000003 C 59.782399999999996 29.567200000000003, 54.436800000000005 31.040000000000006, 49.752 33.821600000000004 C 38.035199999999996 40.778400000000005, 32.379999999999995 54.80640000000001, 36.001599999999996 67.93520000000001 C 36.6184 70.17120000000001, 38.647999999999996 71.64640000000001, 40.8664 71.64640000000001 C 41.272 71.64640000000001, 41.684 71.59680000000002, 42.0944 71.4936 L 91.10640000000001 59.23680000000001 C 93.768 58.572, 95.40960000000001 55.9048, 94.80799999999999 53.229600000000005 C 94.1096 50.12160000000001, 92.9288 47.15440000000001, 91.3032 44.412000000000006 C 85.86240000000001 35.2544, 75.86720000000001 29.567200000000003, 65.20960000000001 29.567200000000003 L 65.20960000000001 29.567200000000003 Z" fill="hsl(0deg 0% 0.39%)" stroke="none" />
		<path d="M 52.4064 46.796800000000005 C 52.104800000000004 45.612, 51.1256 44.726400000000005, 49.904799999999994 44.54240000000001 C 49.83279999999999 44.53200000000001, 49.761599999999994 44.528800000000004, 49.6896 44.52720000000001 L 49.5952 44.522400000000005 C 49.526399999999995 44.516000000000005, 49.4608 44.5112, 49.3176 44.51440000000001 L 49.0472 44.53680000000001 C 48.876 44.56960000000001, 48.54319999999999 44.644000000000005, 48.307199999999995 44.70240000000001 L 33.82 48.256 L 32.1672 48.674400000000006 C 32.135999999999996 48.680800000000005, 31.845599999999997 48.67840000000001, 31.807199999999995 48.66720000000001 L 21.616799999999998 45.5976 C 21.367199999999997 45.52160000000001, 21.104 45.508, 20.926399999999997 45.508 C 20.781599999999997 45.508, 20.563999999999997 45.519200000000005, 20.3544 45.572 L 6.9336 49.004000000000005 C 6.4872000000000005 49.120000000000005, 6.187200000000001 49.432, 6.128 49.839200000000005 C 6.0696 50.2464, 6.2728 50.6296, 6.6672 50.864000000000004 L 15.470400000000001 56.0824 L 10.2536 64.8856 C 10.0432 65.2432, 10.0272 65.6288, 10.2072 65.9472 C 10.38 66.2496, 10.700800000000001 66.4304, 11.066400000000002 66.4304 C 11.167200000000001 66.4304, 11.2744 66.41680000000001, 11.3792 66.38879999999999 L 24.803200000000004 62.955999999999996 C 25.1768 62.8592, 25.628000000000004 62.6016, 25.8976 62.328 L 33.3584 54.7456 C 33.412 54.68960000000001, 33.5872 54.5904, 33.6616 54.57040000000001 L 49.800000000000004 50.598400000000005 C 50.138400000000004 50.513600000000004, 50.5848 50.29520000000001, 50.8592 50.076800000000006 C 51.0632 49.9168, 52.8312 48.455200000000005, 52.4064 46.796800000000005 Z" fill="hsl(0deg 0% 0.39%)" stroke="none" />
		<path d="M 37.476 62.3168 C 37.6272 65.1768, 38.2168 67.928, 39.188 70.5 C 53.246399999999994 66.8456, 67.30799999999999 63.204, 81.3416 59.599199999999996 C 84.59440000000001 58.7192, 87.8512 57.9272, 91.1952 57.0464 C 91.4184 56.9888, 91.628 56.916799999999995, 91.8288 56.840799999999994 C 91.4432 54.22079999999999, 90.6808 51.72, 89.6024 49.38799999999999 Z" fill="#e81c23" stroke="none" />
		<path d="M 89.60320000000002 49.38720000000001 C 90.68240000000002 51.7192, 91.44400000000002 54.220000000000006, 91.82960000000001 56.84 C 91.62880000000001 56.916, 91.4192 56.988, 91.19600000000001 57.04560000000001 C 87.8512 57.927200000000006, 84.5952 58.7192, 81.3424 59.598400000000005 C 67.3088 63.20320000000001, 53.2472 66.8448, 39.1888 70.49920000000002 C 38.2176 67.92640000000002, 37.628 65.17600000000002, 37.4768 62.31600000000001 L 89.60320000000002 49.38720000000001 M 89.60560000000001 44.33840000000001 C 89.20240000000001 44.33840000000001, 88.79360000000001 44.385600000000004, 88.3888 44.4864 L 36.26080000000001 57.4136 C 33.912000000000006 57.9968, 32.30640000000001 60.163199999999996, 32.433600000000006 62.58 C 32.60960000000001 65.9224, 33.29360000000001 69.18560000000001, 34.464000000000006 72.28399999999999 C 35.22160000000001 74.2872, 37.132000000000005 75.5504, 39.186400000000006 75.5504 C 39.60640000000001 75.5504, 40.0352 75.4992, 40.457600000000006 75.38719999999999 C 57.3664 70.996, 70.36240000000001 67.6344, 82.5992 64.4896 C 82.62 64.4856, 82.644 64.47919999999999, 82.6632 64.4752 C 84.488 63.97919999999999, 86.2888 63.5208, 88.1936 63.035999999999994 C 89.6104 62.672799999999995, 91.0392 62.310399999999994, 92.48079999999999 61.92959999999999 C 92.8544 61.834399999999995, 93.23519999999999 61.71039999999999, 93.6232 61.5624 C 95.83919999999999 60.719199999999994, 97.1728 58.44959999999999, 96.82719999999999 56.105599999999995 C 96.37759999999999 53.056, 95.4896 50.083999999999996, 94.18719999999999 47.2696 C 93.34800000000001 45.449600000000004, 91.53680000000001 44.33840000000001, 89.60560000000001 44.33840000000001 Z" fill="hsl(0deg 0% 0.39%)" stroke="none" />
	</g>
</svg>