<svg xmlns="http://www.w3.org/2000/svg" viewbox="0 0 128 128" width="128" height="128">
	<g fill="#010101">
		<path d="M 82.2968 52.1592 C 94.9608 52.1592, 105.22559999999999 62.4256, 105.22559999999999 75.08800000000001 C 105.22559999999999 87.75280000000001, 94.96079999999999 98.01920000000001, 82.29679999999999 98.01920000000001 C 69.63279999999999 98.01920000000001, 59.3664 87.75280000000001, 59.3664 75.08800000000001 C 59.3664 62.4256, 69.6328 52.1592, 82.2968 52.1592 M 82.2968 46.86240000000001 C 66.73119999999999 46.86240000000001, 54.069599999999994 59.524800000000006, 54.069599999999994 75.0888 C 54.069599999999994 90.65360000000001, 66.73119999999999 103.31600000000002, 82.29679999999999 103.31600000000002 C 97.86 103.31600000000002, 110.52239999999998 90.65360000000001, 110.52239999999998 75.08880000000002 C 110.5224 59.524, 97.86000000000001 46.86240000000001, 82.2968 46.86240000000001 L 82.2968 46.86240000000001 Z" />
		<path d="M 82.2968 52.1592 C 94.9608 52.1592, 105.22559999999999 62.4256, 105.22559999999999 75.08800000000001 C 105.22559999999999 87.75280000000001, 94.96079999999999 98.01920000000001, 82.29679999999999 98.01920000000001 C 69.63279999999999 98.01920000000001, 59.3664 87.75280000000001, 59.3664 75.08800000000001 C 59.3664 62.4256, 69.6328 52.1592, 82.2968 52.1592" fill="white" />
		<path d="M 10.1624 54.3536 C 10.1624 54.3536, 14.448 62.290400000000005, 26.318399999999997 59.54 L 24.019199999999998 57.236000000000004 C 24.019199999999998 57.236000000000004, 30.970399999999998 56.04160000000001, 35.355199999999996 47.592800000000004 L 30.864 48.2248 C 30.864 48.2248, 32.040800000000004 41.176, 28.6176 36.0424 L 26.8 39.251200000000004 C 26.8 39.251200000000004, 22.949600000000004 33.26240000000001, 12.4688 33.476 L 14.1808 36.5568 C 14.1808 36.5568, 7.443199999999999 39.7856, 6.266399999999999 44.3848 L 9.153599999999999 43.9568 C 9.153599999999999 43.9568, 5.089599999999999 49.6248, 7.656799999999999 56.3632 L 10.1624 54.3536 Z" fill="white" />
		<path d="M 13.014400000000002 33.470400000000005 C 23.082400000000003 33.470400000000005, 26.8 39.251200000000004, 26.8 39.251200000000004 L 28.6176 36.0424 C 32.040800000000004 41.176, 30.864 48.2248, 30.864 48.2248 L 35.355199999999996 47.592800000000004 C 30.970399999999998 56.041599999999995, 24.019199999999998 57.236000000000004, 24.019199999999998 57.236000000000004 L 26.318399999999997 59.54 C 24.564799999999998 59.9464, 22.9792 60.119200000000006, 21.5448 60.119200000000006 C 13.276 60.119200000000006, 10.1616 54.3528, 10.1616 54.3528 L 7.655999999999999 56.36240000000001 C 5.089599999999999 49.62480000000001, 9.1528 43.95600000000001, 9.1528 43.95600000000001 L 6.265599999999999 44.38400000000001 C 7.442399999999999 39.784800000000004, 14.180000000000001 36.556000000000004, 14.180000000000001 36.556000000000004 L 12.468000000000002 33.47520000000001 C 12.652800000000001 33.472, 12.8344 33.470400000000005, 13.014400000000002 33.470400000000005 M 28.356 28.8296 L 25.8376 33.2736 C 23.1176 31.452800000000003, 18.9496 29.6864, 13.014399999999998 29.6864 L 13.014399999999998 29.6864 C 12.808799999999998 29.6864, 12.601599999999998 29.6888, 12.391999999999998 29.692800000000002 L 6.110399999999998 29.8208 L 9.099199999999998 35.2016 C 6.603199999999998 36.96319999999999, 3.538399999999998 39.7808, 2.6007999999999982 43.4464 L 1.1895999999999982 48.9616 L 3.3135999999999983 48.6464 C 2.8383999999999983 51.232, 2.8463999999999983 54.3616, 4.120799999999998 57.7088 L 5.970399999999998 62.56479999999999 L 9.669599999999997 59.5984 C 12.191999999999998 61.834399999999995, 16.135199999999998 63.9016, 21.5464 63.9016 C 23.342399999999998 63.9016, 25.2352 63.67439999999999, 27.1736 63.224000000000004 L 33.8096 61.686400000000006 L 30.576800000000006 58.4472 C 33.248000000000005 56.7416, 36.330400000000004 53.928, 38.714400000000005 49.3344 L 42.095200000000006 42.8232 L 34.8296 43.844 L 34.8152 43.845600000000005 C 34.6528 40.9288, 33.9448 37.208800000000004, 31.765600000000003 33.9408 L 28.356 28.8296 L 28.356 28.8296 Z" fill="#010101" />
		<path d="M 106.95920000000001 54.6592 C 106.95920000000001 54.6592, 101.34400000000001 37.6016, 71.34000000000002 21.544 C 71.34000000000002 21.544, 61.57120000000001 16.236, 49.47440000000001 29.1904 C 49.47440000000001 29.1904, 36.14320000000001 41.6584, 24.08560000000001 45.8768 C 24.08560000000001 45.8768, 18.025600000000008 50.175200000000004, 26.512800000000013 51.4448 C 26.512800000000013 51.4448, 33.34480000000001 51.97200000000001, 39.990400000000015 50.095200000000006 C 39.990400000000015 50.095200000000006, 46.234400000000015 48.1784, 48.33040000000001 49.4512 C 48.33040000000001 49.4512, 49.12560000000001 56.8168, 52.054400000000015 62.58160000000001 C 52.0544 62.5824, 79.36000000000001 45.1208, 106.95920000000001 54.6592 Z" fill="#d71e2f" />
		<path d="M 66.0752 20.467200000000002 C 69.3584 20.467200000000002, 71.34 21.544, 71.34 21.544 C 101.3448 37.6016, 106.95920000000001 54.6592, 106.95920000000001 54.6592 C 101.03760000000001 52.61279999999999, 95.13120000000002 51.8096, 89.50320000000002 51.8096 C 68.90160000000002 51.8096, 52.054400000000015 62.5824, 52.054400000000015 62.5824 C 49.124800000000015 56.8168, 48.33040000000001 49.452, 48.33040000000001 49.452 C 47.808000000000014 49.1352, 47.02800000000001 49.016, 46.15040000000001 49.016 C 43.509600000000006 49.016, 39.98960000000001 50.096000000000004, 39.98960000000001 50.096000000000004 C 35.73440000000001 51.2976, 31.403200000000005 51.5128, 28.83760000000001 51.5128 C 27.39680000000001 51.5128, 26.512800000000013 51.4448, 26.512800000000013 51.4448 C 18.025600000000008 50.1752, 24.085600000000014 45.8768, 24.085600000000014 45.8768 C 36.143200000000014 41.6584, 49.47440000000002 29.1904, 49.47440000000002 29.1904 C 56.122400000000006 22.070400000000003, 62.068 20.467200000000002, 66.0752 20.467200000000002 M 66.0752 16.6832 L 66.0752 16.6832 C 61.4872 16.6832, 54.4288 18.389599999999998, 46.8056 26.5032 C 45.678399999999996 27.5392, 33.5088 38.5704, 22.835999999999995 42.3048 L 22.331999999999994 42.4816 L 21.896799999999995 42.790400000000005 C 19.712799999999994 44.3408, 17.632799999999992 47.0664, 18.34959999999999 50.06960000000001 C 19.333599999999993 54.19680000000001, 24.315999999999992 54.94160000000001, 25.953599999999994 55.186400000000006 L 26.087999999999994 55.20640000000001 L 26.222399999999993 55.21680000000001 C 26.327999999999992 55.224800000000016, 27.295999999999992 55.29600000000002, 28.838399999999996 55.29600000000002 C 31.874399999999998 55.29600000000002, 36.452799999999996 55.025600000000026, 41.0192 53.73680000000002 L 41.0608 53.724800000000016 L 41.1016 53.71200000000002 C 41.7632 53.51040000000002, 43.5032 53.05120000000002, 45.0344 52.872000000000014 C 45.578399999999995 55.79040000000001, 46.6704 60.33600000000001, 48.6824 64.29600000000002 L 50.575199999999995 68.01920000000001 L 54.0944 65.76960000000001 C 54.2512 65.66960000000002, 70.3176 55.59200000000002, 89.5048 55.59200000000002 C 95.1944 55.59200000000002, 100.6512 56.48080000000002, 105.72480000000002 58.23440000000002 L 112.9424 60.72960000000002 L 110.55439999999999 53.47600000000003 C 110.30559999999998 52.720800000000025, 104.10959999999999 34.78960000000002, 73.1272 18.208000000000023 C 72.6744 17.9632, 70.1152 16.6832, 66.0752 16.6832 L 66.0752 16.6832 L 66.0752 16.6832 Z" fill="#010101" />
		<path d="M 46.5768 68.03920000000001 C 46.5768 68.03920000000001, 52.7216 59.528800000000004, 62.5896 55.23680000000001 L 61.42400000000001 59.150400000000005 C 61.42400000000001 59.150400000000005, 67.67200000000001 53.48000000000001, 80.8288 50.494400000000006 L 79.3968 53.09680000000001 C 79.3968 53.09680000000001, 86.364 50.460800000000006, 93.5872 50.47200000000001 L 93.0176 52.15920000000001 C 93.0176 52.15920000000001, 108.0928 52.542400000000015, 112.5392 55.38800000000001 C 112.5392 55.38800000000001, 115.4408 56.45600000000001, 114.97359999999999 59.52880000000002 C 114.97359999999999 59.52880000000002, 114.6224 64.10960000000001, 113.5272 68.17840000000001 C 113.5272 68.17840000000001, 113.41040000000001 71.2232, 108.5368 69.70320000000002 C 108.5368 69.70320000000002, 77.81920000000001 62.02000000000002, 52.616 77.81760000000003 C 52.616 77.81760000000003, 50.764 78.90960000000001, 48.6328 76.41840000000002 L 45.7 72.65920000000003 C 45.7008 72.6592, 44.0008 70.61040000000001, 46.5768 68.03920000000001 Z" fill="#ffffff" />
		<path d="M 93.5408 50.47200000000001 C 93.55680000000001 50.47200000000001, 93.572 50.47200000000001, 93.58800000000001 50.47200000000001 L 93.0184 52.1592 C 93.0184 52.1592, 108.0936 52.5424, 112.54000000000002 55.388000000000005 C 112.54000000000002 55.388000000000005, 115.44160000000002 56.455999999999996, 114.97440000000002 59.528800000000004 C 114.97440000000002 59.528800000000004, 114.62320000000003 64.1096, 113.52800000000002 68.1784 C 113.52800000000002 68.1784, 113.45200000000003 70.128, 110.92640000000002 70.128 C 110.29520000000002 70.128, 109.51120000000002 70.0072, 108.53760000000003 69.704 C 108.53760000000003 69.704, 101.06800000000003 67.836, 90.47680000000003 67.836 C 79.58640000000003 67.8344, 65.39360000000003 69.8088, 52.616800000000026 77.8184 C 52.616800000000026 77.8184, 52.212000000000025 78.05680000000001, 51.56480000000003 78.05680000000001 C 50.82560000000003 78.05680000000001, 49.76880000000003 77.7464, 48.63280000000003 76.4192 L 45.70000000000003 72.66000000000001 C 45.70000000000003 72.66000000000001, 44.00000000000003 70.61040000000001, 46.57600000000003 68.04 C 46.57600000000003 68.04, 52.72080000000003 59.529599999999995, 62.58880000000003 55.2376 L 61.42320000000004 59.151199999999996 C 61.42320000000004 59.151199999999996, 67.67120000000004 53.4808, 80.82800000000003 50.4952 L 79.39600000000003 53.09759999999999 C 79.3968 53.0968, 86.33440000000002 50.47200000000001, 93.5408 50.47200000000001 M 88.20400000000001 44.94 L 79.992 46.804 C 75.06400000000001 47.9224, 71.0192 49.407199999999996, 67.8376 50.8728 L 68.5392 48.5224 L 61.081599999999995 51.766400000000004 C 51.225599999999986 56.052800000000005, 44.84799999999999 64.0488, 43.691199999999995 65.5792 C 40.298399999999994 69.16159999999999, 41.231199999999994 73.1368, 42.74079999999999 75.0176 L 45.65039999999999 78.7456 L 45.70239999999999 78.8136 L 45.7576 78.87599999999999 C 47.852799999999995 81.3256, 50.0712 81.83919999999999, 51.56479999999999 81.83919999999999 C 53.081599999999995 81.83919999999999, 54.148799999999994 81.30799999999999, 54.53759999999999 81.07759999999999 L 54.582399999999986 81.05199999999999 L 54.62639999999999 81.024 C 67.02799999999999 73.24959999999999, 80.9664 71.6176, 90.4768 71.61919999999999 C 99.8328 71.61919999999999, 106.7048 73.1608, 107.5392 73.3552 C 108.77519999999998 73.73039999999999, 109.88479999999998 73.9112, 110.9264 73.9112 C 114.66319999999999 73.9112, 116.89119999999998 71.40719999999999, 117.25759999999998 68.86959999999999 C 118.28159999999998 64.9336, 118.66959999999997 60.748799999999996, 118.73679999999997 59.94799999999999 C 119.26479999999998 56.014399999999995, 116.85679999999998 53.139199999999995, 114.24239999999998 51.995999999999995 C 110.60479999999998 49.9, 103.29999999999998 49.0096, 98.19999999999999 48.633599999999994 L 98.85359999999997 46.69279999999999 L 93.59199999999998 46.68719999999999 L 93.54079999999999 46.68719999999999 C 91.23999999999998 46.68719999999999, 88.9776 46.926399999999994, 86.92399999999998 47.26639999999999 L 88.20400000000001 44.94 L 88.20400000000001 44.94 Z" fill="#010101" />
		<path d="M 48.3304 49.4512 C 48.3304 49.4512, 47.3608 42.312000000000005, 49.9608 35.4776 C 49.9608 35.4776, 44.1904 42.086400000000005, 44.275999999999996 49.76480000000001 L 48.3304 49.4512 Z"  />
	</g>
</svg>