<svg xmlns="http://www.w3.org/2000/svg" viewbox="0 0 128 128" width="128" height="128">
	<g data-id="skull" fill="black">
		<path d="M 105.73875 86.045 C 102.73874999999998 80.82749999999999, 105.84375 75.26124999999999, 105.97874999999999 75.0275 L 106.10999999999999 74.79375 L 106.29249999999999 74.6025 C 108.4125 72.35875, 108.31499999999998 71.05000000000001, 108.27124999999998 70.79750000000001 L 103.81625 62.947500000000005 C 99.99875 55.870000000000005, 103.96875 50.025000000000006, 104.14 49.7775 C 106.89750000000001 45.9675, 103.75999999999999 34.190000000000005, 101.14125 27.655 C 98.80250000000001 22.107500000000005, 90.98625 12.738750000000003, 65.07875 12.738750000000003 C 60.84249999999999 12.738750000000003, 58.00374999999999 13.031250000000004, 57.97624999999999 13.033750000000005 C 17.381249999999994 16.283750000000005, 16.72749999999999 42.376250000000006, 16.719999999999988 43.48500000000001 C 16.719999999999988 77.73, 43.789999999999985 80.39250000000001, 52.086249999999986 80.39250000000001 C 53.08249999999998 80.39250000000001, 53.663749999999986 80.34875000000001, 53.66999999999999 80.34875000000001 L 53.839999999999996 80.34125000000002 C 55.29875 80.34125000000002, 56.58 80.93125, 57.5425 82.04125000000002 C 60.36749999999999 85.30500000000002, 59.58 92.60000000000002, 59.32875 94.43625 C 59.348749999999995 97.6825, 60.00875 100.10625000000002, 61.1925 101.27125000000001 C 61.92625 101.995, 62.643750000000004 102.01875000000001, 62.7225 102.01875000000001 L 62.88125 101.99375000000002 L 62.81875 102.01250000000002 C 74.43875 102.01250000000002, 86.9425 108.03375000000003, 87.46875 108.29000000000002 L 87.58125 108.35125000000004 C 94.31125 112.11875000000003, 96.98 112.30875000000003, 97.44624999999999 112.30875000000003 L 97.4575 112.30750000000002 L 97.61749999999999 112.26000000000002 L 98.15125 112.26625000000001 C 102.44 112.26625000000001, 103.31875 110.15625000000001, 103.495 109.39875000000002 C 103.02625 104.37250000000003, 104.61250000000001 102.27750000000002, 104.94250000000001 101.90250000000003 L 105.04125 101.79625000000003 C 108.01125 98.82875000000004, 106.78125 96.12500000000003, 106.7675 96.09500000000004 L 106.09875000000001 94.68625000000004 L 107.20375000000001 93.58125000000004 C 108.07874999999999 92.70625000000001, 107.13625 88.82625000000002, 105.73875 86.045 Z" data-id="skull" fill="white" />
		<path d="M 87.28375 67.2775 C 87.28375 67.2775, 78.3425 70.43875, 78.3425 60.955000000000005 C 78.3425 60.955000000000005, 76.7175 51.743750000000006, 87.28375 49.035000000000004 C 87.28375 49.035000000000004, 92.43124999999999 47.13875, 96.49625 47.13875 C 96.49625 47.13875, 99.91375 47.12875, 99.475 53.91 C 99.475 53.911249999999995, 98.71000000000001 63.73125, 87.28375 67.2775 Z" />
		<path d="M 70.76125 54.99375 C 70.75750000000001 54.99375, 70.7525 54.99375, 70.74625 54.99375 C 69.9375 54.985, 69.28500000000001 54.334999999999994, 69.28500000000001 53.522499999999994 C 69.28500000000001 53.0575, 69.50500000000001 42.07375, 88.52625 39.26125 C 89.3375 39.14375, 90.085 39.70125, 90.20375 40.5075 C 90.32249999999999 41.315, 89.765 42.06625, 88.96 42.184999999999995 C 72.61124999999998 44.60124999999999, 72.24624999999999 53.176249999999996, 72.23874999999998 53.53999999999999 C 72.2225 54.345, 71.565 54.99375, 70.76125 54.99375 Z" />
		<path d="M 109.66250000000001 83.985 C 108.78875000000001 82.38250000000001, 108.69500000000001 80.6525, 109.1775 78.9075 C 109.32000000000001 78.39500000000001, 109.50375 77.89, 109.7325 77.40875000000001 C 110.4725 76.59625000000001, 111.14375000000001 75.7125, 111.67 74.745 C 112.61125 73.0125, 113.17499999999998 70.6975, 112.24625 68.83375000000001 C 111.54375 67.42875000000001, 110.6875 66.08250000000001, 109.9125 64.715 C 109.00125 63.108750000000015, 107.8975 61.50125000000001, 107.21249999999999 59.77875000000001 C 106.27374999999999 57.41875000000001, 106.34 54.37500000000001, 107.82874999999999 52.23125000000002 C 109.27874999999999 50.146250000000016, 109.60875 47.44875000000001, 109.60624999999999 44.97125000000001 C 109.60124999999998 39.516250000000014, 108.09874999999998 34.04375000000001, 106.32874999999999 28.920000000000012 C 105.76624999999999 27.29250000000001, 105.18249999999998 25.66750000000001, 104.36874999999999 24.14750000000001 C 102.98124999999999 21.55625000000001, 101.05999999999997 19.28125000000001, 98.80125 17.40250000000001 C 94.215 13.59250000000001, 88.45374999999999 11.423750000000009, 82.69624999999999 10.112500000000008 C 71.8175 7.638750000000009, 60.13375 7.722500000000009, 49.18374999999999 9.697500000000009 C 35.199999999999996 12.22000000000001, 21.154999999999994 19.018750000000008, 15.009999999999994 32.58500000000001 C 13.724999999999994 35.42250000000001, 12.811249999999994 38.45875, 12.431249999999993 41.556250000000006 C 12.167499999999993 43.705000000000005, 12.291249999999994 45.886250000000004, 12.443749999999994 48.03875000000001 C 12.861249999999993 53.97, 14.169999999999995 59.900000000000006, 16.871249999999993 65.23 C 20.856249999999996 73.09125, 27.756249999999994 78.82625000000002, 35.958749999999995 81.89375 C 41.052499999999995 83.79875, 46.56625 84.81125, 52.006249999999994 84.825 C 52.635 84.825, 53.26625 84.815, 53.8925 84.77625 C 54.418749999999996 84.80375000000001, 54.68875 85.865, 54.7925 86.25625 C 55.20625 87.8125, 55.216249999999995 89.49375, 55.161249999999995 91.09124999999999 C 55.10625 92.69125, 54.8475 94.24, 54.93749999999999 95.84499999999998 C 55.04124999999999 97.68749999999999, 55.33749999999999 99.54499999999997, 56.03124999999999 101.26249999999999 C 57.15125 104.04124999999999, 59.68249999999999 106.55999999999999, 62.871249999999996 106.44624999999999 C 66.82249999999999 106.455, 70.75999999999999 107.20875, 74.5575 108.25625 C 77.5375 109.08, 80.46625 110.10624999999999, 83.32000000000001 111.30125 C 85.61250000000001 112.25999999999999, 87.735 113.53125, 89.995 114.56375 C 92.13625 115.54375, 94.46000000000001 116.51624999999999, 96.83500000000001 116.715 C 99.61875 116.95, 102.7975 116.385, 105.0375 114.63749999999999 C 106.58250000000001 113.43124999999999, 107.7475 111.60749999999999, 107.9375 109.63125 C 108.00625 108.92625000000001, 107.82874999999999 108.185, 107.83749999999999 107.47 C 107.845 106.77999999999999, 107.905 106.0825, 108.0875 105.41499999999999 C 108.2175 104.94, 108.3775 104.73374999999999, 108.71375 104.36 C 109.435 103.55000000000001, 110.05625 102.64875, 110.52250000000001 101.67 C 111.19250000000001 100.25874999999999, 111.51375000000002 98.69500000000001, 111.43 97.13499999999999 C 111.40125 96.59875, 111.32750000000001 96.06625, 111.20625000000001 95.54499999999999 C 111.59625 94.82249999999999, 111.81 94.01624999999999, 111.9 93.20374999999999 C 112.21875 90.28125, 111.18750000000003 87.23499999999999, 109.96875000000001 84.61874999999999 C 109.87 84.40375, 109.76875 84.1925, 109.66250000000001 83.985 Z M 105.03999999999999 101.7975 C 103.58749999999999 103.26500000000001, 103.38625 105.91875, 103.41 107.83125 C 103.42374999999998 109.00125000000001, 103.61625000000001 109.77625, 102.81374999999998 110.69125 C 101.95374999999999 111.67125, 100.61625 112.06875, 99.35874999999999 112.20625 C 97.89 112.365, 96.67 112.3025, 95.25999999999999 111.86999999999999 C 92.455 111.00999999999999, 89.99499999999999 109.50125, 87.36874999999999 108.24249999999999 C 84.60625 106.92124999999999, 81.71624999999999 105.835, 78.80499999999999 104.895 C 73.65875 103.22874999999999, 68.25125 102.0125, 62.818749999999994 102.0125 C 62.839999999999996 102.0075, 62.86124999999999 102, 62.881249999999994 101.99375 C 61.62374999999999 102.28125, 60.58999999999999 100.65875, 60.18875 99.70375000000001 C 59.87875 98.96375, 59.68749999999999 98.17875000000001, 59.558749999999996 97.39125000000001 C 59.405 96.44500000000001, 59.21125 95.32125, 59.33875 94.36375000000001 C 59.676249999999996 91.85000000000002, 59.772499999999994 89.24250000000002, 59.38999999999999 86.72875000000002 C 58.91874999999999 83.62250000000002, 57.30999999999999 80.25625000000002, 53.671249999999986 80.34875000000001 C 52.32374999999998 80.51625000000001, 50.852499999999985 80.39500000000002, 49.49749999999999 80.30875000000002 C 42.422499999999985 79.87625000000003, 35.27124999999999 77.81500000000003, 29.51999999999999 73.56625000000003 C 20.36999999999999 66.80875000000002, 16.92874999999999 55.61375000000002, 16.72999999999999 44.63000000000002 C 16.659999999999993 40.702500000000015, 17.74374999999999 36.83750000000002, 19.49749999999999 33.33625000000002 C 23.36499999999999 25.617500000000017, 30.536249999999995 20.296250000000022, 38.45249999999999 17.20125000000002 C 44.74249999999999 14.74000000000002, 51.363749999999996 13.670000000000018, 58.05499999999999 13.027500000000018 C 65.08624999999999 12.347500000000018, 72.41499999999999 12.63500000000002, 79.3675 13.898750000000017 C 87.40625 15.363750000000017, 96.49875 18.74000000000002, 100.55375 26.411250000000017 C 101.66499999999999 28.515000000000015, 102.3625 30.863750000000017, 103.04375 33.131250000000016 C 104.03750000000001 36.43875000000002, 104.86375000000001 39.85125000000002, 105.13625000000002 43.30250000000001 C 105.31625000000003 45.56750000000001, 105.30500000000002 47.95000000000002, 104.04875000000001 49.916250000000005 C 102.80000000000001 51.87000000000001, 102.17375000000001 54.27875000000001, 102.16499999999999 56.58250000000001 C 102.15375 59.4275, 103.2225 61.900000000000006, 104.59375 64.31750000000001 C 105.57874999999999 66.05250000000001, 106.565 67.78750000000001, 107.54999999999998 69.52375 C 107.67249999999999 69.7425, 107.265 69.85875000000001, 107.09375 69.9775 C 106.61999999999999 70.30875, 106.165 70.66250000000001, 105.72625000000001 71.03375000000001 C 104.48125000000002 72.0925, 103.35499999999999 73.28500000000001, 102.30875 74.53625000000001 C 100.72375000000001 76.43375, 98.0475 79.17875000000001, 99.24125000000002 81.9025 C 99.60625000000002 82.73625000000001, 100.11375000000001 83.31125, 100.94750000000002 83.62625000000001 C 102.17875000000001 84.09, 103.55125000000001 84.05625, 104.71125 83.405 C 105.01750000000001 84.72750000000002, 105.69375000000001 85.8425, 106.2175 87.07750000000001 C 106.69 88.19000000000001, 107.07500000000002 89.34625, 107.32375000000002 90.53 C 107.4975 91.34875000000001, 107.68875000000001 92.32750000000001, 107.44000000000001 93.15 C 107.32500000000002 93.53000000000002, 107.24625000000002 93.60875000000001, 106.86500000000002 93.57750000000001 C 106.10500000000002 93.51375000000002, 105.34500000000003 93.44000000000001, 104.58625000000004 93.36625000000001 C 104.73125000000003 92.09625000000001, 105.59250000000004 89.22, 103.59750000000004 88.99250000000002 C 101.59625000000004 88.75375000000003, 101.79250000000003 91.79250000000002, 101.64750000000004 93.06125000000002 C 101.34875000000002 93.02625, 98.49625000000003 92.71375, 98.50375000000003 92.63375000000002 C 98.55250000000004 92.20875000000001, 98.60125000000004 91.78125000000001, 98.65000000000003 91.35625000000002 C 98.75375000000004 90.44, 99.22250000000004 88.89750000000001, 98.58500000000004 88.09500000000001 C 98.03875000000004 87.41000000000001, 96.97750000000002 87.35500000000002, 96.36875000000003 87.98625000000001 C 96.01000000000002 88.35750000000002, 95.96625000000003 88.81875000000001, 95.91125000000004 89.29875000000001 C 95.80000000000004 90.27875000000002, 95.68875000000004 91.2575, 95.57750000000004 92.23875000000001 C 94.49500000000003 92.07000000000001, 93.41375000000005 91.8875, 92.33500000000005 91.69250000000002 C 92.23375000000004 91.53625000000002, 92.42500000000005 90.82750000000003, 92.44375000000005 90.64875000000002 C 92.53375000000005 89.78750000000004, 92.93875000000006 88.41250000000002, 92.56125000000004 87.57625000000003 C 92.19750000000005 86.77500000000002, 91.18750000000004 86.47250000000003, 90.44000000000004 86.93375000000003 C 89.92625000000004 87.25250000000003, 89.77500000000005 87.76125000000005, 89.71750000000003 88.32000000000002 C 89.62000000000003 89.26000000000002, 89.52125000000004 90.19875000000002, 89.42375000000004 91.14125000000003 C 88.35625000000005 90.92750000000002, 87.29000000000005 90.69625000000003, 86.22875000000005 90.44625000000003 C 86.13875000000004 90.27750000000003, 86.31625000000003 89.67250000000004, 86.33875000000003 89.48500000000003 C 86.43500000000003 88.64000000000003, 86.83875000000003 87.31125000000003, 86.47625000000004 86.48875000000002 C 85.81000000000003 84.98750000000003, 83.80625000000003 85.59750000000003, 83.64000000000003 87.06250000000003 C 83.53875000000002 87.94375000000002, 83.44000000000003 88.82250000000002, 83.34000000000003 89.70250000000001 C 81.67875000000004 89.23500000000003, 80.30250000000002 88.85000000000002, 79.56375000000003 87.14250000000001 C 78.88500000000003 85.57250000000002, 78.85000000000004 83.73625000000003, 78.95125000000003 82.05875000000003 C 79.01500000000003 80.96750000000002, 79.16750000000003 79.88250000000002, 79.38625000000003 78.81250000000003 C 79.52750000000003 78.11375000000002, 79.55250000000004 77.47625000000002, 79.25250000000003 76.81375000000003 C 78.69750000000002 75.58625000000004, 77.46125000000004 74.75500000000002, 76.32125000000003 74.12625000000003 C 73.17125000000003 72.39000000000003, 69.52750000000003 71.40750000000003, 66.05000000000003 70.60625000000003 C 63.805000000000035 70.09000000000003, 61.53375000000003 69.67625000000002, 59.260000000000026 69.30625000000003 C 57.371250000000025 69.00000000000003, 54.91000000000003 69.13875000000003, 53.648750000000035 67.44250000000002 C 52.642500000000034 66.09250000000003, 52.45875000000004 63.963750000000026, 53.49375000000003 62.57500000000003 C 54.35500000000003 61.42000000000003, 55.83500000000002 60.925000000000026, 57.173750000000034 60.57500000000003 C 58.275000000000034 60.28875000000003, 59.970000000000034 60.18000000000002, 59.757500000000036 58.61000000000003 C 59.50000000000003 56.71375000000002, 57.22375000000003 57.39250000000003, 56.00875000000003 57.753750000000025 C 54.081250000000026 58.325000000000024, 52.16500000000003 59.32375000000002, 51.00125000000003 61.01625000000002 C 49.92250000000003 62.58750000000002, 49.63375000000003 64.70000000000002, 50.03750000000003 66.54750000000001 C 50.42875000000003 68.33750000000002, 51.58375000000003 69.92625000000002, 53.11000000000003 70.92500000000003 C 54.932500000000026 72.11500000000002, 57.16750000000003 72.20500000000003, 59.22500000000003 72.72250000000003 C 62.21625000000003 73.47000000000003, 65.17000000000003 74.86125000000003, 67.12375000000003 77.32375000000002 C 68.08750000000003 78.53750000000002, 68.74875000000003 79.97625000000002, 69.04250000000003 81.50000000000003 C 69.36750000000002 83.17500000000003, 69.07500000000003 84.90750000000003, 69.52625000000003 86.56625000000003 C 71.06500000000003 92.23750000000003, 77.76250000000003 93.80375000000002, 82.83125000000004 94.18750000000001 C 82.74750000000004 94.92375000000001, 82.66375000000004 95.66125000000001, 82.58125000000004 96.4 C 82.43500000000003 97.68, 83.84500000000003 98.68625, 84.94375000000004 97.83250000000001 C 85.66250000000004 97.27375, 85.58750000000003 96.0975, 85.68000000000004 95.28125000000001 C 85.70375000000004 95.08250000000001, 85.72500000000004 94.88250000000001, 85.74875000000004 94.685 C 85.78000000000004 94.40875, 85.70500000000004 94.43125, 86.04875000000004 94.46125 C 87.05000000000004 94.5575, 88.04875000000003 94.6525, 89.04875000000004 94.7475 C 88.97375000000004 95.47, 88.89750000000005 96.19125, 88.82250000000005 96.91499999999999 C 88.68875000000004 98.1925, 90.10250000000005 99.18125, 91.19250000000005 98.32625 C 91.91250000000004 97.76250000000002, 91.82750000000004 96.57624999999999, 91.91375000000005 95.7525 C 91.95375000000004 95.36125, 91.82375000000005 95.01125, 92.25875000000003 95.05375000000001 C 93.24875000000004 95.14750000000001, 94.23625000000003 95.24125000000001, 95.22500000000005 95.3375 C 95.12625000000006 96.22125, 94.96125000000005 97.12125000000002, 94.92125000000004 98.01250000000002 C 94.69500000000005 100.00750000000002, 97.65000000000003 100.165, 97.87500000000006 98.19375000000001 C 97.94125000000005 97.59875000000001, 98.00875000000005 97.00750000000001, 98.07625000000004 96.41250000000001 C 98.10125000000005 96.20000000000002, 98.02750000000005 95.60625000000002, 98.29375000000006 95.63000000000001 C 99.30500000000006 95.725, 100.31375000000006 95.82375, 101.32250000000006 95.91875 C 101.22500000000005 96.78375, 100.80500000000006 98.14500000000001, 101.28875000000006 98.9425 C 101.78000000000006 99.7525, 102.93500000000006 99.88999999999999, 103.60250000000006 99.21624999999999 C 104.04500000000006 98.77125, 104.04375000000005 98.14625, 104.11000000000007 97.56124999999999 C 104.14625000000007 97.23749999999998, 104.18375000000006 96.91499999999999, 104.22000000000006 96.59125 C 104.26125000000006 96.24625, 104.16125000000007 96.18875, 104.55625000000006 96.22874999999999 C 105.23500000000007 96.29249999999999, 105.91500000000008 96.35749999999999, 106.59500000000007 96.42375 C 106.99000000000007 96.46, 106.95000000000007 96.64500000000001, 106.99625000000006 97.00625 C 107.22625000000001 98.82875, 106.29625000000001 100.54125, 105.03999999999999 101.7975 Z" />
	</g>
</svg>