<svg xmlns="http://www.w3.org/2000/svg" viewbox="0 0 128 128" width="128" height="128">
	<g class="hat" data-id="top_hat">
		<circle cx="48.428323333334" cy="72.25" r="23.5" fill="white" stroke="black" stroke-width="4.859000000000002" />
		<path d="M 27.341 47.38 C 30.152 47.918, 39.132000000000005 49.456, 50.056 49.456 L 50.058 49.456 C 57.638 49.456, 64.659 48.719, 70.964 47.28 C 73.41 31.813000000000002, 76.898 16.633000000000003, 78.067 11.535000000000004 C 78.21799999999999 10.876000000000003, 78.33099999999999 10.389000000000003, 78.39599999999999 10.097000000000003 C 77.198 8.593000000000004, 67.80399999999999 5.297000000000003, 49.639999999999986 5.250000000000003 L 49.257 5.25 C 31.429999999999996 5.25, 21.604 8.507, 20.275 9.957 C 20.334 10.228000000000002, 20.429 10.654, 20.555999999999997 11.222000000000001 C 21.643 16.104, 24.886 30.669, 27.341 47.38 Z" data-id="hat" fill="white" />
		<path d="M 83.578 52.753 C 80.636 51.907000000000004, 77.171 51.183, 73.268 50.59 C 72.853 53.153000000000006, 72.174 57.577000000000005, 72.113 59.495000000000005 C 72.099 59.919000000000004, 71.893 60.31400000000001, 71.551 60.56700000000001 C 71.06700000000001 60.925000000000004, 66.334 64.075, 49.954 64.075 C 33.397999999999996 64.075, 27.319 60.881, 27.068 60.745000000000005 C 26.683 60.535000000000004, 26.42 60.158, 26.356 59.725 L 25.035 50.693 C 16.27 52.12, 9.877 54.33, 7.394 56.814 C 6.601 57.611, 6.2010000000000005 58.435, 6.205 59.266 C 6.216 61.726, 9.845 64.12, 16.422 66.006 C 24.782 68.405, 37.038 69.8, 50.048 69.834 L 50.558 69.834 C 70.68 69.83500000000001, 87.971 66.59, 92.606 61.944 C 93.411 61.136, 93.79799999999999 60.334, 93.794 59.494 C 93.783 57.033, 90.155 54.642, 83.578 52.753 Z" data-id="hat" fill="white" />
		<path d="M 50.056 52.231 C 39.827999999999996 52.231, 31.433999999999997 50.951, 27.781 50.289 L 28.991999999999997 58.566 C 30.830999999999996 59.295, 37.056999999999995 61.298, 49.95399999999999 61.298 C 62.51599999999999 61.298, 67.815 59.355000000000004, 69.38399999999999 58.608000000000004 C 69.55799999999999 56.34, 70.13599999999998 52.566, 70.51399999999998 50.232000000000006 C 64.28699999999998 51.559000000000005, 57.41799999999998 52.23100000000001, 50.05799999999998 52.23100000000001 L 50.056 52.23100000000001 Z" data-id="hate" fill="white" />
		<path d="M 84.535 49.418 C 81.627 48.583, 78.252 47.859, 74.47999999999999 47.266 C 76.90199999999999 32.111, 80.297 17.319, 81.44899999999998 12.311999999999998 C 81.90699999999998 10.311999999999998, 81.90699999999998 10.311999999999998, 81.90699999999998 10.024999999999999 C 81.90699999999998 6.685999999999998, 76.43599999999998 5.000999999999999, 72.32199999999997 4.023999999999998 C 66.33 2.6, 58.277 1.804, 49.647 1.781 L 49.257 1.78 C 40.724999999999994 1.78, 32.666 2.548, 26.563 3.9400000000000004 C 17.775 5.946, 16.758 8.271, 16.758 9.845 C 16.758 10.13, 16.758 10.13, 17.169 11.975000000000001 C 18.238 16.777, 21.406 31.003, 23.834 47.373000000000005 C 16.874 48.548, 8.631 50.665000000000006, 4.939 54.362 C 3.488 55.817, 2.727 57.519000000000005, 2.735 59.283 C 2.754 63.598, 6.917999999999999 66.888, 15.465 69.34100000000001 C 24.119 71.82600000000001, 36.722 73.269, 50.040000000000006 73.304 L 50.55800000000001 73.305 C 72.194 73.305, 89.66400000000002 69.807, 95.06200000000001 64.39500000000001 C 96.513 62.93800000000001, 97.275 61.23700000000001, 97.26400000000001 59.47300000000001 C 97.246 55.161, 93.083 51.87, 84.535 49.418 Z M 20.556 11.222 C 20.429000000000002 10.655, 20.334 10.228, 20.275000000000002 9.956999999999999 C 21.604 8.507, 31.43 5.25, 49.257 5.25 L 49.638999999999996 5.251 C 67.804 5.298, 77.197 8.594000000000001, 78.395 10.098 C 78.33 10.39, 78.217 10.876000000000001, 78.066 11.536000000000001 C 76.897 16.634, 73.41 31.814, 70.96300000000001 47.281 C 64.65800000000002 48.719, 57.63700000000001 49.457, 50.05700000000001 49.457 L 50.05500000000001 49.457 C 39.13000000000001 49.457, 30.151000000000007 47.919000000000004, 27.340000000000007 47.381 C 24.886 30.669, 21.643 16.104, 20.556 11.222 Z M 92.606 61.945 C 87.97 66.591, 70.679 69.836, 50.55799999999999 69.835 L 50.047999999999995 69.835 C 37.038 69.80099999999999, 24.781999999999996 68.40599999999999, 16.421999999999997 66.00699999999999 C 9.843999999999998 64.11999999999999, 6.214999999999996 61.72699999999999, 6.2049999999999965 59.26699999999999 C 6.200999999999997 58.435999999999986, 6.600999999999996 57.61199999999999, 7.393999999999997 56.81499999999999 C 9.876999999999997 54.33099999999999, 16.269999999999996 52.12099999999999, 25.034999999999997 50.69399999999999 L 26.355999999999998 59.725999999999985 C 26.418999999999997 60.158999999999985, 26.683 60.53599999999999, 27.067999999999998 60.74599999999999 C 27.317999999999998 60.88199999999999, 33.397999999999996 64.076, 49.95399999999999 64.076 C 66.33399999999999 64.076, 71.067 60.92699999999999, 71.55099999999999 60.56799999999999 C 71.89399999999999 60.31499999999999, 72.1 59.91999999999999, 72.11299999999999 59.49599999999999 C 72.17499999999998 57.57799999999999, 72.85299999999998 53.15399999999999, 73.26799999999999 50.59099999999999 C 77.16999999999999 51.18399999999998, 80.63499999999999 51.90799999999999, 83.57799999999999 52.753999999999984 C 90.15499999999999 54.64299999999999, 93.78299999999999 57.033999999999985, 93.79399999999998 59.49599999999998 C 93.799 60.335, 93.411 61.138, 92.606 61.945 Z" />
		<path d="M 27.781 50.289 L 28.991999999999997 58.566 C 30.830999999999996 59.295, 37.056999999999995 61.298, 49.95399999999999 61.298 C 62.51599999999999 61.298, 67.815 59.355000000000004, 69.38399999999999 58.608000000000004 C 69.55799999999999 56.34, 70.13599999999998 52.566, 70.51399999999998 50.232000000000006 C 64.28699999999998 51.559000000000005, 57.41799999999998 52.23100000000001, 50.05799999999998 52.23100000000001 L 50.055999999999976 52.23100000000001 C 39.829 52.231, 31.434 50.951, 27.781 50.289 Z" data-id="band" fill="black" />
	</g>
</svg>